<svg width="60" height="76" viewBox="0 0 60 76" fill="none" xmlns="http://www.w3.org/2000/svg">
<path d="M0 0H60V76H0V0Z" fill="#F2F0F0"/>
<path d="M8.0918 69L6.84766 65.8213H2.8418L1.61133 69H0.435547L4.38672 58.9648H5.36426L9.29492 69H8.0918ZM6.48535 64.7754L5.32324 61.6787C5.17285 61.2868 5.0179 60.806 4.8584 60.2363C4.75814 60.6738 4.61458 61.1546 4.42773 61.6787L3.25195 64.7754H6.48535Z" fill="#3B4549"/>
<path d="M11.6328 69H10.498V58.3633H11.6328V69Z" fill="#3B4549"/>
<path d="M16.459 68.2002C16.6595 68.2002 16.8532 68.1865 17.04 68.1592C17.2269 68.1273 17.375 68.0954 17.4844 68.0635V68.9316C17.3613 68.9909 17.179 69.0387 16.9375 69.0752C16.7005 69.1162 16.4863 69.1367 16.2949 69.1367C14.8457 69.1367 14.1211 68.3734 14.1211 66.8467V62.3896H13.0479V61.8428L14.1211 61.3711L14.5996 59.7715H15.2559V61.5078H17.4297V62.3896H15.2559V66.7988C15.2559 67.25 15.363 67.5964 15.5771 67.8379C15.7913 68.0794 16.0853 68.2002 16.459 68.2002Z" fill="#3B4549"/>
<path d="M22.1533 69.1367C21.0459 69.1367 20.1709 68.7995 19.5283 68.125C18.8903 67.4505 18.5713 66.514 18.5713 65.3154C18.5713 64.1077 18.8675 63.1484 19.46 62.4375C20.057 61.7266 20.8568 61.3711 21.8594 61.3711C22.7982 61.3711 23.541 61.681 24.0879 62.3008C24.6348 62.916 24.9082 63.7295 24.9082 64.7412V65.459H19.7471C19.7699 66.3385 19.9909 67.0062 20.4102 67.4619C20.834 67.9176 21.4287 68.1455 22.1943 68.1455C23.001 68.1455 23.7985 67.9769 24.5869 67.6396V68.6514C24.1859 68.8245 23.8053 68.9476 23.4453 69.0205C23.0898 69.098 22.6592 69.1367 22.1533 69.1367ZM21.8457 62.3213C21.2441 62.3213 20.7633 62.5173 20.4033 62.9092C20.0479 63.3011 19.8382 63.8434 19.7744 64.5361H23.6914C23.6914 63.8206 23.5319 63.2738 23.2129 62.8955C22.8939 62.5127 22.4382 62.3213 21.8457 62.3213Z" fill="#3B4549"/>
<path d="M30.2676 61.3711C30.6003 61.3711 30.8988 61.3984 31.1631 61.4531L31.0059 62.5059C30.696 62.4375 30.4225 62.4033 30.1855 62.4033C29.5794 62.4033 29.0599 62.6494 28.627 63.1416C28.1986 63.6338 27.9844 64.2467 27.9844 64.9805V69H26.8496V61.5078H27.7861L27.916 62.8955H27.9707C28.2487 62.4079 28.5837 62.0319 28.9756 61.7676C29.3675 61.5033 29.7982 61.3711 30.2676 61.3711Z" fill="#3B4549"/>
<path d="M37.6914 69V64.1533C37.6914 63.5426 37.5524 63.0869 37.2744 62.7861C36.9964 62.4854 36.5612 62.335 35.9688 62.335C35.1849 62.335 34.6107 62.5469 34.2461 62.9707C33.8815 63.3945 33.6992 64.0941 33.6992 65.0693V69H32.5645V61.5078H33.4873L33.6719 62.5332H33.7266C33.959 62.1641 34.2848 61.8792 34.7041 61.6787C35.1234 61.4736 35.5905 61.3711 36.1055 61.3711C37.0078 61.3711 37.6868 61.5898 38.1426 62.0273C38.5983 62.4603 38.8262 63.1553 38.8262 64.1123V69H37.6914Z" fill="#3B4549"/>
<path d="M45.7715 69L45.5459 67.9336H45.4912C45.1175 68.403 44.7438 68.722 44.3701 68.8906C44.001 69.0547 43.5384 69.1367 42.9824 69.1367C42.2396 69.1367 41.6562 68.9453 41.2324 68.5625C40.8132 68.1797 40.6035 67.6351 40.6035 66.9287C40.6035 65.4157 41.8135 64.6227 44.2334 64.5498L45.5049 64.5088V64.0439C45.5049 63.4561 45.3773 63.0231 45.1221 62.7451C44.8714 62.4626 44.4681 62.3213 43.9121 62.3213C43.2878 62.3213 42.5814 62.5127 41.793 62.8955L41.4443 62.0273C41.8135 61.8268 42.2168 61.6696 42.6543 61.5557C43.0964 61.4417 43.5384 61.3848 43.9805 61.3848C44.8737 61.3848 45.5345 61.583 45.9629 61.9795C46.3958 62.376 46.6123 63.0117 46.6123 63.8867V69H45.7715ZM43.208 68.2002C43.9144 68.2002 44.4681 68.0065 44.8691 67.6191C45.2747 67.2318 45.4775 66.6895 45.4775 65.9922V65.3154L44.3428 65.3633C43.4404 65.3952 42.7887 65.5365 42.3877 65.7871C41.9912 66.0332 41.793 66.4183 41.793 66.9424C41.793 67.3525 41.916 67.6647 42.1621 67.8789C42.4128 68.0931 42.7614 68.2002 43.208 68.2002Z" fill="#3B4549"/>
<path d="M51.377 68.2002C51.5775 68.2002 51.7712 68.1865 51.958 68.1592C52.1449 68.1273 52.293 68.0954 52.4023 68.0635V68.9316C52.2793 68.9909 52.097 69.0387 51.8555 69.0752C51.6185 69.1162 51.4043 69.1367 51.2129 69.1367C49.7637 69.1367 49.0391 68.3734 49.0391 66.8467V62.3896H47.9658V61.8428L49.0391 61.3711L49.5176 59.7715H50.1738V61.5078H52.3477V62.3896H50.1738V66.7988C50.1738 67.25 50.2809 67.5964 50.4951 67.8379C50.7093 68.0794 51.0033 68.2002 51.377 68.2002Z" fill="#3B4549"/>
<path d="M57.0713 69.1367C55.9639 69.1367 55.0889 68.7995 54.4463 68.125C53.8083 67.4505 53.4893 66.514 53.4893 65.3154C53.4893 64.1077 53.7855 63.1484 54.3779 62.4375C54.9749 61.7266 55.7747 61.3711 56.7773 61.3711C57.7161 61.3711 58.459 61.681 59.0059 62.3008C59.5527 62.916 59.8262 63.7295 59.8262 64.7412V65.459H54.665C54.6878 66.3385 54.9089 67.0062 55.3281 67.4619C55.752 67.9176 56.3467 68.1455 57.1123 68.1455C57.9189 68.1455 58.7165 67.9769 59.5049 67.6396V68.6514C59.1038 68.8245 58.7233 68.9476 58.3633 69.0205C58.0078 69.098 57.5771 69.1367 57.0713 69.1367ZM56.7637 62.3213C56.1621 62.3213 55.6813 62.5173 55.3213 62.9092C54.9658 63.3011 54.7562 63.8434 54.6924 64.5361H58.6094C58.6094 63.8206 58.4499 63.2738 58.1309 62.8955C57.8118 62.5127 57.3561 62.3213 56.7637 62.3213Z" fill="#3B4549"/>
<g clip-path="url(#clip0)">
<path d="M25.3495 27.3399C23.3218 28.717 21.9149 31.3438 20.9065 33.5747C20.1371 35.1935 19.6687 36.9388 19.524 38.7252C19.253 43.5776 20.9364 46.9227 16 51.4009V52.0135H21.0773V51.0702C21.0773 51.0702 18.9575 50.0347 19.7219 48.8094C20.4864 47.5841 21.7523 45.7733 20.9906 40.5171C19.9849 33.591 28.8193 25.8788 30.3238 23.9812C31.8283 22.0837 34.3737 18.1856 33.1973 15.1712C33.1864 15.1549 30.313 23.965 25.3495 27.3399Z" fill="#C47D3D"/>
<path d="M22.4354 40.5957C23.1062 40.4573 23.7983 40.458 24.4689 40.5979C25.1394 40.7378 25.774 41.0138 26.3335 41.409C26.9379 41.8465 27.4075 42.4447 27.6889 43.1357C28.5672 45.3342 29.0064 46.3426 30.6329 47.2209C30.6329 47.2209 27.6022 46.9146 25.9323 44.7188C24.2625 42.5231 22.4625 43.1357 22.4625 43.1357C22.4625 43.1357 20.115 43.0056 20.3671 41.9945C20.5541 41.287 21.2508 40.818 22.4354 40.5957Z" fill="#3B4549"/>
<path d="M27.5262 26.8845C27.5262 26.8845 31.6548 27.4999 33.3219 29.9586C34.9891 32.4173 36.6616 33.2983 37.2336 33.4284C37.2336 33.4284 35.3875 30.3977 35.2547 29.1236C35.1219 27.8496 32.1373 24.1168 27.5262 26.8845Z" fill="#3B4549"/>
<path d="M29.722 23.1517L28.2718 21.1729C28.2718 21.1729 27.5697 19.2753 25.5474 19.0205C23.5252 18.7657 20.9797 22.8427 20.9797 22.8427C20.9797 22.8427 23.8342 22.5716 25.3495 21.3491C26.8649 20.1265 27.0411 22.5364 29.722 23.1517Z" fill="#3B4549"/>
<path d="M32.5765 19.5925C32.5765 19.5925 35.6506 16.2555 37.2337 16.0685C38.8168 15.8814 41.3622 17.966 41.9776 18.7033C42.5929 19.4407 44.3929 18.6166 44.3929 18.6166C44.3929 18.6166 43.276 20.3542 38.4834 19.4054C33.6907 18.4567 32.5765 19.5925 32.5765 19.5925Z" fill="#3B4549"/>
<path d="M33.555 16.6187C33.555 16.6187 39.7357 14.4149 39.6055 4C39.6055 4 35.2412 6.89513 33.555 9.92037C31.8689 12.9456 33.555 16.6187 33.555 16.6187Z" fill="#3B4549"/>
<path d="M33.5552 16.6187C33.5552 16.6187 30.2263 16.4046 30.0989 13.4634C29.9715 10.5222 27.6456 10.0939 27.6456 10.0939C27.6456 10.0939 33.9862 9.83361 33.5552 16.6187Z" fill="#3B4549"/>
</g>
<defs>
<clipPath id="clip0">
<path d="M6 4H54V52H6V4Z" fill="white"/>
</clipPath>
</defs>
</svg>
