<svg width="60" height="76" viewBox="0 0 60 76" fill="none" xmlns="http://www.w3.org/2000/svg">
<path d="M0 0H60V76H0V0Z" fill="#F2F0F0"/>
<path d="M14.4287 59.0059H17.252C18.5781 59.0059 19.5374 59.2041 20.1299 59.6006C20.7223 59.9971 21.0186 60.6237 21.0186 61.4805C21.0186 62.0729 20.8522 62.5628 20.5195 62.9502C20.1914 63.333 19.7106 63.5814 19.0771 63.6953V63.7637C20.5947 64.0234 21.3535 64.821 21.3535 66.1562C21.3535 67.0495 21.0505 67.7467 20.4443 68.248C19.8428 68.7493 18.9997 69 17.915 69H14.4287V59.0059ZM15.5908 63.2852H17.5049C18.3252 63.2852 18.9154 63.1576 19.2754 62.9023C19.6354 62.6426 19.8154 62.2074 19.8154 61.5967C19.8154 61.0361 19.6149 60.6328 19.2139 60.3867C18.8128 60.1361 18.1748 60.0107 17.2998 60.0107H15.5908V63.2852ZM15.5908 64.2695V68.0088H17.6758C18.4824 68.0088 19.0885 67.8538 19.4941 67.5439C19.9043 67.2295 20.1094 66.7396 20.1094 66.0742C20.1094 65.4544 19.8997 64.9987 19.4805 64.707C19.0658 64.4154 18.4323 64.2695 17.5801 64.2695H15.5908Z" fill="#3B4549"/>
<path d="M27.9434 69L27.7178 67.9336H27.6631C27.2894 68.403 26.9157 68.722 26.542 68.8906C26.1729 69.0547 25.7103 69.1367 25.1543 69.1367C24.4115 69.1367 23.8281 68.9453 23.4043 68.5625C22.985 68.1797 22.7754 67.6351 22.7754 66.9287C22.7754 65.4157 23.9854 64.6227 26.4053 64.5498L27.6768 64.5088V64.0439C27.6768 63.4561 27.5492 63.0231 27.2939 62.7451C27.0433 62.4626 26.64 62.3213 26.084 62.3213C25.4596 62.3213 24.7533 62.5127 23.9648 62.8955L23.6162 62.0273C23.9854 61.8268 24.3887 61.6696 24.8262 61.5557C25.2682 61.4417 25.7103 61.3848 26.1523 61.3848C27.0456 61.3848 27.7064 61.583 28.1348 61.9795C28.5677 62.376 28.7842 63.0117 28.7842 63.8867V69H27.9434ZM25.3799 68.2002C26.0863 68.2002 26.64 68.0065 27.041 67.6191C27.4466 67.2318 27.6494 66.6895 27.6494 65.9922V65.3154L26.5146 65.3633C25.6123 65.3952 24.9606 65.5365 24.5596 65.7871C24.1631 66.0332 23.9648 66.4183 23.9648 66.9424C23.9648 67.3525 24.0879 67.6647 24.334 67.8789C24.5846 68.0931 24.9333 68.2002 25.3799 68.2002Z" fill="#3B4549"/>
<path d="M35.9619 66.9561C35.9619 67.6533 35.7021 68.1911 35.1826 68.5693C34.6631 68.9476 33.9339 69.1367 32.9951 69.1367C32.0016 69.1367 31.2269 68.9795 30.6709 68.665V67.6123C31.0309 67.7946 31.416 67.9382 31.8262 68.043C32.2409 68.1478 32.6396 68.2002 33.0225 68.2002C33.6149 68.2002 34.0706 68.1068 34.3896 67.9199C34.7087 67.7285 34.8682 67.4391 34.8682 67.0518C34.8682 66.7601 34.7406 66.5117 34.4854 66.3066C34.2347 66.097 33.7425 65.8509 33.0088 65.5684C32.3115 65.3086 31.8148 65.083 31.5186 64.8916C31.2269 64.6956 31.0081 64.4746 30.8623 64.2285C30.721 63.9824 30.6504 63.6885 30.6504 63.3467C30.6504 62.736 30.8988 62.2552 31.3955 61.9043C31.8923 61.5488 32.5736 61.3711 33.4395 61.3711C34.2461 61.3711 35.0345 61.5352 35.8047 61.8633L35.4014 62.7861C34.6494 62.4762 33.9681 62.3213 33.3574 62.3213C32.8197 62.3213 32.4141 62.4056 32.1406 62.5742C31.8672 62.7428 31.7305 62.9753 31.7305 63.2715C31.7305 63.472 31.7806 63.6429 31.8809 63.7842C31.9857 63.9255 32.152 64.0599 32.3799 64.1875C32.6077 64.3151 33.0452 64.4997 33.6924 64.7412C34.5811 65.0648 35.1803 65.3906 35.4902 65.7188C35.8047 66.0469 35.9619 66.4593 35.9619 66.9561Z" fill="#3B4549"/>
<path d="M42.4219 69L42.1963 67.9336H42.1416C41.7679 68.403 41.3942 68.722 41.0205 68.8906C40.6514 69.0547 40.1888 69.1367 39.6328 69.1367C38.89 69.1367 38.3066 68.9453 37.8828 68.5625C37.4635 68.1797 37.2539 67.6351 37.2539 66.9287C37.2539 65.4157 38.4639 64.6227 40.8838 64.5498L42.1553 64.5088V64.0439C42.1553 63.4561 42.0277 63.0231 41.7725 62.7451C41.5218 62.4626 41.1185 62.3213 40.5625 62.3213C39.9382 62.3213 39.2318 62.5127 38.4434 62.8955L38.0947 62.0273C38.4639 61.8268 38.8672 61.6696 39.3047 61.5557C39.7467 61.4417 40.1888 61.3848 40.6309 61.3848C41.5241 61.3848 42.1849 61.583 42.6133 61.9795C43.0462 62.376 43.2627 63.0117 43.2627 63.8867V69H42.4219ZM39.8584 68.2002C40.5648 68.2002 41.1185 68.0065 41.5195 67.6191C41.9251 67.2318 42.1279 66.6895 42.1279 65.9922V65.3154L40.9932 65.3633C40.0908 65.3952 39.4391 65.5365 39.0381 65.7871C38.6416 66.0332 38.4434 66.4183 38.4434 66.9424C38.4434 67.3525 38.5664 67.6647 38.8125 67.8789C39.0632 68.0931 39.4118 68.2002 39.8584 68.2002Z" fill="#3B4549"/>
<path d="M46.7422 69H45.6074V58.3633H46.7422V69Z" fill="#3B4549"/>
<path d="M50.4661 16.3293C50.4661 16.3293 50.7115 19.6886 41.2833 18.3028C31.8552 16.917 30.9008 23.8783 30.9008 23.8783L31.4561 28.653C31.4561 28.653 37.8162 26.4962 42.0706 23.304C43.3695 22.3388 44.7742 21.5247 46.2576 20.8776C48.8781 19.7398 52.3669 17.8067 50.4661 16.3293Z" fill="#3B4549"/>
<path d="M30.9007 30.1197C30.9007 30.1197 28.9271 21.6756 21.4644 21.5758C14.0017 21.4761 11.4943 23.0101 7 27.5584C7 27.5584 16.3338 26.817 16.7786 30.3731C17.2235 33.9292 30.6553 33.9723 30.9007 30.1197Z" fill="#3B4549"/>
<path d="M29.0755 31.7508C29.0755 31.7508 23.7912 25.8194 16.7787 30.3677C9.76623 34.916 8.23486 34.951 8.23486 34.951C8.23486 34.951 20.8767 39.6907 27.2961 37.8735C33.7154 36.0564 29.0755 31.7508 29.0755 31.7508Z" fill="#3B4549"/>
<path d="M52.4315 23.854C52.4315 23.854 41.8495 43.2334 32.6936 32.4113C23.5378 21.5893 52.4315 23.854 52.4315 23.854Z" fill="#3B4549"/>
<path d="M30.6985 33.8268C30.5741 33.8269 30.4501 33.8124 30.3291 33.7836C30.1221 33.7354 29.9267 33.6468 29.7539 33.523C29.5812 33.3992 29.4346 33.2425 29.3224 33.062C29.2102 32.8815 29.1347 32.6806 29.1002 32.4709C29.0657 32.2612 29.0729 32.0467 29.1213 31.8398C29.474 30.1947 29.6949 28.5241 29.7818 26.8439C29.9409 23.6087 29.4475 21.1499 28.3987 19.9393C24.4867 15.4261 27.1019 9.12538 27.2205 8.86117C27.4102 8.50261 27.7277 8.22841 28.1101 8.09291C28.4924 7.95742 28.9117 7.97051 29.2849 8.12961C29.658 8.2887 29.9578 8.58218 30.1247 8.95188C30.2916 9.32157 30.3136 9.7405 30.1862 10.1256C30.1647 10.1715 28.2558 14.8384 30.836 17.8202C34.5673 22.1339 32.5102 31.5189 32.2649 32.5758C32.1825 32.93 31.983 33.2462 31.6988 33.4732C31.4146 33.7001 31.0622 33.8247 30.6985 33.8268Z" fill="#C47D3D"/>
<path d="M32.1192 33.1608C32.1192 33.1608 32.3053 29.4457 35.9369 30.3219C39.5685 31.1981 42.5449 32.6028 47.6189 45.215C47.6189 45.215 25.7808 44.5167 28.3043 35.0211C28.2989 35.0211 29.2345 32.228 32.1192 33.1608Z" fill="#3B4549"/>
<path d="M28.1723 31.1631C28.1723 31.1631 30.7254 35.7005 25.5867 41.0199C25.5867 41.0199 23.9691 43.9505 18.5581 45.4145C18.5581 45.4145 15.6787 46.2934 14.2147 48C14.2147 48 16.1208 43.4787 16.3338 40.664C16.4152 39.3841 16.7604 38.1348 17.3476 36.9947C18.763 34.339 21.8823 30.6562 28.1723 31.1631Z" fill="#3B4549"/>
</svg>
