<svg width="60" height="40" viewBox="0 0 60 40" fill="none" xmlns="http://www.w3.org/2000/svg">
<path d="M0 0H60V40H0V0Z" fill="#F2F0F0"/>
<path d="M15.834 23.0059H18.6572C19.9834 23.0059 20.9427 23.2041 21.5352 23.6006C22.1276 23.9971 22.4238 24.6237 22.4238 25.4805C22.4238 26.0729 22.2575 26.5628 21.9248 26.9502C21.5967 27.333 21.1159 27.5814 20.4824 27.6953V27.7637C22 28.0234 22.7588 28.821 22.7588 30.1562C22.7588 31.0495 22.4557 31.7467 21.8496 32.248C21.248 32.7493 20.4049 33 19.3203 33H15.834V23.0059ZM16.9961 27.2852H18.9102C19.7305 27.2852 20.3206 27.1576 20.6807 26.9023C21.0407 26.6426 21.2207 26.2074 21.2207 25.5967C21.2207 25.0361 21.0202 24.6328 20.6191 24.3867C20.2181 24.1361 19.5801 24.0107 18.7051 24.0107H16.9961V27.2852ZM16.9961 28.2695V32.0088H19.0811C19.8877 32.0088 20.4938 31.8538 20.8994 31.5439C21.3096 31.2295 21.5146 30.7396 21.5146 30.0742C21.5146 29.4544 21.305 28.9987 20.8857 28.707C20.471 28.4154 19.8376 28.2695 18.9854 28.2695H16.9961Z" fill="#3B4549"/>
<path d="M25.876 33H24.7412V22.3633H25.876V33Z" fill="#3B4549"/>
<path d="M29.3486 25.5078V30.3682C29.3486 30.9788 29.4876 31.4346 29.7656 31.7354C30.0436 32.0361 30.4788 32.1865 31.0713 32.1865C31.8551 32.1865 32.4271 31.9723 32.7871 31.5439C33.1517 31.1156 33.334 30.416 33.334 29.4453V25.5078H34.4688V33H33.5322L33.3682 31.9951H33.3066C33.0742 32.3643 32.7507 32.6468 32.3359 32.8428C31.9258 33.0387 31.4564 33.1367 30.9277 33.1367C30.0163 33.1367 29.3327 32.9202 28.877 32.4873C28.4258 32.0544 28.2002 31.3617 28.2002 30.4092V25.5078H29.3486Z" fill="#3B4549"/>
<path d="M40.0469 33.1367C38.9395 33.1367 38.0645 32.7995 37.4219 32.125C36.7839 31.4505 36.4648 30.514 36.4648 29.3154C36.4648 28.1077 36.7611 27.1484 37.3535 26.4375C37.9505 25.7266 38.7503 25.3711 39.7529 25.3711C40.6917 25.3711 41.4346 25.681 41.9814 26.3008C42.5283 26.916 42.8018 27.7295 42.8018 28.7412V29.459H37.6406C37.6634 30.3385 37.8844 31.0062 38.3037 31.4619C38.7275 31.9176 39.3223 32.1455 40.0879 32.1455C40.8945 32.1455 41.6921 31.9769 42.4805 31.6396V32.6514C42.0794 32.8245 41.6989 32.9476 41.3389 33.0205C40.9834 33.098 40.5527 33.1367 40.0469 33.1367ZM39.7393 26.3213C39.1377 26.3213 38.6569 26.5173 38.2969 26.9092C37.9414 27.3011 37.7318 27.8434 37.668 28.5361H41.585C41.585 27.8206 41.4255 27.2738 41.1064 26.8955C40.7874 26.5127 40.3317 26.3213 39.7393 26.3213Z" fill="#3B4549"/>
<path d="M4 4H56V16H4V4Z" fill="#35A4C5"/>
</svg>
