<svg width="84" height="36" viewBox="0 0 84 36" fill="none" xmlns="http://www.w3.org/2000/svg">
<path d="M0 0H84V36H0V0Z" fill="#F2F0F0"/>
<path d="M22.4609 13.6016C21.2057 13.6016 20.2135 14.0208 19.4844 14.8594C18.7604 15.6927 18.3984 16.8359 18.3984 18.2891C18.3984 19.7839 18.7474 20.9401 19.4453 21.7578C20.1484 22.5703 21.1484 22.9766 22.4453 22.9766C23.2422 22.9766 24.151 22.8333 25.1719 22.5469V23.7109C24.3802 24.0078 23.4036 24.1562 22.2422 24.1562C20.5599 24.1562 19.2604 23.6458 18.3438 22.625C17.4323 21.6042 16.9766 20.1536 16.9766 18.2734C16.9766 17.0964 17.1953 16.0651 17.6328 15.1797C18.0755 14.2943 18.7109 13.612 19.5391 13.1328C20.3724 12.6536 21.3516 12.4141 22.4766 12.4141C23.6745 12.4141 24.7214 12.6328 25.6172 13.0703L25.0547 14.2109C24.1901 13.8047 23.3255 13.6016 22.4609 13.6016Z" fill="black"/>
<path d="M32.7344 24L32.4766 22.7812H32.4141C31.987 23.3177 31.5599 23.6823 31.1328 23.875C30.7109 24.0625 30.1823 24.1562 29.5469 24.1562C28.6979 24.1562 28.0312 23.9375 27.5469 23.5C27.0677 23.0625 26.8281 22.4401 26.8281 21.6328C26.8281 19.9036 28.2109 18.9974 30.9766 18.9141L32.4297 18.8672V18.3359C32.4297 17.6641 32.2839 17.1693 31.9922 16.8516C31.7057 16.5286 31.2448 16.3672 30.6094 16.3672C29.8958 16.3672 29.0885 16.5859 28.1875 17.0234L27.7891 16.0312C28.2109 15.8021 28.6719 15.6224 29.1719 15.4922C29.6771 15.362 30.1823 15.2969 30.6875 15.2969C31.7083 15.2969 32.4635 15.5234 32.9531 15.9766C33.4479 16.4297 33.6953 17.1562 33.6953 18.1562V24H32.7344ZM29.8047 23.0859C30.612 23.0859 31.2448 22.8646 31.7031 22.4219C32.1667 21.9792 32.3984 21.3594 32.3984 20.5625V19.7891L31.1016 19.8438C30.0703 19.8802 29.3255 20.0417 28.8672 20.3281C28.4141 20.6094 28.1875 21.0495 28.1875 21.6484C28.1875 22.1172 28.3281 22.474 28.6094 22.7188C28.8958 22.9635 29.2943 23.0859 29.8047 23.0859Z" fill="black"/>
<path d="M42.2344 24V18.4609C42.2344 17.763 42.0755 17.2422 41.7578 16.8984C41.4401 16.5547 40.9427 16.3828 40.2656 16.3828C39.3698 16.3828 38.7135 16.625 38.2969 17.1094C37.8802 17.5938 37.6719 18.3932 37.6719 19.5078V24H36.375V15.4375H37.4297L37.6406 16.6094H37.7031C37.9688 16.1875 38.3411 15.862 38.8203 15.6328C39.2995 15.3984 39.8333 15.2812 40.4219 15.2812C41.4531 15.2812 42.2292 15.5312 42.75 16.0312C43.2708 16.526 43.5312 17.3203 43.5312 18.4141V24H42.2344Z" fill="black"/>
<path d="M49.625 24.1562C48.3854 24.1562 47.4245 23.776 46.7422 23.0156C46.0651 22.25 45.7266 21.1693 45.7266 19.7734C45.7266 18.3411 46.0703 17.2344 46.7578 16.4531C47.4505 15.6719 48.4349 15.2812 49.7109 15.2812C50.1224 15.2812 50.5339 15.3255 50.9453 15.4141C51.3568 15.5026 51.6797 15.6068 51.9141 15.7266L51.5156 16.8281C51.2292 16.7135 50.9167 16.6198 50.5781 16.5469C50.2396 16.4688 49.9401 16.4297 49.6797 16.4297C47.9401 16.4297 47.0703 17.5391 47.0703 19.7578C47.0703 20.8099 47.2812 21.6172 47.7031 22.1797C48.1302 22.7422 48.7604 23.0234 49.5938 23.0234C50.3073 23.0234 51.0391 22.8698 51.7891 22.5625V23.7109C51.2161 24.0078 50.4948 24.1562 49.625 24.1562Z" fill="black"/>
<path d="M57.4453 24.1562C56.1797 24.1562 55.1797 23.7708 54.4453 23C53.7161 22.2292 53.3516 21.1589 53.3516 19.7891C53.3516 18.4089 53.6901 17.3125 54.3672 16.5C55.0495 15.6875 55.9635 15.2812 57.1094 15.2812C58.1823 15.2812 59.0312 15.6354 59.6562 16.3438C60.2812 17.0469 60.5938 17.9766 60.5938 19.1328V19.9531H54.6953C54.7214 20.9583 54.974 21.7214 55.4531 22.2422C55.9375 22.763 56.6172 23.0234 57.4922 23.0234C58.4141 23.0234 59.3255 22.8307 60.2266 22.4453V23.6016C59.7682 23.7995 59.3333 23.9401 58.9219 24.0234C58.5156 24.112 58.0234 24.1562 57.4453 24.1562ZM57.0938 16.3672C56.4062 16.3672 55.8568 16.5911 55.4453 17.0391C55.0391 17.487 54.7995 18.1068 54.7266 18.8984H59.2031C59.2031 18.0807 59.0208 17.4557 58.6562 17.0234C58.2917 16.5859 57.7708 16.3672 57.0938 16.3672Z" fill="black"/>
<path d="M64.1094 24H62.8125V11.8438H64.1094V24Z" fill="black"/>
</svg>
