<svg width="96" height="103" viewBox="0 0 96 103" fill="none" xmlns="http://www.w3.org/2000/svg">
<g clip-path="url(#clip0)">
<path d="M48 59C52.4183 59 56 55.4183 56 51C56 46.5817 52.4183 43 48 43C43.5817 43 40 46.5817 40 51C40 55.4183 43.5817 59 48 59Z" fill="#3B4549"/>
<path d="M47.2313 102.833L40.7855 53.7363H54.9082L47.2313 102.833Z" fill="#3B4549"/>
<path d="M94.2031 23.6061L54.9081 53.7363L47.8467 41.5055L94.2031 23.6061Z" fill="#3B4549"/>
<path d="M2.10352 22.5413L47.8468 41.5055L40.7854 53.7364L2.10352 22.5413Z" fill="#3B4549"/>
<path d="M59.8495 10.2534C52.876 6.36023 48.0108 0 48.0108 0C48.0108 0 43.1337 6.36023 36.1626 10.2534C29.1916 14.1465 19.4539 22.8502 32.3027 38.1614C45.1515 53.4725 48.0108 55.4262 48.0108 55.4262C48.0108 55.4262 50.8629 53.4773 63.6974 38.1614C76.532 22.8455 66.8205 14.1489 59.8495 10.2534Z" fill="#E9DED9"/>
<path d="M2.9567 67.1437C3.07078 75.1297 0 82.5309 0 82.5309C0 82.5309 7.94553 83.5719 14.8049 87.6647C21.6642 91.7575 34.0567 95.8384 40.9018 77.0525C47.7469 58.2665 48.0107 54.8178 48.0107 54.8178C48.0107 54.8178 44.8948 53.3181 25.2056 49.848C5.51648 46.3779 2.85212 59.1554 2.9567 67.1437Z" fill="#E9DED9"/>
<path d="M81.1951 87.6646C88.0545 83.5718 96 82.5308 96 82.5308C96 82.5308 92.9316 75.1296 93.0433 67.1436C93.155 59.1577 90.493 46.3778 70.8039 49.8479C51.1147 53.318 48.0107 54.8177 48.0107 54.8177C48.0107 54.8177 48.2674 58.264 55.1077 77.0524C61.948 95.8407 74.3358 91.7551 81.1951 87.6646Z" fill="#E9DED9"/>
<path d="M48.0106 48.8093C47.3934 48.8093 46.7901 48.6263 46.2769 48.2834C45.7637 47.9405 45.3637 47.4531 45.1275 46.8828C44.8913 46.3126 44.8295 45.6851 44.9499 45.0798C45.0703 44.4744 45.3675 43.9183 45.804 43.4819C46.2404 43.0455 46.7965 42.7483 47.4018 42.6278C48.0072 42.5074 48.6346 42.5692 49.2049 42.8054C49.7751 43.0416 50.2625 43.4416 50.6054 43.9548C50.9483 44.468 51.1313 45.0714 51.1313 45.6886C51.1307 46.5161 50.8017 47.3095 50.2166 47.8946C49.6315 48.4797 48.8381 48.8087 48.0106 48.8093ZM48.0106 44.379C47.7516 44.379 47.4984 44.4558 47.2831 44.5997C47.0677 44.7436 46.8998 44.9481 46.8007 45.1874C46.7016 45.4267 46.6757 45.69 46.7262 45.9441C46.7767 46.1981 46.9015 46.4315 47.0846 46.6146C47.2678 46.7978 47.5011 46.9225 47.7551 46.973C48.0092 47.0236 48.2725 46.9976 48.5118 46.8985C48.7511 46.7994 48.9556 46.6315 49.0995 46.4162C49.2434 46.2008 49.3202 45.9476 49.3202 45.6886C49.3202 45.3413 49.1822 45.0082 48.9366 44.7626C48.6911 44.517 48.358 44.379 48.0106 44.379Z" fill="#C47D3D"/>
<path d="M39.5067 62.5851C38.9068 62.5859 38.3193 62.4137 37.8147 62.0892C37.3101 61.7647 36.9098 61.3016 36.6616 60.7554C36.4134 60.2092 36.3279 59.603 36.4154 59.0095C36.5028 58.416 36.7595 57.8602 37.1546 57.4088C37.5498 56.9574 38.0667 56.6294 38.6435 56.4643C39.2202 56.2991 39.8324 56.3036 40.4066 56.4774C40.9808 56.6512 41.4928 56.9868 41.8812 57.444C42.2696 57.9013 42.518 58.4608 42.5965 59.0556C42.7038 59.8762 42.4809 60.7059 41.9769 61.3623C41.4729 62.0188 40.7289 62.4483 39.9084 62.5566C39.7753 62.5752 39.6411 62.5847 39.5067 62.5851ZM39.5067 58.1548C39.449 58.1513 39.391 58.1513 39.3332 58.1548C39.0764 58.1884 38.8354 58.2975 38.6406 58.4681C38.4458 58.6388 38.3059 58.8633 38.2387 59.1135C38.1715 59.3636 38.18 59.628 38.2631 59.8733C38.3461 60.1186 38.5001 60.3338 38.7054 60.4916C38.9108 60.6494 39.1583 60.7428 39.4167 60.76C39.6751 60.7772 39.9328 60.7173 40.1572 60.588C40.3816 60.4588 40.5627 60.2658 40.6774 60.0337C40.7922 59.8015 40.8356 59.5405 40.8021 59.2837C40.7602 58.9695 40.6059 58.6811 40.3677 58.4718C40.1296 58.2625 39.8238 58.1465 39.5067 58.1452V58.1548Z" fill="#C47D3D"/>
<path d="M56.2391 62.8703C55.6219 62.8703 55.0185 62.6873 54.5053 62.3444C53.9921 62.0015 53.5922 61.5141 53.356 60.9439C53.1198 60.3736 53.058 59.7462 53.1784 59.1408C53.2988 58.5354 53.596 57.9794 54.0324 57.5429C54.4689 57.1065 55.0249 56.8093 55.6303 56.6889C56.2357 56.5685 56.8631 56.6303 57.4334 56.8665C58.0036 57.1027 58.491 57.5026 58.8339 58.0158C59.1768 58.529 59.3598 59.1324 59.3598 59.7496C59.3592 60.5771 59.0302 61.3705 58.4451 61.9556C57.86 62.5407 57.0666 62.8697 56.2391 62.8703ZM56.2391 58.44C55.9801 58.44 55.7269 58.5168 55.5115 58.6607C55.2962 58.8046 55.1283 59.0092 55.0292 59.2485C54.9301 59.4878 54.9041 59.7511 54.9547 60.0051C55.0052 60.2592 55.1299 60.4925 55.3131 60.6757C55.4962 60.8588 55.7296 60.9835 55.9836 61.0341C56.2377 61.0846 56.501 61.0587 56.7403 60.9595C56.9796 60.8604 57.1841 60.6926 57.328 60.4772C57.4719 60.2618 57.5487 60.0086 57.5487 59.7496C57.5487 59.4023 57.4108 59.0692 57.1652 58.8236C56.9196 58.578 56.5865 58.44 56.2391 58.44Z" fill="#C47D3D"/>
<path d="M49.3749 54.1309L42.6463 45.2845L46.625 55.7043L53.356 64.5482L49.3749 54.1309Z" fill="#C47D3D"/>
<path d="M49.3702 55.7138L53.6651 45.4628L46.6298 54.119L42.335 64.37L49.3702 55.7138Z" fill="#C47D3D"/>
<path d="M47.9941 56.5028L59.0199 55.0958L48.006 53.3323L36.9802 54.7393L47.9941 56.5028Z" fill="#C47D3D"/>
</g>
<defs>
<clipPath id="clip0">
<path d="M0 0H96V102.833H0V0Z" fill="white"/>
</clipPath>
</defs>
</svg>
