<svg width="128" height="36" viewBox="0 0 128 36" fill="none" xmlns="http://www.w3.org/2000/svg">
<path fill-rule="evenodd" clip-rule="evenodd" d="M126 2H2V34H126V2ZM0 0V36H128V0H0Z" fill="#3B4549"/>
<path d="M18.0078 13.9014C16.9095 13.9014 16.0413 14.2682 15.4033 15.002C14.7699 15.7311 14.4531 16.7314 14.4531 18.0029C14.4531 19.3109 14.7585 20.3226 15.3691 21.0381C15.9844 21.749 16.8594 22.1045 17.9941 22.1045C18.6914 22.1045 19.4867 21.9792 20.3799 21.7285V22.7471C19.6872 23.0068 18.8327 23.1367 17.8164 23.1367C16.3444 23.1367 15.2074 22.6901 14.4053 21.7969C13.6077 20.9036 13.209 19.6344 13.209 17.9893C13.209 16.9593 13.4004 16.057 13.7832 15.2822C14.1706 14.5075 14.7266 13.9105 15.4512 13.4912C16.1803 13.0719 17.0371 12.8623 18.0215 12.8623C19.0697 12.8623 19.9857 13.0537 20.7695 13.4365L20.2773 14.4346C19.5208 14.0791 18.7643 13.9014 18.0078 13.9014Z" fill="#3B4549"/>
<path d="M28.8564 19.2471C28.8564 20.4684 28.5488 21.4232 27.9336 22.1113C27.3184 22.7949 26.4684 23.1367 25.3838 23.1367C24.7139 23.1367 24.1191 22.9795 23.5996 22.665C23.0801 22.3506 22.679 21.8994 22.3965 21.3115C22.1139 20.7236 21.9727 20.0355 21.9727 19.2471C21.9727 18.0257 22.278 17.0755 22.8887 16.3965C23.4993 15.7129 24.347 15.3711 25.4316 15.3711C26.4798 15.3711 27.3115 15.7197 27.9268 16.417C28.5465 17.1143 28.8564 18.0576 28.8564 19.2471ZM23.1484 19.2471C23.1484 20.2041 23.3398 20.9333 23.7227 21.4346C24.1055 21.9359 24.6683 22.1865 25.4111 22.1865C26.154 22.1865 26.7168 21.9382 27.0996 21.4414C27.487 20.9401 27.6807 20.2087 27.6807 19.2471C27.6807 18.2946 27.487 17.5723 27.0996 17.0801C26.7168 16.5833 26.1494 16.335 25.3975 16.335C24.6546 16.335 24.0941 16.5788 23.7158 17.0664C23.3376 17.554 23.1484 18.2809 23.1484 19.2471Z" fill="#3B4549"/>
<path d="M40.4023 23V18.126C40.4023 17.529 40.2747 17.0824 40.0195 16.7861C39.7643 16.4854 39.3678 16.335 38.8301 16.335C38.1237 16.335 37.6019 16.5378 37.2646 16.9434C36.9274 17.349 36.7588 17.9733 36.7588 18.8164V23H35.624V18.126C35.624 17.529 35.4964 17.0824 35.2412 16.7861C34.986 16.4854 34.5872 16.335 34.0449 16.335C33.334 16.335 32.8122 16.5492 32.4795 16.9775C32.1514 17.4014 31.9873 18.0986 31.9873 19.0693V23H30.8525V15.5078H31.7754L31.96 16.5332H32.0146C32.2288 16.1686 32.5296 15.8838 32.917 15.6787C33.3089 15.4736 33.7464 15.3711 34.2295 15.3711C35.4007 15.3711 36.1663 15.7949 36.5264 16.6426H36.5811C36.8044 16.2507 37.1279 15.9408 37.5518 15.7129C37.9756 15.485 38.4587 15.3711 39.001 15.3711C39.8486 15.3711 40.4821 15.5898 40.9014 16.0273C41.3252 16.4603 41.5371 17.1553 41.5371 18.1123V23H40.4023Z" fill="#3B4549"/>
<path d="M53.4316 23V18.126C53.4316 17.529 53.304 17.0824 53.0488 16.7861C52.7936 16.4854 52.3971 16.335 51.8594 16.335C51.153 16.335 50.6312 16.5378 50.2939 16.9434C49.9567 17.349 49.7881 17.9733 49.7881 18.8164V23H48.6533V18.126C48.6533 17.529 48.5257 17.0824 48.2705 16.7861C48.0153 16.4854 47.6165 16.335 47.0742 16.335C46.3633 16.335 45.8415 16.5492 45.5088 16.9775C45.1807 17.4014 45.0166 18.0986 45.0166 19.0693V23H43.8818V15.5078H44.8047L44.9893 16.5332H45.0439C45.2581 16.1686 45.5589 15.8838 45.9463 15.6787C46.3382 15.4736 46.7757 15.3711 47.2588 15.3711C48.43 15.3711 49.1956 15.7949 49.5557 16.6426H49.6104C49.8337 16.2507 50.1572 15.9408 50.5811 15.7129C51.0049 15.485 51.488 15.3711 52.0303 15.3711C52.8779 15.3711 53.5114 15.5898 53.9307 16.0273C54.3545 16.4603 54.5664 17.1553 54.5664 18.1123V23H53.4316Z" fill="#3B4549"/>
<path d="M63.3779 19.2471C63.3779 20.4684 63.0703 21.4232 62.4551 22.1113C61.8398 22.7949 60.9899 23.1367 59.9053 23.1367C59.2354 23.1367 58.6406 22.9795 58.1211 22.665C57.6016 22.3506 57.2005 21.8994 56.918 21.3115C56.6354 20.7236 56.4941 20.0355 56.4941 19.2471C56.4941 18.0257 56.7995 17.0755 57.4102 16.3965C58.0208 15.7129 58.8685 15.3711 59.9531 15.3711C61.0013 15.3711 61.833 15.7197 62.4482 16.417C63.068 17.1143 63.3779 18.0576 63.3779 19.2471ZM57.6699 19.2471C57.6699 20.2041 57.8613 20.9333 58.2441 21.4346C58.627 21.9359 59.1898 22.1865 59.9326 22.1865C60.6755 22.1865 61.2383 21.9382 61.6211 21.4414C62.0085 20.9401 62.2021 20.2087 62.2021 19.2471C62.2021 18.2946 62.0085 17.5723 61.6211 17.0801C61.2383 16.5833 60.6709 16.335 59.9189 16.335C59.1761 16.335 58.6156 16.5788 58.2373 17.0664C57.8591 17.554 57.6699 18.2809 57.6699 19.2471Z" fill="#3B4549"/>
<path d="M70.501 23V18.1533C70.501 17.5426 70.362 17.0869 70.084 16.7861C69.806 16.4854 69.3708 16.335 68.7783 16.335C67.9945 16.335 67.4202 16.5469 67.0557 16.9707C66.6911 17.3945 66.5088 18.0941 66.5088 19.0693V23H65.374V15.5078H66.2969L66.4814 16.5332H66.5361C66.7686 16.1641 67.0944 15.8792 67.5137 15.6787C67.9329 15.4736 68.4001 15.3711 68.915 15.3711C69.8174 15.3711 70.4964 15.5898 70.9521 16.0273C71.4079 16.4603 71.6357 17.1553 71.6357 18.1123V23H70.501Z" fill="#3B4549"/>
<path d="M85.5879 23H84.2617L78.7998 14.6123H78.7451C78.818 15.5967 78.8545 16.499 78.8545 17.3193V23H77.7812V13.0059H79.0938L84.542 21.3594H84.5967C84.5876 21.2363 84.5671 20.8421 84.5352 20.1768C84.5033 19.5068 84.4919 19.0283 84.501 18.7412V13.0059H85.5879V23Z" fill="#3B4549"/>
<path d="M92.7725 23L92.5469 21.9336H92.4922C92.1185 22.403 91.7448 22.722 91.3711 22.8906C91.002 23.0547 90.5394 23.1367 89.9834 23.1367C89.2406 23.1367 88.6572 22.9453 88.2334 22.5625C87.8141 22.1797 87.6045 21.6351 87.6045 20.9287C87.6045 19.4157 88.8145 18.6227 91.2344 18.5498L92.5059 18.5088V18.0439C92.5059 17.4561 92.3783 17.0231 92.123 16.7451C91.8724 16.4626 91.4691 16.3213 90.9131 16.3213C90.2887 16.3213 89.5824 16.5127 88.7939 16.8955L88.4453 16.0273C88.8145 15.8268 89.2178 15.6696 89.6553 15.5557C90.0973 15.4417 90.5394 15.3848 90.9814 15.3848C91.8747 15.3848 92.5355 15.583 92.9639 15.9795C93.3968 16.376 93.6133 17.0117 93.6133 17.8867V23H92.7725ZM90.209 22.2002C90.9154 22.2002 91.4691 22.0065 91.8701 21.6191C92.2757 21.2318 92.4785 20.6895 92.4785 19.9922V19.3154L91.3438 19.3633C90.4414 19.3952 89.7897 19.5365 89.3887 19.7871C88.9922 20.0332 88.7939 20.4183 88.7939 20.9424C88.7939 21.3525 88.917 21.6647 89.1631 21.8789C89.4137 22.0931 89.7624 22.2002 90.209 22.2002Z" fill="#3B4549"/>
<path d="M105.508 23V18.126C105.508 17.529 105.38 17.0824 105.125 16.7861C104.87 16.4854 104.473 16.335 103.936 16.335C103.229 16.335 102.707 16.5378 102.37 16.9434C102.033 17.349 101.864 17.9733 101.864 18.8164V23H100.729V18.126C100.729 17.529 100.602 17.0824 100.347 16.7861C100.091 16.4854 99.6927 16.335 99.1504 16.335C98.4395 16.335 97.9176 16.5492 97.585 16.9775C97.2568 17.4014 97.0928 18.0986 97.0928 19.0693V23H95.958V15.5078H96.8809L97.0654 16.5332H97.1201C97.3343 16.1686 97.6351 15.8838 98.0225 15.6787C98.4144 15.4736 98.8519 15.3711 99.335 15.3711C100.506 15.3711 101.272 15.7949 101.632 16.6426H101.687C101.91 16.2507 102.233 15.9408 102.657 15.7129C103.081 15.485 103.564 15.3711 104.106 15.3711C104.954 15.3711 105.588 15.5898 106.007 16.0273C106.431 16.4603 106.643 17.1553 106.643 18.1123V23H105.508Z" fill="#3B4549"/>
<path d="M112.152 23.1367C111.045 23.1367 110.17 22.7995 109.527 22.125C108.889 21.4505 108.57 20.514 108.57 19.3154C108.57 18.1077 108.867 17.1484 109.459 16.4375C110.056 15.7266 110.856 15.3711 111.858 15.3711C112.797 15.3711 113.54 15.681 114.087 16.3008C114.634 16.916 114.907 17.7295 114.907 18.7412V19.459H109.746C109.769 20.3385 109.99 21.0062 110.409 21.4619C110.833 21.9176 111.428 22.1455 112.193 22.1455C113 22.1455 113.798 21.9769 114.586 21.6396V22.6514C114.185 22.8245 113.804 22.9476 113.444 23.0205C113.089 23.098 112.658 23.1367 112.152 23.1367ZM111.845 16.3213C111.243 16.3213 110.762 16.5173 110.402 16.9092C110.047 17.3011 109.837 17.8434 109.773 18.5361H113.69C113.69 17.8206 113.531 17.2738 113.212 16.8955C112.893 16.5127 112.437 16.3213 111.845 16.3213Z" fill="#3B4549"/>
</svg>
