<svg width="60" height="92" viewBox="0 0 60 92" fill="none" xmlns="http://www.w3.org/2000/svg">
<path d="M0 0H60V92H0V0Z" fill="#F2F0F0"/>
<path d="M13.9424 61.9014C12.8441 61.9014 11.9759 62.2682 11.3379 63.002C10.7044 63.7311 10.3877 64.7314 10.3877 66.0029C10.3877 67.3109 10.693 68.3226 11.3037 69.0381C11.9189 69.749 12.7939 70.1045 13.9287 70.1045C14.626 70.1045 15.4212 69.9792 16.3145 69.7285V70.7471C15.6217 71.0068 14.7673 71.1367 13.751 71.1367C12.279 71.1367 11.1419 70.6901 10.3398 69.7969C9.54232 68.9036 9.14355 67.6344 9.14355 65.9893C9.14355 64.9593 9.33496 64.057 9.71777 63.2822C10.1051 62.5075 10.6611 61.9105 11.3857 61.4912C12.1149 61.0719 12.9717 60.8623 13.9561 60.8623C15.0042 60.8623 15.9202 61.0537 16.7041 61.4365L16.2119 62.4346C15.4554 62.0791 14.6989 61.9014 13.9424 61.9014Z" fill="#3B4549"/>
<path d="M24.791 67.2471C24.791 68.4684 24.4834 69.4232 23.8682 70.1113C23.2529 70.7949 22.403 71.1367 21.3184 71.1367C20.6484 71.1367 20.0537 70.9795 19.5342 70.665C19.0146 70.3506 18.6136 69.8994 18.3311 69.3115C18.0485 68.7236 17.9072 68.0355 17.9072 67.2471C17.9072 66.0257 18.2126 65.0755 18.8232 64.3965C19.4339 63.7129 20.2816 63.3711 21.3662 63.3711C22.4144 63.3711 23.2461 63.7197 23.8613 64.417C24.4811 65.1143 24.791 66.0576 24.791 67.2471ZM19.083 67.2471C19.083 68.2041 19.2744 68.9333 19.6572 69.4346C20.04 69.9359 20.6029 70.1865 21.3457 70.1865C22.0885 70.1865 22.6514 69.9382 23.0342 69.4414C23.4215 68.9401 23.6152 68.2087 23.6152 67.2471C23.6152 66.2946 23.4215 65.5723 23.0342 65.0801C22.6514 64.5833 22.084 64.335 21.332 64.335C20.5892 64.335 20.0286 64.5788 19.6504 65.0664C19.2721 65.554 19.083 66.2809 19.083 67.2471Z" fill="#3B4549"/>
<path d="M36.3369 71V66.126C36.3369 65.529 36.2093 65.0824 35.9541 64.7861C35.6989 64.4854 35.3024 64.335 34.7646 64.335C34.0583 64.335 33.5365 64.5378 33.1992 64.9434C32.862 65.349 32.6934 65.9733 32.6934 66.8164V71H31.5586V66.126C31.5586 65.529 31.431 65.0824 31.1758 64.7861C30.9206 64.4854 30.5218 64.335 29.9795 64.335C29.2686 64.335 28.7467 64.5492 28.4141 64.9775C28.0859 65.4014 27.9219 66.0986 27.9219 67.0693V71H26.7871V63.5078H27.71L27.8945 64.5332H27.9492C28.1634 64.1686 28.4642 63.8838 28.8516 63.6787C29.2435 63.4736 29.681 63.3711 30.1641 63.3711C31.3353 63.3711 32.1009 63.7949 32.4609 64.6426H32.5156C32.7389 64.2507 33.0625 63.9408 33.4863 63.7129C33.9102 63.485 34.3932 63.3711 34.9355 63.3711C35.7832 63.3711 36.4167 63.5898 36.8359 64.0273C37.2598 64.4603 37.4717 65.1553 37.4717 66.1123V71H36.3369Z" fill="#3B4549"/>
<path d="M43.3027 71.1367C42.8151 71.1367 42.3685 71.0479 41.9629 70.8701C41.5618 70.6878 41.2246 70.4098 40.9512 70.0361H40.8691C40.9238 70.4736 40.9512 70.8883 40.9512 71.2803V74.3633H39.8164V63.5078H40.7393L40.8965 64.5332H40.9512C41.2428 64.123 41.5824 63.8268 41.9697 63.6445C42.3571 63.4622 42.8014 63.3711 43.3027 63.3711C44.2962 63.3711 45.0618 63.7106 45.5996 64.3896C46.1419 65.0687 46.4131 66.0212 46.4131 67.2471C46.4131 68.4775 46.1374 69.4346 45.5859 70.1182C45.0391 70.7972 44.278 71.1367 43.3027 71.1367ZM43.1387 64.335C42.373 64.335 41.8193 64.5469 41.4775 64.9707C41.1357 65.3945 40.9603 66.069 40.9512 66.9941V67.2471C40.9512 68.2998 41.1266 69.054 41.4775 69.5098C41.8284 69.9609 42.3913 70.1865 43.166 70.1865C43.8132 70.1865 44.319 69.9245 44.6836 69.4004C45.0527 68.8763 45.2373 68.154 45.2373 67.2334C45.2373 66.2992 45.0527 65.5837 44.6836 65.0869C44.319 64.5856 43.804 64.335 43.1387 64.335Z" fill="#3B4549"/>
<path d="M47.7734 67.7666V66.7275H51.1299V67.7666H47.7734Z" fill="#3B4549"/>
<path d="M20.5459 86.2471C20.5459 87.4684 20.2383 88.4232 19.623 89.1113C19.0078 89.7949 18.1579 90.1367 17.0732 90.1367C16.4033 90.1367 15.8086 89.9795 15.2891 89.665C14.7695 89.3506 14.3685 88.8994 14.0859 88.3115C13.8034 87.7236 13.6621 87.0355 13.6621 86.2471C13.6621 85.0257 13.9674 84.0755 14.5781 83.3965C15.1888 82.7129 16.0365 82.3711 17.1211 82.3711C18.1693 82.3711 19.001 82.7197 19.6162 83.417C20.236 84.1143 20.5459 85.0576 20.5459 86.2471ZM14.8379 86.2471C14.8379 87.2041 15.0293 87.9333 15.4121 88.4346C15.7949 88.9359 16.3577 89.1865 17.1006 89.1865C17.8434 89.1865 18.4062 88.9382 18.7891 88.4414C19.1764 87.9401 19.3701 87.2087 19.3701 86.2471C19.3701 85.2946 19.1764 84.5723 18.7891 84.0801C18.4062 83.5833 17.8389 83.335 17.0869 83.335C16.3441 83.335 15.7835 83.5788 15.4053 84.0664C15.027 84.554 14.8379 85.2809 14.8379 86.2471Z" fill="#3B4549"/>
<path d="M23.6084 82.5078V87.3682C23.6084 87.9788 23.7474 88.4346 24.0254 88.7354C24.3034 89.0361 24.7386 89.1865 25.3311 89.1865C26.1149 89.1865 26.6868 88.9723 27.0469 88.5439C27.4115 88.1156 27.5938 87.416 27.5938 86.4453V82.5078H28.7285V90H27.792L27.6279 88.9951H27.5664C27.334 89.3643 27.0104 89.6468 26.5957 89.8428C26.1855 90.0387 25.7161 90.1367 25.1875 90.1367C24.276 90.1367 23.5924 89.9202 23.1367 89.4873C22.6855 89.0544 22.46 88.3617 22.46 87.4092V82.5078H23.6084Z" fill="#3B4549"/>
<path d="M36.2686 90V85.1533C36.2686 84.5426 36.1296 84.0869 35.8516 83.7861C35.5736 83.4854 35.1383 83.335 34.5459 83.335C33.762 83.335 33.1878 83.5469 32.8232 83.9707C32.4587 84.3945 32.2764 85.0941 32.2764 86.0693V90H31.1416V82.5078H32.0645L32.249 83.5332H32.3037C32.5361 83.1641 32.862 82.8792 33.2812 82.6787C33.7005 82.4736 34.1676 82.3711 34.6826 82.3711C35.585 82.3711 36.264 82.5898 36.7197 83.0273C37.1755 83.4603 37.4033 84.1553 37.4033 85.1123V90H36.2686Z" fill="#3B4549"/>
<path d="M44.8408 88.9951H44.7793C44.2552 89.7562 43.4714 90.1367 42.4277 90.1367C41.4479 90.1367 40.6846 89.8018 40.1377 89.1318C39.5954 88.4619 39.3242 87.5094 39.3242 86.2744C39.3242 85.0394 39.5977 84.0801 40.1445 83.3965C40.6914 82.7129 41.4525 82.3711 42.4277 82.3711C43.444 82.3711 44.2233 82.7402 44.7656 83.4785H44.8545L44.8066 82.9385L44.7793 82.4121V79.3633H45.9141V90H44.9912L44.8408 88.9951ZM42.5713 89.1865C43.346 89.1865 43.9066 88.9769 44.2529 88.5576C44.6038 88.1338 44.7793 87.4525 44.7793 86.5137V86.2744C44.7793 85.2126 44.6016 84.4561 44.2461 84.0049C43.8952 83.5492 43.3324 83.3213 42.5576 83.3213C41.8923 83.3213 41.3818 83.5811 41.0264 84.1006C40.6755 84.6156 40.5 85.3447 40.5 86.2881C40.5 87.2451 40.6755 87.9674 41.0264 88.4551C41.3773 88.9427 41.8923 89.1865 42.5713 89.1865Z" fill="#3B4549"/>
<g clip-path="url(#clip0)">
<path d="M21.732 42.3659C21.732 42.3659 21.9742 30.7851 12 31.4194C12 31.4194 13.6544 43.4848 21.732 42.3659Z" fill="#3B4549"/>
<path d="M27.9384 43.9183C27.9384 43.9183 37.4249 50.6985 42.6813 39.3567C42.6782 39.3567 37.9572 33.4532 27.9384 43.9183Z" fill="#3B4549"/>
<path d="M31.8274 35.4582C31.8274 35.4582 36.3507 40.1345 44.0872 30.5205C44.0872 30.5205 39.6595 24.8815 31.8274 35.4582Z" fill="#3B4549"/>
<path d="M18.9587 22.9753C18.9587 22.9753 29.7585 22.7777 26.7908 33.8612C26.7908 33.8612 17.0588 30.0552 18.9587 22.9753Z" fill="#3B4549"/>
<path d="M47.3002 21.0085C47.3002 21.0085 44.3325 29.1817 35.9075 24.8496C35.9075 24.8496 41.7027 17.6997 47.3002 21.0085Z" fill="#3B4549"/>
<path d="M22.752 14.5853C22.752 14.5853 29.2771 13.8744 30.6829 23.7817C30.6829 23.7817 24.0175 24.7635 22.752 14.5853Z" fill="#3B4549"/>
<path d="M28.321 7.1836C28.321 7.1836 35.5092 6.2273 33.9153 15.309C33.9153 15.309 27.0554 13.1701 28.321 7.1836Z" fill="#3B4549"/>
<path d="M39.245 5C39.245 5 42.2254 9.78151 36.4781 13.8426C36.4781 13.8426 32.9684 10.2055 39.245 5Z" fill="#3B4549"/>
<path d="M47.0071 13.8426C47.0071 13.8426 42.8631 9.96324 37.9573 17.6997C37.9573 17.6997 41.5083 20.983 47.0071 13.8426Z" fill="#3B4549"/>
<path d="M35.7959 24.0623L33.4817 24.5118C32.4776 24.7094 32.9015 26.2459 33.9057 26.0482L36.2263 25.5988C37.2336 25.4011 36.8064 23.8647 35.8023 24.0623H35.7959Z" fill="#C47D3D"/>
<path d="M32.9238 24.4448L31.0686 22.9912C30.9156 22.848 30.7139 22.7683 30.5044 22.7683C30.2949 22.7683 30.0932 22.848 29.9402 22.9912C29.7926 23.1419 29.71 23.3445 29.71 23.5554C29.71 23.7664 29.7926 23.9689 29.9402 24.1196L31.7986 25.57C31.9503 25.7144 32.1518 25.795 32.3612 25.795C32.5707 25.795 32.7721 25.7144 32.9238 25.57C33.0728 25.4206 33.1564 25.2183 33.1564 25.0074C33.1564 24.7965 33.0728 24.5941 32.9238 24.4448Z" fill="#C47D3D"/>
<path d="M31.8623 34.6709L29.5035 34.6454C28.477 34.6454 28.477 36.2392 29.5035 36.2392L31.8623 36.2743C32.8888 36.2743 32.8888 34.6805 31.8623 34.6805V34.6709Z" fill="#C47D3D"/>
<path d="M28.1487 43.0768L25.2798 43.013C24.2534 42.9907 24.2534 44.5846 25.2798 44.6069L28.1487 44.6706C29.1752 44.6961 29.1752 43.1023 28.1487 43.0768Z" fill="#C47D3D"/>
<path d="M24.5308 43.5709L22.2994 41.7667C22.1464 41.6235 21.9447 41.5438 21.7352 41.5438C21.5256 41.5438 21.3239 41.6235 21.171 41.7667C21.0226 41.917 20.9395 42.1197 20.9395 42.3309C20.9395 42.5421 21.0226 42.7448 21.171 42.8951L23.4023 44.6962C23.5546 44.8408 23.7566 44.9214 23.9666 44.9214C24.1765 44.9214 24.3785 44.8408 24.5308 44.6962C24.6781 44.546 24.7607 44.344 24.7607 44.1336C24.7607 43.9231 24.6781 43.7211 24.5308 43.5709Z" fill="#C47D3D"/>
<path d="M28.7033 35.64C28.4419 34.6837 28.0658 33.7943 27.2784 33.1568C27.1262 33.0122 26.9242 32.9315 26.7142 32.9315C26.5042 32.9315 26.3022 33.0122 26.15 33.1568C26.0026 33.307 25.92 33.509 25.92 33.7194C25.92 33.9298 26.0026 34.1318 26.15 34.282C26.7429 34.7602 26.9724 35.3563 27.1669 36.0639C27.4378 37.0521 28.9743 36.6313 28.7033 35.64Z" fill="#C47D3D"/>
<path d="M35.7164 17.773C35.6179 17.6168 35.5285 17.455 35.4487 17.2885C35.3626 17.0685 35.3626 16.8422 35.2925 16.584C35.0994 15.8616 34.7753 15.1809 34.3362 14.5758C33.7369 13.7597 32.3534 14.5534 32.9623 15.3822C33.4108 15.9885 33.714 16.6898 33.8485 17.4319C33.945 17.8438 34.111 18.2362 34.3394 18.5922C34.8366 19.4912 36.2137 18.6879 35.7164 17.7857V17.773Z" fill="#C47D3D"/>
<path d="M38.1581 16.9378L35.8024 17.0175C34.7792 17.0526 34.7728 18.6464 35.8024 18.6114L38.1581 18.5317C39.1814 18.4966 39.1845 16.9028 38.1581 16.9378Z" fill="#C47D3D"/>
<path d="M21.4451 52.7832C21.1263 53.2295 20.3039 52.933 19.9341 52.4007C19.3317 51.54 23.5681 45.0244 28.9839 32.8061C31.3779 27.4093 33.5487 20.2179 36.4112 13.0807C36.4435 12.9764 36.5119 12.8869 36.6043 12.8285C36.6966 12.7701 36.8067 12.7465 36.9149 12.762C36.9778 12.7732 37.0376 12.798 37.09 12.8345C37.1425 12.871 37.1865 12.9185 37.2189 12.9736C37.2513 13.0287 37.2714 13.0902 37.2778 13.1538C37.2842 13.2174 37.2767 13.2817 37.256 13.3421C36.5834 15.3344 33.995 24.6137 30.683 33.3129C27.371 42.0121 23.38 50.1024 21.4451 52.7832Z" fill="#C47D3D"/>
</g>
<defs>
<clipPath id="clip0">
<path d="M6 5H54V53H6V5Z" fill="white"/>
</clipPath>
</defs>
</svg>
