<svg width="60" height="76" viewBox="0 0 60 76" fill="none" xmlns="http://www.w3.org/2000/svg">
<path d="M0 0H60V76H0V0Z" fill="#F2F0F0"/>
<path d="M29.9967 28.0181C29.8521 27.5121 31.4422 26.6207 33.755 25.9124L42.91 23.1105C46.042 22.1468 49.0679 21.9059 49.251 22.5901L49.3763 23.0575C49.5594 23.7393 46.8707 25.0186 43.7002 25.7607L34.3766 27.9289C32.0083 28.4927 30.1508 28.5264 29.9967 28.0181Z" fill="#3B4549"/>
<path d="M30.0179 27.9964C29.4927 27.9964 29.0542 26.2353 28.9578 23.8188L28.6181 14.2639C28.5025 10.9826 29.0446 8 29.7553 8H30.2371C30.9599 8 31.4875 10.9296 31.3839 14.1844L31.0731 23.7514C30.996 26.1871 30.5479 27.9964 30.0179 27.9964Z" fill="#3B4549"/>
<path d="M29.982 27.9963C30.5072 27.9963 30.9457 29.7551 31.0421 32.1715L31.3818 41.736C31.4974 45.0125 30.9553 48 30.2422 48H29.7556C29.0497 48 28.51 45.0728 28.6136 41.8179L28.9244 32.2486C29.0039 29.8129 29.452 28.0084 29.982 27.9963Z" fill="#3B4549"/>
<path d="M30.0178 27.9964C29.5119 28.1385 28.6205 26.5509 27.9122 24.2356L25.1103 15.0807C24.1466 11.9487 23.9057 8.92274 24.5899 8.73964L25.0573 8.61436C25.7391 8.43126 27.0184 11.1199 27.7604 14.2904L29.9287 23.6141C30.4924 25.9919 30.5262 27.8494 30.0178 27.9964Z" fill="#3B4549"/>
<path d="M29.9817 27.9964C30.4877 27.8519 31.3791 29.4419 32.0874 31.7548L34.8893 40.9097C35.853 44.0417 36.0939 47.0677 35.4097 47.2508L34.9423 47.3761C34.2605 47.5591 32.9812 44.8705 32.2392 41.7L30.0709 32.3763C29.5143 30.0081 29.4734 28.1506 29.9817 27.9964Z" fill="#3B4549"/>
<path d="M30.0158 27.9964C29.5653 28.2662 28.2933 26.958 27.0091 24.9078L21.9354 16.7912C20.1959 14.023 19.1744 11.1561 19.7912 10.7995L20.2104 10.5586C20.8199 10.2044 22.7545 12.4715 24.2892 15.3432L28.8064 23.7754C29.9556 25.9317 30.4784 27.7193 30.0158 27.9964Z" fill="#3B4549"/>
<path d="M29.9963 28.0108C30.4468 27.7386 31.7188 29.0468 33.0029 31.097L38.0767 39.2088C39.8186 41.989 40.8377 44.8439 40.2209 45.2005L39.8017 45.4414C39.1922 45.7956 37.26 43.5285 35.7229 40.6567L31.2009 32.2173C30.0444 30.0683 29.5313 28.2807 29.9963 28.0108Z" fill="#3B4549"/>
<path d="M30.0132 27.9964C29.647 28.3746 28.0858 27.4399 26.3102 25.792L19.3091 19.2606C16.8999 17.0249 15.1821 14.5338 15.6953 14.0278L16.0229 13.6881C16.524 13.187 18.9766 14.8759 21.2027 17.2513L27.7509 24.238C29.4229 26.0136 30.3818 27.6061 30.0132 27.9964Z" fill="#3B4549"/>
<path d="M29.9964 28.0132C30.3626 27.635 31.9238 28.5698 33.6994 30.2177L40.7005 36.7394C43.1097 38.9751 44.8275 41.4686 44.3143 41.9722L43.9698 42.3143C43.4687 42.813 41.0161 41.1241 38.79 38.7487L32.2418 31.762C30.5771 29.9864 29.6182 28.3939 29.9964 28.0132Z" fill="#3B4549"/>
<path d="M30.0108 27.9964C29.7554 28.4542 27.9967 27.9603 25.8621 26.8255L17.4107 22.3251C14.5196 20.7881 12.202 18.827 12.5585 18.2102L12.7994 17.791C13.1536 17.1791 15.9603 18.1741 18.7261 19.8942L26.8644 24.9464C28.9291 26.2305 30.2662 27.5146 30.0108 27.9964Z" fill="#3B4549"/>
<path d="M29.9964 28.0156C30.2518 27.5578 32.0081 28.0541 34.1426 29.1865L42.5941 33.6748C45.4852 35.2119 47.8028 37.173 47.4462 37.7897L47.2053 38.2089C46.8512 38.8209 44.0445 37.8259 41.2787 36.1057L33.1476 31.0464C31.0733 29.7695 29.7338 28.4782 29.9964 28.0156Z" fill="#3B4549"/>
<path d="M29.9962 27.9819C29.8685 28.4902 28.0424 28.4637 25.6862 27.9241L16.3625 25.7775C13.1752 25.0427 10.4335 23.7465 10.619 23.0575L10.7443 22.5901C10.9274 21.9083 13.8955 22.1444 17.0082 23.0888L26.1632 25.8618C28.5073 26.5701 30.1336 27.4687 29.9962 27.9819Z" fill="#3B4549"/>
<path d="M29.9963 28.0181C30.124 27.5098 31.9477 27.5363 34.3039 28.0759L43.63 30.2225C46.827 30.9597 49.5663 32.2535 49.3807 32.9425L49.2555 33.4099C49.0724 34.0917 46.1042 33.8556 42.9915 32.9136L33.8366 30.1382C31.4924 29.4419 29.8662 28.5313 29.9963 28.0181Z" fill="#3B4549"/>
<path d="M29.9964 27.9819C29.9964 28.5071 28.2353 28.9456 25.8188 29.042L16.2639 29.3817C12.9826 29.4973 10 28.96 10 28.2373V27.7554C10 27.0495 12.9296 26.5099 16.1844 26.6135L25.7514 26.9243C28.1871 27.0038 29.9964 27.4519 29.9964 27.9819Z" fill="#3B4549"/>
<path d="M29.9963 28.0181C29.9963 27.4929 31.7551 27.0544 34.1715 26.958L43.736 26.6183C47.0125 26.5027 50 27.0448 50 27.7579V28.2397C50 28.9456 47.0728 29.4853 43.8179 29.3817L34.2486 29.0709C31.8129 28.9962 30.0084 28.5481 29.9963 28.0181Z" fill="#3B4549"/>
<path d="M29.9964 27.982C30.1385 28.4879 28.5508 29.3793 26.2356 30.0876L17.0806 32.8895C13.9487 33.8532 10.9227 34.0941 10.7396 33.4099L10.6143 32.9425C10.436 32.2607 13.1319 30.9814 16.2952 30.2394L25.6188 28.0711C27.9919 27.5146 29.8494 27.4736 29.9964 27.982Z" fill="#3B4549"/>
<path d="M29.9963 27.9964C30.2662 28.4469 28.958 29.719 26.9077 31.0031L18.7911 36.0648C16.0229 37.8067 13.156 38.8378 12.7994 38.209L12.5585 37.7898C12.2044 37.1803 14.4714 35.2481 17.3432 33.711L25.7826 29.201C27.9316 28.0446 29.7193 27.5314 29.9963 27.9964Z" fill="#3B4549"/>
<path d="M30.0111 28.0156C29.7388 27.5651 31.047 26.2931 33.0973 25.009L41.209 19.9352C43.9893 18.1957 46.8442 17.1742 47.2007 17.791L47.4416 18.2102C47.7958 18.8197 45.5287 20.7543 42.657 22.289L34.2248 26.8062C32.0685 27.9554 30.2809 28.4782 30.0111 28.0156Z" fill="#3B4549"/>
<path d="M29.9963 27.9964C30.3745 28.3626 29.4397 29.9238 27.7918 31.6994L21.2605 38.6909C19.0248 41.1001 16.5336 42.8178 16.0277 42.3047L15.688 41.9698C15.1869 41.4687 16.8757 39.0161 19.2512 36.79L26.2379 30.2418C28.0135 28.5771 29.606 27.6182 29.9963 27.9964Z" fill="#3B4549"/>
<path d="M30.0131 28.0133C29.6348 27.6471 30.5696 26.0859 32.2175 24.3103L38.7392 17.3092C40.9749 14.9 43.4685 13.1822 43.972 13.6954L44.3141 14.023C44.8128 14.5242 43.124 16.9767 40.7485 19.2028L33.7618 25.7511C31.9862 27.423 30.3937 28.3819 30.0131 28.0133Z" fill="#3B4549"/>
<path d="M29.9964 27.9964C30.4542 28.2518 29.9603 30.0081 28.8255 32.1426L24.3251 40.5893C22.7881 43.4804 20.827 45.798 20.2102 45.4415L19.791 45.2005C19.1791 44.8464 20.1741 42.0397 21.8942 39.2739L26.9536 31.1428C28.2305 29.0733 29.5146 27.7338 29.9964 27.9964Z" fill="#3B4549"/>
<path d="M30.0156 28.0109C29.5578 27.7555 30.0541 25.9968 31.1865 23.8622L35.6748 15.4107C37.2119 12.5197 39.173 10.202 39.7897 10.5586L40.2089 10.7995C40.8209 11.1537 39.8259 13.9604 38.1057 16.7261L33.0536 24.8644C31.7695 26.9291 30.4782 28.2662 30.0156 28.0109Z" fill="#3B4549"/>
<path d="M29.9821 27.9964C30.4904 28.124 30.4639 29.9478 29.9243 32.304L27.7777 41.63C27.0428 44.827 25.7467 47.5663 25.0577 47.3808L24.5903 47.2555C23.9085 47.0724 24.1446 44.1043 25.089 40.9916L27.862 31.8366C28.5703 29.4925 29.4689 27.8663 29.9821 27.9964Z" fill="#3B4549"/>
<path d="M30.018 27.9963C29.5097 27.8687 29.5362 26.0425 30.0759 23.6863L32.2225 14.3627C32.9597 11.1753 34.2534 8.43362 34.9425 8.61913L35.4098 8.74441C36.0916 8.92751 35.8555 11.8956 34.9135 15.0083L32.1381 24.1633C31.4419 26.5075 30.5312 28.1337 30.018 27.9963Z" fill="#3B4549"/>
<path d="M30.0013 33.5278C33.0536 33.5278 35.528 31.0535 35.528 28.0011C35.528 24.9488 33.0536 22.4744 30.0013 22.4744C26.949 22.4744 24.4746 24.9488 24.4746 28.0011C24.4746 31.0535 26.949 33.5278 30.0013 33.5278Z" fill="#C47D3D"/>
<path d="M30.0929 21.9035C30.6837 21.9035 31.1626 21.4246 31.1626 20.8338C31.1626 20.243 30.6837 19.7641 30.0929 19.7641C29.5021 19.7641 29.0232 20.243 29.0232 20.8338C29.0232 21.4246 29.5021 21.9035 30.0929 21.9035Z" fill="#C47D3D"/>
<path d="M30.0929 36.2239C30.6837 36.2239 31.1626 35.7449 31.1626 35.1542C31.1626 34.5634 30.6837 34.0845 30.0929 34.0845C29.5021 34.0845 29.0232 34.5634 29.0232 35.1542C29.0232 35.7449 29.5021 36.2239 30.0929 36.2239Z" fill="#C47D3D"/>
<path d="M26.5947 22.9009C27.1802 22.9009 27.6548 22.4263 27.6548 21.8409C27.6548 21.2554 27.1802 20.7808 26.5947 20.7808C26.0093 20.7808 25.5347 21.2554 25.5347 21.8409C25.5347 22.4263 26.0093 22.9009 26.5947 22.9009Z" fill="#C47D3D"/>
<path d="M33.6995 35.2095C34.2849 35.2095 34.7595 34.7349 34.7595 34.1495C34.7595 33.564 34.2849 33.0894 33.6995 33.0894C33.114 33.0894 32.6394 33.564 32.6394 34.1495C32.6394 34.7349 33.114 35.2095 33.6995 35.2095Z" fill="#C47D3D"/>
<path d="M23.9924 25.5028C24.5779 25.5028 25.0525 25.0282 25.0525 24.4428C25.0525 23.8574 24.5779 23.3828 23.9924 23.3828C23.407 23.3828 22.9324 23.8574 22.9324 24.4428C22.9324 25.0282 23.407 25.5028 23.9924 25.5028Z" fill="#C47D3D"/>
<path d="M36.3013 32.6076C36.8867 32.6076 37.3613 32.133 37.3613 31.5476C37.3613 30.9621 36.8867 30.4875 36.3013 30.4875C35.7158 30.4875 35.2412 30.9621 35.2412 31.5476C35.2412 32.133 35.7158 32.6076 36.3013 32.6076Z" fill="#C47D3D"/>
<path d="M22.9327 29.0637C23.5235 29.0637 24.0024 28.5848 24.0024 27.994C24.0024 27.4032 23.5235 26.9243 22.9327 26.9243C22.342 26.9243 21.863 27.4032 21.863 27.994C21.863 28.5848 22.342 29.0637 22.9327 29.0637Z" fill="#C47D3D"/>
<path d="M37.2528 29.0637C37.8436 29.0637 38.3225 28.5848 38.3225 27.994C38.3225 27.4032 37.8436 26.9243 37.2528 26.9243C36.662 26.9243 36.1831 27.4032 36.1831 27.994C36.1831 28.5848 36.662 29.0637 37.2528 29.0637Z" fill="#C47D3D"/>
<path d="M23.8917 32.6438C24.4825 32.6438 24.9614 32.1648 24.9614 31.5741C24.9614 30.9833 24.4825 30.5044 23.8917 30.5044C23.3009 30.5044 22.822 30.9833 22.822 31.5741C22.822 32.1648 23.3009 32.6438 23.8917 32.6438Z" fill="#C47D3D"/>
<path d="M36.2916 25.4835C36.8824 25.4835 37.3613 25.0046 37.3613 24.4139C37.3613 23.8231 36.8824 23.3442 36.2916 23.3442C35.7008 23.3442 35.2219 23.8231 35.2219 24.4139C35.2219 25.0046 35.7008 25.4835 36.2916 25.4835Z" fill="#C47D3D"/>
<path d="M26.5128 35.265C27.1036 35.265 27.5825 34.7861 27.5825 34.1953C27.5825 33.6045 27.1036 33.1256 26.5128 33.1256C25.922 33.1256 25.4431 33.6045 25.4431 34.1953C25.4431 34.7861 25.922 35.265 26.5128 35.265Z" fill="#C47D3D"/>
<path d="M33.6727 22.8648C34.2635 22.8648 34.7424 22.3859 34.7424 21.7951C34.7424 21.2043 34.2635 20.7254 33.6727 20.7254C33.0819 20.7254 32.603 21.2043 32.603 21.7951C32.603 22.3859 33.0819 22.8648 33.6727 22.8648Z" fill="#C47D3D"/>
<path d="M21.708 63.9072C21.708 65.557 21.2591 66.8193 20.3613 67.6943C19.4681 68.5648 18.1807 69 16.499 69H13.7305V59.0059H16.793C18.347 59.0059 19.5547 59.4365 20.416 60.2979C21.2773 61.1592 21.708 62.3623 21.708 63.9072ZM20.4775 63.9482C20.4775 62.6449 20.1494 61.6628 19.4932 61.002C18.8415 60.3411 17.8708 60.0107 16.5811 60.0107H14.8926V67.9951H16.3076C17.693 67.9951 18.7344 67.6556 19.4316 66.9766C20.1289 66.293 20.4775 65.2835 20.4775 63.9482Z" fill="#3B4549"/>
<path d="M28.3799 69L28.1543 67.9336H28.0996C27.7259 68.403 27.3522 68.722 26.9785 68.8906C26.6094 69.0547 26.1468 69.1367 25.5908 69.1367C24.848 69.1367 24.2646 68.9453 23.8408 68.5625C23.4215 68.1797 23.2119 67.6351 23.2119 66.9287C23.2119 65.4157 24.4219 64.6227 26.8418 64.5498L28.1133 64.5088V64.0439C28.1133 63.4561 27.9857 63.0231 27.7305 62.7451C27.4798 62.4626 27.0765 62.3213 26.5205 62.3213C25.8962 62.3213 25.1898 62.5127 24.4014 62.8955L24.0527 62.0273C24.4219 61.8268 24.8252 61.6696 25.2627 61.5557C25.7048 61.4417 26.1468 61.3848 26.5889 61.3848C27.4821 61.3848 28.1429 61.583 28.5713 61.9795C29.0042 62.376 29.2207 63.0117 29.2207 63.8867V69H28.3799ZM25.8164 68.2002C26.5228 68.2002 27.0765 68.0065 27.4775 67.6191C27.8831 67.2318 28.0859 66.6895 28.0859 65.9922V65.3154L26.9512 65.3633C26.0488 65.3952 25.3971 65.5365 24.9961 65.7871C24.5996 66.0332 24.4014 66.4183 24.4014 66.9424C24.4014 67.3525 24.5244 67.6647 24.7705 67.8789C25.0212 68.0931 25.3698 68.2002 25.8164 68.2002Z" fill="#3B4549"/>
<path d="M32.7002 69H31.5654V61.5078H32.7002V69ZM31.4697 59.4775C31.4697 59.2178 31.5335 59.0286 31.6611 58.9102C31.7887 58.7871 31.9482 58.7256 32.1396 58.7256C32.3219 58.7256 32.4792 58.7871 32.6113 58.9102C32.7435 59.0332 32.8096 59.2223 32.8096 59.4775C32.8096 59.7327 32.7435 59.9242 32.6113 60.0518C32.4792 60.1748 32.3219 60.2363 32.1396 60.2363C31.9482 60.2363 31.7887 60.1748 31.6611 60.0518C31.5335 59.9242 31.4697 59.7327 31.4697 59.4775Z" fill="#3B4549"/>
<path d="M39.9395 66.9561C39.9395 67.6533 39.6797 68.1911 39.1602 68.5693C38.6406 68.9476 37.9115 69.1367 36.9727 69.1367C35.9792 69.1367 35.2044 68.9795 34.6484 68.665V67.6123C35.0085 67.7946 35.3936 67.9382 35.8037 68.043C36.2184 68.1478 36.6172 68.2002 37 68.2002C37.5924 68.2002 38.0482 68.1068 38.3672 67.9199C38.6862 67.7285 38.8457 67.4391 38.8457 67.0518C38.8457 66.7601 38.7181 66.5117 38.4629 66.3066C38.2122 66.097 37.7201 65.8509 36.9863 65.5684C36.2891 65.3086 35.7923 65.083 35.4961 64.8916C35.2044 64.6956 34.9857 64.4746 34.8398 64.2285C34.6986 63.9824 34.6279 63.6885 34.6279 63.3467C34.6279 62.736 34.8763 62.2552 35.373 61.9043C35.8698 61.5488 36.5511 61.3711 37.417 61.3711C38.2236 61.3711 39.012 61.5352 39.7822 61.8633L39.3789 62.7861C38.627 62.4762 37.9456 62.3213 37.335 62.3213C36.7972 62.3213 36.3916 62.4056 36.1182 62.5742C35.8447 62.7428 35.708 62.9753 35.708 63.2715C35.708 63.472 35.7581 63.6429 35.8584 63.7842C35.9632 63.9255 36.1296 64.0599 36.3574 64.1875C36.5853 64.3151 37.0228 64.4997 37.6699 64.7412C38.5586 65.0648 39.1579 65.3906 39.4678 65.7188C39.7822 66.0469 39.9395 66.4593 39.9395 66.9561Z" fill="#3B4549"/>
<path d="M40.6025 61.5078H41.8193L43.46 65.7803C43.82 66.7555 44.0433 67.4596 44.1299 67.8926H44.1846C44.2438 67.6602 44.3669 67.2637 44.5537 66.7031C44.7451 66.138 45.3649 64.4062 46.4131 61.5078H47.6299L44.4102 70.0391C44.0911 70.8822 43.7174 71.4792 43.2891 71.8301C42.8652 72.1855 42.3434 72.3633 41.7236 72.3633C41.3773 72.3633 41.0355 72.3245 40.6982 72.2471V71.3379C40.9489 71.3926 41.2292 71.4199 41.5391 71.4199C42.3184 71.4199 42.8743 70.9824 43.207 70.1074L43.624 69.041L40.6025 61.5078Z" fill="#3B4549"/>
</svg>
