<svg width="288" height="36" viewBox="0 0 288 36" fill="none" xmlns="http://www.w3.org/2000/svg">
<path d="M0 0H288V36H0V0Z" fill="#3B4549"/>
<path d="M128.675 21H129.949V16.632H134.611V15.526H129.949V12.362H134.933V11.256H128.675V21Z" fill="#E9DED9"/>
<path d="M136.339 21H137.571V13.902H136.339V21ZM137.571 12.25V10.724H136.339V12.25H137.571Z" fill="#E9DED9"/>
<path d="M140.893 21V10.724H139.661V21H140.893Z" fill="#E9DED9"/>
<path d="M142.128 14.896H143.36V19.348C143.36 20.524 143.836 21.098 144.942 21.098C145.292 21.098 145.712 21.084 146.006 20.972V20.048C145.81 20.09 145.558 20.104 145.39 20.104C144.746 20.104 144.578 19.754 144.578 19.054V14.896H146.146V13.902H144.578V11.802H143.36V13.902H142.128V14.896Z" fill="#E9DED9"/>
<path d="M153.153 17.668C153.167 17.486 153.167 17.304 153.167 17.08C153.167 15.568 152.425 13.734 150.129 13.734C147.973 13.734 146.909 15.414 146.909 17.528C146.909 19.348 147.819 21.168 150.045 21.168C151.991 21.168 152.761 19.95 153.041 19.04H151.795C151.571 19.558 151.207 20.146 150.087 20.146C148.883 20.146 148.155 19.11 148.141 17.668H153.153ZM148.183 16.814C148.309 15.568 148.855 14.7 150.115 14.7C151.319 14.7 151.907 15.638 151.921 16.814H148.183Z" fill="#E9DED9"/>
<path d="M154.741 21H155.973V17.556C155.973 15.764 156.897 14.994 158.353 14.952V13.734C157.177 13.762 156.337 14.392 155.973 15.344C155.973 14.658 155.945 14.098 155.931 13.902H154.727C154.727 14.28 154.741 14.84 154.741 15.834V21Z" fill="#E9DED9"/>
</svg>
