<svg width="24" height="26" viewBox="0 0 24 26" fill="none" xmlns="http://www.w3.org/2000/svg">
<g clip-path="url(#clip0)">
<path d="M11.9352 14.1215C12.925 14.1215 13.7274 13.3733 13.7274 12.4502C13.7274 11.5271 12.925 10.7789 11.9352 10.7789C10.9454 10.7789 10.1431 11.5271 10.1431 12.4502C10.1431 13.3733 10.9454 14.1215 11.9352 14.1215Z" fill="#E9DED9"/>
<path d="M11.8087 25.7087L10.1978 13.434H13.7274L11.8087 25.7087Z" fill="#E9DED9"/>
<path d="M23.5513 5.90292L13.7275 13.434L11.9612 10.3761L23.5513 5.90292Z" fill="#E9DED9"/>
<path d="M0.526367 5.63538L11.9611 10.3761L10.1977 13.434L0.526367 5.63538Z" fill="#E9DED9"/>
<path d="M14.9587 2.56311C13.8268 1.89358 12.825 1.0253 12.0015 0C11.1758 1.02539 10.1721 1.89363 9.0385 2.56311C7.29524 3.5383 4.86159 5.71018 8.07482 9.54189C11.2881 13.3736 12.0015 13.8569 12.0015 13.8569C12.0015 13.8569 12.7149 13.3707 15.9281 9.54189C19.1413 5.71305 16.7048 3.5383 14.9587 2.56311Z" fill="#E9DED9"/>
<path d="M0.739302 16.7853C0.725757 18.1023 0.475332 19.4061 0 20.6343C1.30129 20.8355 2.55552 21.2701 3.70227 21.9173C5.42826 22.9385 8.51492 23.9597 10.2265 19.2621C11.9382 14.5645 12.0014 13.7044 12.0014 13.7044C12.0014 13.7044 11.219 13.3305 6.29989 12.4617C1.3808 11.593 0.710536 14.7889 0.739302 16.7853Z" fill="#E9DED9"/>
<path d="M20.3006 21.9173C21.4465 21.2705 22.6997 20.8358 24 20.6343C23.5247 19.406 23.2743 18.1023 23.2607 16.7853C23.2895 14.7889 22.625 11.6073 17.7001 12.4703C12.7753 13.3333 12.0015 13.713 12.0015 13.713C12.0015 13.713 12.0648 14.576 13.7735 19.2708C15.4822 23.9655 18.5833 22.9385 20.3006 21.9173Z" fill="#E9DED9"/>
<path d="M12.0014 12.2028C11.8464 12.2034 11.6947 12.1579 11.5656 12.0721C11.4365 11.9864 11.3358 11.8642 11.2762 11.7211C11.2166 11.578 11.2009 11.4205 11.231 11.2684C11.2611 11.1164 11.3356 10.9767 11.4452 10.8671C11.5548 10.7575 11.6945 10.6829 11.8466 10.6528C11.9986 10.6227 12.1562 10.6384 12.2993 10.698C12.4424 10.7576 12.5645 10.8583 12.6503 10.9874C12.7361 11.1166 12.7815 11.2682 12.781 11.4232C12.7802 11.6298 12.6978 11.8276 12.5518 11.9736C12.4058 12.1197 12.2079 12.202 12.0014 12.2028ZM12.0014 11.0953C11.9364 11.0947 11.8727 11.1135 11.8184 11.1492C11.7641 11.1848 11.7216 11.2359 11.6964 11.2957C11.6711 11.3556 11.6642 11.4216 11.6765 11.4854C11.6889 11.5492 11.7199 11.6079 11.7656 11.6541C11.8114 11.7002 11.8698 11.7318 11.9335 11.7446C11.9972 11.7575 12.0632 11.7512 12.1233 11.7265C12.1834 11.7017 12.2348 11.6597 12.271 11.6057C12.3071 11.5517 12.3264 11.4882 12.3265 11.4232C12.3265 11.3368 12.2923 11.2538 12.2314 11.1924C12.1705 11.1309 12.0879 11.0961 12.0014 11.0953Z" fill="#E9DED9"/>
<path d="M9.87554 15.6462C9.6851 15.646 9.50135 15.5759 9.35921 15.4491C9.21707 15.3224 9.12646 15.1478 9.1046 14.9586C9.09013 14.8574 9.09617 14.7543 9.12236 14.6555C9.14855 14.5566 9.19436 14.4641 9.25706 14.3833C9.31941 14.3017 9.39728 14.2332 9.4862 14.1817C9.57511 14.1303 9.67331 14.0969 9.77516 14.0835C9.87701 14.0702 9.9805 14.0771 10.0797 14.1038C10.1789 14.1306 10.2718 14.1767 10.3531 14.2395C10.512 14.3674 10.6151 14.552 10.6407 14.7544C10.6636 14.9577 10.606 15.1619 10.4802 15.3232C10.3543 15.4845 10.1703 15.5901 9.9676 15.6174L9.87554 15.6462ZM9.87554 14.5386H9.83239C9.78935 14.5441 9.74783 14.5581 9.71028 14.5798C9.67273 14.6016 9.63992 14.6306 9.61377 14.6652C9.57857 14.7075 9.55456 14.7579 9.54395 14.8118C9.53334 14.8658 9.53647 14.9216 9.55305 14.974C9.56963 15.0264 9.59912 15.0738 9.63883 15.1119C9.67853 15.1499 9.72716 15.1774 9.78025 15.1917C9.83334 15.2061 9.88918 15.2068 9.94263 15.1939C9.99609 15.181 10.0454 15.1549 10.0862 15.1179C10.1269 15.081 10.1576 15.0344 10.1756 14.9824C10.1936 14.9304 10.1982 14.8748 10.1891 14.8206C10.1845 14.778 10.1711 14.7369 10.1498 14.6998C10.1285 14.6626 10.0998 14.6303 10.0654 14.6048C10.0119 14.5631 9.94626 14.5399 9.87842 14.5386H9.87554Z" fill="#E9DED9"/>
<path d="M14.0611 15.7181C13.9069 15.7181 13.7562 15.6724 13.628 15.5867C13.4998 15.501 13.3998 15.3793 13.3408 15.2368C13.2818 15.0944 13.2664 14.9376 13.2965 14.7864C13.3266 14.6352 13.4008 14.4963 13.5098 14.3873C13.6189 14.2782 13.7578 14.204 13.909 14.1739C14.0602 14.1438 14.217 14.1593 14.3594 14.2183C14.5019 14.2773 14.6236 14.3772 14.7093 14.5054C14.7949 14.6336 14.8406 14.7843 14.8406 14.9385C14.8399 15.145 14.7575 15.3429 14.6115 15.4889C14.4654 15.635 14.2676 15.7173 14.0611 15.7181ZM14.0611 14.6106C13.996 14.6094 13.932 14.6277 13.8773 14.663C13.8227 14.6984 13.7797 14.7492 13.754 14.809C13.7283 14.8688 13.721 14.9349 13.733 14.9989C13.745 15.0629 13.7758 15.1219 13.8214 15.1683C13.867 15.2147 13.9254 15.2465 13.9892 15.2597C14.053 15.2728 14.1192 15.2666 14.1795 15.242C14.2397 15.2174 14.2913 15.1753 14.3276 15.1213C14.3639 15.0672 14.3832 15.0036 14.3833 14.9385C14.3833 14.8525 14.3495 14.77 14.2892 14.7086C14.229 14.6473 14.147 14.6121 14.0611 14.6106Z" fill="#E9DED9"/>
<path d="M12.3437 13.5318L10.6609 11.3226L11.6562 13.9259L13.3391 16.1381L12.3437 13.5318Z" fill="#E9DED9"/>
<path d="M12.3438 13.9288L13.4168 11.3657L11.6591 13.5289L10.5833 16.0921L12.3438 13.9288Z" fill="#E9DED9"/>
<path d="M11.9986 14.1244L14.7544 13.7735L12.0014 13.3333L9.24561 13.6843L11.9986 14.1244Z" fill=#E9DED9"/>
</g>
<defs>
<clipPath id="clip0">
<path d="M0 0H24V25.7087H0V0Z" fill="#E9DED9"/>
</clipPath>
</defs>
</svg>
