<svg width="24" height="28" viewBox="0 0 24 28" fill="none" xmlns="http://www.w3.org/2000/svg">
<g clip-path="url(#clip0)">
<path d="M6.39877 0H9.39492C10.4922 0.53469 11.7254 0.725726 12.933 0.548114C14.9315 0.344881 16.9053 0.548114 18.3834 2.18938C18.8579 2.70205 19.4957 3.03402 20.1878 3.12856C21.6074 3.39338 22.9192 3.91686 23.3811 5.49962C23.6118 6.23935 23.6676 7.02254 23.5443 7.78753C23.4317 8.41309 23.4783 9.0569 23.6798 9.65974C23.9144 10.3531 24.0188 11.0839 23.9877 11.8152C23.9045 13.4904 23.0639 14.3249 21.4349 14.3526C21.2446 14.3574 21.0572 14.4009 20.8841 14.4803C20.711 14.5597 20.5559 14.6734 20.428 14.8145C19.1101 16.0462 18.0077 16.2094 16.4034 15.4119C15.9733 15.2049 15.5657 14.9542 15.1871 14.6636C15.0316 14.5206 14.8376 14.4263 14.6291 14.3924C14.4206 14.3584 14.2067 14.3864 14.0139 14.4727C12.5512 15.0208 11.0177 15.3687 9.49038 14.9253C8.23297 14.5205 6.8802 14.5205 5.62279 14.9253C4.15396 15.3903 3.1963 14.8145 2.59276 13.3857C2.53 13.206 2.41889 13.0471 2.27166 12.9265C2.12443 12.8059 1.94679 12.7282 1.75828 12.7021C0.843726 12.4988 0.193995 12.0092 0 11.0269V10.2109C0.0585065 10.0169 0.113934 9.82294 0.17244 9.62895C0.489026 8.478 0.60568 7.28125 0.517321 6.09084C0.332563 4.28637 1.13318 3.23634 2.91301 2.95612L3.38722 2.88838C3.53417 2.87817 3.67378 2.82034 3.78491 2.72365C3.89604 2.62697 3.97263 2.4967 4.00308 2.35258C4.15334 1.78095 4.45529 1.26056 4.87701 0.846435C5.29872 0.432313 5.82451 0.139858 6.39877 0V0Z" fill="#829891"/>
<path d="M10.0754 27.2302C9.81985 27.0885 9.61354 26.9222 10.02 26.7344C10.562 26.4634 10.7652 25.983 10.8945 25.4318C11.2319 23.9313 11.4501 22.4064 11.5473 20.8714C11.5784 20.475 11.5296 20.0764 11.4037 19.6993C11.2778 19.3221 11.0774 18.9741 10.8145 18.6759C10.2747 18.0345 9.68249 17.4391 9.04387 16.8961C8.61954 16.5183 8.26059 16.073 7.98152 15.5781C7.88606 15.4057 7.6274 15.1655 7.91377 14.9992C8.20015 14.8329 8.38798 15.0362 8.52963 15.2702C8.65737 15.5074 8.83115 15.7168 9.04079 15.8861C9.25018 16.0339 9.48421 16.1601 9.45957 15.7321C9.43494 15.3041 9.63509 15.3472 9.92455 15.3934C10.4357 15.4734 10.953 15.5566 11.4642 15.5904C11.8768 15.6182 12.0092 15.8214 12.0185 16.2063C12.0706 16.9237 12.2776 17.6212 12.6251 18.2509C12.933 17.398 13.2009 16.6897 13.1701 15.9014C13.1701 15.6582 13.01 15.341 13.4165 15.2271C13.8229 15.1131 13.9399 15.381 14.0877 15.6428C14.331 15.5627 14.2017 15.2948 14.331 15.1901C14.9469 14.6759 15.1932 15.5381 15.6767 15.5904C15.9384 15.6182 16.1324 15.8306 15.8583 16.1232L15.8122 16.1755C14.2725 17.7644 13.7398 19.7382 13.6751 21.8845C13.6296 22.9057 13.6739 23.9288 13.8075 24.9422C13.9215 25.7367 14.2448 26.3649 15.0762 26.6143C15.175 26.6324 15.2673 26.676 15.344 26.7409C15.4207 26.8057 15.4791 26.8894 15.5135 26.9838C14.3125 27.1162 13.1116 26.8483 11.9815 27.2363L10.0754 27.2302Z" fill="#829891"/>
</g>
<defs>
<clipPath id="clip0">
<path d="M0 0H24V27.2302H0V0Z" fill="white"/>
</clipPath>
</defs>
</svg>
