<svg width="24" height="26" viewBox="0 0 24 26" fill="none" xmlns="http://www.w3.org/2000/svg">
<g clip-path="url(#clip0)">
<path d="M11.9353 14.1216C12.9251 14.1216 13.7275 13.3733 13.7275 12.4502C13.7275 11.5272 12.9251 10.7789 11.9353 10.7789C10.9455 10.7789 10.1431 11.5272 10.1431 12.4502C10.1431 13.3733 10.9455 14.1216 11.9353 14.1216Z" fill="#E9DED9"/>
<path d="M11.8087 25.7087L10.1978 13.434H13.7274L11.8087 25.7087Z" fill="#E9DED9"/>
<path d="M23.5513 5.90289L13.7275 13.434L11.9612 10.3761L23.5513 5.90289Z" fill="#E9DED9"/>
<path d="M0.526428 5.63538L11.9612 10.3761L10.1978 13.434L0.526428 5.63538Z" fill="#E9DED9"/>
<path d="M14.9587 2.56311C13.8268 1.89358 12.825 1.0253 12.0015 0C11.1758 1.02539 10.1721 1.89363 9.0385 2.56311C7.29524 3.5383 4.86159 5.71018 8.07482 9.54189C11.2881 13.3736 12.0015 13.8569 12.0015 13.8569C12.0015 13.8569 12.7149 13.3707 15.9281 9.54189C19.1413 5.71305 16.7048 3.5383 14.9587 2.56311Z" fill="#E9DED9"/>
<path d="M0.739302 16.7853C0.725757 18.1023 0.475332 19.4061 0 20.6343C1.30129 20.8355 2.55552 21.2701 3.70227 21.9173C5.42826 22.9385 8.51492 23.9597 10.2265 19.2621C11.9382 14.5645 12.0014 13.7044 12.0014 13.7044C12.0014 13.7044 11.219 13.3305 6.29989 12.4617C1.3808 11.593 0.710536 14.7889 0.739302 16.7853Z" fill="#E9DED9"/>
<path d="M20.3006 21.9173C21.4465 21.2705 22.6997 20.8359 24 20.6343C23.5247 19.4061 23.2743 18.1023 23.2607 16.7853C23.2895 14.7889 22.625 11.6074 17.7001 12.4704C12.7753 13.3334 12.0015 13.7131 12.0015 13.7131C12.0015 13.7131 12.0648 14.5761 13.7735 19.2708C15.4822 23.9655 18.5833 22.9385 20.3006 21.9173Z" fill="#E9DED9"/>
<path d="M12.0014 12.2028C11.8465 12.2033 11.6948 12.1579 11.5657 12.0721C11.4365 11.9864 11.3358 11.8642 11.2762 11.7211C11.2167 11.578 11.2009 11.4204 11.231 11.2684C11.2611 11.1163 11.3357 10.9767 11.4453 10.8671C11.5549 10.7575 11.6946 10.6829 11.8466 10.6528C11.9987 10.6227 12.1562 10.6384 12.2993 10.698C12.4424 10.7576 12.5646 10.8583 12.6504 10.9874C12.7361 11.1165 12.7816 11.2682 12.781 11.4232C12.7803 11.6297 12.6979 11.8276 12.5519 11.9736C12.4058 12.1196 12.208 12.202 12.0014 12.2028ZM12.0014 11.0953C11.9365 11.0947 11.8728 11.1134 11.8185 11.1491C11.7642 11.1848 11.7217 11.2358 11.6964 11.2957C11.6712 11.3556 11.6643 11.4216 11.6766 11.4854C11.6889 11.5492 11.7199 11.6079 11.7657 11.6541C11.8114 11.7002 11.8698 11.7317 11.9335 11.7446C11.9972 11.7575 12.0633 11.7512 12.1234 11.7264C12.1835 11.7017 12.2349 11.6597 12.271 11.6057C12.3072 11.5517 12.3265 11.4882 12.3265 11.4232C12.3265 11.3367 12.2924 11.2537 12.2315 11.1923C12.1706 11.1309 12.0879 11.096 12.0014 11.0953Z" fill="#829891"/>
<path d="M9.8756 15.6461C9.68516 15.646 9.50141 15.5759 9.35927 15.4491C9.21714 15.3224 9.12652 15.1478 9.10466 14.9586C9.09019 14.8574 9.09623 14.7543 9.12242 14.6555C9.14861 14.5566 9.19442 14.4641 9.25712 14.3833C9.31947 14.3017 9.39734 14.2331 9.48626 14.1817C9.57517 14.1303 9.67337 14.0969 9.77522 14.0835C9.87707 14.0702 9.98056 14.0771 10.0797 14.1038C10.1789 14.1306 10.2718 14.1767 10.3531 14.2395C10.512 14.3674 10.6152 14.552 10.6408 14.7544C10.6637 14.9577 10.606 15.1618 10.4802 15.3232C10.3544 15.4845 10.1704 15.5901 9.96766 15.6174L9.8756 15.6461ZM9.8756 14.5386H9.83245C9.78941 14.5441 9.74789 14.5581 9.71034 14.5798C9.67279 14.6015 9.63998 14.6306 9.61383 14.6652C9.57863 14.7075 9.55462 14.7579 9.54401 14.8118C9.5334 14.8658 9.53653 14.9215 9.55311 14.974C9.56969 15.0264 9.59919 15.0738 9.63889 15.1119C9.67859 15.1499 9.72722 15.1774 9.78031 15.1917C9.8334 15.206 9.88924 15.2068 9.94269 15.1939C9.99615 15.181 10.0455 15.1549 10.0862 15.1179C10.1269 15.081 10.1577 15.0343 10.1757 14.9824C10.1937 14.9304 10.1983 14.8748 10.1892 14.8205C10.1845 14.778 10.1711 14.7369 10.1498 14.6998C10.1286 14.6626 10.0998 14.6303 10.0655 14.6048C10.0119 14.5631 9.94633 14.5399 9.87848 14.5386H9.8756Z" fill="#829891"/>
<path d="M14.0611 15.7181C13.9069 15.7181 13.7562 15.6724 13.628 15.5867C13.4998 15.501 13.3999 15.3793 13.3409 15.2368C13.2819 15.0944 13.2665 14.9376 13.2965 14.7864C13.3266 14.6352 13.4009 14.4963 13.5099 14.3873C13.6189 14.2782 13.7578 14.204 13.909 14.1739C14.0603 14.1438 14.217 14.1593 14.3595 14.2183C14.5019 14.2773 14.6237 14.3772 14.7093 14.5054C14.795 14.6336 14.8407 14.7843 14.8407 14.9385C14.84 15.145 14.7576 15.3429 14.6115 15.4889C14.4655 15.635 14.2677 15.7173 14.0611 15.7181ZM14.0611 14.6106C13.996 14.6094 13.9321 14.6277 13.8774 14.663C13.8227 14.6984 13.7798 14.7492 13.7541 14.809C13.7284 14.8688 13.7211 14.9349 13.7331 14.9989C13.7451 15.0629 13.7758 15.1219 13.8214 15.1683C13.8671 15.2147 13.9255 15.2465 13.9893 15.2597C14.053 15.2728 14.1193 15.2666 14.1795 15.242C14.2398 15.2174 14.2913 15.1753 14.3276 15.1213C14.3639 15.0672 14.3833 15.0036 14.3833 14.9385C14.3833 14.8525 14.3496 14.77 14.2893 14.7086C14.229 14.6473 14.1471 14.6121 14.0611 14.6106Z" fill="#829891"/>
<path d="M12.3437 13.5318L10.6609 11.3226L11.6562 13.926L13.3391 16.1381L12.3437 13.5318Z" fill="#829891"/>
<path d="M12.3438 13.9288L13.4168 11.3657L11.6591 13.5289L10.5833 16.092L12.3438 13.9288Z" fill="#829891"/>
<path d="M11.9986 14.1244L14.7544 13.7734L12.0014 13.3333L9.24561 13.6843L11.9986 14.1244Z" fill="#829891"/>
</g>
<defs>
<clipPath id="clip0">
<path d="M0 0H24V25.7087H0V0Z" fill="white"/>
</clipPath>
</defs>
</svg>
