<svg width="60" height="76" viewBox="0 0 60 76" fill="none" xmlns="http://www.w3.org/2000/svg">
<path d="M0 0H60V76H0V0Z" fill="#F2F0F0"/>
<path d="M14.0254 71H12.8633V61.0059H18.4346V62.0381H14.0254V65.6953H18.168V66.7275H14.0254V71Z" fill="#3B4549"/>
<path d="M26.3916 67.2471C26.3916 68.4684 26.084 69.4232 25.4688 70.1113C24.8535 70.7949 24.0036 71.1367 22.9189 71.1367C22.249 71.1367 21.6543 70.9795 21.1348 70.665C20.6152 70.3506 20.2142 69.8994 19.9316 69.3115C19.6491 68.7236 19.5078 68.0355 19.5078 67.2471C19.5078 66.0257 19.8132 65.0755 20.4238 64.3965C21.0345 63.7129 21.8822 63.3711 22.9668 63.3711C24.015 63.3711 24.8467 63.7197 25.4619 64.417C26.0817 65.1143 26.3916 66.0576 26.3916 67.2471ZM20.6836 67.2471C20.6836 68.2041 20.875 68.9333 21.2578 69.4346C21.6406 69.9359 22.2035 70.1865 22.9463 70.1865C23.6891 70.1865 24.252 69.9382 24.6348 69.4414C25.0221 68.9401 25.2158 68.2087 25.2158 67.2471C25.2158 66.2946 25.0221 65.5723 24.6348 65.0801C24.252 64.5833 23.6846 64.335 22.9326 64.335C22.1898 64.335 21.6292 64.5788 21.251 65.0664C20.8727 65.554 20.6836 66.2809 20.6836 67.2471Z" fill="#3B4549"/>
<path d="M29.4541 63.5078V68.3682C29.4541 68.9788 29.5931 69.4346 29.8711 69.7354C30.1491 70.0361 30.5843 70.1865 31.1768 70.1865C31.9606 70.1865 32.5326 69.9723 32.8926 69.5439C33.2572 69.1156 33.4395 68.416 33.4395 67.4453V63.5078H34.5742V71H33.6377L33.4736 69.9951H33.4121C33.1797 70.3643 32.8561 70.6468 32.4414 70.8428C32.0312 71.0387 31.5618 71.1367 31.0332 71.1367C30.1217 71.1367 29.4382 70.9202 28.9824 70.4873C28.5312 70.0544 28.3057 69.3617 28.3057 68.4092V63.5078H29.4541Z" fill="#3B4549"/>
<path d="M40.4053 63.3711C40.738 63.3711 41.0365 63.3984 41.3008 63.4531L41.1436 64.5059C40.8337 64.4375 40.5602 64.4033 40.3232 64.4033C39.7171 64.4033 39.1976 64.6494 38.7646 65.1416C38.3363 65.6338 38.1221 66.2467 38.1221 66.9805V71H36.9873V63.5078H37.9238L38.0537 64.8955H38.1084C38.3864 64.4079 38.7214 64.0319 39.1133 63.7676C39.5052 63.5033 39.9359 63.3711 40.4053 63.3711Z" fill="#3B4549"/>
<path d="M45.9629 65.5928H48.7793V66.5361H45.9629V69.4482H45.0127V66.5361H42.21V65.5928H45.0127V62.667H45.9629V65.5928Z" fill="#3B4549"/>
<g clip-path="url(#clip0)">
<path d="M31.3295 6.75337C30.6384 11.8802 29.8757 17.0896 29.7463 22.2688C29.6306 26.9495 29.2975 31.6303 28.8046 36.3111C28.4412 39.7639 28.1465 43.4039 27.0342 46.7134C26.522 48.2333 28.9202 48.8859 29.4296 47.3743C30.4126 44.4474 30.721 41.2479 31.0817 38.1972C31.4864 34.7637 31.7783 31.3137 32.0206 27.8664C32.3455 23.2738 32.4088 18.6866 32.9182 14.0829C33.1898 11.6361 33.4881 9.19288 33.813 6.75337C34.025 5.17292 31.5387 5.18944 31.335 6.75337H31.3295Z" fill="#3B4549"/>
<path d="M23.7659 5.19773C23.5401 9.31131 23.4741 13.4442 23.5319 17.566C23.5391 20.8061 23.7229 24.0434 24.0826 27.2635C24.5424 30.9971 25.4813 34.6508 26.0099 38.3762C26.4257 41.2507 26.7699 44.1583 26.9681 47.0439C27.0783 48.6298 29.5646 48.6436 29.4462 47.0439C29.2892 44.7833 29.0359 42.5256 28.7468 40.2788C28.2595 36.2506 27.3536 32.3132 26.7176 28.3098C25.7759 22.3018 25.8916 16.0654 26.0595 10.0052C26.1036 8.40269 26.1531 6.79745 26.244 5.19773C26.3348 3.598 23.8458 3.60351 23.7659 5.19773Z" fill="#3B4549"/>
<path d="M19.008 6.75341C18.9254 12.8384 19.4871 18.9812 20.36 24.9974C21.0481 29.7939 22.0731 34.5359 23.4272 39.1884C24.1211 41.5619 24.8865 44.0014 26.076 46.1821C26.4477 46.8622 26.902 47.7102 27.6069 48.1094C28.9836 48.9162 30.2419 46.7713 28.8597 45.9646C29.135 46.1325 29.0001 46.1573 28.8597 45.915C28.6614 45.5928 28.9616 46.0995 28.7303 45.7443C28.5844 45.5268 28.4549 45.3065 28.3173 45.078C27.2517 43.1946 26.5936 41.0718 25.9769 39.0205C23.43 30.562 22.1331 21.7704 21.6678 12.9651C21.5577 10.8973 21.4723 8.83497 21.4999 6.75065C21.5219 5.15093 19.0383 5.14817 19.008 6.75341Z" fill="#3B4549"/>
<path d="M29.3058 47.6717C30.887 44.941 32.3208 42.1276 33.6011 39.2435C36.4839 32.9575 38.8876 26.4017 40.3938 19.6366C41.3646 15.4094 41.8806 11.0904 41.9329 6.75344C41.9329 5.15371 39.4548 5.15096 39.4548 6.75344C39.3833 19.587 34.6199 32.3876 28.7001 43.6269C28.2045 44.5659 27.7033 45.5048 27.1609 46.4189C26.3349 47.7956 28.4881 49.0456 29.3058 47.6717Z" fill="#3B4549"/>
<path d="M27.0369 46.7135L26.2879 50.4444C25.9768 52.0055 28.3723 52.6746 28.6862 51.1052L29.4323 47.3743C29.7435 45.8131 27.348 45.1441 27.0369 46.7135Z" fill="#C47D3D"/>
</g>
<defs>
<clipPath id="clip0">
<path d="M6 4H54V52H6V4Z" fill="white"/>
</clipPath>
</defs>
</svg>
