<svg width="24" height="13" viewBox="0 0 24 13" fill="none" xmlns="http://www.w3.org/2000/svg">
<g clip-path="url(#clip0)">
<path fill-rule="evenodd" clip-rule="evenodd" d="M0 12.0171C0 11.4771 0.437774 11.0393 0.977796 11.0393H23.0222C23.5622 11.0393 24 11.4771 24 12.0171C24 12.5571 23.5622 12.9949 23.0222 12.9949H0.977796C0.437774 12.9949 0 12.5571 0 12.0171Z" fill="#E9DED9"/>
<path fill-rule="evenodd" clip-rule="evenodd" d="M0 6.49745C0 5.95743 0.437774 5.51965 0.977796 5.51965H23.0222C23.5622 5.51965 24 5.95743 24 6.49745C24 7.03747 23.5622 7.47524 23.0222 7.47524H0.977796C0.437774 7.47524 0 7.03747 0 6.49745Z" fill="#E9DED9"/>
<path fill-rule="evenodd" clip-rule="evenodd" d="M0 0.977796C0 0.437774 0.437774 0 0.977796 0H23.0222C23.5622 0 24 0.437774 24 0.977796C24 1.51782 23.5622 1.95559 23.0222 1.95559H0.977796C0.437774 1.95559 0 1.51782 0 0.977796Z" fill="#E9DED9"/>
</g>
<defs>
<clipPath id="clip0">
<path d="M0 0H24V12.9949H0V0Z" fill="#E9DED9"/>
</clipPath>
</defs>
</svg>
