<svg width="24" height="24" viewBox="0 0 24 24" fill="none" xmlns="http://www.w3.org/2000/svg">
<path fill-rule="evenodd" clip-rule="evenodd" d="M0 18.0171C0 17.4771 0.437774 17.0393 0.977796 17.0393H23.0222C23.5622 17.0393 24 17.4771 24 18.0171C24 18.5571 23.5622 18.9949 23.0222 18.9949H0.977796C0.437774 18.9949 0 18.5571 0 18.0171Z" fill="#829891"/>
<path fill-rule="evenodd" clip-rule="evenodd" d="M0 12.4974C0 11.9574 0.437774 11.5197 0.977796 11.5197H23.0222C23.5622 11.5197 24 11.9574 24 12.4974C24 13.0375 23.5622 13.4752 23.0222 13.4752H0.977796C0.437774 13.4752 0 13.0375 0 12.4974Z" fill="#829891"/>
<path fill-rule="evenodd" clip-rule="evenodd" d="M0 6.9778C0 6.43777 0.437774 6 0.977796 6H23.0222C23.5622 6 24 6.43777 24 6.9778C24 7.51782 23.5622 7.95559 23.0222 7.95559H0.977796C0.437774 7.95559 0 7.51782 0 6.9778Z" fill="#829891"/>
</svg>
