<svg width="236" height="36" viewBox="0 0 236 36" fill="none" xmlns="http://www.w3.org/2000/svg">
<path d="M0 0H236V36H0V0Z" fill="#3B4549"/>
<path d="M57.327 24H51.615V23.36C51.9777 23.3493 52.2657 23.3173 52.479 23.264C52.703 23.2 52.8737 23.088 52.991 22.928C53.1083 22.768 53.1883 22.544 53.231 22.256C53.2737 21.9573 53.295 21.5573 53.295 21.056V14.624C53.295 14.176 53.2737 13.808 53.231 13.52C53.199 13.2213 53.1297 12.9866 53.023 12.816C52.9163 12.6453 52.7617 12.528 52.559 12.464C52.367 12.3893 52.1057 12.3413 51.775 12.32V11.68H57.167V12.32C56.8363 12.3413 56.5697 12.3893 56.367 12.464C56.175 12.528 56.0257 12.6453 55.919 12.816C55.8123 12.9866 55.7377 13.2213 55.695 13.52C55.663 13.808 55.647 14.176 55.647 14.624V21.056C55.647 21.5573 55.663 21.9573 55.695 22.256C55.7377 22.544 55.8177 22.768 55.935 22.928C56.063 23.088 56.2337 23.2 56.447 23.264C56.671 23.3173 56.9643 23.3493 57.327 23.36V24Z" fill="#E9DED9"/>
<path d="M62.0104 21.392C62.0104 21.8293 62.021 22.176 62.0424 22.432C62.0744 22.6773 62.133 22.8693 62.2184 23.008C62.3144 23.136 62.453 23.2213 62.6344 23.264C62.8264 23.3066 63.0824 23.3386 63.4024 23.36V24H58.3624V23.36C58.6717 23.3386 58.917 23.3066 59.0984 23.264C59.2904 23.2213 59.4344 23.136 59.5304 23.008C59.637 22.88 59.7064 22.6986 59.7384 22.464C59.7704 22.2293 59.7864 21.9093 59.7864 21.504V19.504C59.7864 18.8746 59.7757 18.368 59.7544 17.984C59.733 17.5893 59.7064 17.3226 59.6744 17.184C59.6424 17.0453 59.5997 16.9333 59.5464 16.848C59.493 16.752 59.413 16.6826 59.3064 16.64C59.1997 16.5866 59.0664 16.5546 58.9064 16.544C58.7464 16.5226 58.5437 16.512 58.2984 16.512V15.968L61.3864 15.36L61.5944 16.768H61.6584C62.0104 16.32 62.4264 15.9733 62.9064 15.728C63.3864 15.4826 63.9144 15.36 64.4904 15.36C65.173 15.36 65.7224 15.456 66.1384 15.648C66.565 15.8293 66.9437 16.1386 67.2744 16.576C67.4557 16.8213 67.6157 17.1413 67.7544 17.536C67.893 17.92 67.9624 18.4533 67.9624 19.136V21.392C67.9624 21.8293 67.973 22.176 67.9944 22.432C68.0264 22.6773 68.085 22.8693 68.1704 23.008C68.2664 23.136 68.405 23.2213 68.5864 23.264C68.7677 23.3066 69.013 23.3386 69.3224 23.36V24H64.3144V23.36C64.6344 23.3493 64.885 23.3226 65.0664 23.28C65.2584 23.2266 65.4024 23.136 65.4984 23.008C65.5944 22.88 65.6584 22.6986 65.6904 22.464C65.7224 22.2186 65.7384 21.8986 65.7384 21.504V19.328C65.7384 18.784 65.7064 18.3253 65.6424 17.952C65.5784 17.5786 65.4717 17.28 65.3224 17.056C65.1837 16.8213 64.997 16.656 64.7624 16.56C64.5277 16.4533 64.2344 16.4 63.8824 16.4C63.541 16.4 63.2477 16.496 63.0024 16.688C62.757 16.88 62.5437 17.1466 62.3624 17.488C62.2664 17.68 62.181 17.9306 62.1064 18.24C62.0424 18.5386 62.0104 18.8533 62.0104 19.184V21.392Z" fill="#E9DED9"/>
<path d="M70.8834 24H70.3874V21.088H71.0594C71.2407 21.856 71.502 22.416 71.8434 22.768C72.1847 23.12 72.6274 23.296 73.1714 23.296C73.566 23.296 73.87 23.216 74.0834 23.056C74.3074 22.8853 74.4194 22.656 74.4194 22.368C74.4194 22.0693 74.286 21.7813 74.0194 21.504C73.7527 21.216 73.3207 20.912 72.7234 20.592C71.9127 20.1546 71.3314 19.7226 70.9794 19.296C70.6274 18.8586 70.4514 18.368 70.4514 17.824C70.4514 17.472 70.5154 17.1466 70.6434 16.848C70.782 16.5386 70.9634 16.272 71.1874 16.048C71.422 15.824 71.6994 15.6533 72.0194 15.536C72.3394 15.408 72.686 15.344 73.0594 15.344C73.39 15.344 73.7154 15.392 74.0354 15.488C74.366 15.584 74.654 15.7173 74.8994 15.888L75.1874 15.504H75.6034V17.92H74.9794C74.734 17.312 74.478 16.8746 74.2114 16.608C73.9554 16.3413 73.6407 16.208 73.2674 16.208C72.9687 16.208 72.7287 16.288 72.5474 16.448C72.3767 16.608 72.2914 16.8213 72.2914 17.088C72.2914 17.3866 72.4194 17.6693 72.6754 17.936C72.942 18.2026 73.3794 18.496 73.9874 18.816C74.414 19.0506 74.782 19.28 75.0914 19.504C75.4007 19.728 75.6514 19.9573 75.8434 20.192C76.0354 20.416 76.174 20.656 76.2594 20.912C76.3554 21.1573 76.4034 21.424 76.4034 21.712C76.4034 22.0853 76.334 22.4213 76.1954 22.72C76.0567 23.0186 75.8594 23.2746 75.6034 23.488C75.3474 23.7013 75.038 23.8666 74.6754 23.984C74.3234 24.1013 73.9287 24.16 73.4914 24.16C73.0327 24.16 72.606 24.1013 72.2114 23.984C71.8167 23.856 71.4914 23.6746 71.2354 23.44L70.8834 24Z" fill="#E9DED9"/>
<path d="M77.3765 16.4V15.68C78.0165 15.4986 78.5498 15.2266 78.9765 14.864C79.4138 14.4906 79.7392 14.064 79.9525 13.584H80.7685V15.52H82.6085V16.4H80.7685V21.312C80.7685 21.9733 80.8378 22.4426 80.9765 22.72C81.1258 22.9973 81.3712 23.136 81.7125 23.136C82.1285 23.136 82.4432 22.944 82.6565 22.56L82.9925 23.024C82.6938 23.7813 81.9898 24.16 80.8805 24.16C80.1445 24.16 79.5685 23.9893 79.1525 23.648C78.7472 23.3066 78.5445 22.8266 78.5445 22.208V16.4H77.3765Z" fill="#E9DED9"/>
<path d="M87.2139 21.52C87.2139 21.936 87.2299 22.2666 87.2619 22.512C87.3045 22.7466 87.3845 22.928 87.5019 23.056C87.6192 23.184 87.7899 23.2693 88.0139 23.312C88.2379 23.344 88.5365 23.36 88.9099 23.36V24H83.5659V23.36C83.8859 23.3386 84.1419 23.3066 84.3339 23.264C84.5259 23.2213 84.6699 23.136 84.7659 23.008C84.8619 22.88 84.9205 22.6986 84.9419 22.464C84.9739 22.2186 84.9899 21.8933 84.9899 21.488V19.536C84.9899 18.8746 84.9739 18.3466 84.9419 17.952C84.9099 17.5573 84.8405 17.2533 84.7339 17.04C84.6272 16.8266 84.4725 16.688 84.2699 16.624C84.0779 16.5493 83.8219 16.512 83.5019 16.512V15.952L86.7019 15.36L86.9579 17.2H87.0219C87.3099 16.6346 87.6885 16.1866 88.1579 15.856C88.6272 15.5253 89.1232 15.36 89.6459 15.36C90.0512 15.36 90.3819 15.4613 90.6379 15.664C90.8939 15.8666 91.0219 16.1226 91.0219 16.432C91.0219 16.7733 90.9205 17.0613 90.7179 17.296C90.5259 17.5306 90.2592 17.648 89.9179 17.648C89.7579 17.648 89.6139 17.616 89.4859 17.552C89.3579 17.488 89.2405 17.4186 89.1339 17.344C89.0379 17.2586 88.9365 17.184 88.8299 17.12C88.7339 17.0453 88.6325 17.008 88.5259 17.008C88.3232 17.008 88.1312 17.1413 87.9499 17.408C87.7685 17.6746 87.6192 18.032 87.5019 18.48C87.4165 18.8 87.3472 19.1626 87.2939 19.568C87.2405 19.9626 87.2139 20.3573 87.2139 20.752V21.52Z" fill="#E9DED9"/>
<path d="M98.4946 18.144C98.4946 17.7173 98.4839 17.3813 98.4626 17.136C98.4413 16.88 98.3826 16.688 98.2866 16.56C98.1906 16.4213 98.0466 16.3306 97.8546 16.288C97.6733 16.2346 97.4226 16.192 97.1026 16.16V15.52H100.719V20.368C100.719 21.0186 100.724 21.5306 100.735 21.904C100.756 22.2666 100.788 22.5386 100.831 22.72C100.863 22.8586 100.9 22.9706 100.943 23.056C100.985 23.1306 101.055 23.1946 101.151 23.248C101.247 23.2906 101.375 23.3226 101.535 23.344C101.705 23.3546 101.924 23.36 102.191 23.36V23.984L99.0066 24.176L98.8306 22.752H98.7666C98.4893 23.2 98.0999 23.5466 97.5986 23.792C97.0973 24.0373 96.5373 24.16 95.9186 24.16C94.7773 24.16 93.9079 23.7546 93.3106 22.944C92.8519 22.3253 92.6226 21.4453 92.6226 20.304V18.144C92.6226 17.7066 92.6119 17.3653 92.5906 17.12C92.5693 16.864 92.5106 16.672 92.4146 16.544C92.3293 16.416 92.1959 16.3306 92.0146 16.288C91.8333 16.2346 91.5826 16.192 91.2626 16.16V15.52H94.8466V20.048C94.8466 21.1253 94.9799 21.9093 95.2466 22.4C95.5133 22.88 95.9399 23.12 96.5266 23.12C97.1559 23.12 97.6413 22.832 97.9826 22.256C98.324 21.7013 98.4946 20.8853 98.4946 19.808V18.144Z" fill="#E9DED9"/>
<path d="M110.846 22.672C110.441 23.12 109.934 23.4666 109.326 23.712C108.729 23.9573 108.078 24.08 107.374 24.08C106.724 24.08 106.132 23.9786 105.598 23.776C105.065 23.5626 104.606 23.2693 104.222 22.896C103.838 22.5226 103.54 22.0746 103.326 21.552C103.124 21.0186 103.022 20.432 103.022 19.792C103.022 19.1306 103.134 18.528 103.358 17.984C103.582 17.44 103.897 16.976 104.302 16.592C104.708 16.1973 105.193 15.8933 105.758 15.68C106.324 15.4666 106.948 15.36 107.63 15.36C108.11 15.36 108.553 15.408 108.958 15.504C109.374 15.6 109.726 15.7333 110.014 15.904C110.313 16.0746 110.548 16.2773 110.718 16.512C110.889 16.736 110.974 16.9813 110.974 17.248C110.974 17.5573 110.884 17.8026 110.702 17.984C110.532 18.1653 110.297 18.256 109.998 18.256C109.753 18.256 109.534 18.192 109.342 18.064C109.161 17.936 108.98 17.728 108.798 17.44C108.638 17.184 108.5 16.9813 108.382 16.832C108.276 16.6826 108.174 16.5706 108.078 16.496C107.982 16.4106 107.886 16.3573 107.79 16.336C107.694 16.304 107.577 16.288 107.438 16.288C106.82 16.288 106.34 16.576 105.998 17.152C105.657 17.728 105.486 18.5333 105.486 19.568C105.486 20.6773 105.689 21.5306 106.094 22.128C106.51 22.7253 107.102 23.024 107.87 23.024C108.308 23.024 108.745 22.944 109.182 22.784C109.62 22.6133 110.036 22.3733 110.43 22.064L110.846 22.672Z" fill="#E9DED9"/>
<path d="M111.83 16.4V15.68C112.47 15.4986 113.003 15.2266 113.43 14.864C113.867 14.4906 114.192 14.064 114.406 13.584H115.222V15.52H117.062V16.4H115.222V21.312C115.222 21.9733 115.291 22.4426 115.43 22.72C115.579 22.9973 115.824 23.136 116.166 23.136C116.582 23.136 116.896 22.944 117.11 22.56L117.446 23.024C117.147 23.7813 116.443 24.16 115.334 24.16C114.598 24.16 114.022 23.9893 113.606 23.648C113.2 23.3066 112.998 22.8266 112.998 22.208V16.4H111.83Z" fill="#E9DED9"/>
<path d="M121.651 21.376C121.651 21.8026 121.667 22.144 121.699 22.4C121.731 22.656 121.795 22.8533 121.891 22.992C121.987 23.1306 122.126 23.2266 122.307 23.28C122.488 23.3226 122.734 23.3493 123.043 23.36V24H118.003V23.36C118.302 23.3493 118.542 23.3173 118.723 23.264C118.915 23.2 119.059 23.104 119.155 22.976C119.262 22.8373 119.331 22.6506 119.363 22.416C119.406 22.1706 119.427 21.8613 119.427 21.488V19.52C119.427 18.9013 119.416 18.3946 119.395 18C119.374 17.5946 119.347 17.3173 119.315 17.168C119.262 16.9013 119.139 16.7253 118.947 16.64C118.766 16.5546 118.43 16.512 117.939 16.512V15.968L121.651 15.36V21.376ZM119.299 11.968C119.299 11.616 119.416 11.3226 119.651 11.088C119.896 10.8426 120.19 10.72 120.531 10.72C120.883 10.72 121.176 10.8426 121.411 11.088C121.656 11.3226 121.779 11.616 121.779 11.968C121.779 12.3093 121.656 12.6026 121.411 12.848C121.176 13.0826 120.883 13.2 120.531 13.2C120.19 13.2 119.896 13.0826 119.651 12.848C119.416 12.6026 119.299 12.3093 119.299 11.968Z" fill="#E9DED9"/>
<path d="M128.568 15.36C129.208 15.36 129.811 15.472 130.376 15.696C130.952 15.9093 131.454 16.208 131.88 16.592C132.318 16.976 132.659 17.4346 132.904 17.968C133.16 18.4906 133.288 19.0666 133.288 19.696C133.288 20.3466 133.16 20.944 132.904 21.488C132.659 22.032 132.318 22.5013 131.88 22.896C131.454 23.2906 130.952 23.6 130.376 23.824C129.811 24.048 129.208 24.16 128.568 24.16C127.939 24.16 127.342 24.0533 126.776 23.84C126.211 23.616 125.715 23.3066 125.288 22.912C124.862 22.5173 124.526 22.048 124.28 21.504C124.035 20.9493 123.912 20.3466 123.912 19.696C123.912 19.0666 124.035 18.4853 124.28 17.952C124.526 17.4186 124.862 16.96 125.288 16.576C125.715 16.192 126.211 15.8933 126.776 15.68C127.342 15.4666 127.939 15.36 128.568 15.36ZM128.568 16.288C128.248 16.288 127.955 16.3733 127.688 16.544C127.422 16.704 127.192 16.9333 127 17.232C126.819 17.5306 126.675 17.8933 126.568 18.32C126.472 18.736 126.424 19.2 126.424 19.712C126.424 20.2453 126.472 20.7253 126.568 21.152C126.675 21.5786 126.819 21.9413 127 22.24C127.192 22.5386 127.416 22.7733 127.672 22.944C127.939 23.104 128.238 23.184 128.568 23.184C128.899 23.184 129.198 23.104 129.464 22.944C129.742 22.7733 129.976 22.5386 130.168 22.24C130.36 21.9306 130.51 21.5626 130.616 21.136C130.723 20.7093 130.776 20.2346 130.776 19.712C130.776 19.2 130.723 18.736 130.616 18.32C130.51 17.904 130.36 17.5466 130.168 17.248C129.976 16.9386 129.742 16.704 129.464 16.544C129.198 16.3733 128.899 16.288 128.568 16.288Z" fill="#E9DED9"/>
<path d="M137.995 21.392C137.995 21.8293 138.005 22.176 138.027 22.432C138.059 22.6773 138.117 22.8693 138.203 23.008C138.299 23.136 138.437 23.2213 138.619 23.264C138.811 23.3066 139.067 23.3386 139.387 23.36V24H134.347V23.36C134.656 23.3386 134.901 23.3066 135.083 23.264C135.275 23.2213 135.419 23.136 135.515 23.008C135.621 22.88 135.691 22.6986 135.723 22.464C135.755 22.2293 135.771 21.9093 135.771 21.504V19.504C135.771 18.8746 135.76 18.368 135.739 17.984C135.717 17.5893 135.691 17.3226 135.659 17.184C135.627 17.0453 135.584 16.9333 135.531 16.848C135.477 16.752 135.397 16.6826 135.291 16.64C135.184 16.5866 135.051 16.5546 134.891 16.544C134.731 16.5226 134.528 16.512 134.283 16.512V15.968L137.371 15.36L137.579 16.768H137.643C137.995 16.32 138.411 15.9733 138.891 15.728C139.371 15.4826 139.899 15.36 140.475 15.36C141.157 15.36 141.707 15.456 142.123 15.648C142.549 15.8293 142.928 16.1386 143.259 16.576C143.44 16.8213 143.6 17.1413 143.739 17.536C143.877 17.92 143.947 18.4533 143.947 19.136V21.392C143.947 21.8293 143.957 22.176 143.979 22.432C144.011 22.6773 144.069 22.8693 144.155 23.008C144.251 23.136 144.389 23.2213 144.571 23.264C144.752 23.3066 144.997 23.3386 145.307 23.36V24H140.299V23.36C140.619 23.3493 140.869 23.3226 141.051 23.28C141.243 23.2266 141.387 23.136 141.483 23.008C141.579 22.88 141.643 22.6986 141.675 22.464C141.707 22.2186 141.723 21.8986 141.723 21.504V19.328C141.723 18.784 141.691 18.3253 141.627 17.952C141.563 17.5786 141.456 17.28 141.307 17.056C141.168 16.8213 140.981 16.656 140.747 16.56C140.512 16.4533 140.219 16.4 139.867 16.4C139.525 16.4 139.232 16.496 138.987 16.688C138.741 16.88 138.528 17.1466 138.347 17.488C138.251 17.68 138.165 17.9306 138.091 18.24C138.027 18.5386 137.995 18.8533 137.995 19.184V21.392Z" fill="#E9DED9"/>
<path d="M146.868 24H146.372V21.088H147.044C147.225 21.856 147.486 22.416 147.828 22.768C148.169 23.12 148.612 23.296 149.156 23.296C149.55 23.296 149.854 23.216 150.068 23.056C150.292 22.8853 150.404 22.656 150.404 22.368C150.404 22.0693 150.27 21.7813 150.004 21.504C149.737 21.216 149.305 20.912 148.708 20.592C147.897 20.1546 147.316 19.7226 146.964 19.296C146.612 18.8586 146.436 18.368 146.436 17.824C146.436 17.472 146.5 17.1466 146.628 16.848C146.766 16.5386 146.948 16.272 147.172 16.048C147.406 15.824 147.684 15.6533 148.004 15.536C148.324 15.408 148.67 15.344 149.044 15.344C149.374 15.344 149.7 15.392 150.02 15.488C150.35 15.584 150.638 15.7173 150.884 15.888L151.172 15.504H151.588V17.92H150.964C150.718 17.312 150.462 16.8746 150.196 16.608C149.94 16.3413 149.625 16.208 149.252 16.208C148.953 16.208 148.713 16.288 148.532 16.448C148.361 16.608 148.276 16.8213 148.276 17.088C148.276 17.3866 148.404 17.6693 148.66 17.936C148.926 18.2026 149.364 18.496 149.972 18.816C150.398 19.0506 150.766 19.28 151.076 19.504C151.385 19.728 151.636 19.9573 151.828 20.192C152.02 20.416 152.158 20.656 152.244 20.912C152.34 21.1573 152.388 21.424 152.388 21.712C152.388 22.0853 152.318 22.4213 152.18 22.72C152.041 23.0186 151.844 23.2746 151.588 23.488C151.332 23.7013 151.022 23.8666 150.66 23.984C150.308 24.1013 149.913 24.16 149.476 24.16C149.017 24.16 148.59 24.1013 148.196 23.984C147.801 23.856 147.476 23.6746 147.22 23.44L146.868 24Z" fill="#E9DED9"/>
<path fill-rule="evenodd" clip-rule="evenodd" d="M25 10.6931C20.9645 10.6931 17.6931 13.9645 17.6931 18C17.6931 22.0355 20.9645 25.3069 25 25.3069C29.0355 25.3069 32.3069 22.0355 32.3069 18C32.3069 13.9645 29.0355 10.6931 25 10.6931ZM16 18C16 13.0294 20.0294 9 25 9C29.9706 9 34 13.0294 34 18C34 22.9706 29.9706 27 25 27C20.0294 27 16 22.9706 16 18Z" fill="#E9DED9"/>
<path d="M22.0648 15.5113C22.0648 15.1176 22.1836 14.7197 22.4212 14.3177C22.6589 13.9115 23.0056 13.5758 23.4614 13.3105C23.9172 13.0453 24.449 12.9127 25.0568 12.9127C25.6217 12.9127 26.1204 13.0246 26.5528 13.2484C26.9853 13.468 27.3183 13.7685 27.5521 14.1498C27.7898 14.5311 27.9086 14.9456 27.9086 15.3932C27.9086 15.7455 27.8404 16.0542 27.704 16.3195C27.5716 16.5847 27.4119 16.8148 27.2248 17.0095C27.0417 17.2002 26.7106 17.5235 26.2314 17.9794C26.0989 18.1079 25.9918 18.2218 25.91 18.3213C25.8321 18.4166 25.7736 18.5057 25.7347 18.5886C25.6957 18.6674 25.6645 18.7482 25.6412 18.8311C25.6217 18.9098 25.5905 19.0507 25.5477 19.2538C25.4737 19.6849 25.2418 19.9004 24.8523 19.9004C24.6497 19.9004 24.4783 19.8299 24.338 19.689C24.2016 19.5481 24.1335 19.3388 24.1335 19.0611C24.1335 18.713 24.1841 18.4125 24.2854 18.1597C24.3867 17.9027 24.5211 17.6789 24.6886 17.4882C24.8562 17.2934 25.0821 17.0634 25.3665 16.7982C25.6159 16.5661 25.7951 16.392 25.9041 16.276C26.0171 16.1558 26.1106 16.0231 26.1846 15.8781C26.2626 15.733 26.3015 15.5755 26.3015 15.4056C26.3015 15.074 26.1846 14.7943 25.9509 14.5663C25.721 14.3384 25.423 14.2244 25.0568 14.2244C24.6282 14.2244 24.3127 14.3405 24.1101 14.5726C23.9075 14.8005 23.7361 15.1383 23.5958 15.5859C23.4634 16.0542 23.2121 16.2884 22.842 16.2884C22.6238 16.2884 22.4388 16.2076 22.2868 16.0459C22.1388 15.8802 22.0648 15.7019 22.0648 15.5113ZM24.9165 22.3249C24.6789 22.3249 24.4705 22.2441 24.2913 22.0825C24.1159 21.9167 24.0283 21.6867 24.0283 21.3924C24.0283 21.1313 24.114 20.9116 24.2854 20.7334C24.4568 20.5552 24.6672 20.4661 24.9165 20.4661C25.162 20.4661 25.3685 20.5552 25.536 20.7334C25.7035 20.9116 25.7873 21.1313 25.7873 21.3924C25.7873 21.6825 25.6996 21.9105 25.5243 22.0763C25.349 22.242 25.1464 22.3249 24.9165 22.3249Z" fill="#E9DED9"/>
</svg>
