<svg width="60" height="76" viewBox="0 0 60 76" fill="none" xmlns="http://www.w3.org/2000/svg">
<path d="M0 0H60V76H0V0Z" fill="#F2F0F0"/>
<path d="M29.0913 39.6925C29.0913 39.6925 33.903 47.635 33.6186 47.9835C33.3342 48.3319 42.0377 42.7619 39.7189 37.6197C37.4002 32.4776 29.0913 39.6925 29.0913 39.6925Z" fill="#C47D3D"/>
<path d="M43.183 30.9608C43.183 30.9608 48.174 38.7881 48.6147 38.6907C49.0554 38.5933 40.1982 43.9123 36.6112 39.5567C33.0243 35.2011 43.183 30.9608 43.183 30.9608Z" fill="#C47D3D"/>
<path d="M35.4966 21.3913C30.6773 14.0457 30.2827 14.5197 28.2433 13.3796C27.5208 12.9748 26.5907 12.9568 25.7068 13.0926C24.7402 13.2366 23.8133 13.5765 22.9828 14.0916C22.1523 14.6066 21.4358 15.2859 20.8772 16.0877C20.3648 16.8179 19.9702 17.6609 20.0112 18.4859C20.124 20.8097 19.5296 20.9609 23.9799 28.5422C28.4534 36.167 25.94 39.6822 24.5462 42.1598C24.5462 42.1598 30.2187 46.1567 33.078 39.7975C33.078 39.7975 38.0485 44.5887 42.2529 45.0908C43.6672 41.1042 41.5714 34.5272 41.5714 34.5272C48.5429 34.7835 47.4642 27.9375 47.4642 27.9375C44.6305 28.0861 40.3646 28.7779 35.4966 21.3913Z" fill="#3B4549"/>
<path d="M34.9357 16.7257C34.887 16.9614 33.8289 16.8743 32.4402 16.5182L26.9445 15.1141C25.0588 14.6325 23.4139 13.9048 23.4857 13.5769L23.5369 13.3591C23.6112 13.044 25.3304 13.2797 27.1879 13.8561L32.6196 15.5523C34.0031 15.9955 34.9844 16.4874 34.9357 16.7257Z" fill="#3B4549"/>
<path d="M20.306 26.9588C20.5417 27.0151 20.9132 26.021 21.1823 24.6119L22.2507 19.0495C22.617 17.1382 22.658 15.3396 22.3403 15.2704L22.1226 15.2243C21.8049 15.1551 21.2822 16.8205 21.0183 18.7395L20.2497 24.3762C20.0421 25.811 20.0703 26.9101 20.306 26.9588Z" fill="#3B4549"/>
<path fill-rule="evenodd" clip-rule="evenodd" d="M21.7677 10.7642C21.7679 10.7644 21.7681 10.7646 21.3307 11.2326L21.7681 10.7646C22.0266 11.0062 22.0402 11.4115 21.7987 11.6699C21.5573 11.9282 21.1524 11.942 20.894 11.7011C20.894 11.7011 20.8939 11.701 20.8939 11.701C20.8939 11.701 20.8938 11.701 20.8938 11.7009C20.8938 11.7009 20.8937 11.7008 20.8937 11.7008C20.8936 11.7007 20.8935 11.7006 20.8933 11.7005L20.8928 11.7L20.8847 11.6926C20.8767 11.6854 20.8638 11.6738 20.8462 11.6582C20.8107 11.627 20.7562 11.5799 20.6837 11.5203C20.5386 11.4009 20.3224 11.2317 20.0453 11.0391C19.4893 10.6526 18.6976 10.1783 17.7499 9.81972C15.8655 9.1066 13.4001 8.85681 10.8857 10.6335C10.5968 10.8376 10.1971 10.7689 9.99295 10.48C9.78881 10.1911 9.85753 9.79137 10.1464 9.58723C13.1073 7.4951 16.0492 7.8064 18.2033 8.62159C19.2749 9.02711 20.1602 9.5588 20.7765 9.98723C21.0855 10.2021 21.3293 10.3926 21.4976 10.531C21.5818 10.6003 21.6472 10.6567 21.6927 10.6967C21.7155 10.7167 21.7332 10.7327 21.7458 10.7442C21.7522 10.7499 21.7572 10.7545 21.7609 10.7579L21.7655 10.7622L21.7671 10.7636L21.7677 10.7642Z" fill="#C47D3D"/>
<path d="M21.3309 11.2326C21.5432 11.1026 21.7949 11.0529 22.0407 11.0924C22.2864 11.1318 22.5099 11.2579 22.6709 11.4478L24.0518 13.0184C24.164 13.1392 24.2488 13.2828 24.3002 13.4395C24.3517 13.5962 24.3686 13.7621 24.3498 13.9259C24.3311 14.0897 24.2771 14.2475 24.1916 14.3885C24.1061 14.5295 23.9911 14.6503 23.8546 14.7427L23.4651 14.9989C23.3245 15.0828 23.1675 15.1354 23.0048 15.1534C22.842 15.1713 22.6774 15.1541 22.5219 15.1028C22.3664 15.0515 22.2237 14.9674 22.1035 14.8562C21.9834 14.745 21.8885 14.6093 21.8254 14.4583L20.9671 12.5572C20.8569 12.3298 20.8331 12.0701 20.9 11.8265C20.967 11.5829 21.12 11.3718 21.3309 11.2326Z" fill="#3B4549"/>
<path d="M3.61426 69V59.0059H4.77637V69H3.61426Z" fill="#3B4549"/>
<path d="M10.7715 61.3711C11.1042 61.3711 11.4027 61.3984 11.667 61.4531L11.5098 62.5059C11.1999 62.4375 10.9264 62.4033 10.6895 62.4033C10.0833 62.4033 9.5638 62.6494 9.13086 63.1416C8.70247 63.6338 8.48828 64.2467 8.48828 64.9805V69H7.35352V61.5078H8.29004L8.41992 62.8955H8.47461C8.7526 62.4079 9.08756 62.0319 9.47949 61.7676C9.87142 61.5033 10.3021 61.3711 10.7715 61.3711Z" fill="#3B4549"/>
<path d="M16.4863 61.3711C16.819 61.3711 17.1175 61.3984 17.3818 61.4531L17.2246 62.5059C16.9147 62.4375 16.6413 62.4033 16.4043 62.4033C15.7982 62.4033 15.2786 62.6494 14.8457 63.1416C14.4173 63.6338 14.2031 64.2467 14.2031 64.9805V69H13.0684V61.5078H14.0049L14.1348 62.8955H14.1895C14.4674 62.4079 14.8024 62.0319 15.1943 61.7676C15.5863 61.5033 16.0169 61.3711 16.4863 61.3711Z" fill="#3B4549"/>
<path d="M21.9482 69.1367C20.8408 69.1367 19.9658 68.7995 19.3232 68.125C18.6852 67.4505 18.3662 66.514 18.3662 65.3154C18.3662 64.1077 18.6624 63.1484 19.2549 62.4375C19.8519 61.7266 20.6517 61.3711 21.6543 61.3711C22.5931 61.3711 23.3359 61.681 23.8828 62.3008C24.4297 62.916 24.7031 63.7295 24.7031 64.7412V65.459H19.542C19.5648 66.3385 19.7858 67.0062 20.2051 67.4619C20.6289 67.9176 21.2236 68.1455 21.9893 68.1455C22.7959 68.1455 23.5934 67.9769 24.3818 67.6396V68.6514C23.9808 68.8245 23.6003 68.9476 23.2402 69.0205C22.8848 69.098 22.4541 69.1367 21.9482 69.1367ZM21.6406 62.3213C21.0391 62.3213 20.5583 62.5173 20.1982 62.9092C19.8428 63.3011 19.6331 63.8434 19.5693 64.5361H23.4863C23.4863 63.8206 23.3268 63.2738 23.0078 62.8955C22.6888 62.5127 22.2331 62.3213 21.6406 62.3213Z" fill="#3B4549"/>
<path d="M32.7764 61.5078V62.2256L31.3887 62.3896C31.5163 62.5492 31.6302 62.7588 31.7305 63.0186C31.8307 63.2738 31.8809 63.5632 31.8809 63.8867C31.8809 64.6204 31.6302 65.2061 31.1289 65.6436C30.6276 66.0811 29.9395 66.2998 29.0645 66.2998C28.8411 66.2998 28.6315 66.2816 28.4355 66.2451C27.9525 66.5003 27.7109 66.8216 27.7109 67.209C27.7109 67.4141 27.7952 67.5667 27.9639 67.667C28.1325 67.7627 28.4219 67.8105 28.832 67.8105H30.1582C30.9694 67.8105 31.5915 67.9814 32.0244 68.3232C32.4619 68.665 32.6807 69.1618 32.6807 69.8135C32.6807 70.6429 32.348 71.2741 31.6826 71.707C31.0173 72.1445 30.0465 72.3633 28.7705 72.3633C27.7907 72.3633 27.0342 72.181 26.501 71.8164C25.9723 71.4518 25.708 70.9368 25.708 70.2715C25.708 69.8158 25.8538 69.4215 26.1455 69.0889C26.4372 68.7562 26.8473 68.5306 27.376 68.4121C27.1846 68.3255 27.0228 68.1911 26.8906 68.0088C26.763 67.8265 26.6992 67.6146 26.6992 67.373C26.6992 67.0996 26.7721 66.8604 26.918 66.6553C27.0638 66.4502 27.2939 66.252 27.6084 66.0605C27.221 65.901 26.9043 65.6299 26.6582 65.2471C26.4167 64.8643 26.2959 64.4268 26.2959 63.9346C26.2959 63.1143 26.542 62.4831 27.0342 62.041C27.5264 61.5944 28.2236 61.3711 29.126 61.3711C29.5179 61.3711 29.8711 61.4167 30.1855 61.5078H32.7764ZM26.8018 70.2578C26.8018 70.6634 26.9727 70.971 27.3145 71.1807C27.6562 71.3903 28.1462 71.4951 28.7842 71.4951C29.7367 71.4951 30.4408 71.3516 30.8965 71.0645C31.3568 70.7819 31.5869 70.3968 31.5869 69.9092C31.5869 69.5036 31.4616 69.221 31.2109 69.0615C30.9603 68.9066 30.4886 68.8291 29.7959 68.8291H28.4355C27.9206 68.8291 27.5195 68.9521 27.2324 69.1982C26.9453 69.4443 26.8018 69.7975 26.8018 70.2578ZM27.417 63.9072C27.417 64.4313 27.5651 64.8278 27.8613 65.0967C28.1576 65.3656 28.57 65.5 29.0986 65.5C30.2061 65.5 30.7598 64.9622 30.7598 63.8867C30.7598 62.7611 30.1992 62.1982 29.0781 62.1982C28.5449 62.1982 28.1348 62.3418 27.8477 62.6289C27.5605 62.916 27.417 63.3421 27.417 63.9072Z" fill="#3B4549"/>
<path d="M35.3809 61.5078V66.3682C35.3809 66.9788 35.5199 67.4346 35.7979 67.7354C36.0758 68.0361 36.5111 68.1865 37.1035 68.1865C37.8874 68.1865 38.4593 67.9723 38.8193 67.5439C39.1839 67.1156 39.3662 66.416 39.3662 65.4453V61.5078H40.501V69H39.5645L39.4004 67.9951H39.3389C39.1064 68.3643 38.7829 68.6468 38.3682 68.8428C37.958 69.0387 37.4886 69.1367 36.96 69.1367C36.0485 69.1367 35.3649 68.9202 34.9092 68.4873C34.458 68.0544 34.2324 67.3617 34.2324 66.4092V61.5078H35.3809Z" fill="#3B4549"/>
<path d="M44.0488 69H42.9141V58.3633H44.0488V69Z" fill="#3B4549"/>
<path d="M51.0625 69L50.8369 67.9336H50.7822C50.4085 68.403 50.0348 68.722 49.6611 68.8906C49.292 69.0547 48.8294 69.1367 48.2734 69.1367C47.5306 69.1367 46.9473 68.9453 46.5234 68.5625C46.1042 68.1797 45.8945 67.6351 45.8945 66.9287C45.8945 65.4157 47.1045 64.6227 49.5244 64.5498L50.7959 64.5088V64.0439C50.7959 63.4561 50.6683 63.0231 50.4131 62.7451C50.1624 62.4626 49.7591 62.3213 49.2031 62.3213C48.5788 62.3213 47.8724 62.5127 47.084 62.8955L46.7354 62.0273C47.1045 61.8268 47.5078 61.6696 47.9453 61.5557C48.3874 61.4417 48.8294 61.3848 49.2715 61.3848C50.1647 61.3848 50.8255 61.583 51.2539 61.9795C51.6868 62.376 51.9033 63.0117 51.9033 63.8867V69H51.0625ZM48.499 68.2002C49.2054 68.2002 49.7591 68.0065 50.1602 67.6191C50.5658 67.2318 50.7686 66.6895 50.7686 65.9922V65.3154L49.6338 65.3633C48.7314 65.3952 48.0798 65.5365 47.6787 65.7871C47.2822 66.0332 47.084 66.4183 47.084 66.9424C47.084 67.3525 47.207 67.6647 47.4531 67.8789C47.7038 68.0931 48.0524 68.2002 48.499 68.2002Z" fill="#3B4549"/>
<path d="M57.666 61.3711C57.9987 61.3711 58.2972 61.3984 58.5615 61.4531L58.4043 62.5059C58.0944 62.4375 57.821 62.4033 57.584 62.4033C56.9779 62.4033 56.4583 62.6494 56.0254 63.1416C55.597 63.6338 55.3828 64.2467 55.3828 64.9805V69H54.248V61.5078H55.1846L55.3145 62.8955H55.3691C55.6471 62.4079 55.9821 62.0319 56.374 61.7676C56.7659 61.5033 57.1966 61.3711 57.666 61.3711Z" fill="#3B4549"/>
</svg>
