<svg width="100" height="36" viewBox="0 0 100 36" fill="none" xmlns="http://www.w3.org/2000/svg">
<path d="M0 0H100V36H0V0Z" fill="#3B4549"/>
<path fill-rule="evenodd" clip-rule="evenodd" d="M98 2H2V34H98V2ZM0 0V36H100V0H0Z" fill="#3B4549"/>
<path d="M13.8584 23V13.0059H15.0205V21.9473H19.4297V23H13.8584Z" fill="#E9DED9"/>
<path d="M25.5684 23L25.3428 21.9336H25.2881C24.9144 22.403 24.5407 22.722 24.167 22.8906C23.7979 23.0547 23.3353 23.1367 22.7793 23.1367C22.0365 23.1367 21.4531 22.9453 21.0293 22.5625C20.61 22.1797 20.4004 21.6351 20.4004 20.9287C20.4004 19.4157 21.6104 18.6227 24.0303 18.5498L25.3018 18.5088V18.0439C25.3018 17.4561 25.1742 17.0231 24.9189 16.7451C24.6683 16.4626 24.265 16.3213 23.709 16.3213C23.0846 16.3213 22.3783 16.5127 21.5898 16.8955L21.2412 16.0273C21.6104 15.8268 22.0137 15.6696 22.4512 15.5557C22.8932 15.4417 23.3353 15.3848 23.7773 15.3848C24.6706 15.3848 25.3314 15.583 25.7598 15.9795C26.1927 16.376 26.4092 17.0117 26.4092 17.8867V23H25.5684ZM23.0049 22.2002C23.7113 22.2002 24.265 22.0065 24.666 21.6191C25.0716 21.2318 25.2744 20.6895 25.2744 19.9922V19.3154L24.1396 19.3633C23.2373 19.3952 22.5856 19.5365 22.1846 19.7871C21.7881 20.0332 21.5898 20.4183 21.5898 20.9424C21.5898 21.3525 21.7129 21.6647 21.959 21.8789C22.2096 22.0931 22.5583 22.2002 23.0049 22.2002Z" fill="#E9DED9"/>
<path d="M31.1738 22.2002C31.3743 22.2002 31.568 22.1865 31.7549 22.1592C31.9417 22.1273 32.0898 22.0954 32.1992 22.0635V22.9316C32.0762 22.9909 31.8939 23.0387 31.6523 23.0752C31.4154 23.1162 31.2012 23.1367 31.0098 23.1367C29.5605 23.1367 28.8359 22.3734 28.8359 20.8467V16.3896H27.7627V15.8428L28.8359 15.3711L29.3145 13.7715H29.9707V15.5078H32.1445V16.3896H29.9707V20.7988C29.9707 21.25 30.0778 21.5964 30.292 21.8379C30.5062 22.0794 30.8001 22.2002 31.1738 22.2002Z" fill="#E9DED9"/>
<path d="M34.8379 23H33.7031V15.5078H34.8379V23ZM33.6074 13.4775C33.6074 13.2178 33.6712 13.0286 33.7988 12.9102C33.9264 12.7871 34.0859 12.7256 34.2773 12.7256C34.4596 12.7256 34.6169 12.7871 34.749 12.9102C34.8812 13.0332 34.9473 13.2223 34.9473 13.4775C34.9473 13.7327 34.8812 13.9242 34.749 14.0518C34.6169 14.1748 34.4596 14.2363 34.2773 14.2363C34.0859 14.2363 33.9264 14.1748 33.7988 14.0518C33.6712 13.9242 33.6074 13.7327 33.6074 13.4775Z" fill="#E9DED9"/>
<path d="M42.3711 23V18.1533C42.3711 17.5426 42.2321 17.0869 41.9541 16.7861C41.6761 16.4854 41.2409 16.335 40.6484 16.335C39.8646 16.335 39.2904 16.5469 38.9258 16.9707C38.5612 17.3945 38.3789 18.0941 38.3789 19.0693V23H37.2441V15.5078H38.167L38.3516 16.5332H38.4062C38.6387 16.1641 38.9645 15.8792 39.3838 15.6787C39.8031 15.4736 40.2702 15.3711 40.7852 15.3711C41.6875 15.3711 42.3665 15.5898 42.8223 16.0273C43.278 16.4603 43.5059 17.1553 43.5059 18.1123V23H42.3711Z" fill="#E9DED9"/>
<path d="M57.458 23H56.1318L50.6699 14.6123H50.6152C50.6882 15.5967 50.7246 16.499 50.7246 17.3193V23H49.6514V13.0059H50.9639L56.4121 21.3594H56.4668C56.4577 21.2363 56.4372 20.8421 56.4053 20.1768C56.3734 19.5068 56.362 19.0283 56.3711 18.7412V13.0059H57.458V23Z" fill="#E9DED9"/>
<path d="M64.6426 23L64.417 21.9336H64.3623C63.9886 22.403 63.6149 22.722 63.2412 22.8906C62.8721 23.0547 62.4095 23.1367 61.8535 23.1367C61.1107 23.1367 60.5273 22.9453 60.1035 22.5625C59.6842 22.1797 59.4746 21.6351 59.4746 20.9287C59.4746 19.4157 60.6846 18.6227 63.1045 18.5498L64.376 18.5088V18.0439C64.376 17.4561 64.2484 17.0231 63.9932 16.7451C63.7425 16.4626 63.3392 16.3213 62.7832 16.3213C62.1589 16.3213 61.4525 16.5127 60.6641 16.8955L60.3154 16.0273C60.6846 15.8268 61.0879 15.6696 61.5254 15.5557C61.9674 15.4417 62.4095 15.3848 62.8516 15.3848C63.7448 15.3848 64.4056 15.583 64.834 15.9795C65.2669 16.376 65.4834 17.0117 65.4834 17.8867V23H64.6426ZM62.0791 22.2002C62.7855 22.2002 63.3392 22.0065 63.7402 21.6191C64.1458 21.2318 64.3486 20.6895 64.3486 19.9922V19.3154L63.2139 19.3633C62.3115 19.3952 61.6598 19.5365 61.2588 19.7871C60.8623 20.0332 60.6641 20.4183 60.6641 20.9424C60.6641 21.3525 60.7871 21.6647 61.0332 21.8789C61.2839 22.0931 61.6325 22.2002 62.0791 22.2002Z" fill="#E9DED9"/>
<path d="M77.3779 23V18.126C77.3779 17.529 77.2503 17.0824 76.9951 16.7861C76.7399 16.4854 76.3434 16.335 75.8057 16.335C75.0993 16.335 74.5775 16.5378 74.2402 16.9434C73.903 17.349 73.7344 17.9733 73.7344 18.8164V23H72.5996V18.126C72.5996 17.529 72.472 17.0824 72.2168 16.7861C71.9616 16.4854 71.5628 16.335 71.0205 16.335C70.3096 16.335 69.7878 16.5492 69.4551 16.9775C69.127 17.4014 68.9629 18.0986 68.9629 19.0693V23H67.8281V15.5078H68.751L68.9355 16.5332H68.9902C69.2044 16.1686 69.5052 15.8838 69.8926 15.6787C70.2845 15.4736 70.722 15.3711 71.2051 15.3711C72.3763 15.3711 73.1419 15.7949 73.502 16.6426H73.5566C73.7799 16.2507 74.1035 15.9408 74.5273 15.7129C74.9512 15.485 75.4342 15.3711 75.9766 15.3711C76.8242 15.3711 77.4577 15.5898 77.877 16.0273C78.3008 16.4603 78.5127 17.1553 78.5127 18.1123V23H77.3779Z" fill="#E9DED9"/>
<path d="M84.0225 23.1367C82.915 23.1367 82.04 22.7995 81.3975 22.125C80.7594 21.4505 80.4404 20.514 80.4404 19.3154C80.4404 18.1077 80.7367 17.1484 81.3291 16.4375C81.9261 15.7266 82.7259 15.3711 83.7285 15.3711C84.6673 15.3711 85.4102 15.681 85.957 16.3008C86.5039 16.916 86.7773 17.7295 86.7773 18.7412V19.459H81.6162C81.639 20.3385 81.86 21.0062 82.2793 21.4619C82.7031 21.9176 83.2979 22.1455 84.0635 22.1455C84.8701 22.1455 85.6676 21.9769 86.4561 21.6396V22.6514C86.055 22.8245 85.6745 22.9476 85.3145 23.0205C84.959 23.098 84.5283 23.1367 84.0225 23.1367ZM83.7148 16.3213C83.1133 16.3213 82.6325 16.5173 82.2725 16.9092C81.917 17.3011 81.7074 17.8434 81.6436 18.5361H85.5605C85.5605 17.8206 85.401 17.2738 85.082 16.8955C84.763 16.5127 84.3073 16.3213 83.7148 16.3213Z" fill="#E9DED9"/>
</svg>
