<svg width="60" height="76" viewBox="0 0 60 76" fill="none" xmlns="http://www.w3.org/2000/svg">
<path d="M0 0H60V76H0V0Z" fill="#F2F0F0"/>
<path d="M9.62988 71V61.0059H10.792V69.9473H15.2012V71H9.62988Z" fill="#3B4549"/>
<path d="M19.8975 71.1367C18.79 71.1367 17.915 70.7995 17.2725 70.125C16.6344 69.4505 16.3154 68.514 16.3154 67.3154C16.3154 66.1077 16.6117 65.1484 17.2041 64.4375C17.8011 63.7266 18.6009 63.3711 19.6035 63.3711C20.5423 63.3711 21.2852 63.681 21.832 64.3008C22.3789 64.916 22.6523 65.7295 22.6523 66.7412V67.459H17.4912C17.514 68.3385 17.735 69.0062 18.1543 69.4619C18.5781 69.9176 19.1729 70.1455 19.9385 70.1455C20.7451 70.1455 21.5426 69.9769 22.3311 69.6396V70.6514C21.93 70.8245 21.5495 70.9476 21.1895 71.0205C20.834 71.098 20.4033 71.1367 19.8975 71.1367ZM19.5898 64.3213C18.9883 64.3213 18.5075 64.5173 18.1475 64.9092C17.792 65.3011 17.5824 65.8434 17.5186 66.5361H21.4355C21.4355 65.8206 21.276 65.2738 20.957 64.8955C20.638 64.5127 20.1823 64.3213 19.5898 64.3213Z" fill="#3B4549"/>
<path d="M29.2012 71L28.9756 69.9336H28.9209C28.5472 70.403 28.1735 70.722 27.7998 70.8906C27.4307 71.0547 26.9681 71.1367 26.4121 71.1367C25.6693 71.1367 25.0859 70.9453 24.6621 70.5625C24.2428 70.1797 24.0332 69.6351 24.0332 68.9287C24.0332 67.4157 25.2432 66.6227 27.6631 66.5498L28.9346 66.5088V66.0439C28.9346 65.4561 28.807 65.0231 28.5518 64.7451C28.3011 64.4626 27.8978 64.3213 27.3418 64.3213C26.7174 64.3213 26.0111 64.5127 25.2227 64.8955L24.874 64.0273C25.2432 63.8268 25.6465 63.6696 26.084 63.5557C26.526 63.4417 26.9681 63.3848 27.4102 63.3848C28.3034 63.3848 28.9642 63.583 29.3926 63.9795C29.8255 64.376 30.042 65.0117 30.042 65.8867V71H29.2012ZM26.6377 70.2002C27.3441 70.2002 27.8978 70.0065 28.2988 69.6191C28.7044 69.2318 28.9072 68.6895 28.9072 67.9922V67.3154L27.7725 67.3633C26.8701 67.3952 26.2184 67.5365 25.8174 67.7871C25.4209 68.0332 25.2227 68.4183 25.2227 68.9424C25.2227 69.3525 25.3457 69.6647 25.5918 69.8789C25.8424 70.0931 26.1911 70.2002 26.6377 70.2002Z" fill="#3B4549"/>
<path d="M34.0273 71L31.1836 63.5078H32.4004L34.0137 67.9512C34.3783 68.9902 34.5924 69.6647 34.6562 69.9746H34.7109C34.7611 69.7331 34.9183 69.234 35.1826 68.4775C35.4515 67.7165 36.0508 66.0599 36.9805 63.5078H38.1973L35.3535 71H34.0273Z" fill="#3B4549"/>
<path d="M42.5654 71.1367C41.458 71.1367 40.583 70.7995 39.9404 70.125C39.3024 69.4505 38.9834 68.514 38.9834 67.3154C38.9834 66.1077 39.2796 65.1484 39.8721 64.4375C40.4691 63.7266 41.2689 63.3711 42.2715 63.3711C43.2103 63.3711 43.9531 63.681 44.5 64.3008C45.0469 64.916 45.3203 65.7295 45.3203 66.7412V67.459H40.1592C40.182 68.3385 40.403 69.0062 40.8223 69.4619C41.2461 69.9176 41.8408 70.1455 42.6064 70.1455C43.4131 70.1455 44.2106 69.9769 44.999 69.6396V70.6514C44.598 70.8245 44.2174 70.9476 43.8574 71.0205C43.502 71.098 43.0713 71.1367 42.5654 71.1367ZM42.2578 64.3213C41.6562 64.3213 41.1755 64.5173 40.8154 64.9092C40.46 65.3011 40.2503 65.8434 40.1865 66.5361H44.1035C44.1035 65.8206 43.944 65.2738 43.625 64.8955C43.306 64.5127 42.8503 64.3213 42.2578 64.3213Z" fill="#3B4549"/>
<path d="M52.0947 68.9561C52.0947 69.6533 51.835 70.1911 51.3154 70.5693C50.7959 70.9476 50.0667 71.1367 49.1279 71.1367C48.1344 71.1367 47.3597 70.9795 46.8037 70.665V69.6123C47.1637 69.7946 47.5488 69.9382 47.959 70.043C48.3737 70.1478 48.7725 70.2002 49.1553 70.2002C49.7477 70.2002 50.2034 70.1068 50.5225 69.9199C50.8415 69.7285 51.001 69.4391 51.001 69.0518C51.001 68.7601 50.8734 68.5117 50.6182 68.3066C50.3675 68.097 49.8753 67.8509 49.1416 67.5684C48.4443 67.3086 47.9476 67.083 47.6514 66.8916C47.3597 66.6956 47.1409 66.4746 46.9951 66.2285C46.8538 65.9824 46.7832 65.6885 46.7832 65.3467C46.7832 64.736 47.0316 64.2552 47.5283 63.9043C48.0251 63.5488 48.7064 63.3711 49.5723 63.3711C50.3789 63.3711 51.1673 63.5352 51.9375 63.8633L51.5342 64.7861C50.7822 64.4762 50.1009 64.3213 49.4902 64.3213C48.9525 64.3213 48.5469 64.4056 48.2734 64.5742C48 64.7428 47.8633 64.9753 47.8633 65.2715C47.8633 65.472 47.9134 65.6429 48.0137 65.7842C48.1185 65.9255 48.2848 66.0599 48.5127 66.1875C48.7406 66.3151 49.1781 66.4997 49.8252 66.7412C50.7139 67.0648 51.3132 67.3906 51.623 67.7188C51.9375 68.0469 52.0947 68.4593 52.0947 68.9561Z" fill="#3B4549"/>
<path d="M26.7057 32.4302C26.7057 32.382 26.7794 32.2033 26.7482 32.2799C26.8081 32.1473 26.8895 32.0256 26.9893 31.9197C27.5367 31.429 28.3536 31.5793 29.006 31.7466C29.8881 31.9764 30.2653 30.6121 29.3804 30.3795C27.8913 29.9938 25.6931 30.1951 25.33 32.053C25.1513 32.9436 26.5185 33.3265 26.6972 32.4302H26.7057Z" fill="#C47D3D"/>
<path d="M24.4364 24.5536C24.4364 24.5536 31.1984 22.0434 26.1666 14.5327C20.9165 6.67025 8.73427 11.6963 6 10.4653C6 10.4653 7.79543 11.6679 8.69739 20.3926C9.40365 27.129 17.6291 29.435 24.4364 24.5536Z" fill="#3B4549"/>
<path d="M30.1801 23.1127C30.1801 23.1127 29.7121 12.4139 39.3189 11.2425C48.9257 10.0711 50.0177 16.8018 54 16.8018C54 16.8018 52.1251 17.2698 50.2503 23.1269C50.2503 23.1269 46.3474 31.3978 34.9338 25.5435C33.4563 24.5391 31.8594 23.7225 30.1801 23.1127Z" fill="#3B4549"/>
<path d="M28.3308 27.1489C28.7996 28.2928 28.8567 29.564 28.4925 30.7454C28.467 30.8248 28.4415 30.9071 28.4131 30.9865C27.8004 32.6883 28.0273 38.5624 36.1677 39.887C41.7554 40.7975 40.9329 39.68 42.5723 41.1634C42.5723 41.1634 41.7923 39.6006 43.1963 37.4137C44.6003 35.2269 48.2791 23.0418 29.7575 23.3254C29.7575 23.3254 27.1566 24.1395 28.3308 27.1489Z" fill="#3B4549"/>
<path d="M17.5156 45.6477C19.49 43.6804 21.2929 41.5483 22.9047 39.2744C25.2958 35.9501 27.8599 31.7325 27.443 27.4609C27.3522 26.5617 25.934 26.5532 26.0248 27.4609C26.436 31.5963 23.8266 35.6325 21.4866 38.8262C19.988 40.8982 18.3222 42.8438 16.5059 44.6436C15.8535 45.2847 16.8576 46.2859 17.51 45.6477H17.5156Z" fill="#C47D3D"/>
<path d="M27.4856 28.5416C27.4345 28.9415 27.5083 28.4792 27.5366 28.3799C27.5754 28.1757 27.6576 27.9822 27.7777 27.8126C28.084 27.3389 28.6286 27.3701 29.2186 27.6509C30.0411 28.0424 30.7616 26.8199 29.9362 26.4285C28.8782 25.9264 27.6331 25.7874 26.7992 26.7631C26.3883 27.2704 26.134 27.8864 26.0674 28.5359C26.0689 28.7235 26.1441 28.903 26.2767 29.0356C26.4094 29.1683 26.5889 29.2435 26.7765 29.245C26.9634 29.2413 27.1417 29.1655 27.2739 29.0333C27.4061 28.9011 27.4819 28.7228 27.4856 28.5359V28.5416Z" fill="#C47D3D"/>
<path d="M23.4011 24.1764C25.2873 25.0642 26.1751 27.078 26.0191 29.1089C25.9482 30.0194 27.3664 30.0137 27.4373 29.1089C27.6301 26.6185 26.4162 24.0346 24.1187 22.9511C23.2962 22.5654 22.5757 23.802 23.4011 24.1764Z" fill="#C47D3D"/>
<path d="M23.994 29.8264C23.994 29.8264 30.3929 35.4623 16.4946 39.992C16.4946 39.992 12.0727 35.502 14.3361 29.937C14.5284 29.4581 14.8202 29.0256 15.1924 28.6681C15.5645 28.3107 16.0084 28.0364 16.4946 27.8636C18.2106 27.2737 21.152 26.9248 23.994 29.8264Z" fill="#3B4549"/>
<path d="M24.2606 30.9837C25.0548 30.0222 26.0447 29.5655 27.0062 28.8394C27.2688 28.6357 27.466 28.3596 27.5735 28.0452C28.4443 26.1845 29.5391 24.2161 31.4452 23.2631C32.262 22.8546 31.5444 21.6321 30.7276 22.0377C28.7705 23.0418 27.4515 25.0273 26.5326 26.9702C26.3806 27.2219 26.2606 27.4916 26.1752 27.7729C26.1099 28.1898 26.6687 27.5602 26.1411 27.6963C25.1087 27.98 23.9061 29.1996 23.2594 29.9824C22.6921 30.6802 23.6792 31.6843 24.2606 30.9865V30.9837Z" fill="#C47D3D"/>
</svg>
