<svg width="60" height="76" viewBox="0 0 60 76" fill="none" xmlns="http://www.w3.org/2000/svg">
<rect width="60" height="76" fill="#F2F0F0"/>
<path d="M12.8262 68H18.8462L19.0002 67.118H13.8202V58.228H12.8262V68Z" fill="#3B4549"/>
<path d="M20.5729 68H21.5109V60.958H20.5729V68ZM21.5109 59.138V57.696H20.5729V59.138H21.5109Z" fill="#3B4549"/>
<path d="M23.7174 68H24.6554V64.346C24.6554 62.862 25.2154 61.644 26.7274 61.644C27.8894 61.644 28.3654 62.414 28.3654 63.576V68H29.3034V63.45C29.3034 61.532 28.2254 60.79 26.9374 60.79C25.5234 60.79 24.9494 61.546 24.6554 62.218C24.6694 62.008 24.6414 61.168 24.6134 60.958H23.7034C23.7174 61.504 23.7174 62.12 23.7174 62.736V68Z" fill="#3B4549"/>
<path d="M36.9987 64.626C37.0127 64.444 37.0127 64.248 37.0127 64.038C37.0127 62.638 36.2987 60.79 34.0727 60.79C31.9867 60.79 30.9647 62.498 30.9647 64.542C30.9647 66.348 31.8187 68.168 34.0027 68.168C35.8227 68.168 36.5647 67.048 36.8587 66.124H35.9067C35.6687 66.67 35.2627 67.342 34.0307 67.342C32.7427 67.342 31.9167 66.264 31.9167 64.626H36.9987ZM31.9587 63.898C32.0987 62.526 32.7007 61.588 34.0587 61.588C35.3607 61.588 36.0327 62.61 36.0467 63.898H31.9587Z" fill="#3B4549"/>
<path d="M43.6728 63.044C43.6728 61.476 42.7488 60.79 41.0968 60.79C39.1088 60.79 38.5768 61.952 38.4928 62.806H39.4168C39.5568 62.246 39.7528 61.574 41.0688 61.574C42.5388 61.574 42.7488 62.428 42.7488 63.1V63.772H41.4748C39.3748 63.772 38.1568 64.472 38.1568 66.04C38.1568 67.104 38.8568 68.168 40.5088 68.168C41.9228 68.168 42.5108 67.482 42.7628 66.992C42.7768 67.51 42.8188 67.832 42.8748 68H43.7708C43.7288 67.79 43.6728 67.202 43.6728 66.572V63.044ZM42.7628 64.724C42.7628 66.138 42.5108 67.384 40.6348 67.384C39.6968 67.384 39.1228 66.81 39.1228 65.984C39.1228 64.878 40.0048 64.486 41.4888 64.486H42.7628V64.724Z" fill="#3B4549"/>
<path d="M45.8932 68H46.8312V64.444C46.8312 62.722 47.7832 61.826 49.2392 61.756V60.79C48.0912 60.832 47.2232 61.462 46.8312 62.47C46.8312 61.672 46.8172 61.168 46.7892 60.958H45.8792C45.8792 61.252 45.8932 61.784 45.8932 62.876V68Z" fill="#3B4549"/>
<g clip-path="url(#clip0)">
<path d="M31.6205 51.5393C33.3633 51.5393 35.0884 50.8968 34.0342 29.7062C33.2391 13.698 32.6428 13.6234 32.0358 8.15363C31.8832 6.79417 29.7819 6.54571 29.5512 7.89807C29.0649 11.0323 28.2804 24.7476 28.1065 29.7169C27.6451 42.9992 28.6425 51.5393 31.6205 51.5393Z" fill="#28292E"/>
<path d="M31.7943 54.78C32.6924 40.9369 30.6408 23.7502 30.8715 9.34626C30.8646 9.29225 30.8383 9.2426 30.7975 9.20661C30.7566 9.17061 30.7041 9.15076 30.6496 9.15076C30.5952 9.15076 30.5426 9.17061 30.5018 9.20661C30.4609 9.2426 30.4346 9.29225 30.4278 9.34626C30.0089 24.1335 32.0215 40.227 31.3649 54.9077C31.3542 55.1846 31.7943 54.78 31.7943 54.78Z" fill="#C3641B"/>
</g>
<defs>
<clipPath id="clip0">
<rect width="6.35717" height="48" fill="white" transform="translate(28 7)"/>
</clipPath>
</defs>
</svg>
