<svg width="288" height="36" viewBox="0 0 288 36" fill="none" xmlns="http://www.w3.org/2000/svg">
<path d="M0 0H288V36H0V0Z" fill="#F2F0F0"/>
<path d="M18.8516 14.3594C18.4095 14.3594 18.0928 14.4049 17.9014 14.4961C17.71 14.5827 17.5915 14.7126 17.5459 14.8857C17.5003 15.0589 17.4775 15.3415 17.4775 15.7334V23.082H16.8486L10.7852 15.877V20.9834C10.7852 21.3708 10.8079 21.6533 10.8535 21.8311C10.9036 22.0042 11.0267 22.1387 11.2227 22.2344C11.4186 22.3255 11.7354 22.3711 12.1729 22.3711V23H8.72754V22.3711C9.1377 22.3711 9.43392 22.3255 9.61621 22.2344C9.80306 22.1387 9.91699 22.0042 9.95801 21.8311C10.0036 21.6533 10.0264 21.3708 10.0264 20.9834V16.2529C10.0264 15.8701 10.015 15.583 9.99219 15.3916C9.97396 15.2002 9.92611 15.0339 9.84863 14.8926C9.77116 14.7467 9.64355 14.6305 9.46582 14.5439C9.29264 14.4528 9.05111 14.3913 8.74121 14.3594V13.7305H11.4414L16.7188 19.9648V15.7334C16.7188 15.387 16.6937 15.1227 16.6436 14.9404C16.598 14.7536 16.4795 14.61 16.2881 14.5098C16.1012 14.4095 15.8027 14.3594 15.3926 14.3594V13.7305H18.8516V14.3594Z" fill="#3B4549"/>
<path d="M27.1094 22.959C26.9772 22.9681 26.7471 22.9818 26.4189 23C26.0908 23.0228 25.7217 23.0524 25.3115 23.0889C24.9059 23.1299 24.5801 23.1755 24.334 23.2256V22.2275C23.7461 22.902 23.042 23.2393 22.2217 23.2393C21.6247 23.2393 21.1826 23.1117 20.8955 22.8564C20.6084 22.6012 20.4307 22.321 20.3623 22.0156C20.2939 21.7057 20.2598 21.3753 20.2598 21.0244V19.0078C20.2598 18.7389 20.2438 18.543 20.2119 18.4199C20.18 18.2923 20.0957 18.1966 19.959 18.1328C19.8223 18.0645 19.5967 18.0303 19.2822 18.0303V17.4014H22.0234V21.168C22.0234 21.9427 22.3219 22.3301 22.9189 22.3301C23.2607 22.3301 23.5501 22.2093 23.7871 21.9678C24.0241 21.7217 24.2064 21.487 24.334 21.2637V19.0078C24.334 18.7253 24.3158 18.5225 24.2793 18.3994C24.2474 18.2764 24.1608 18.1852 24.0195 18.126C23.8783 18.0622 23.6436 18.0303 23.3154 18.0303V17.4014H26.0977V21.5166C26.0977 21.7308 26.1182 21.8903 26.1592 21.9951C26.2002 22.0999 26.2936 22.182 26.4395 22.2412C26.5853 22.2959 26.8086 22.3255 27.1094 22.3301V22.959Z" fill="#3B4549"/>
<path d="M40.5967 23H36.8027V22.3711C37.1172 22.3711 37.3405 22.3369 37.4727 22.2686C37.6048 22.1956 37.6846 22.0977 37.7119 21.9746C37.7438 21.847 37.7598 21.6465 37.7598 21.373V19.3018C37.7598 19.001 37.6914 18.723 37.5547 18.4678C37.4225 18.2126 37.1172 18.085 36.6387 18.085C36.2969 18.085 36.0007 18.1715 35.75 18.3447C35.4993 18.5133 35.3057 18.748 35.1689 19.0488C35.0368 19.3451 34.9707 19.6777 34.9707 20.0469V21.373C34.9707 21.6556 34.9867 21.8607 35.0186 21.9883C35.055 22.1113 35.1439 22.207 35.2852 22.2754C35.4264 22.3392 35.6566 22.3711 35.9756 22.3711V23H32.2568V22.3711C32.5622 22.3711 32.7809 22.3369 32.9131 22.2686C33.0498 22.2002 33.1318 22.1022 33.1592 21.9746C33.1911 21.847 33.207 21.6465 33.207 21.373V19.2197C33.207 18.7412 33.0817 18.4336 32.8311 18.2969C32.5804 18.1556 32.3457 18.085 32.127 18.085C31.8353 18.085 31.5527 18.1556 31.2793 18.2969C31.0059 18.4382 30.7985 18.6204 30.6572 18.8438C30.557 19.0078 30.4909 19.1696 30.459 19.3291C30.4316 19.4886 30.418 19.6891 30.418 19.9307V21.373C30.418 21.6556 30.4339 21.8607 30.4658 21.9883C30.5023 22.1113 30.5934 22.207 30.7393 22.2754C30.8851 22.3392 31.1152 22.3711 31.4297 22.3711V23H27.6904V22.3711C28.0003 22.3711 28.2214 22.3392 28.3535 22.2754C28.4902 22.207 28.5745 22.109 28.6064 21.9814C28.6383 21.8538 28.6543 21.651 28.6543 21.373V19.0352C28.6543 18.6068 28.3786 18.3926 27.8271 18.3926H27.4785V17.7637L30.3633 17.1758C30.3997 17.4173 30.418 17.7637 30.418 18.2148C30.7415 17.8913 31.0833 17.6383 31.4434 17.4561C31.8079 17.2692 32.2272 17.1758 32.7012 17.1758C33.1432 17.1758 33.5671 17.2624 33.9727 17.4355C34.3783 17.6087 34.6836 17.9277 34.8887 18.3926C35.3034 17.9004 35.7021 17.5745 36.085 17.415C36.4678 17.2555 36.862 17.1758 37.2676 17.1758C37.9876 17.1758 38.5436 17.3467 38.9355 17.6885C39.3275 18.0303 39.5234 18.5544 39.5234 19.2607V21.373C39.5234 21.6283 39.5348 21.8219 39.5576 21.9541C39.585 22.0817 39.6579 22.1842 39.7764 22.2617C39.8994 22.3346 40.0931 22.3711 40.3574 22.3711H40.5967V23Z" fill="#3B4549"/>
<path d="M48.4443 20.1562C48.4443 20.5938 48.3646 21.0039 48.2051 21.3867C48.0456 21.765 47.82 22.0931 47.5283 22.3711C47.2412 22.6491 46.9108 22.861 46.5371 23.0068C46.168 23.1527 45.776 23.2256 45.3613 23.2256C44.8737 23.2256 44.4544 23.1322 44.1035 22.9453C43.7526 22.7539 43.4632 22.5101 43.2354 22.2139C42.8161 22.6331 42.513 22.9704 42.3262 23.2256H41.793V15.6514C41.793 15.3916 41.7611 15.2025 41.6973 15.084C41.638 14.9609 41.5355 14.8835 41.3896 14.8516C41.2484 14.8151 41.0273 14.7923 40.7266 14.7832V14.168L43.5566 13.5664V17.9893C43.7891 17.7705 44.0579 17.5814 44.3633 17.4219C44.6732 17.2578 45.0765 17.1758 45.5732 17.1758C46.0381 17.1758 46.4505 17.2601 46.8105 17.4287C47.1751 17.5973 47.4782 17.8252 47.7197 18.1123C47.9613 18.3994 48.1413 18.7184 48.2598 19.0693C48.3828 19.4202 48.4443 19.7826 48.4443 20.1562ZM46.5508 20.1016C46.5508 19.5319 46.4551 19.0283 46.2637 18.5908C46.0768 18.1533 45.7054 17.9346 45.1494 17.9346C44.9489 17.9346 44.7507 17.9756 44.5547 18.0576C44.3633 18.1351 44.1833 18.2422 44.0146 18.3789C43.8506 18.5156 43.6979 18.6751 43.5566 18.8574V21.6396C43.8301 21.9951 44.1012 22.223 44.3701 22.3232C44.6436 22.4189 44.8851 22.4668 45.0947 22.4668C45.4775 22.4668 45.7783 22.3415 45.9971 22.0908C46.2158 21.8356 46.3617 21.5326 46.4346 21.1816C46.512 20.8307 46.5508 20.4707 46.5508 20.1016Z" fill="#3B4549"/>
<path d="M55.6494 19.9922H51.4453C51.4499 20.0788 51.4613 20.2633 51.4795 20.5459C51.5023 20.8285 51.5661 21.1178 51.6709 21.4141C51.7803 21.7103 51.9648 21.9609 52.2246 22.166C52.4889 22.3665 52.8421 22.4668 53.2842 22.4668C53.5257 22.4668 53.8174 22.4053 54.1592 22.2822C54.501 22.1592 54.7972 21.9222 55.0479 21.5713L55.5811 21.9336C55.0433 22.7949 54.1888 23.2256 53.0176 23.2256C52.4935 23.2256 52.015 23.1504 51.582 23C51.1536 22.8496 50.7891 22.64 50.4883 22.3711C50.1875 22.1022 49.9574 21.7855 49.7979 21.4209C49.6383 21.0563 49.5586 20.6644 49.5586 20.2451C49.5586 19.6937 49.6908 19.1833 49.9551 18.7139C50.224 18.2445 50.6068 17.8708 51.1035 17.5928C51.6003 17.3148 52.1676 17.1758 52.8057 17.1758C53.43 17.1758 53.9564 17.3102 54.3848 17.5791C54.8177 17.848 55.1367 18.1966 55.3418 18.625C55.5469 19.0534 55.6494 19.5091 55.6494 19.9922ZM53.9541 19.3633C53.9541 18.3242 53.5439 17.8047 52.7236 17.8047C52.3271 17.8047 52.0218 17.9482 51.8076 18.2354C51.598 18.5225 51.4818 18.8984 51.459 19.3633H53.9541Z" fill="#3B4549"/>
<path d="M62.3076 18.2559C62.3076 18.5202 62.2256 18.7298 62.0615 18.8848C61.902 19.0352 61.7129 19.1104 61.4941 19.1104C61.2344 19.1104 61.0065 18.9827 60.8105 18.7275C60.7194 18.6136 60.6442 18.5316 60.585 18.4814C60.5257 18.4313 60.4414 18.4062 60.332 18.4062C59.9766 18.4062 59.6986 18.5999 59.498 18.9873C59.3021 19.3701 59.2041 19.7689 59.2041 20.1836V21.373C59.2041 21.7559 59.252 22.0179 59.3477 22.1592C59.4479 22.3005 59.7077 22.3711 60.127 22.3711H60.4893V23H56.2441V22.3711H56.5996C56.9824 22.3711 57.2171 22.2982 57.3037 22.1523C57.3903 22.0065 57.4336 21.7467 57.4336 21.373V19.377C57.4336 19.0716 57.4017 18.8529 57.3379 18.7207C57.2786 18.5885 57.1693 18.502 57.0098 18.4609C56.8503 18.4154 56.5951 18.3926 56.2441 18.3926V17.7637L58.9102 17.1758C58.9785 17.4082 59.0423 17.9027 59.1016 18.6592C59.2292 18.3903 59.3955 18.1442 59.6006 17.9209C59.8102 17.6976 60.0426 17.5176 60.2979 17.3809C60.5576 17.2441 60.8219 17.1758 61.0908 17.1758C61.4645 17.1758 61.7607 17.2806 61.9795 17.4902C62.1982 17.6999 62.3076 17.9551 62.3076 18.2559Z" fill="#3B4549"/>
<path d="M73.0811 20.1836C73.0811 20.8034 72.9307 21.3434 72.6299 21.8037C72.3291 22.264 71.9212 22.6172 71.4062 22.8633C70.8958 23.1048 70.3353 23.2256 69.7246 23.2256C69.1504 23.2256 68.6058 23.1139 68.0908 22.8906C67.5804 22.6673 67.1611 22.3278 66.833 21.8721C66.5094 21.4163 66.3477 20.8581 66.3477 20.1973C66.3477 19.2083 66.6849 18.4587 67.3594 17.9482C68.0339 17.4333 68.8359 17.1758 69.7656 17.1758C70.4583 17.1758 71.0553 17.3125 71.5566 17.5859C72.0579 17.8594 72.4362 18.2262 72.6914 18.6865C72.9512 19.1468 73.0811 19.6458 73.0811 20.1836ZM71.1943 20.1426C71.1943 19.3678 71.0918 18.7845 70.8867 18.3926C70.6816 18.0007 70.2829 17.8047 69.6904 17.8047C69.3122 17.8047 69.0159 17.8913 68.8018 18.0645C68.5921 18.2331 68.444 18.4974 68.3574 18.8574C68.2754 19.2129 68.2344 19.6755 68.2344 20.2451C68.2344 20.9469 68.3278 21.5143 68.5146 21.9473C68.7015 22.3802 69.1094 22.5967 69.7383 22.5967C70.153 22.5967 70.4674 22.4782 70.6816 22.2412C70.9004 21.9997 71.0394 21.7035 71.0986 21.3525C71.1624 20.9971 71.1943 20.5938 71.1943 20.1426Z" fill="#3B4549"/>
<path d="M79.9648 14.9199C79.9648 15.166 79.8737 15.3688 79.6914 15.5283C79.5137 15.6833 79.32 15.7607 79.1104 15.7607C78.8278 15.7607 78.6227 15.6673 78.4951 15.4805C78.3675 15.2936 78.265 15.0521 78.1875 14.7559C78.0781 14.3822 77.8617 14.1953 77.5381 14.1953C77.2327 14.1953 77.0413 14.3115 76.9639 14.5439C76.891 14.7718 76.8545 15.1227 76.8545 15.5967V17.4014H78.2422V18.0303H76.8545V21.373C76.8545 21.6465 76.8682 21.847 76.8955 21.9746C76.9229 22.1022 76.9935 22.2002 77.1074 22.2686C77.2259 22.3369 77.4219 22.3711 77.6953 22.3711H77.9482V23H73.9424V22.3711H74.25C74.5006 22.3711 74.6852 22.3392 74.8037 22.2754C74.9222 22.207 74.9997 22.1045 75.0361 21.9678C75.0726 21.8311 75.0908 21.6328 75.0908 21.373V18.0303H73.9424V17.4014H75.0908V16.6016C75.0908 16.3236 75.109 16.0547 75.1455 15.7949C75.182 15.5306 75.2663 15.2572 75.3984 14.9746C75.5671 14.6283 75.7881 14.3525 76.0615 14.1475C76.3395 13.9378 76.6403 13.7897 76.9639 13.7031C77.2874 13.612 77.611 13.5664 77.9346 13.5664C78.4587 13.5664 78.8711 13.6462 79.1719 13.8057C79.4727 13.9606 79.68 14.1429 79.7939 14.3525C79.9079 14.5622 79.9648 14.7513 79.9648 14.9199Z" fill="#3B4549"/>
<path d="M92.1191 16.1982C92.1191 16.9593 91.8844 17.5381 91.415 17.9346C90.9456 18.3265 90.3919 18.5794 89.7539 18.6934C89.1204 18.8027 88.4528 18.8574 87.751 18.8574H87.1357V21.2773C87.1357 21.5508 87.1654 21.7627 87.2246 21.9131C87.2839 22.0635 87.4115 22.1774 87.6074 22.2549C87.8034 22.3324 88.1019 22.3711 88.5029 22.3711V23H83.8408V22.3711C84.2373 22.3711 84.529 22.3301 84.7158 22.248C84.9072 22.166 85.0303 22.0498 85.085 21.8994C85.1442 21.749 85.1738 21.5417 85.1738 21.2773V15.4258C85.1738 15.1615 85.1465 14.9564 85.0918 14.8105C85.0371 14.6602 84.9141 14.5439 84.7227 14.4619C84.5312 14.3753 84.2373 14.332 83.8408 14.332V13.6895L86.4863 13.6211C86.623 13.6165 86.7712 13.6143 86.9307 13.6143C87.0947 13.6097 87.2246 13.6074 87.3203 13.6074C87.416 13.6029 87.5573 13.6006 87.7441 13.6006C87.9766 13.6006 88.1497 13.6029 88.2637 13.6074C88.806 13.6302 89.3278 13.6826 89.8291 13.7646C90.3304 13.8467 90.8363 14.0791 91.3467 14.4619C91.8617 14.8402 92.1191 15.4189 92.1191 16.1982ZM90.0137 16.2119C90.0137 15.4736 89.7972 14.9814 89.3643 14.7354C88.9359 14.4847 88.3708 14.3594 87.6689 14.3594C87.5413 14.3594 87.3636 14.3639 87.1357 14.373V18.0986H87.7646C88.4346 18.0986 88.9769 17.9847 89.3916 17.7568C89.8063 17.5244 90.0137 17.0094 90.0137 16.2119Z" fill="#3B4549"/>
<path d="M98.2783 19.9922H94.0742C94.0788 20.0788 94.0902 20.2633 94.1084 20.5459C94.1312 20.8285 94.195 21.1178 94.2998 21.4141C94.4092 21.7103 94.5938 21.9609 94.8535 22.166C95.1178 22.3665 95.471 22.4668 95.9131 22.4668C96.1546 22.4668 96.4463 22.4053 96.7881 22.2822C97.1299 22.1592 97.4261 21.9222 97.6768 21.5713L98.21 21.9336C97.6722 22.7949 96.8177 23.2256 95.6465 23.2256C95.1224 23.2256 94.6439 23.1504 94.2109 23C93.7826 22.8496 93.418 22.64 93.1172 22.3711C92.8164 22.1022 92.5863 21.7855 92.4268 21.4209C92.2673 21.0563 92.1875 20.6644 92.1875 20.2451C92.1875 19.6937 92.3197 19.1833 92.584 18.7139C92.8529 18.2445 93.2357 17.8708 93.7324 17.5928C94.2292 17.3148 94.7965 17.1758 95.4346 17.1758C96.0589 17.1758 96.5853 17.3102 97.0137 17.5791C97.4466 17.848 97.7656 18.1966 97.9707 18.625C98.1758 19.0534 98.2783 19.5091 98.2783 19.9922ZM96.583 19.3633C96.583 18.3242 96.1729 17.8047 95.3525 17.8047C94.9561 17.8047 94.6507 17.9482 94.4365 18.2354C94.2269 18.5225 94.1107 18.8984 94.0879 19.3633H96.583Z" fill="#3B4549"/>
<path d="M103.747 21.7832C103.501 22.2982 103.214 22.6673 102.886 22.8906C102.558 23.1139 102.173 23.2256 101.73 23.2256C101.193 23.2256 100.796 23.1162 100.541 22.8975C100.286 22.6787 100.129 22.4349 100.069 22.166C100.01 21.8926 99.9805 21.5872 99.9805 21.25V18.0303H98.9482V17.4014C99.3812 17.4014 99.7572 17.3193 100.076 17.1553C100.395 16.9912 100.646 16.7702 100.828 16.4922C101.015 16.2142 101.133 15.9157 101.184 15.5967H101.744V17.4014H103.679V18.0303H101.744V21.291C101.744 21.6875 101.769 21.9746 101.819 22.1523C101.874 22.3255 102.004 22.4121 102.209 22.4121C102.428 22.4121 102.608 22.3278 102.749 22.1592C102.89 21.986 103.027 21.7718 103.159 21.5166L103.747 21.7832Z" fill="#3B4549"/>
<path d="M111.465 21.5576C111.465 21.904 111.394 22.2002 111.253 22.4463C111.112 22.6878 110.92 22.8678 110.679 22.9863C110.442 23.1003 110.173 23.1572 109.872 23.1572C109.489 23.1572 109.17 23.0684 108.915 22.8906C108.66 22.7083 108.507 22.4919 108.457 22.2412C107.696 22.8519 106.93 23.1572 106.16 23.1572C105.668 23.1572 105.265 23.0387 104.95 22.8018C104.636 22.5602 104.479 22.2435 104.479 21.8516C104.479 21.528 104.563 21.2363 104.731 20.9766C104.9 20.7122 105.146 20.4775 105.47 20.2725C105.798 20.0674 106.188 19.8874 106.639 19.7324C107.09 19.5729 107.653 19.4066 108.327 19.2334V18.8438C108.327 18.5202 108.25 18.2673 108.095 18.085C107.944 17.8981 107.664 17.8047 107.254 17.8047C106.903 17.8047 106.65 17.8776 106.495 18.0234C106.34 18.1693 106.238 18.3903 106.188 18.6865C106.151 18.8962 106.083 19.0693 105.982 19.2061C105.887 19.3382 105.684 19.4043 105.374 19.4043C105.183 19.4043 105.014 19.3496 104.868 19.2402C104.722 19.1309 104.649 18.9691 104.649 18.7549C104.649 18.3311 104.88 17.9619 105.34 17.6475C105.8 17.333 106.507 17.1758 107.459 17.1758C108.462 17.1758 109.15 17.3444 109.523 17.6816C109.902 18.0189 110.091 18.4701 110.091 19.0352V21.1953C110.091 21.4688 110.098 21.6693 110.111 21.7969C110.125 21.9245 110.161 22.0225 110.221 22.0908C110.285 22.1546 110.382 22.1865 110.515 22.1865C110.633 22.1865 110.736 22.125 110.822 22.002C110.913 21.8789 110.959 21.7308 110.959 21.5576H111.465ZM108.327 21.6123V19.917C107.461 20.1904 106.91 20.4593 106.673 20.7236C106.44 20.9834 106.324 21.2386 106.324 21.4893C106.324 21.6989 106.388 21.8675 106.516 21.9951C106.643 22.1227 106.823 22.1865 107.056 22.1865C107.306 22.1865 107.527 22.1341 107.719 22.0293C107.91 21.9245 108.113 21.7855 108.327 21.6123Z" fill="#3B4549"/>
<path d="M115.58 23H111.649V22.3711H111.943C112.208 22.3711 112.399 22.3346 112.518 22.2617C112.641 22.1888 112.716 22.0863 112.743 21.9541C112.771 21.8219 112.784 21.6283 112.784 21.373V15.5488C112.784 15.2207 112.707 15.0111 112.552 14.9199C112.401 14.8288 112.101 14.7832 111.649 14.7832V14.1543L114.548 13.5664V21.373C114.548 21.6283 114.559 21.8219 114.582 21.9541C114.609 22.0817 114.682 22.1842 114.801 22.2617C114.924 22.3346 115.118 22.3711 115.382 22.3711H115.58V23Z" fill="#3B4549"/>
<path d="M122.108 21.373C122.108 21.765 121.99 22.0999 121.753 22.3779C121.521 22.6559 121.199 22.8656 120.789 23.0068C120.383 23.1527 119.914 23.2256 119.381 23.2256C119.021 23.2256 118.659 23.1891 118.294 23.1162C117.929 23.0479 117.61 22.943 117.337 22.8018L117.07 23.1846H116.537L116.469 21.4072H117.043C117.143 21.7126 117.373 21.9883 117.733 22.2344C118.093 22.4759 118.615 22.5967 119.299 22.5967C119.472 22.5967 119.659 22.5853 119.859 22.5625C120.06 22.5352 120.251 22.4645 120.434 22.3506C120.62 22.2367 120.714 22.0612 120.714 21.8242C120.714 21.6191 120.618 21.471 120.427 21.3799C120.24 21.2842 119.887 21.1702 119.367 21.0381C118.738 20.8786 118.223 20.7282 117.822 20.5869C117.421 20.4411 117.082 20.2337 116.804 19.9648C116.526 19.696 116.387 19.3496 116.387 18.9258C116.387 18.388 116.633 17.9619 117.125 17.6475C117.622 17.333 118.271 17.1758 119.073 17.1758C119.575 17.1758 119.976 17.2168 120.276 17.2988C120.577 17.3809 120.83 17.4697 121.035 17.5654L121.199 17.2168H121.746V18.8027H121.186C121.135 18.6159 121.021 18.445 120.844 18.29C120.666 18.1351 120.429 18.0166 120.133 17.9346C119.841 17.848 119.502 17.8047 119.114 17.8047C118.795 17.8047 118.476 17.8389 118.157 17.9072C117.843 17.9756 117.686 18.1374 117.686 18.3926C117.686 18.4974 117.715 18.584 117.774 18.6523C117.838 18.7207 117.945 18.7845 118.096 18.8438C118.246 18.903 118.51 18.9805 118.889 19.0762C119.267 19.1719 119.493 19.2288 119.565 19.2471C120.308 19.4339 120.917 19.6641 121.391 19.9375C121.869 20.2109 122.108 20.6895 122.108 21.373Z" fill="#3B4549"/>
</svg>
