<svg width="60" height="76" viewBox="0 0 60 76" fill="none" xmlns="http://www.w3.org/2000/svg">
<path d="M0 0H60V76H0V0Z" fill="#F2F0F0"/>
<path d="M26.3633 65.9893C26.3633 67.5889 25.9577 68.8467 25.1465 69.7627C24.3398 70.6787 23.2165 71.1367 21.7764 71.1367C20.3044 71.1367 19.1673 70.6878 18.3652 69.79C17.5677 68.8877 17.1689 67.6162 17.1689 65.9756C17.1689 64.3486 17.57 63.0885 18.3721 62.1953C19.1742 61.2975 20.3135 60.8486 21.79 60.8486C23.2256 60.8486 24.3467 61.3044 25.1533 62.2158C25.96 63.1273 26.3633 64.3851 26.3633 65.9893ZM18.3994 65.9893C18.3994 67.3428 18.6865 68.3704 19.2607 69.0723C19.8395 69.7695 20.6781 70.1182 21.7764 70.1182C22.8838 70.1182 23.7201 69.7695 24.2852 69.0723C24.8503 68.375 25.1328 67.3473 25.1328 65.9893C25.1328 64.6449 24.8503 63.6263 24.2852 62.9336C23.7246 62.2363 22.8929 61.8877 21.79 61.8877C20.6826 61.8877 19.8395 62.2386 19.2607 62.9404C18.6865 63.6377 18.3994 64.654 18.3994 65.9893Z" fill="#3B4549"/>
<path d="M33.5547 71V66.1533C33.5547 65.5426 33.4157 65.0869 33.1377 64.7861C32.8597 64.4854 32.4245 64.335 31.832 64.335C31.0482 64.335 30.474 64.5469 30.1094 64.9707C29.7448 65.3945 29.5625 66.0941 29.5625 67.0693V71H28.4277V63.5078H29.3506L29.5352 64.5332H29.5898C29.8223 64.1641 30.1481 63.8792 30.5674 63.6787C30.9867 63.4736 31.4538 63.3711 31.9688 63.3711C32.8711 63.3711 33.5501 63.5898 34.0059 64.0273C34.4616 64.4603 34.6895 65.1553 34.6895 66.1123V71H33.5547Z" fill="#3B4549"/>
<path d="M40.1924 71.1367C39.085 71.1367 38.21 70.7995 37.5674 70.125C36.9294 69.4505 36.6104 68.514 36.6104 67.3154C36.6104 66.1077 36.9066 65.1484 37.499 64.4375C38.096 63.7266 38.8958 63.3711 39.8984 63.3711C40.8372 63.3711 41.5801 63.681 42.127 64.3008C42.6738 64.916 42.9473 65.7295 42.9473 66.7412V67.459H37.7861C37.8089 68.3385 38.0299 69.0062 38.4492 69.4619C38.873 69.9176 39.4678 70.1455 40.2334 70.1455C41.04 70.1455 41.8376 69.9769 42.626 69.6396V70.6514C42.2249 70.8245 41.8444 70.9476 41.4844 71.0205C41.1289 71.098 40.6982 71.1367 40.1924 71.1367ZM39.8848 64.3213C39.2832 64.3213 38.8024 64.5173 38.4424 64.9092C38.0869 65.3011 37.8773 65.8434 37.8135 66.5361H41.7305C41.7305 65.8206 41.571 65.2738 41.252 64.8955C40.9329 64.5127 40.4772 64.3213 39.8848 64.3213Z" fill="#3B4549"/>
<path d="M29.1325 5.21933C29.7462 11.0042 29.6226 16.8437 28.7647 22.5975C28.1025 27.08 27.6327 31.6049 27.3667 36.1298C27.1601 39.6898 27.0837 43.2865 27.4516 46.838C27.6271 48.4539 30.1824 48.4708 29.9985 46.838C29.3363 40.7085 29.9079 34.4178 30.5814 28.3109C31.1474 23.121 31.9964 17.999 32.0162 12.7241C32.0455 10.2184 31.9359 7.71293 31.6879 5.21933C31.5096 3.60348 28.9543 3.58367 29.141 5.21933H29.1325Z" fill="#3B4549"/>
<path d="M27.3866 46.8295L27.0046 50.7234C26.9367 51.411 27.6385 51.9996 28.2808 51.9996C29.0251 51.9996 29.4892 51.411 29.5571 50.7234L29.9363 46.8295C30.0014 46.1418 29.2996 45.5532 28.66 45.5532C27.913 45.5532 27.4489 46.1418 27.3809 46.8295H27.3866Z" fill="#C47D3D"/>
</svg>
