<svg width="60" height="76" viewBox="0 0 60 76" fill="none" xmlns="http://www.w3.org/2000/svg">
<path d="M0 0H60V76H0V0Z" fill="#F2F0F0"/>
<path d="M10.2578 63.9893C10.2578 65.5889 9.85221 66.8467 9.04102 67.7627C8.23438 68.6787 7.111 69.1367 5.6709 69.1367C4.19889 69.1367 3.06185 68.6878 2.25977 67.79C1.46224 66.8877 1.06348 65.6162 1.06348 63.9756C1.06348 62.3486 1.46452 61.0885 2.2666 60.1953C3.06868 59.2975 4.20801 58.8486 5.68457 58.8486C7.12012 58.8486 8.24121 59.3044 9.04785 60.2158C9.85449 61.1273 10.2578 62.3851 10.2578 63.9893ZM2.29395 63.9893C2.29395 65.3428 2.58105 66.3704 3.15527 67.0723C3.73405 67.7695 4.57259 68.1182 5.6709 68.1182C6.77832 68.1182 7.61458 67.7695 8.17969 67.0723C8.74479 66.375 9.02734 65.3473 9.02734 63.9893C9.02734 62.6449 8.74479 61.6263 8.17969 60.9336C7.61914 60.2363 6.78744 59.8877 5.68457 59.8877C4.57715 59.8877 3.73405 60.2386 3.15527 60.9404C2.58105 61.6377 2.29395 62.654 2.29395 63.9893Z" fill="#3B4549"/>
<path d="M15.8086 69.1367C15.321 69.1367 14.8743 69.0479 14.4688 68.8701C14.0677 68.6878 13.7305 68.4098 13.457 68.0361H13.375C13.4297 68.4736 13.457 68.8883 13.457 69.2803V72.3633H12.3223V61.5078H13.2451L13.4023 62.5332H13.457C13.7487 62.123 14.0882 61.8268 14.4756 61.6445C14.863 61.4622 15.3073 61.3711 15.8086 61.3711C16.8021 61.3711 17.5677 61.7106 18.1055 62.3896C18.6478 63.0687 18.9189 64.0212 18.9189 65.2471C18.9189 66.4775 18.6432 67.4346 18.0918 68.1182C17.5449 68.7972 16.7839 69.1367 15.8086 69.1367ZM15.6445 62.335C14.8789 62.335 14.3252 62.5469 13.9834 62.9707C13.6416 63.3945 13.4661 64.069 13.457 64.9941V65.2471C13.457 66.2998 13.6325 67.054 13.9834 67.5098C14.3343 67.9609 14.8971 68.1865 15.6719 68.1865C16.319 68.1865 16.8249 67.9245 17.1895 67.4004C17.5586 66.8763 17.7432 66.154 17.7432 65.2334C17.7432 64.2992 17.5586 63.5837 17.1895 63.0869C16.8249 62.5856 16.3099 62.335 15.6445 62.335Z" fill="#3B4549"/>
<path d="M24.3945 69.1367C23.9069 69.1367 23.4603 69.0479 23.0547 68.8701C22.6536 68.6878 22.3164 68.4098 22.043 68.0361H21.9609C22.0156 68.4736 22.043 68.8883 22.043 69.2803V72.3633H20.9082V61.5078H21.8311L21.9883 62.5332H22.043C22.3346 62.123 22.6742 61.8268 23.0615 61.6445C23.4489 61.4622 23.8932 61.3711 24.3945 61.3711C25.388 61.3711 26.1536 61.7106 26.6914 62.3896C27.2337 63.0687 27.5049 64.0212 27.5049 65.2471C27.5049 66.4775 27.2292 67.4346 26.6777 68.1182C26.1309 68.7972 25.3698 69.1367 24.3945 69.1367ZM24.2305 62.335C23.4648 62.335 22.9111 62.5469 22.5693 62.9707C22.2275 63.3945 22.0521 64.069 22.043 64.9941V65.2471C22.043 66.2998 22.2184 67.054 22.5693 67.5098C22.9202 67.9609 23.4831 68.1865 24.2578 68.1865C24.9049 68.1865 25.4108 67.9245 25.7754 67.4004C26.1445 66.8763 26.3291 66.154 26.3291 65.2334C26.3291 64.2992 26.1445 63.5837 25.7754 63.0869C25.4108 62.5856 24.8958 62.335 24.2305 62.335Z" fill="#3B4549"/>
<path d="M35.9609 65.2471C35.9609 66.4684 35.6533 67.4232 35.0381 68.1113C34.4229 68.7949 33.5729 69.1367 32.4883 69.1367C31.8184 69.1367 31.2236 68.9795 30.7041 68.665C30.1846 68.3506 29.7835 67.8994 29.501 67.3115C29.2184 66.7236 29.0771 66.0355 29.0771 65.2471C29.0771 64.0257 29.3825 63.0755 29.9932 62.3965C30.6038 61.7129 31.4515 61.3711 32.5361 61.3711C33.5843 61.3711 34.416 61.7197 35.0312 62.417C35.651 63.1143 35.9609 64.0576 35.9609 65.2471ZM30.2529 65.2471C30.2529 66.2041 30.4443 66.9333 30.8271 67.4346C31.21 67.9359 31.7728 68.1865 32.5156 68.1865C33.2585 68.1865 33.8213 67.9382 34.2041 67.4414C34.5915 66.9401 34.7852 66.2087 34.7852 65.2471C34.7852 64.2946 34.5915 63.5723 34.2041 63.0801C33.8213 62.5833 33.2539 62.335 32.502 62.335C31.7591 62.335 31.1986 62.5788 30.8203 63.0664C30.4421 63.554 30.2529 64.2809 30.2529 65.2471Z" fill="#3B4549"/>
<path d="M42.79 66.9561C42.79 67.6533 42.5303 68.1911 42.0107 68.5693C41.4912 68.9476 40.762 69.1367 39.8232 69.1367C38.8298 69.1367 38.055 68.9795 37.499 68.665V67.6123C37.8591 67.7946 38.2441 67.9382 38.6543 68.043C39.069 68.1478 39.4678 68.2002 39.8506 68.2002C40.443 68.2002 40.8988 68.1068 41.2178 67.9199C41.5368 67.7285 41.6963 67.4391 41.6963 67.0518C41.6963 66.7601 41.5687 66.5117 41.3135 66.3066C41.0628 66.097 40.5706 65.8509 39.8369 65.5684C39.1396 65.3086 38.6429 65.083 38.3467 64.8916C38.055 64.6956 37.8363 64.4746 37.6904 64.2285C37.5492 63.9824 37.4785 63.6885 37.4785 63.3467C37.4785 62.736 37.7269 62.2552 38.2236 61.9043C38.7204 61.5488 39.4017 61.3711 40.2676 61.3711C41.0742 61.3711 41.8626 61.5352 42.6328 61.8633L42.2295 62.7861C41.4775 62.4762 40.7962 62.3213 40.1855 62.3213C39.6478 62.3213 39.2422 62.4056 38.9688 62.5742C38.6953 62.7428 38.5586 62.9753 38.5586 63.2715C38.5586 63.472 38.6087 63.6429 38.709 63.7842C38.8138 63.9255 38.9801 64.0599 39.208 64.1875C39.4359 64.3151 39.8734 64.4997 40.5205 64.7412C41.4092 65.0648 42.0085 65.3906 42.3184 65.7188C42.6328 66.0469 42.79 66.4593 42.79 66.9561Z" fill="#3B4549"/>
<path d="M45.7773 69H44.6426V61.5078H45.7773V69ZM44.5469 59.4775C44.5469 59.2178 44.6107 59.0286 44.7383 58.9102C44.8659 58.7871 45.0254 58.7256 45.2168 58.7256C45.3991 58.7256 45.5563 58.7871 45.6885 58.9102C45.8206 59.0332 45.8867 59.2223 45.8867 59.4775C45.8867 59.7327 45.8206 59.9242 45.6885 60.0518C45.5563 60.1748 45.3991 60.2363 45.2168 60.2363C45.0254 60.2363 44.8659 60.1748 44.7383 60.0518C44.6107 59.9242 44.5469 59.7327 44.5469 59.4775Z" fill="#3B4549"/>
<path d="M50.6035 68.2002C50.804 68.2002 50.9977 68.1865 51.1846 68.1592C51.3714 68.1273 51.5195 68.0954 51.6289 68.0635V68.9316C51.5059 68.9909 51.3236 69.0387 51.082 69.0752C50.8451 69.1162 50.6309 69.1367 50.4395 69.1367C48.9902 69.1367 48.2656 68.3734 48.2656 66.8467V62.3896H47.1924V61.8428L48.2656 61.3711L48.7441 59.7715H49.4004V61.5078H51.5742V62.3896H49.4004V66.7988C49.4004 67.25 49.5075 67.5964 49.7217 67.8379C49.9359 68.0794 50.2298 68.2002 50.6035 68.2002Z" fill="#3B4549"/>
<path d="M56.2979 69.1367C55.1904 69.1367 54.3154 68.7995 53.6729 68.125C53.0348 67.4505 52.7158 66.514 52.7158 65.3154C52.7158 64.1077 53.012 63.1484 53.6045 62.4375C54.2015 61.7266 55.0013 61.3711 56.0039 61.3711C56.9427 61.3711 57.6855 61.681 58.2324 62.3008C58.7793 62.916 59.0527 63.7295 59.0527 64.7412V65.459H53.8916C53.9144 66.3385 54.1354 67.0062 54.5547 67.4619C54.9785 67.9176 55.5732 68.1455 56.3389 68.1455C57.1455 68.1455 57.943 67.9769 58.7314 67.6396V68.6514C58.3304 68.8245 57.9499 68.9476 57.5898 69.0205C57.2344 69.098 56.8037 69.1367 56.2979 69.1367ZM55.9902 62.3213C55.3887 62.3213 54.9079 62.5173 54.5479 62.9092C54.1924 63.3011 53.9827 63.8434 53.9189 64.5361H57.8359C57.8359 63.8206 57.6764 63.2738 57.3574 62.8955C57.0384 62.5127 56.5827 62.3213 55.9902 62.3213Z" fill="#3B4549"/>
<g clip-path="url(#clip0)">
<path d="M29.4518 9.83005C29.4518 9.83005 30.4328 13.4852 32.9357 10.7676C35.4385 8.05006 32.8895 9.54743 38.5175 5.00098C38.5175 5.00098 38.0229 4.45747 36.1831 5.376C35.0268 5.97437 33.7431 6.2848 32.4411 6.28094C30.6964 6.26192 28.5278 6.79999 29.4518 9.83005Z" fill="#3B4549"/>
<path d="M29.9953 26.0538C29.9953 26.0538 26.9136 25.9342 26.8375 23.7412C26.7614 21.5481 23.2639 19.8687 23.2639 19.8687C23.2639 19.8687 28.093 19.0724 29.9953 22.0237C31.8976 24.9749 29.9953 26.0538 29.9953 26.0538Z" fill="#3B4549"/>
<path d="M30.8405 31.4508C30.8405 31.4508 34.9766 32.8857 37.9794 26.0619C37.9794 26.0538 29.6311 24.7385 30.8405 31.4508Z" fill="#3B4549"/>
<path d="M25.5032 44.3646C25.5032 44.3646 27.1337 42.215 24.3292 40.8318C21.5247 39.4486 21.7883 36.8859 21.7883 36.8859C21.7883 36.8859 19.4431 41.802 22.8427 44.7206C22.8427 44.7097 24.0548 45.631 25.5032 44.3646Z" fill="#3B4549"/>
<path d="M25.4189 4.10418L25.2532 4.18571C25.1024 4.25962 24.9706 4.36694 24.8676 4.4995C24.7646 4.63207 24.6932 4.78638 24.6589 4.9507C24.6246 5.11501 24.6282 5.28499 24.6695 5.4477C24.7108 5.6104 24.7886 5.76154 24.8972 5.88961C26.4652 7.74841 29.3757 11.9307 29.2452 17.2462C29.0468 24.5048 30.3676 30.3258 26.2559 40.2448C23.9678 45.756 23.109 48.2806 22.7965 49.4383C22.552 50.3361 22.1863 51.1964 21.7095 51.9955H24.0167C24.0167 51.9955 25.6472 52.4384 25.4869 47.449C25.3265 42.4596 32.9927 41.6308 31.7372 16.3032C31.7372 16.3032 31.4655 8.46584 26.5114 4.2455C26.364 4.11596 26.1813 4.03332 25.9867 4.00815C25.7921 3.98298 25.5944 4.01641 25.4189 4.10418Z" fill="#C47D3D"/>
<path d="M31.7182 23.521C31.4233 23.6036 31.1641 23.7819 30.9816 24.0279C30.7991 24.2739 30.7035 24.5736 30.71 24.8798C30.7263 25.6951 31.2236 26.9479 33.3026 28.4588C37.1452 31.2525 39.0447 32.5705 39.0447 32.5705C39.0447 32.5705 36.8408 30.6138 35.7375 26.2658C34.9385 23.1025 32.8216 23.2194 31.7182 23.521Z" fill="#3B4549"/>
<path d="M25.3483 10.0936C25.3483 10.0936 28.9817 7.9359 29.5551 11.697C30.1285 15.4581 27.7397 14.2542 26.294 16.6619C24.8483 19.0697 23.6661 20.8741 23.6661 20.8741C23.6661 20.8741 22.821 11.2133 25.3483 10.0936Z" fill="#3B4549"/>
<path d="M29.4626 30.7225C29.4626 30.7225 30.8703 33.7961 27.3321 35.2717C23.7938 36.7473 24.5575 36.3098 24.5575 36.3098C24.5575 36.3098 24.5575 27.8501 29.4626 30.7225Z" fill="#3B4549"/>
<path d="M28.4599 44.2505C28.3047 44.0522 28.1073 43.8908 27.8821 43.7782C27.6568 43.6656 27.4093 43.6044 27.1575 43.5992C26.9057 43.594 26.6559 43.6449 26.4262 43.7481C26.1965 43.8514 25.9926 44.0044 25.8294 44.1961C25.5087 44.5793 25.332 45.1364 25.6337 45.9272C26.3864 47.9029 27.7045 47.2697 28.911 50.7074C28.911 50.7074 29.9682 46.1881 28.4599 44.2505Z" fill="#3B4549"/>
</g>
<defs>
<clipPath id="clip0">
<path d="M6 4H54V52H6V4Z" fill="white"/>
</clipPath>
</defs>
</svg>
