<svg width="60" height="40" viewBox="0 0 60 40" fill="none" xmlns="http://www.w3.org/2000/svg">
<path d="M0 0H60V40H0V0Z" fill="#F2F0F0"/>
<path d="M16.2744 27.9893C16.2744 29.5889 15.8688 30.8467 15.0576 31.7627C14.251 32.6787 13.1276 33.1367 11.6875 33.1367C10.2155 33.1367 9.07845 32.6878 8.27637 31.79C7.47884 30.8877 7.08008 29.6162 7.08008 27.9756C7.08008 26.3486 7.48112 25.0885 8.2832 24.1953C9.08529 23.2975 10.2246 22.8486 11.7012 22.8486C13.1367 22.8486 14.2578 23.3044 15.0645 24.2158C15.8711 25.1273 16.2744 26.3851 16.2744 27.9893ZM8.31055 27.9893C8.31055 29.3428 8.59766 30.3704 9.17188 31.0723C9.75065 31.7695 10.5892 32.1182 11.6875 32.1182C12.7949 32.1182 13.6312 31.7695 14.1963 31.0723C14.7614 30.375 15.0439 29.3473 15.0439 27.9893C15.0439 26.6449 14.7614 25.6263 14.1963 24.9336C13.6357 24.2363 12.804 23.8877 11.7012 23.8877C10.5938 23.8877 9.75065 24.2386 9.17188 24.9404C8.59766 25.6377 8.31055 26.654 8.31055 27.9893Z" fill="#3B4549"/>
<path d="M21.7568 25.3711C22.0895 25.3711 22.388 25.3984 22.6523 25.4531L22.4951 26.5059C22.1852 26.4375 21.9118 26.4033 21.6748 26.4033C21.0687 26.4033 20.5492 26.6494 20.1162 27.1416C19.6878 27.6338 19.4736 28.2467 19.4736 28.9805V33H18.3389V25.5078H19.2754L19.4053 26.8955H19.46C19.738 26.4079 20.0729 26.0319 20.4648 25.7676C20.8568 25.5033 21.2874 25.3711 21.7568 25.3711Z" fill="#3B4549"/>
<path d="M28.6611 33L28.4355 31.9336H28.3809C28.0072 32.403 27.6335 32.722 27.2598 32.8906C26.8906 33.0547 26.4281 33.1367 25.8721 33.1367C25.1292 33.1367 24.5459 32.9453 24.1221 32.5625C23.7028 32.1797 23.4932 31.6351 23.4932 30.9287C23.4932 29.4157 24.7031 28.6227 27.123 28.5498L28.3945 28.5088V28.0439C28.3945 27.4561 28.2669 27.0231 28.0117 26.7451C27.7611 26.4626 27.3577 26.3213 26.8018 26.3213C26.1774 26.3213 25.471 26.5127 24.6826 26.8955L24.334 26.0273C24.7031 25.8268 25.1064 25.6696 25.5439 25.5557C25.986 25.4417 26.4281 25.3848 26.8701 25.3848C27.7633 25.3848 28.4242 25.583 28.8525 25.9795C29.2855 26.376 29.502 27.0117 29.502 27.8867V33H28.6611ZM26.0977 32.2002C26.804 32.2002 27.3577 32.0065 27.7588 31.6191C28.1644 31.2318 28.3672 30.6895 28.3672 29.9922V29.3154L27.2324 29.3633C26.3301 29.3952 25.6784 29.5365 25.2773 29.7871C24.8809 30.0332 24.6826 30.4183 24.6826 30.9424C24.6826 31.3525 24.8057 31.6647 25.0518 31.8789C25.3024 32.0931 25.651 32.2002 26.0977 32.2002Z" fill="#3B4549"/>
<path d="M36.9736 33V28.1533C36.9736 27.5426 36.8346 27.0869 36.5566 26.7861C36.2786 26.4854 35.8434 26.335 35.251 26.335C34.4671 26.335 33.8929 26.5469 33.5283 26.9707C33.1637 27.3945 32.9814 28.0941 32.9814 29.0693V33H31.8467V25.5078H32.7695L32.9541 26.5332H33.0088C33.2412 26.1641 33.5671 25.8792 33.9863 25.6787C34.4056 25.4736 34.8727 25.3711 35.3877 25.3711C36.29 25.3711 36.9691 25.5898 37.4248 26.0273C37.8805 26.4603 38.1084 27.1553 38.1084 28.1123V33H36.9736Z" fill="#3B4549"/>
<path d="M46.5781 25.5078V26.2256L45.1904 26.3896C45.318 26.5492 45.432 26.7588 45.5322 27.0186C45.6325 27.2738 45.6826 27.5632 45.6826 27.8867C45.6826 28.6204 45.432 29.2061 44.9307 29.6436C44.4294 30.0811 43.7412 30.2998 42.8662 30.2998C42.6429 30.2998 42.4333 30.2816 42.2373 30.2451C41.7542 30.5003 41.5127 30.8216 41.5127 31.209C41.5127 31.4141 41.597 31.5667 41.7656 31.667C41.9342 31.7627 42.2236 31.8105 42.6338 31.8105H43.96C44.7712 31.8105 45.3932 31.9814 45.8262 32.3232C46.2637 32.665 46.4824 33.1618 46.4824 33.8135C46.4824 34.6429 46.1497 35.2741 45.4844 35.707C44.819 36.1445 43.8483 36.3633 42.5723 36.3633C41.5924 36.3633 40.8359 36.181 40.3027 35.8164C39.7741 35.4518 39.5098 34.9368 39.5098 34.2715C39.5098 33.8158 39.6556 33.4215 39.9473 33.0889C40.2389 32.7562 40.6491 32.5306 41.1777 32.4121C40.9863 32.3255 40.8245 32.1911 40.6924 32.0088C40.5648 31.8265 40.501 31.6146 40.501 31.373C40.501 31.0996 40.5739 30.8604 40.7197 30.6553C40.8656 30.4502 41.0957 30.252 41.4102 30.0605C41.0228 29.901 40.7061 29.6299 40.46 29.2471C40.2184 28.8643 40.0977 28.4268 40.0977 27.9346C40.0977 27.1143 40.3438 26.4831 40.8359 26.041C41.3281 25.5944 42.0254 25.3711 42.9277 25.3711C43.3197 25.3711 43.6729 25.4167 43.9873 25.5078H46.5781ZM40.6035 34.2578C40.6035 34.6634 40.7744 34.971 41.1162 35.1807C41.458 35.3903 41.9479 35.4951 42.5859 35.4951C43.5384 35.4951 44.2425 35.3516 44.6982 35.0645C45.1585 34.7819 45.3887 34.3968 45.3887 33.9092C45.3887 33.5036 45.2633 33.221 45.0127 33.0615C44.762 32.9066 44.2904 32.8291 43.5977 32.8291H42.2373C41.7223 32.8291 41.3213 32.9521 41.0342 33.1982C40.7471 33.4443 40.6035 33.7975 40.6035 34.2578ZM41.2188 27.9072C41.2188 28.4313 41.3669 28.8278 41.6631 29.0967C41.9593 29.3656 42.3717 29.5 42.9004 29.5C44.0078 29.5 44.5615 28.9622 44.5615 27.8867C44.5615 26.7611 44.001 26.1982 42.8799 26.1982C42.3467 26.1982 41.9365 26.3418 41.6494 26.6289C41.3623 26.916 41.2188 27.3421 41.2188 27.9072Z" fill="#3B4549"/>
<path d="M51.2812 33.1367C50.1738 33.1367 49.2988 32.7995 48.6562 32.125C48.0182 31.4505 47.6992 30.514 47.6992 29.3154C47.6992 28.1077 47.9954 27.1484 48.5879 26.4375C49.1849 25.7266 49.9847 25.3711 50.9873 25.3711C51.9261 25.3711 52.6689 25.681 53.2158 26.3008C53.7627 26.916 54.0361 27.7295 54.0361 28.7412V29.459H48.875C48.8978 30.3385 49.1188 31.0062 49.5381 31.4619C49.9619 31.9176 50.5566 32.1455 51.3223 32.1455C52.1289 32.1455 52.9264 31.9769 53.7148 31.6396V32.6514C53.3138 32.8245 52.9333 32.9476 52.5732 33.0205C52.2178 33.098 51.7871 33.1367 51.2812 33.1367ZM50.9736 26.3213C50.3721 26.3213 49.8913 26.5173 49.5312 26.9092C49.1758 27.3011 48.9661 27.8434 48.9023 28.5361H52.8193C52.8193 27.8206 52.6598 27.2738 52.3408 26.8955C52.0218 26.5127 51.5661 26.3213 50.9736 26.3213Z" fill="#3B4549"/>
<path d="M4 4H56V16H4V4Z" fill="#DF9B4F"/>
</svg>
