<svg width="60" height="76" viewBox="0 0 60 76" fill="none" xmlns="http://www.w3.org/2000/svg">
<rect width="60" height="76" fill="#F2F0F0"/>
<path d="M16.508 58.392C13.582 58.392 12 60.632 12 63.418C12 66.218 13.596 68.444 16.41 68.444C19.448 68.444 20.918 66.036 20.918 63.348C20.918 60.478 19.224 58.392 16.508 58.392ZM16.466 59.274C18.734 59.274 19.854 61.178 19.854 63.376C19.854 65.588 18.86 67.562 16.452 67.562C14.226 67.562 13.05 65.56 13.05 63.376C13.05 61.22 14.1 59.274 16.466 59.274Z" fill="#3B4549"/>
<path d="M22.0881 62.074H23.3621V66.75C23.3621 67.898 23.8521 68.402 24.8461 68.402C25.1681 68.402 25.5321 68.374 25.7981 68.276V67.52C25.5881 67.576 25.3221 67.59 25.1261 67.59C24.4681 67.59 24.3001 67.184 24.3001 66.442V62.074H25.9241V61.262H24.3001V59.12H23.3621V61.262H22.0881V62.074Z" fill="#3B4549"/>
<path d="M27.252 58V68.304H28.19V64.412C28.19 62.802 28.876 61.948 30.22 61.948C31.326 61.948 31.9 62.676 31.9 63.992V68.304H32.838V63.81C32.838 61.654 31.508 61.094 30.458 61.094C29.24 61.094 28.568 61.696 28.19 62.382V58H27.252Z" fill="#3B4549"/>
<path d="M40.5333 64.93C40.5473 64.748 40.5473 64.552 40.5473 64.342C40.5473 62.942 39.8333 61.094 37.6073 61.094C35.5213 61.094 34.4993 62.802 34.4993 64.846C34.4993 66.652 35.3533 68.472 37.5373 68.472C39.3573 68.472 40.0993 67.352 40.3933 66.428H39.4413C39.2033 66.974 38.7973 67.646 37.5653 67.646C36.2773 67.646 35.4513 66.568 35.4513 64.93H40.5333ZM35.4933 64.202C35.6333 62.83 36.2353 61.892 37.5933 61.892C38.8953 61.892 39.5673 62.914 39.5813 64.202H35.4933Z" fill="#3B4549"/>
<path d="M42.1954 68.304H43.1334V64.748C43.1334 63.026 44.0854 62.13 45.5414 62.06V61.094C44.3934 61.136 43.5254 61.766 43.1334 62.774C43.1334 61.976 43.1194 61.472 43.0914 61.262H42.1814C42.1814 61.556 42.1954 62.088 42.1954 63.18V68.304Z" fill="#3B4549"/>
<path d="M25.1317 34.8462C25.1317 34.8462 15.7778 40.5739 6 40.1324C6 40.1324 6.883 30.7785 18.2031 28.3385C18.2031 28.3385 10.8801 21.9661 10.4739 8.67697C10.4739 8.67697 23.2185 11.6615 26.0736 18.8462C26.0736 18.8462 30.9536 11.3907 40.0368 8C40.0368 8 42.4768 11.3907 38.2708 21.9661C38.2708 21.9661 49.6615 20.8094 54 25.6571C54 25.6571 49.5261 31.9588 39.3569 33.1302C39.3569 33.1302 43.9661 41.8955 42.6093 47.4555C42.6093 47.4555 37.1199 47.6586 26.0029 34.7108L25.1317 34.8462Z" fill="#3B4549"/>
<path d="M23.4393 49.6012C22.9125 48.2119 23.3687 46.2781 23.6718 44.9124C24.2271 42.571 25.016 40.2913 26.0265 38.1074C26.8712 36.206 27.2038 34.3723 26.5681 32.312C26.3414 31.5761 24.6578 31.8911 24.8874 32.6328C25.691 35.2347 24.2222 37.0802 23.2863 39.4231C22.4616 41.3942 21.845 43.446 21.4467 45.5452C21.2171 46.8638 20.9051 48.6092 21.4025 49.919C21.6762 50.6372 23.6571 50.5989 23.4629 49.6012H23.4393Z" fill="#C47D3D"/>
<path d="M19.9748 21.2156C19.5126 21.1391 19.0505 21.0361 18.5943 20.9213C18.0439 20.777 16.9667 20.5857 16.7018 20.0059C16.6193 19.8293 16.3603 19.9823 16.4427 20.1589C16.6988 20.7241 17.5789 20.9389 18.1116 21.0979C18.6975 21.2702 19.2931 21.4078 19.8953 21.5099C20.0837 21.5423 20.1661 21.2509 19.9748 21.2156V21.2156Z" fill="#C47D3D"/>
<path d="M18.9272 19.2141C19.3304 18.8433 19.7454 18.4812 20.1663 18.128C20.7226 17.66 21.379 16.9831 22.0942 16.7682C22.2797 16.7093 22.2002 16.4209 22.0148 16.4739C21.326 16.6828 20.7109 17.2862 20.1663 17.7336C19.6719 18.1437 19.1872 18.5656 18.7123 18.9993C18.571 19.1317 18.783 19.3436 18.9272 19.2112V19.2141Z" fill="#C47D3D"/>
<path d="M20.1018 14.7697C19.9252 15.6292 19.7221 17.0508 20.4962 17.6807C20.6463 17.8013 20.8612 17.5894 20.711 17.4658C20.0341 16.9183 20.2372 15.6027 20.3902 14.8521C20.4314 14.6608 20.14 14.5813 20.0959 14.7697H20.1018Z" fill="#C47D3D"/>
<path d="M13.8676 15.1317C14.9165 15.498 15.9077 16.0124 16.8109 16.6593C16.9699 16.7682 17.1053 16.5092 16.961 16.3974C16.0352 15.7381 15.0204 15.2139 13.9471 14.8403C13.7646 14.7785 13.6851 15.0699 13.8676 15.1347V15.1317Z" fill="#C47D3D"/>
<path d="M25.9735 22.8874C24.2075 22.9315 22.83 24.1825 22.8005 25.9808C22.8074 26.0148 22.8258 26.0454 22.8526 26.0674C22.8794 26.0894 22.913 26.1014 22.9477 26.1014C22.9824 26.1014 23.016 26.0894 23.0428 26.0674C23.0696 26.0454 23.088 26.0148 23.0949 25.9808C23.1214 24.3502 24.3634 23.2288 25.9676 23.1876C26.0016 23.1808 26.0321 23.1624 26.0541 23.1356C26.0761 23.1087 26.0881 23.0751 26.0881 23.0404C26.0881 23.0058 26.0761 22.9722 26.0541 22.9453C26.0321 22.9185 26.0016 22.9001 25.9676 22.8933L25.9735 22.8874Z" fill="#C47D3D"/>
<path d="M23.5805 21.6453C23.5737 22.0033 23.5924 22.3614 23.6364 22.7167C23.6805 23.0552 23.7335 23.5585 24.0661 23.7439C24.2368 23.8381 24.3869 23.5791 24.2192 23.4849C23.9248 23.323 23.9248 22.6785 23.9042 22.3988C23.8836 22.1192 23.8777 21.9014 23.8807 21.6512C23.8738 21.6172 23.8554 21.5867 23.8286 21.5647C23.8018 21.5427 23.7682 21.5307 23.7335 21.5307C23.6988 21.5307 23.6652 21.5427 23.6384 21.5647C23.6116 21.5867 23.5932 21.6172 23.5863 21.6512L23.5805 21.6453Z" fill="#C47D3D"/>
<path d="M19.2008 26.9904C20.4224 27.4435 21.7389 27.5792 23.0272 27.3848C23.2185 27.3495 23.1361 27.0611 22.9477 27.0905C21.7166 27.2695 20.4602 27.1348 19.295 26.699C19.1096 26.6343 19.0301 26.9257 19.2126 26.9934L19.2008 26.9904Z" fill="#C47D3D"/>
<path d="M19.0981 30.1958C18.9728 30.507 18.9471 30.8494 19.0245 31.1759C19.1952 31.897 19.9075 32.2208 20.558 32.3532C20.7464 32.3915 20.8288 32.1001 20.6375 32.0589C20.0488 31.9382 19.3777 31.6557 19.2924 30.9699C19.2644 30.7322 19.2968 30.4912 19.3865 30.2694C19.4601 30.0898 19.1717 30.0133 19.0922 30.1899L19.0981 30.1958Z" fill="#C47D3D"/>
<path d="M16.4988 30.9581C17.3818 31.4893 18.3911 31.7739 19.4215 31.7822C19.6128 31.7822 19.6158 31.4879 19.4215 31.4879C18.4444 31.4771 17.488 31.2047 16.6518 30.6991C16.4811 30.6049 16.331 30.8639 16.4988 30.9581V30.9581Z" fill="#C47D3D"/>
<path d="M18.624 32.3915C17.379 33.1038 14.1178 35.2024 15.8985 36.8241C16.0427 36.9536 16.2546 36.7417 16.1104 36.6093C14.5858 35.22 17.7028 33.2627 18.7771 32.6505C18.8114 32.6302 18.8363 32.5971 18.8462 32.5584C18.8562 32.5198 18.8503 32.4788 18.8301 32.4444C18.8098 32.4101 18.7766 32.3852 18.738 32.3753C18.6994 32.3653 18.6584 32.3712 18.624 32.3915V32.3915Z" fill="#C47D3D"/>
<path d="M14.6474 36.4327C14.6199 36.4504 14.6376 36.4504 14.7004 36.4327L14.8446 36.5445C14.8887 36.6623 14.8034 36.6623 14.8711 36.5946C14.9388 36.5269 14.9329 36.5122 14.9653 36.4739L15.239 36.156C15.3656 36.0089 15.4921 35.8617 15.6216 35.7175C15.7511 35.5732 15.5363 35.3584 15.4097 35.5026C15.2831 35.6468 15.0977 35.8558 14.9447 36.0353C14.8505 36.1442 14.7592 36.2532 14.6709 36.365C14.6179 36.4298 14.5208 36.5269 14.5561 36.624C14.5659 36.6549 14.585 36.682 14.6109 36.7015C14.6367 36.721 14.668 36.732 14.7004 36.7329C14.7355 36.7338 14.7699 36.7224 14.7975 36.7005C14.9535 36.5916 14.7975 36.3297 14.6474 36.4415V36.4327Z" fill="#C47D3D"/>
<path d="M10.8035 34.9758C11.6151 34.9007 12.4319 34.9007 13.2436 34.9758C13.4378 34.9993 13.4349 34.6814 13.2436 34.6814C12.4319 34.6064 11.6151 34.6064 10.8035 34.6814C10.6122 34.6814 10.6093 34.9934 10.8035 34.9758Z" fill="#C47D3D"/>
<path d="M21.9999 32.2414C21.6408 33.198 21.0522 34.2164 20.2016 34.805C20.0426 34.9169 20.2016 35.1759 20.3517 35.067C21.2759 34.4253 21.8999 33.3569 22.2913 32.3208C22.359 32.1384 22.0676 32.0618 21.997 32.2414H21.9999Z" fill="#C47D3D"/>
<path d="M26.1412 25.7012C26.4201 26.2419 26.7872 26.7323 27.2273 27.1523C27.5069 27.4025 27.9043 27.5114 28.0926 27.8499C28.2163 28.1038 28.2672 28.387 28.2398 28.6681C28.2398 28.8594 28.5341 28.8594 28.5341 28.6681C28.5669 28.404 28.5297 28.1358 28.4264 27.8905C28.3232 27.6452 28.1573 27.4312 27.9455 27.27C27.2862 26.8408 26.7489 26.2488 26.3855 25.5511C26.2913 25.3804 26.0323 25.5335 26.1265 25.7012H26.1412Z" fill="#C47D3D"/>
<path d="M31.3597 17.8219C29.6702 20.106 28.8167 23.2642 29.841 25.9809C29.9086 26.1604 30.2 26.081 30.1353 25.8985C29.1257 23.2495 29.9646 20.2002 31.607 17.975C31.7217 17.819 31.4627 17.6807 31.3479 17.8219H31.3597Z" fill="#C47D3D"/>
<path d="M29.8411 17.6541C29.5674 18.6725 29.379 19.9382 29.8411 20.9183C29.9265 21.092 30.1855 20.9389 30.1031 20.7653C29.6645 19.8823 29.8647 18.6667 30.1031 17.7336C30.1136 17.6946 30.1082 17.653 30.0881 17.6179C30.0679 17.5829 30.0347 17.5573 29.9956 17.5467C29.9566 17.5362 29.915 17.5416 29.8799 17.5617C29.8449 17.5819 29.8193 17.6151 29.8087 17.6541H29.8411Z" fill="#C47D3D"/>
<path d="M32.7639 17.8985V20.8418C32.7731 20.8738 32.7924 20.9019 32.8189 20.922C32.8455 20.942 32.8778 20.9528 32.9111 20.9528C32.9443 20.9528 32.9767 20.942 33.0033 20.922C33.0298 20.9019 33.0491 20.8738 33.0583 20.8418V17.8985C33.0514 17.8645 33.033 17.8339 33.0062 17.8119C32.9794 17.79 32.9458 17.778 32.9111 17.778C32.8764 17.778 32.8428 17.79 32.816 17.8119C32.7891 17.8339 32.7707 17.8645 32.7639 17.8985V17.8985Z" fill="#C47D3D"/>
<path d="M37.4465 19.1376C36.2037 19.995 34.695 20.3792 33.1934 20.2208C32.9992 20.2002 33.0021 20.5004 33.1934 20.5151C34.7524 20.6776 36.3182 20.2778 37.6084 19.3878C37.7674 19.2789 37.6084 19.0199 37.4554 19.1288L37.4465 19.1376Z" fill="#C47D3D"/>
<path d="M35.922 11.3848C35.6305 12.9897 35.4447 14.6121 35.3657 16.2413C35.3726 16.2753 35.391 16.3059 35.4178 16.3279C35.4446 16.3498 35.4782 16.3618 35.5129 16.3618C35.5476 16.3618 35.5812 16.3498 35.608 16.3279C35.6348 16.3059 35.6532 16.2753 35.6601 16.2413C35.7386 14.6428 35.9204 13.0511 36.2046 11.476C36.234 11.2847 35.9456 11.2053 35.9103 11.3966L35.922 11.3848Z" fill="#C47D3D"/>
<path d="M38.0616 14.5813C37.4406 15.1008 36.6708 15.41 35.863 15.4643C35.6687 15.479 35.6687 15.7792 35.863 15.7586C36.7484 15.7024 37.5929 15.3652 38.2736 14.7962C38.4178 14.6667 38.2059 14.4547 38.0616 14.5813Z" fill="#C47D3D"/>
<path d="M35.2833 23.3054C34.5651 23.8057 33.7439 24.3502 32.8815 24.5474C31.9848 24.7257 31.1047 24.9787 30.2502 25.3039C30.0736 25.3775 30.1501 25.6689 30.3297 25.5982C31.2627 25.2156 32.2075 25.0684 33.1611 24.7859C33.9789 24.4971 34.7457 24.0809 35.4334 23.5526C35.5923 23.4437 35.4334 23.1817 35.2833 23.2936V23.3054Z" fill="#C47D3D"/>
<path d="M35.4334 25.1243C35.4334 25.1243 35.1067 25.1243 34.9978 25.1067C34.2452 24.9929 33.5044 24.8117 32.7844 24.5651C32.5989 24.5092 32.5195 24.8005 32.7049 24.8594C33.476 25.1246 34.2718 25.3119 35.0802 25.4186C35.2536 25.4553 35.4336 25.4441 35.6012 25.3863C35.7719 25.295 35.6188 25.036 35.4481 25.1273L35.4334 25.1243Z" fill="#C47D3D"/>
<path d="M39.5539 23.3054C38.9456 24.0236 38.3569 24.7604 37.7878 25.5158C37.2551 26.2281 36.2102 27.323 36.219 28.2826C36.2282 28.3146 36.2475 28.3427 36.274 28.3627C36.3006 28.3828 36.333 28.3936 36.3662 28.3936C36.3995 28.3936 36.4318 28.3828 36.4584 28.3627C36.4849 28.3427 36.5042 28.3146 36.5134 28.2826C36.5134 27.3672 37.6466 26.1869 38.1617 25.507C38.6767 24.8271 39.2065 24.1648 39.7569 23.5173C39.8806 23.3701 39.6686 23.1553 39.5421 23.3054H39.5539Z" fill="#C47D3D"/>
<path d="M39.7013 24.3532C39.7454 24.2973 39.6513 24.4062 39.6365 24.418C39.5686 24.4822 39.4935 24.5385 39.4129 24.5858C39.104 24.7649 38.7514 24.8546 38.3945 24.8448C38.3605 24.8516 38.3299 24.87 38.3079 24.8968C38.2859 24.9237 38.2739 24.9573 38.2739 24.9919C38.2739 25.0266 38.2859 25.0602 38.3079 25.0871C38.3299 25.1139 38.3605 25.1323 38.3945 25.1391C38.6865 25.1552 38.9784 25.1063 39.2492 24.9958C39.52 24.8854 39.7629 24.7162 39.9603 24.5004C40.078 24.3474 39.8161 24.2061 39.7013 24.3474V24.3532Z" fill="#C47D3D"/>
<path d="M47.2069 23.4614C46.7517 23.7851 46.3102 24.1275 45.8824 24.4886C45.4733 24.8359 44.7522 25.351 44.7051 25.9396C44.6874 26.1339 44.9994 26.131 44.9994 25.9396C45.0229 25.6895 45.2937 25.4452 45.4644 25.2803C45.7117 25.0272 45.9825 24.7947 46.2533 24.568C46.6123 24.2737 46.9812 23.9921 47.36 23.7233C47.516 23.6115 47.36 23.3495 47.2069 23.4614Z" fill="#C47D3D"/>
<path d="M46.7828 28.8713C46.0352 28.6034 45.1287 28.5063 44.4517 28.0972C43.8219 27.7175 43.4098 26.9198 43.2361 26.234C43.2256 26.195 43.2 26.1618 43.1649 26.1416C43.1299 26.1215 43.0883 26.1161 43.0492 26.1266C43.0102 26.1371 42.9769 26.1628 42.9568 26.1978C42.9367 26.2329 42.9313 26.2745 42.9418 26.3135C43.1132 27.0666 43.5268 27.7428 44.1191 28.2385C44.8373 28.7771 45.8586 28.8624 46.6916 29.1597C46.8741 29.2274 46.9536 28.936 46.7711 28.8654L46.7828 28.8713Z" fill="#C47D3D"/>
<path d="M31.201 30.8521C32.3783 30.9139 33.7028 31.0669 34.733 31.6409C35.6719 32.156 36.499 32.3885 37.5498 31.9735C37.7264 31.9028 37.6499 31.6144 37.4674 31.6792C36.8892 31.9205 36.2469 31.9619 35.6425 31.7969C35.0156 31.5909 34.5123 31.1493 33.8765 30.961C33.0023 30.7215 32.1037 30.5822 31.1981 30.546C31.0038 30.546 31.0067 30.8403 31.1981 30.8403L31.201 30.8521Z" fill="#C47D3D"/>
<path d="M38.2442 36.106C38.2442 36.3532 37.8086 36.6387 37.5732 36.7653C36.334 37.4128 34.7181 37.354 33.3671 37.354C33.3331 37.3608 33.3025 37.3792 33.2806 37.406C33.2586 37.4328 33.2466 37.4665 33.2466 37.5011C33.2466 37.5358 33.2586 37.5694 33.2806 37.5962C33.3025 37.6231 33.3331 37.6415 33.3671 37.6483C34.7887 37.6689 36.6578 37.7366 37.9205 36.9242C38.1913 36.7476 38.5268 36.468 38.5445 36.1148C38.5445 35.9206 38.2501 35.9206 38.2501 36.1148L38.2442 36.106Z" fill="#C47D3D"/>
<path d="M38.7505 38.0368C38.0622 37.5183 37.2379 37.2115 36.3781 37.1538C36.1839 37.1538 36.1839 37.4481 36.3781 37.4481C37.1856 37.5106 37.9576 37.8061 38.6004 38.2988C38.7534 38.4136 38.8947 38.1545 38.7505 38.0368Z" fill="#C47D3D"/>
<path d="M40.5312 41.2598C40.5577 41.0596 40.6371 41.2598 40.5459 41.1832C40.3801 41.134 40.2093 41.1034 40.0367 41.092C39.0545 40.8205 38.0902 40.4883 37.1493 40.0971C36.9698 40.0265 36.8903 40.3179 37.0698 40.3915C37.2494 40.4651 40.7402 41.9367 40.8196 41.3451C40.8461 41.1567 40.5547 41.0743 40.5253 41.2656L40.5312 41.2598Z" fill="#C47D3D"/>
<path d="M39.5717 45.9308V42.4753C39.5649 42.4413 39.5465 42.4107 39.5196 42.3888C39.4928 42.3668 39.4592 42.3548 39.4245 42.3548C39.3898 42.3548 39.3562 42.3668 39.3294 42.3888C39.3026 42.4107 39.2842 42.4413 39.2773 42.4753V45.9308C39.2842 45.9648 39.3026 45.9954 39.3294 46.0174C39.3562 46.0393 39.3898 46.0514 39.4245 46.0514C39.4592 46.0514 39.4928 46.0393 39.5196 46.0174C39.5465 45.9954 39.5649 45.9648 39.5717 45.9308V45.9308Z" fill="#C47D3D"/>
<path d="M34.5062 41.5836C34.1501 39.9555 33.5455 38.392 32.7137 36.9478C32.6137 36.783 32.3546 36.9478 32.4547 37.0979C33.2735 38.5214 33.8691 40.062 34.2207 41.666C34.2649 41.8544 34.5533 41.7749 34.515 41.5836H34.5062Z" fill="#C47D3D"/>
<path d="M31.3128 38.2311C30.7242 37.4923 30.0737 36.5563 29.953 35.6027C29.9295 35.4113 29.6263 35.4084 29.6587 35.6027C29.7882 36.6505 30.4563 37.6365 31.1068 38.443C31.2275 38.5931 31.4394 38.3812 31.3187 38.2311H31.3128Z" fill="#C47D3D"/>
<path d="M26.2091 32.9713C26.2091 32.9713 39.4776 10.2428 40.031 8L24.8757 32.6328L26.2091 32.9713Z" fill="#C47D3D"/>
<path d="M10.4739 8.677C10.4739 8.677 25.2642 24.6888 26.0353 32.312L24.9139 32.7565C24.9139 32.7565 24.128 25.145 10.4739 8.677Z" fill="#C47D3D"/>
<path d="M6 40.1324C6 40.1324 13.3348 31.6262 24.5931 31.3701L24.855 32.3591C24.855 32.3591 14.3297 31.894 6 40.1324Z" fill="#C47D3D"/>
<path d="M26.0352 32.312C26.0352 32.312 42.2559 23.5585 53.9969 25.6571C53.9969 25.6571 42.8328 24.6828 26.1205 33.3392L26.0352 32.312Z" fill="#C47D3D"/>
<path d="M42.6062 47.4555C42.6062 47.4555 44.5577 42.8933 26.5562 32.3709L26.1206 33.3393C26.1206 33.3393 42.8476 43.4496 42.6062 47.4555Z" fill="#C47D3D"/>
</svg>
