<svg width="60" height="92" viewBox="0 0 60 92" fill="none" xmlns="http://www.w3.org/2000/svg">
<path d="M0 0H60V92H0V0Z" fill="#F2F0F0"/>
<path d="M21.5312 65.9893C21.5312 67.5889 21.1257 68.8467 20.3145 69.7627C19.5078 70.6787 18.3844 71.1367 16.9443 71.1367C15.4723 71.1367 14.3353 70.6878 13.5332 69.79C12.7357 68.8877 12.3369 67.6162 12.3369 65.9756C12.3369 64.3486 12.738 63.0885 13.54 62.1953C14.3421 61.2975 15.4814 60.8486 16.958 60.8486C18.3936 60.8486 19.5146 61.3044 20.3213 62.2158C21.1279 63.1273 21.5312 64.3851 21.5312 65.9893ZM13.5674 65.9893C13.5674 67.3428 13.8545 68.3704 14.4287 69.0723C15.0075 69.7695 15.846 70.1182 16.9443 70.1182C18.0518 70.1182 18.888 69.7695 19.4531 69.0723C20.0182 68.375 20.3008 67.3473 20.3008 65.9893C20.3008 64.6449 20.0182 63.6263 19.4531 62.9336C18.8926 62.2363 18.0609 61.8877 16.958 61.8877C15.8506 61.8877 15.0075 62.2386 14.4287 62.9404C13.8545 63.6377 13.5674 64.654 13.5674 65.9893Z" fill="#3B4549"/>
<path d="M26.0156 70.2002C26.2161 70.2002 26.4098 70.1865 26.5967 70.1592C26.7835 70.1273 26.9316 70.0954 27.041 70.0635V70.9316C26.918 70.9909 26.7357 71.0387 26.4941 71.0752C26.2572 71.1162 26.043 71.1367 25.8516 71.1367C24.4023 71.1367 23.6777 70.3734 23.6777 68.8467V64.3896H22.6045V63.8428L23.6777 63.3711L24.1562 61.7715H24.8125V63.5078H26.9863V64.3896H24.8125V68.7988C24.8125 69.25 24.9196 69.5964 25.1338 69.8379C25.348 70.0794 25.6419 70.2002 26.0156 70.2002Z" fill="#3B4549"/>
<path d="M33.6719 71V66.1533C33.6719 65.5426 33.5329 65.0869 33.2549 64.7861C32.9769 64.4854 32.5417 64.335 31.9492 64.335C31.1608 64.335 30.5843 64.5492 30.2197 64.9775C29.8597 65.4059 29.6797 66.1077 29.6797 67.083V71H28.5449V60.3633H29.6797V63.583C29.6797 63.9704 29.6615 64.2917 29.625 64.5469H29.6934C29.9167 64.1868 30.2334 63.9043 30.6436 63.6992C31.0583 63.4896 31.5299 63.3848 32.0586 63.3848C32.9746 63.3848 33.6605 63.6035 34.1162 64.041C34.5765 64.474 34.8066 65.1644 34.8066 66.1123V71H33.6719Z" fill="#3B4549"/>
<path d="M40.3096 71.1367C39.2021 71.1367 38.3271 70.7995 37.6846 70.125C37.0465 69.4505 36.7275 68.514 36.7275 67.3154C36.7275 66.1077 37.0238 65.1484 37.6162 64.4375C38.2132 63.7266 39.013 63.3711 40.0156 63.3711C40.9544 63.3711 41.6973 63.681 42.2441 64.3008C42.791 64.916 43.0645 65.7295 43.0645 66.7412V67.459H37.9033C37.9261 68.3385 38.1471 69.0062 38.5664 69.4619C38.9902 69.9176 39.585 70.1455 40.3506 70.1455C41.1572 70.1455 41.9548 69.9769 42.7432 69.6396V70.6514C42.3421 70.8245 41.9616 70.9476 41.6016 71.0205C41.2461 71.098 40.8154 71.1367 40.3096 71.1367ZM40.002 64.3213C39.4004 64.3213 38.9196 64.5173 38.5596 64.9092C38.2041 65.3011 37.9945 65.8434 37.9307 66.5361H41.8477C41.8477 65.8206 41.6882 65.2738 41.3691 64.8955C41.0501 64.5127 40.5944 64.3213 40.002 64.3213Z" fill="#3B4549"/>
<path d="M48.4238 63.3711C48.7565 63.3711 49.055 63.3984 49.3193 63.4531L49.1621 64.5059C48.8522 64.4375 48.5788 64.4033 48.3418 64.4033C47.7357 64.4033 47.2161 64.6494 46.7832 65.1416C46.3548 65.6338 46.1406 66.2467 46.1406 66.9805V71H45.0059V63.5078H45.9424L46.0723 64.8955H46.127C46.4049 64.4079 46.7399 64.0319 47.1318 63.7676C47.5238 63.5033 47.9544 63.3711 48.4238 63.3711Z" fill="#3B4549"/>
<g clip-path="url(#clip0)">
<path d="M30.5958 50.87C32.2173 50.87 37.1676 49.7505 34.5587 30.9699C31.9498 12.1893 31.0879 16.3139 30.5958 5C30.5958 5 28.4889 9.67616 25.7612 20.6665C23.0334 31.6568 22.6702 50.8667 30.5958 50.87Z" fill="#3B4549"/>
<path d="M30.6586 49.0075C30.9889 48.8292 31.3191 48.6409 31.6493 48.4395C32.0768 48.2309 32.4542 47.9323 32.7556 47.5644C32.9009 47.3431 32.5443 47.135 32.399 47.3563C32.1678 47.7196 31.6493 47.9606 31.2894 48.1753C31.012 48.3404 30.728 48.5055 30.444 48.6508C30.16 48.7961 30.4143 49.133 30.652 49.0075H30.6586Z" fill="#C47D3D"/>
<path d="M30.5596 49.199C30.4907 49.1988 30.4232 49.1793 30.3647 49.1428C30.3094 49.1069 30.2637 49.0581 30.2315 49.0006C30.1992 48.943 30.1815 48.8785 30.1798 48.8126C30.1831 48.7511 30.2025 48.6915 30.2361 48.6399C30.2697 48.5883 30.3164 48.5465 30.3713 48.5187C30.6454 48.3767 30.9294 48.2149 31.2135 48.0465C31.2762 48.0068 31.3488 47.9672 31.4215 47.9276C31.7479 47.7715 32.0364 47.5461 32.2669 47.2671C32.301 47.2112 32.3499 47.1658 32.4082 47.1361C32.4665 47.1064 32.5319 47.0934 32.5971 47.0987C32.6655 47.1016 32.732 47.1223 32.7899 47.1588C32.8478 47.1953 32.8952 47.2463 32.9274 47.3067C32.9529 47.3589 32.9643 47.417 32.9602 47.475C32.9561 47.5329 32.9368 47.5888 32.9043 47.637C32.6306 47.9939 32.2794 48.2841 31.8772 48.4857L31.7451 48.5649C31.4149 48.7664 31.0847 48.9579 30.7544 49.1395C30.6963 49.1772 30.6288 49.1978 30.5596 49.199ZM32.574 47.4256C32.5677 47.4257 32.5615 47.4276 32.5563 47.4312C32.551 47.4347 32.5468 47.4396 32.5443 47.4454C32.2885 47.7688 31.9605 48.0278 31.5866 48.2017L31.3852 48.3173C31.0979 48.489 30.8073 48.6475 30.5299 48.7994C30.5264 48.8045 30.5241 48.8102 30.523 48.8163C30.522 48.8224 30.5222 48.8286 30.5238 48.8345C30.5254 48.8405 30.5282 48.846 30.5321 48.8508C30.536 48.8556 30.5409 48.8594 30.5464 48.8621C30.5516 48.8662 30.558 48.8683 30.5645 48.8683C30.5711 48.8683 30.5775 48.8662 30.5827 48.8621C30.9129 48.6871 31.2432 48.4989 31.5734 48.3007L31.7088 48.2182C32.0653 48.0403 32.3786 47.7867 32.6269 47.4751C32.6269 47.4626 32.6221 47.4504 32.6135 47.4412C32.605 47.432 32.5932 47.4265 32.5806 47.4256H32.574Z" fill="#C47D3D"/>
<path d="M30.302 45.7942C31.689 45.5829 33.4722 45.0743 34.2648 43.8128C34.4035 43.5849 34.0468 43.3802 33.9081 43.6048C33.1915 44.7672 31.4776 45.2097 30.2029 45.4012C29.942 45.4409 30.0543 45.8405 30.3152 45.8008L30.302 45.7942Z" fill="#C47D3D"/>
<path d="M30.2657 45.9494C30.1734 45.9476 30.0846 45.9136 30.0146 45.8533C29.9447 45.793 29.898 45.7102 29.8826 45.6191C29.8741 45.5745 29.875 45.5286 29.8851 45.4843C29.8952 45.4399 29.9143 45.3982 29.9413 45.3616C29.9682 45.325 30.0025 45.2944 30.0418 45.2717C30.0812 45.2489 30.1248 45.2346 30.1699 45.2295C32.0192 44.9488 33.2279 44.3708 33.7563 43.5089C33.7813 43.4662 33.8147 43.429 33.8546 43.3996C33.8945 43.3703 33.94 43.3494 33.9882 43.3383C34.0365 43.3271 34.0865 43.326 34.1352 43.3349C34.1839 43.3438 34.2303 43.3626 34.2715 43.39C34.3132 43.4138 34.3497 43.4458 34.3787 43.4842C34.4076 43.5225 34.4285 43.5664 34.4399 43.6131C34.4514 43.6597 34.4532 43.7082 34.4452 43.7556C34.4372 43.803 34.4197 43.8483 34.3937 43.8887C33.5846 45.2096 31.7518 45.7413 30.3284 45.9527L30.2657 45.9494ZM34.0667 43.6377C34.0605 43.6382 34.0545 43.6402 34.0493 43.6437C34.044 43.6472 34.0398 43.6519 34.037 43.6575C33.4558 44.6053 32.1712 45.2361 30.2195 45.5333C30.2195 45.5333 30.2195 45.563 30.2195 45.5861C30.2235 45.5952 30.23 45.6031 30.2381 45.6089C30.2462 45.6147 30.2557 45.6182 30.2657 45.6191C31.5866 45.4144 33.3567 44.919 34.0997 43.7071C34.0997 43.7071 34.1163 43.6806 34.0997 43.6641C34.088 43.6598 34.0751 43.6598 34.0634 43.6641L34.0667 43.6377Z" fill="#C47D3D"/>
<path d="M29.9751 41.5804C31.4381 41.2502 33.1157 40.517 33.938 39.1961C34.08 38.9715 33.72 38.7635 33.5813 38.988C32.8185 40.2132 31.2168 40.8605 29.8595 41.1841C29.602 41.2436 29.7109 41.6431 29.9718 41.5804H29.9751Z" fill="#C47D3D"/>
<path d="M29.9354 41.7521C29.8508 41.7516 29.769 41.7222 29.7035 41.6687C29.638 41.6152 29.5928 41.5409 29.5754 41.4582C29.5631 41.4122 29.5603 41.3642 29.567 41.3171C29.5738 41.2699 29.59 41.2246 29.6146 41.1839C29.6393 41.1432 29.672 41.1079 29.7106 41.0801C29.7493 41.0524 29.7932 41.0327 29.8396 41.0223C31.0681 40.7317 32.6929 40.1273 33.4722 38.9021C33.4981 38.8599 33.5323 38.8233 33.5726 38.7945C33.6129 38.7657 33.6586 38.7454 33.707 38.7346C33.7553 38.7238 33.8054 38.7228 33.8541 38.7318C33.9029 38.7407 33.9493 38.7593 33.9907 38.7865C34.0322 38.8106 34.0684 38.8428 34.097 38.8813C34.1256 38.9198 34.1461 38.9637 34.1573 39.0103C34.1684 39.057 34.1699 39.1054 34.1617 39.1527C34.1535 39.1999 34.1358 39.245 34.1096 39.2852C33.1585 40.8076 31.154 41.478 30.0411 41.7422C30.0064 41.7501 29.9709 41.7534 29.9354 41.7521ZM33.7694 39.0573C33.7626 39.0572 33.7559 39.059 33.7501 39.0625C33.7442 39.066 33.7395 39.0711 33.7364 39.0772C32.9141 40.3981 31.2035 41.0388 29.9156 41.3426C29.9156 41.3426 29.8891 41.3426 29.8958 41.3822C29.9024 41.4219 29.9222 41.4285 29.9486 41.4219C31.012 41.1676 32.9207 40.5335 33.8124 39.1102C33.8124 39.1102 33.8289 39.0871 33.8124 39.0673L33.7694 39.0573Z" fill="#C47D3D"/>
<path d="M29.3311 31.3365C30.352 30.7924 31.2959 30.115 32.1381 29.322C32.3231 29.1305 32.0324 28.8366 31.8475 29.0281C31.0299 29.7966 30.1137 30.4529 29.1231 30.9798C29.0827 31.0106 29.0551 31.055 29.0452 31.1048C29.0354 31.1545 29.044 31.2062 29.0696 31.25C29.0952 31.2938 29.1358 31.3268 29.184 31.3427C29.2322 31.3586 29.2845 31.3564 29.3311 31.3365Z" fill="#C47D3D"/>
<path d="M29.2253 31.5312C29.1661 31.5303 29.1082 31.5144 29.0569 31.485C28.9983 31.4516 28.9493 31.4037 28.9146 31.3458C28.8799 31.288 28.8606 31.2222 28.8587 31.1548C28.8574 31.0917 28.8733 31.0295 28.9047 30.9748C28.9361 30.9201 28.9819 30.875 29.037 30.8443C30.0143 30.324 30.9192 29.6779 31.7285 28.9224C31.7687 28.8764 31.8208 28.8426 31.8791 28.8245C31.9374 28.8064 31.9996 28.8049 32.0587 28.82C32.125 28.8368 32.1858 28.8706 32.235 28.9181C32.2843 28.9656 32.3202 29.0251 32.3394 29.0908C32.3571 29.1515 32.3578 29.2159 32.3415 29.277C32.3252 29.3382 32.2925 29.3937 32.247 29.4375C31.3951 30.2433 30.4387 30.9308 29.4036 31.4817C29.3496 31.5138 29.2881 31.5309 29.2253 31.5312ZM31.9894 29.1337C31.1508 29.9116 30.2151 30.5776 29.2055 31.1151C29.2055 31.1581 29.2055 31.1812 29.2055 31.1911H29.2319C30.2403 30.6564 31.1731 29.9901 32.0059 29.2097C32.0224 29.2097 32.0059 29.1865 32.0059 29.1799C32.0062 29.163 32.0003 29.1466 31.9894 29.1337Z" fill="#C47D3D"/>
<path d="M29.2748 26.1351C30.14 25.5209 31.068 24.8307 31.6822 23.9556C31.8341 23.7376 31.4775 23.5296 31.3256 23.7475C30.7543 24.5632 29.8692 25.2105 29.0667 25.7818C28.8521 25.9337 29.0667 26.2904 29.2748 26.1351Z" fill="#C47D3D"/>
<path d="M29.1692 26.3334C29.1225 26.3332 29.0764 26.323 29.0338 26.3037C28.972 26.2723 28.9193 26.2253 28.8811 26.1674C28.8429 26.1095 28.8204 26.0427 28.8159 25.9734C28.8107 25.9093 28.8226 25.8449 28.8505 25.7869C28.8783 25.7288 28.9211 25.6793 28.9744 25.6432C29.8363 25.0289 30.6586 24.4147 31.1936 23.6618C31.2302 23.6088 31.2798 23.5661 31.3376 23.5378C31.3954 23.5095 31.4595 23.4964 31.5238 23.5C31.5931 23.5045 31.6599 23.527 31.7178 23.5652C31.7757 23.6034 31.8227 23.656 31.8541 23.7179C31.8758 23.7717 31.8839 23.83 31.8776 23.8876C31.8712 23.9453 31.8507 24.0004 31.8177 24.0481C31.1969 24.9332 30.2656 25.63 29.3707 26.2673C29.3118 26.3093 29.2415 26.3323 29.1692 26.3334ZM31.5007 23.8236C31.4935 23.8238 31.4865 23.8258 31.4802 23.8292C31.4739 23.8326 31.4685 23.8375 31.4644 23.8434C30.8166 24.6604 30.035 25.3616 29.1527 25.9173C29.1458 25.9227 29.1404 25.9298 29.137 25.9379C29.1335 25.946 29.1321 25.9548 29.1329 25.9635C29.1338 25.9735 29.1369 25.9831 29.1421 25.9917C29.1472 26.0003 29.1543 26.0076 29.1626 26.0131C30.0345 25.3922 30.9393 24.7152 31.5304 23.8698C31.5304 23.8533 31.5304 23.8335 31.4908 23.8302L31.5007 23.8236Z" fill="#C47D3D"/>
<path d="M29.1329 21.1387L30.5099 19.9597C30.7147 19.788 30.4208 19.4974 30.2193 19.6691L28.8389 20.8514C28.6375 21.0231 28.9314 21.3137 29.1329 21.142V21.1387Z" fill="#C47D3D"/>
<path d="M28.9974 21.3567C28.9401 21.3557 28.8836 21.3426 28.8318 21.3181C28.78 21.2936 28.734 21.2583 28.6969 21.2147C28.6645 21.1812 28.6395 21.1412 28.6236 21.0974C28.6077 21.0536 28.6012 21.007 28.6047 20.9605C28.6081 20.914 28.6213 20.8688 28.6435 20.8278C28.6656 20.7868 28.6962 20.7509 28.7332 20.7226L30.1136 19.5304C30.1521 19.4975 30.1969 19.4727 30.2452 19.4573C30.2935 19.4419 30.3444 19.4364 30.3948 19.441C30.4453 19.4456 30.4944 19.4603 30.5391 19.4842C30.5838 19.508 30.6233 19.5406 30.6552 19.58C30.6876 19.6134 30.7126 19.6534 30.7285 19.6972C30.7444 19.741 30.7509 19.7877 30.7474 19.8342C30.744 19.8806 30.7308 19.9259 30.7086 19.9669C30.6865 20.0079 30.6559 20.0437 30.6189 20.072L29.2385 21.251C29.1735 21.3141 29.0879 21.3516 28.9974 21.3567ZM30.3547 19.7814C30.3461 19.7784 30.3368 19.7784 30.3283 19.7814L28.9446 20.9736C28.9446 20.9901 28.9446 21.0099 28.971 21.0198C28.9782 21.0249 28.9869 21.0277 28.9958 21.0277C29.0046 21.0277 29.0133 21.0249 29.0205 21.0198L30.4009 19.8409C30.4009 19.8244 30.4009 19.8045 30.3745 19.7946L30.3547 19.7814Z" fill="#C47D3D"/>
<path d="M28.8326 22.5191L27.6239 21.4062C27.4291 21.2246 27.1352 21.5185 27.3333 21.6969L28.5519 22.8131C28.7467 22.9914 29.0406 22.7008 28.8458 22.5191H28.8326Z" fill="#C47D3D"/>
<path d="M28.6773 23.0342C28.5853 23.0331 28.497 22.9978 28.4296 22.9351L27.2077 21.8189C27.1606 21.7795 27.1255 21.7277 27.1062 21.6693C27.087 21.611 27.0844 21.5484 27.0987 21.4887C27.1141 21.4224 27.1466 21.3613 27.193 21.3115C27.2393 21.2617 27.2979 21.2248 27.3629 21.2047C27.4248 21.185 27.4909 21.1823 27.5542 21.1968C27.6175 21.2113 27.6757 21.2426 27.7229 21.2873L28.9448 22.4002C28.9828 22.4297 29.014 22.4672 29.036 22.51C29.0581 22.5529 29.0705 22.6 29.0724 22.6482C29.0743 22.6963 29.0656 22.7443 29.047 22.7887C29.0283 22.8332 29.0002 22.873 28.9646 22.9054C28.9284 22.9459 28.8841 22.9782 28.8346 23.0004C28.7851 23.0226 28.7315 23.0341 28.6773 23.0342ZM27.4752 21.5118C27.4653 21.5152 27.4562 21.5209 27.4488 21.5283C27.4414 21.5358 27.4357 21.5448 27.4323 21.5547L28.6641 22.6875C28.6681 22.6923 28.6731 22.6962 28.6788 22.6989C28.6846 22.7016 28.6908 22.703 28.6971 22.703C28.7034 22.703 28.7096 22.7016 28.7153 22.6989C28.721 22.6962 28.7261 22.6923 28.7301 22.6875C28.7499 22.6676 28.7301 22.661 28.7301 22.6478L27.4983 21.5118H27.4752Z" fill="#C47D3D"/>
<path d="M29.0602 26.2244C28.7498 26.0626 28.446 25.8942 28.1521 25.6894C27.6798 25.379 27.059 24.9827 26.8311 24.4411C26.7288 24.2 26.3292 24.3057 26.4315 24.5501C26.8278 25.4946 27.9771 26.1319 28.8489 26.5811C29.0867 26.6999 29.2947 26.3466 29.0569 26.2244H29.0602Z" fill="#C47D3D"/>
<path d="M28.9446 26.7692C28.8836 26.7695 28.8235 26.7548 28.7696 26.7263C28.053 26.3564 26.7155 25.6662 26.2763 24.6127C26.2526 24.5594 26.2435 24.5007 26.2499 24.4427C26.2563 24.3847 26.2779 24.3294 26.3126 24.2825C26.3557 24.2314 26.411 24.1922 26.4735 24.1685C26.5359 24.1447 26.6034 24.1373 26.6695 24.1469C26.7356 24.1565 26.7981 24.1827 26.8513 24.2232C26.9044 24.2637 26.9463 24.3171 26.9731 24.3783C27.1745 24.8604 27.7392 25.227 28.1917 25.5242L28.228 25.5506C28.5582 25.7554 28.8356 25.9271 29.1229 26.0757C29.1794 26.101 29.2276 26.1417 29.262 26.1931C29.2965 26.2444 29.3158 26.3045 29.3178 26.3663C29.3179 26.4326 29.3009 26.4978 29.2685 26.5556C29.2361 26.6134 29.1894 26.662 29.1328 26.6965C29.0792 26.7398 29.0134 26.7652 28.9446 26.7692ZM26.633 24.4839C26.6189 24.48 26.6041 24.48 26.59 24.4839C26.9896 25.4317 28.2577 26.0856 28.938 26.4356C28.9447 26.4419 28.9536 26.4454 28.9628 26.4454C28.972 26.4454 28.9808 26.4419 28.9875 26.4356C28.9943 26.4299 28.9998 26.4228 29.0038 26.4149C29.0078 26.4069 29.0101 26.3983 29.0107 26.3894L29.0701 26.2342L28.9941 26.3795C28.6769 26.2155 28.3693 26.0336 28.0728 25.8346L28.0232 25.8049C27.5312 25.4747 26.9203 25.0817 26.6825 24.5071C26.6771 24.4991 26.6697 24.4927 26.6609 24.4886C26.6522 24.4845 26.6425 24.4829 26.633 24.4839Z" fill="#C47D3D"/>
<path d="M25.89 28.9124C26.4085 29.4012 26.9435 29.8734 27.495 30.3226C27.9309 30.6792 28.6574 31.4388 29.2816 31.3496C29.5425 31.3133 29.4302 30.917 29.1726 30.9533C28.9679 30.983 28.5815 30.6231 28.4362 30.5339C28.0729 30.273 27.7262 29.989 27.386 29.6984C26.9765 29.3484 26.5747 28.9895 26.1807 28.6218C25.9858 28.4402 25.6952 28.7308 25.89 28.9124Z" fill="#C47D3D"/>
<path d="M29.1791 31.5247C28.621 31.5247 28.0497 31.0228 27.6237 30.6529L27.3893 30.4514C26.8609 30.0221 26.3193 29.5433 25.7744 29.0314C25.7398 28.9987 25.7123 28.9593 25.6934 28.9156C25.6746 28.8718 25.6649 28.8247 25.6649 28.7771C25.6649 28.7295 25.6746 28.6824 25.6934 28.6387C25.7123 28.595 25.7398 28.5556 25.7744 28.5229C25.8067 28.4853 25.8464 28.4548 25.891 28.4332C25.9356 28.4116 25.9841 28.3994 26.0336 28.3972C26.0831 28.395 26.1325 28.403 26.1788 28.4206C26.2251 28.4383 26.2673 28.4652 26.3028 28.4997C26.6792 28.8531 27.0821 29.2131 27.5048 29.573C27.9275 29.933 28.2016 30.1575 28.5418 30.3986L28.6508 30.4812C28.9216 30.6958 29.0966 30.8114 29.1593 30.7883C29.2617 30.7741 29.3655 30.8008 29.4484 30.8626C29.5312 30.9244 29.5863 31.0164 29.6018 31.1185C29.6093 31.1627 29.6077 31.2079 29.5972 31.2514C29.5866 31.295 29.5673 31.3359 29.5404 31.3717C29.5135 31.4076 29.4797 31.4376 29.4408 31.4599C29.402 31.4822 29.359 31.4964 29.3145 31.5016C29.2701 31.5132 29.2248 31.5209 29.1791 31.5247ZM26.0023 28.7936C26.5405 29.2989 27.0755 29.7844 27.6006 30.1972L27.8417 30.4019C28.2512 30.7586 28.8093 31.2539 29.2749 31.1879C29.2749 31.1879 29.2749 31.1582 29.2749 31.135C29.2689 31.1279 29.2613 31.1223 29.2526 31.1189C29.244 31.1154 29.2346 31.1142 29.2254 31.1152C29.0074 31.1482 28.7432 30.9567 28.4658 30.7421L28.3701 30.6694C27.9903 30.4283 27.6634 30.1509 27.2935 29.824C26.9236 29.4971 26.4481 29.1074 26.0683 28.7408C26.0683 28.7408 26.0386 28.7144 26.0056 28.7408C25.9725 28.7672 26.0056 28.7771 26.0056 28.787L26.0023 28.7936Z" fill="#C47D3D"/>
<path d="M25.1702 39.239C26.3293 40.167 28.1423 41.4879 29.7076 41.1049C29.9652 41.0421 29.8563 40.6458 29.5987 40.7086C28.2018 41.0388 26.4977 39.7773 25.4641 38.9484C25.256 38.7833 24.9621 39.0739 25.1702 39.239Z" fill="#C47D3D"/>
<path d="M29.123 41.3262C27.7228 41.3262 26.2433 40.2991 25.0677 39.3447C25.0311 39.3176 25.0004 39.2833 24.9777 39.2438C24.955 39.2043 24.9408 39.1605 24.9358 39.1152C24.9308 39.0699 24.9353 39.0241 24.9489 38.9806C24.9625 38.9372 24.985 38.897 25.0148 38.8626C25.0465 38.8217 25.0859 38.7875 25.1309 38.762C25.1758 38.7365 25.2254 38.7202 25.2768 38.7141C25.3281 38.7079 25.3801 38.712 25.4298 38.7262C25.4796 38.7404 25.526 38.7643 25.5663 38.7965C26.7684 39.7608 28.3073 40.8275 29.5589 40.5237C29.6213 40.507 29.687 40.5074 29.7492 40.5248C29.8113 40.5422 29.8677 40.5761 29.9123 40.6228C29.9595 40.6725 29.9928 40.7337 30.0091 40.8003C30.0253 40.867 30.0238 40.9367 30.0047 41.0025C29.989 41.063 29.9564 41.1177 29.9108 41.1603C29.8652 41.203 29.8085 41.2319 29.7471 41.2436C29.5431 41.2959 29.3336 41.3236 29.123 41.3262ZM25.3286 39.064H25.3121C25.3028 39.0671 25.2944 39.0723 25.2876 39.0792C25.2807 39.0861 25.2755 39.0944 25.2724 39.1037C26.567 40.1406 28.2446 41.2898 29.6712 40.9398C29.6805 40.93 29.6857 40.917 29.6857 40.9035C29.6857 40.8899 29.6805 40.8769 29.6712 40.8671C29.6712 40.8671 29.6712 40.8671 29.6382 40.8671C28.2479 41.1974 26.6198 40.0878 25.3451 39.0772C25.3408 39.0715 25.3351 39.067 25.3286 39.064Z" fill="#C47D3D"/>
<path d="M26.1078 43.5024C26.699 43.8326 27.2967 44.1629 27.9076 44.4931C28.4657 44.7738 29.3177 45.3352 29.9782 45.256C30.2391 45.2262 30.2424 44.8135 29.9782 44.8432C29.3177 44.9224 28.4063 44.2884 27.835 43.9912C27.322 43.727 26.8167 43.4496 26.3192 43.159C26.2723 43.1363 26.2185 43.1321 26.1687 43.1472C26.1188 43.1622 26.0764 43.1955 26.0498 43.2403C26.0233 43.2851 26.0145 43.3383 26.0252 43.3892C26.036 43.4402 26.0654 43.4853 26.1078 43.5156V43.5024Z" fill="#C47D3D"/>
<path d="M29.8496 45.4145C29.2915 45.4145 28.664 45.0843 28.1521 44.7969C28.0399 44.7342 27.9309 44.6748 27.8219 44.6252C27.2209 44.3247 26.6165 43.9945 26.0155 43.6345C25.9602 43.6038 25.9142 43.5587 25.8822 43.5041C25.8503 43.4495 25.8336 43.3874 25.8339 43.3241C25.8364 43.2568 25.8559 43.1913 25.8905 43.1335C25.9252 43.0758 25.9738 43.0277 26.032 42.9939C26.0865 42.9616 26.1487 42.9446 26.212 42.9446C26.2753 42.9446 26.3375 42.9616 26.392 42.9939C26.8708 43.2713 27.3827 43.552 27.9012 43.8227C28.0167 43.8822 28.1488 43.9581 28.2908 44.0374C28.8159 44.3379 29.4698 44.6979 29.942 44.6549C29.9869 44.648 30.0328 44.6504 30.0768 44.662C30.1207 44.6736 30.1618 44.6941 30.1975 44.7223C30.2331 44.7505 30.2626 44.7858 30.284 44.8259C30.3054 44.866 30.3182 44.9101 30.3218 44.9555C30.336 45.0578 30.3093 45.1617 30.2475 45.2445C30.1857 45.3273 30.0937 45.3825 29.9916 45.398L29.8496 45.4145ZM26.1938 43.3604C26.7849 43.6907 27.386 44.0209 27.9804 44.3313L28.3106 44.5063C28.8258 44.787 29.4665 45.1338 29.9618 45.0776C29.9716 45.0778 29.9812 45.0751 29.9894 45.0698C29.9977 45.0645 30.0042 45.0569 30.0081 45.0479C30.0125 45.0386 30.0148 45.0285 30.0148 45.0182C30.0148 45.0079 30.0125 44.9978 30.0081 44.9885C29.4103 45.0611 28.7069 44.6582 28.1389 44.328L27.7625 44.12C27.2374 43.8459 26.7222 43.5652 26.2368 43.2812C26.1905 43.2812 26.1773 43.3109 26.1773 43.3307L26.1113 43.4958L26.1938 43.3604Z" fill="#C47D3D"/>
<path d="M28.2512 47.419C28.9523 47.7952 29.6158 48.2375 30.2326 48.74C30.4374 48.9051 30.7313 48.6145 30.5266 48.4493C29.8824 47.9236 29.189 47.4613 28.456 47.069C28.2182 46.9435 28.0102 47.3001 28.2446 47.4256L28.2512 47.419Z" fill="#C47D3D"/>
<path d="M30.3746 48.948C30.2879 48.9471 30.2041 48.9168 30.1368 48.8621C29.5258 48.368 28.8689 47.9334 28.1752 47.5643C28.1308 47.5452 28.0911 47.5166 28.059 47.4806C28.0268 47.4445 28.0029 47.4018 27.9891 47.3555C27.9752 47.3092 27.9717 47.2605 27.9788 47.2126C27.9858 47.1648 28.0033 47.1192 28.0299 47.0788C28.0519 47.0341 28.0827 46.9943 28.1204 46.9617C28.1581 46.9291 28.2019 46.9044 28.2493 46.889C28.2967 46.8736 28.3467 46.8678 28.3964 46.8721C28.4461 46.8763 28.4944 46.8905 28.5385 46.9137C29.2809 47.3118 29.9832 47.7807 30.6355 48.3139C30.6716 48.341 30.7018 48.3752 30.7241 48.4144C30.7465 48.4536 30.7606 48.497 30.7656 48.5419C30.7705 48.5868 30.7662 48.6322 30.7529 48.6753C30.7396 48.7185 30.7176 48.7585 30.6883 48.7928C30.6507 48.8402 30.6031 48.8787 30.5489 48.9056C30.4946 48.9324 30.4351 48.9469 30.3746 48.948ZM28.3304 47.2704C29.0409 47.6464 29.7143 48.0886 30.3416 48.5913C30.3491 48.5972 30.3584 48.6004 30.368 48.6004C30.3775 48.6004 30.3868 48.5972 30.3944 48.5913C30.4241 48.5913 30.4373 48.5616 30.4373 48.555C29.7978 48.0349 29.1099 47.577 28.3832 47.1878C28.3535 47.1878 28.3337 47.1878 28.3205 47.2142C28.3073 47.2407 28.3205 47.244 28.3205 47.2506L28.3304 47.2704Z" fill="#C47D3D"/>
<path d="M32.9867 32.4856C31.8309 33.4763 30.6387 34.685 29.2881 35.4049C29.0536 35.5304 29.2616 35.8871 29.4961 35.7616C30.8798 35.0252 32.0984 33.7802 33.2806 32.7894C33.4821 32.6177 33.1882 32.3271 32.9867 32.4988V32.4856Z" fill="#C47D3D"/>
<path d="M29.3938 35.9532C29.3249 35.9523 29.2576 35.9325 29.1993 35.8958C29.1411 35.859 29.0941 35.8069 29.0636 35.7451C29.0209 35.6676 29.008 35.5772 29.0273 35.4908C29.0376 35.4409 29.0594 35.394 29.0909 35.3539C29.1225 35.3138 29.1628 35.2815 29.2089 35.2597C30.2562 34.6375 31.2271 33.8949 32.1018 33.0471C32.3627 32.8126 32.6236 32.5814 32.8811 32.3602C32.9195 32.3271 32.964 32.302 33.0122 32.2863C33.0604 32.2707 33.1112 32.2649 33.1617 32.2692C33.2121 32.2735 33.2612 32.2879 33.3061 32.3114C33.3509 32.335 33.3906 32.3673 33.4227 32.4064C33.4557 32.4399 33.4812 32.4801 33.4974 32.5242C33.5137 32.5683 33.5203 32.6154 33.5168 32.6623C33.5134 32.7092 33.5 32.7548 33.4775 32.7961C33.455 32.8374 33.4239 32.8734 33.3864 32.9018C33.1288 33.1263 32.8646 33.3608 32.6004 33.5986C31.6842 34.4841 30.6679 35.2599 29.5722 35.9102C29.517 35.9386 29.4559 35.9534 29.3938 35.9532ZM33.0958 32.6112C32.8415 32.8291 32.5839 33.0603 32.323 33.2914C31.4251 34.1593 30.4275 34.9175 29.3509 35.5503C29.3471 35.5562 29.345 35.563 29.345 35.5701C29.345 35.5771 29.3471 35.584 29.3509 35.5899C29.3509 35.6196 29.3872 35.6295 29.4103 35.6163C30.4863 34.9801 31.4839 34.2198 32.3825 33.3509C32.65 33.1131 32.9142 32.8753 33.1751 32.6508C33.1751 32.6508 33.1751 32.6112 33.1486 32.6013C33.1416 32.5956 33.1329 32.5926 33.1239 32.5926C33.1149 32.5926 33.1061 32.5956 33.0991 32.6013L33.0958 32.6112Z" fill="#C47D3D"/>
<path d="M25.17 33.1263C26.3547 34.196 27.6898 35.0861 29.1328 35.7682C29.3739 35.8739 29.582 35.5173 29.3409 35.4116C27.9286 34.7474 26.6222 33.8783 25.4639 32.8324C25.2625 32.6607 24.9686 32.9513 25.17 33.1263Z" fill="#C47D3D"/>
<path d="M29.2121 35.9466C29.1587 35.9455 29.1061 35.9343 29.0569 35.9136C27.6046 35.2236 26.2598 34.327 25.0643 33.2519C25.0268 33.2235 24.9957 33.1875 24.9732 33.1462C24.9507 33.1049 24.9373 33.0593 24.9339 33.0124C24.9304 32.9655 24.937 32.9184 24.9533 32.8743C24.9695 32.8302 24.995 32.79 25.028 32.7565C25.0599 32.7171 25.0994 32.6846 25.1441 32.6607C25.1888 32.6368 25.2378 32.6222 25.2883 32.6175C25.3388 32.6129 25.3897 32.6185 25.438 32.6338C25.4863 32.6492 25.531 32.674 25.5696 32.707C26.7112 33.7419 28.0013 34.6001 29.397 35.2531C29.452 35.2752 29.5 35.3117 29.5361 35.3588C29.5721 35.4058 29.5948 35.4617 29.6018 35.5206C29.6058 35.5745 29.5988 35.6287 29.5811 35.6798C29.5634 35.731 29.5355 35.7779 29.499 35.8178C29.4625 35.8577 29.4182 35.8897 29.3689 35.9119C29.3195 35.934 29.2662 35.9458 29.2121 35.9466ZM25.312 32.9447H25.2922C25.2835 32.9482 25.2758 32.9536 25.2695 32.9605C25.2633 32.9673 25.2586 32.9755 25.2558 32.9844C26.4279 34.0363 27.7446 34.9148 29.1658 35.5932C29.1736 35.5986 29.1828 35.6015 29.1923 35.6015C29.2017 35.6015 29.2109 35.5986 29.2187 35.5932C29.2418 35.5932 29.2517 35.5536 29.2484 35.547C27.8283 34.8837 26.5158 34.011 25.3549 32.9579C25.3493 32.9525 25.3425 32.9485 25.335 32.9462C25.3276 32.9439 25.3197 32.9434 25.312 32.9447Z" fill="#C47D3D"/>
<path d="M31.0415 52.9802C31.198 52.9612 31.3407 52.8811 31.4384 52.7574C31.5361 52.6337 31.581 52.4764 31.5633 52.3197C30.926 48.4064 28.4195 24.669 29.4531 8.71851C29.4531 8.71851 26.8112 27.542 30.0607 52.3957C30.0853 52.5003 30.1307 52.599 30.1944 52.6856C30.2581 52.7722 30.3386 52.845 30.4312 52.8996C30.5238 52.9542 30.6265 52.9895 30.7331 53.0034C30.8397 53.0172 30.948 53.0094 31.0514 52.9802H31.0415Z" fill="#C47D3D"/>
</g>
<defs>
<clipPath id="clip0">
<path d="M6 5H54V53H6V5Z" fill="white"/>
</clipPath>
</defs>
</svg>
