<svg width="60" height="76" viewBox="0 0 60 76" fill="none" xmlns="http://www.w3.org/2000/svg">
<rect width="60" height="76" fill="#F2F0F0"/>
<path d="M21.5241 58.088C18.5981 58.088 17.0161 60.328 17.0161 63.114C17.0161 65.914 18.6121 68.14 21.4261 68.14C24.4641 68.14 25.9341 65.732 25.9341 63.044C25.9341 60.174 24.2401 58.088 21.5241 58.088ZM21.4821 58.97C23.7501 58.97 24.8701 60.874 24.8701 63.072C24.8701 65.284 23.8761 67.258 21.4681 67.258C19.2421 67.258 18.0661 65.256 18.0661 63.072C18.0661 60.916 19.1161 58.97 21.4821 58.97Z" fill="#3B4549"/>
<path d="M27.1335 60.958L29.6255 68H30.6895L33.3215 60.958H32.3555C31.1235 64.346 30.3535 66.446 30.1995 67.09H30.1855C29.9335 66.208 29.1915 64.024 28.1415 60.958H27.1335Z" fill="#3B4549"/>
<path d="M39.495 63.044C39.495 61.476 38.571 60.79 36.919 60.79C34.931 60.79 34.399 61.952 34.315 62.806H35.239C35.379 62.246 35.575 61.574 36.891 61.574C38.361 61.574 38.571 62.428 38.571 63.1V63.772H37.297C35.197 63.772 33.979 64.472 33.979 66.04C33.979 67.104 34.679 68.168 36.331 68.168C37.745 68.168 38.333 67.482 38.585 66.992C38.599 67.51 38.641 67.832 38.697 68H39.593C39.551 67.79 39.495 67.202 39.495 66.572V63.044ZM38.585 64.724C38.585 66.138 38.333 67.384 36.457 67.384C35.519 67.384 34.945 66.81 34.945 65.984C34.945 64.878 35.827 64.486 37.311 64.486H38.585V64.724Z" fill="#3B4549"/>
<path d="M42.6534 68V57.696H41.7154V68H42.6534Z" fill="#3B4549"/>
<g clip-path="url(#clip0)">
<path d="M29.6527 48.6511C29.6527 48.6511 42.5929 48.9322 42.5929 25.727C42.5929 25.727 41.3813 5 29.7981 5C29.7981 5 17 5.10662 17 28.2633C17 28.2633 17.559 48.6511 29.6527 48.6511Z" fill="#3B4549"/>
<path d="M25.8787 44.8029C27.3036 45.4297 28.9127 46.1373 30.4894 46.1858C30.5386 46.1795 30.5838 46.1556 30.6165 46.1184C30.6493 46.0812 30.6674 46.0334 30.6674 45.9838C30.6674 45.9343 30.6493 45.8864 30.6165 45.8493C30.5838 45.8121 30.5386 45.7881 30.4894 45.7819C28.9934 45.7367 27.4393 45.0485 26.0823 44.4539C25.8464 44.3506 25.6429 44.6963 25.8787 44.8029Z" fill="#C47D3D"/>
<path d="M30.4959 46.357C28.8804 46.3086 27.2648 45.5945 25.84 44.9645C25.7985 44.9481 25.7609 44.9233 25.7295 44.8916C25.6981 44.86 25.6736 44.8222 25.6575 44.7806C25.6414 44.739 25.6341 44.6946 25.636 44.65C25.638 44.6055 25.6491 44.5618 25.6687 44.5218C25.7086 44.428 25.7841 44.3539 25.8786 44.3157C25.9731 44.2775 26.0789 44.2784 26.1728 44.3183C27.5395 44.9192 29.0807 45.588 30.5185 45.6333C30.567 45.6341 30.6149 45.6447 30.6591 45.6645C30.7034 45.6843 30.7433 45.7129 30.7762 45.7485C30.8091 45.7842 30.8345 45.8261 30.8507 45.8718C30.8669 45.9176 30.8737 45.9661 30.8707 46.0145C30.8704 46.0622 30.8602 46.1093 30.8409 46.1529C30.8215 46.1965 30.7934 46.2356 30.7582 46.2677C30.723 46.2999 30.6815 46.3244 30.6363 46.3398C30.5912 46.3552 30.5434 46.361 30.4959 46.357V46.357ZM25.9434 44.664C27.3489 45.2811 28.9417 45.979 30.4668 46.0275C30.4829 46.0275 30.4959 46.0275 30.4959 45.9952C30.4959 45.9628 30.4668 45.9467 30.4571 45.9467C28.9385 45.9015 27.3844 45.2165 26.0144 44.6155C25.9789 44.6155 25.9627 44.5929 25.9401 44.6155C25.9175 44.6381 25.9078 44.6575 25.911 44.664L25.8529 44.8126L25.9434 44.664Z" fill="#C47D3D"/>
<path d="M23.0291 38.6349C25.42 40.4023 28.3538 40.1244 30.8966 41.5428C30.9422 41.5623 30.9934 41.5645 31.0405 41.5489C31.0876 41.5333 31.1274 41.5011 31.1524 41.4582C31.1774 41.4153 31.1859 41.3648 31.1763 41.3161C31.1667 41.2675 31.1396 41.224 31.1001 41.1939C28.58 39.7819 25.5816 40.0178 23.2326 38.2859C23.0226 38.1341 22.8223 38.483 23.0291 38.6349V38.6349Z" fill="#C47D3D"/>
<path d="M30.9968 41.7366C30.9344 41.7358 30.8732 41.7191 30.8191 41.6882C29.6962 41.1202 28.5001 40.7103 27.2649 40.4701C25.7981 40.1179 24.2795 39.7528 22.9418 38.7673C22.8888 38.7279 22.8471 38.6752 22.821 38.6145C22.7949 38.5538 22.7853 38.4872 22.7932 38.4216C22.797 38.3533 22.8191 38.2872 22.8572 38.2304C22.8953 38.1735 22.9479 38.128 23.0097 38.0985C23.0624 38.0763 23.1202 38.0684 23.1769 38.0758C23.2337 38.0832 23.2875 38.1055 23.3328 38.1405C24.5897 39.0711 26.0145 39.4168 27.5331 39.7851C28.7577 40.0824 30.0275 40.3893 31.1906 41.042C31.246 41.0691 31.2925 41.1115 31.3245 41.1642C31.3566 41.2168 31.3729 41.2776 31.3716 41.3392C31.3701 41.4045 31.3521 41.4684 31.3193 41.5248C31.2866 41.5813 31.2401 41.6286 31.1842 41.6623C31.1304 41.705 31.0652 41.7309 30.9968 41.7366V41.7366ZM23.1389 38.4152C23.1389 38.4152 23.1131 38.4346 23.1099 38.4572C23.108 38.4666 23.1092 38.4764 23.1132 38.4851C23.1173 38.4938 23.124 38.501 23.1325 38.5056V38.5056C24.4249 39.4523 25.8336 39.798 27.3328 40.1567C28.6013 40.4006 29.8292 40.8215 30.9806 41.4071C31 41.4071 31.0065 41.4071 31.0129 41.4071C31.0212 41.4011 31.0281 41.3933 31.0331 41.3844C31.0381 41.3755 31.0412 41.3656 31.042 41.3554C29.9015 40.7092 28.6543 40.3861 27.4491 40.1114C25.9758 39.7528 24.4507 39.3812 23.1389 38.4152V38.4152Z" fill="#C47D3D"/>
<path d="M38.8577 35.0743C36.7737 36.5671 34.3085 37.21 32.0984 38.4443C31.5782 38.7351 30.2923 39.5267 30.7349 40.3247C30.861 40.5541 31.2099 40.3506 31.0839 40.1212C30.512 39.0873 34.7156 37.7625 35.3618 37.4685C36.6585 36.9087 37.8975 36.2237 39.0613 35.4233C39.2713 35.2714 39.0613 34.9225 38.8577 35.0743V35.0743Z" fill="#C47D3D"/>
<path d="M30.8935 40.5864C30.8313 40.5864 30.7702 40.5695 30.7168 40.5377C30.6633 40.5058 30.6194 40.4602 30.5898 40.4055C30.3378 39.9499 30.383 39.2197 32.0179 38.3021C32.9337 37.8154 33.8741 37.3764 34.8353 36.987C36.2148 36.4527 37.5321 35.7702 38.7642 34.9515C38.8099 34.917 38.8638 34.8953 38.9206 34.8885C38.9773 34.8817 39.0349 34.89 39.0873 34.9127C39.1493 34.9419 39.2022 34.9874 39.2403 35.0443C39.2785 35.1012 39.3004 35.1674 39.3038 35.2358C39.3079 35.2985 39.2958 35.3611 39.2687 35.4177C39.2415 35.4743 39.2002 35.523 39.1487 35.5589C37.9762 36.3717 36.7262 37.0665 35.4169 37.6333C35.3071 37.6817 35.0938 37.7625 34.8224 37.8627C33.8176 38.2407 31.4621 39.126 31.1972 39.8368C31.1803 39.8715 31.1716 39.9097 31.1716 39.9483C31.1716 39.9869 31.1803 40.025 31.1972 40.0597C31.2214 40.1015 31.2368 40.1476 31.2425 40.1955C31.2483 40.2434 31.2442 40.2919 31.2306 40.3381C31.217 40.3844 31.1941 40.4274 31.1634 40.4645C31.1327 40.5016 31.0947 40.5321 31.0518 40.5541C31.0019 40.5758 30.9479 40.5868 30.8935 40.5864ZM38.971 35.1971C37.7203 36.0306 36.3822 36.7251 34.9807 37.2681C34.0263 37.6635 33.0934 38.109 32.1859 38.6026C31.5397 38.9547 30.5381 39.6429 30.8935 40.2633C30.8935 40.2633 30.9096 40.2891 30.9387 40.2633C30.9678 40.2375 30.9646 40.2148 30.9613 40.2084C30.9195 40.1336 30.8948 40.0504 30.8892 39.9649C30.8836 39.8793 30.8972 39.7936 30.929 39.714C31.2166 38.9289 33.0486 38.1858 34.7416 37.5525C35.0066 37.4523 35.2101 37.3748 35.3167 37.3263C36.5991 36.7702 37.8232 36.0884 38.971 35.2908C38.9783 35.2859 38.984 35.279 38.9874 35.271C38.9909 35.263 38.9919 35.2541 38.9904 35.2455C38.9907 35.2365 38.9892 35.2276 38.9858 35.2192C38.9825 35.2109 38.9775 35.2033 38.971 35.1971V35.1971Z" fill="#C47D3D"/>
<path d="M20.4636 32.2956C23.7884 32.6187 27.9758 32.9677 30.8449 34.8158C31.0646 34.958 31.2682 34.6058 31.0517 34.4669C28.105 32.5703 23.8821 32.2375 20.4636 31.882C20.2052 31.8562 20.2052 32.2601 20.4636 32.2859V32.2956Z" fill="#C47D3D"/>
<path d="M30.9515 35.0097C30.8828 35.0084 30.8157 34.9883 30.7577 34.9515C28.0662 33.2164 24.1082 32.8223 20.9515 32.5056L20.4475 32.4636C20.349 32.4492 20.2602 32.3968 20.1998 32.3177C20.1394 32.2387 20.1124 32.1391 20.1244 32.0404C20.1266 31.9955 20.1382 31.9516 20.1584 31.9114C20.1785 31.8713 20.2069 31.8358 20.2415 31.8072C20.2762 31.7786 20.3164 31.7576 20.3597 31.7454C20.4029 31.7333 20.4482 31.7303 20.4927 31.7366L21.0355 31.7916C24.2827 32.1147 28.3247 32.5185 31.1518 34.3376C31.1932 34.3634 31.2288 34.3974 31.2566 34.4375C31.2844 34.4775 31.3037 34.5228 31.3134 34.5706C31.323 34.6184 31.3229 34.6676 31.3129 34.7153C31.3029 34.7631 31.2833 34.8082 31.2552 34.8481C31.2231 34.8992 31.1782 34.941 31.1249 34.9693C31.0716 34.9977 31.0118 35.0116 30.9515 35.0097V35.0097ZM20.4798 32.1405L20.9806 32.1922C24.1858 32.5153 28.1761 32.9095 30.9321 34.6866C30.9483 34.6866 30.9547 34.6866 30.9709 34.6866C30.9871 34.6866 30.9935 34.6413 30.9709 34.6219C28.2116 32.8449 24.3796 32.4636 21 32.1276L20.4572 32.0727C20.441 32.0727 20.4378 32.1017 20.4572 32.1244C20.46 32.1331 20.4656 32.1408 20.4732 32.146C20.4808 32.1513 20.4899 32.1539 20.4992 32.1534L20.4798 32.1405Z" fill="#C47D3D"/>
<path d="M38.0017 29.9596C35.376 30.4881 32.8999 31.5916 30.7513 33.1906C30.5445 33.3425 30.7513 33.6947 30.9548 33.5396C33.0731 31.9576 35.5165 30.8661 38.1083 30.3441C38.3635 30.2924 38.2537 29.9047 38.0017 29.9564V29.9596Z" fill="#C47D3D"/>
<path d="M30.8449 33.7561C30.8026 33.7556 30.7609 33.7468 30.7221 33.7302C30.6622 33.7023 30.6105 33.6593 30.572 33.6056C30.5335 33.5518 30.5095 33.489 30.5024 33.4233C30.4938 33.3576 30.5031 33.2908 30.5292 33.23C30.5554 33.1692 30.5974 33.1165 30.651 33.0776C32.82 31.4655 35.3175 30.3513 37.966 29.8142C38.0145 29.8044 38.0644 29.8045 38.1128 29.8144C38.1612 29.8244 38.2072 29.8439 38.2479 29.872C38.2886 29.9 38.3232 29.9359 38.3497 29.9776C38.3762 30.0193 38.3941 30.066 38.4022 30.1147C38.4141 30.1588 38.4165 30.2048 38.4093 30.2499C38.4021 30.295 38.3855 30.338 38.3604 30.3761C38.3354 30.4143 38.3026 30.4467 38.2641 30.4713C38.2257 30.4958 38.1824 30.512 38.1373 30.5186C35.5677 31.032 33.1456 32.1139 31.0484 33.685C30.9897 33.7294 30.9185 33.7542 30.8449 33.7561V33.7561ZM38.0274 30.1179C35.4267 30.6451 32.9742 31.7395 30.8449 33.3231C30.8364 33.3277 30.8297 33.3349 30.8256 33.3436C30.8216 33.3524 30.8204 33.3621 30.8223 33.3716C30.8231 33.381 30.8259 33.3901 30.8303 33.3984C30.8347 33.4067 30.8408 33.4141 30.8481 33.42C32.9859 31.8216 35.4545 30.722 38.0727 30.2019C38.0727 30.2019 38.0727 30.1664 38.0727 30.147C38.0685 30.1392 38.0616 30.1331 38.0532 30.1301C38.0448 30.1272 38.0356 30.1274 38.0274 30.1309V30.1179Z" fill="#C47D3D"/>
<path d="M19.5396 22.3829C19.7948 23.5073 20.8643 24.4669 21.7399 25.1131C23.0215 26.0068 24.4402 26.6856 25.9402 27.1228C26.9548 27.4459 29.5557 27.7399 29.9338 28.8707C30.0178 29.1163 30.4087 29.0097 30.3247 28.7641C30.0565 27.9628 29.0485 27.6559 28.3215 27.4006C26.832 26.874 25.2972 26.5703 23.8562 25.8821C22.4152 25.1939 20.315 23.9887 19.9305 22.2762C19.8724 22.021 19.4814 22.1308 19.5396 22.3829Z" fill="#C47D3D"/>
<path d="M30.1147 29.1713H30.0372C29.9744 29.1588 29.9162 29.1297 29.8684 29.0871C29.8207 29.0445 29.7853 28.9899 29.7657 28.9289C29.5008 28.1373 27.9273 27.7755 26.7771 27.5105C26.4184 27.4298 26.1115 27.3587 25.8756 27.2811C24.363 26.84 22.933 26.1534 21.643 25.2488C20.3506 24.2795 19.5945 23.3587 19.3813 22.4249C19.3704 22.3773 19.3691 22.3281 19.3776 22.28C19.3861 22.232 19.4041 22.1861 19.4306 22.1452C19.4571 22.1042 19.4916 22.069 19.532 22.0415C19.5723 22.0141 19.6177 21.9951 19.6656 21.9855C19.7507 21.9648 19.8405 21.9763 19.9176 22.0178C19.9613 22.0407 19.9991 22.0733 20.0282 22.113C20.0573 22.1528 20.077 22.1987 20.0856 22.2472C20.3667 23.4879 21.6527 24.664 23.9111 25.7432C24.8207 26.1479 25.7606 26.4806 26.7221 26.7383C27.2585 26.8966 27.8174 27.0614 28.3603 27.2553L28.4927 27.3005C29.2068 27.5493 30.1826 27.8918 30.4604 28.7189C30.48 28.7733 30.4847 28.832 30.4739 28.8889C30.4631 28.9457 30.4373 28.9986 30.399 29.042C30.3631 29.082 30.3193 29.114 30.2703 29.1363C30.2214 29.1585 30.1684 29.1704 30.1147 29.1713V29.1713ZM28.7221 27.7205C29.3683 27.9758 29.9047 28.3183 30.0727 28.8191C30.0727 28.8191 30.0727 28.8482 30.1082 28.8482C30.1163 28.8519 30.1252 28.8539 30.1341 28.8539C30.143 28.8539 30.1518 28.8519 30.1599 28.8482C29.9628 28.2634 29.3296 27.9403 28.7221 27.7205V27.7205ZM19.6979 22.3474C19.8885 23.1907 20.6058 24.063 21.8465 24.9806C23.1033 25.866 24.4973 26.5384 25.9725 26.9709C26.1955 27.042 26.4992 27.1131 26.8481 27.1939C27.294 27.294 27.8013 27.4136 28.2827 27.5655H28.2536C27.7173 27.3748 27.1648 27.2133 26.6381 27.055C25.6621 26.7866 24.7082 26.443 23.7851 26.0275C21.42 24.9031 20.0759 23.6527 19.7722 22.3118C19.7671 22.3079 19.7609 22.3058 19.7544 22.3058C19.748 22.3058 19.7418 22.3079 19.7367 22.3118C19.7141 22.3118 19.6882 22.3118 19.6979 22.3635V22.3474Z" fill="#C47D3D"/>
<path d="M37.3296 22.1244C34.58 23.2746 31.8369 24.8966 29.8046 27.0808C29.6268 27.2714 29.9112 27.5557 30.0889 27.3683C32.0824 25.2391 34.7512 23.6365 37.4362 22.5218C37.6721 22.4216 37.5687 22.0307 37.3296 22.1308V22.1244Z" fill="#C47D3D"/>
<path d="M29.9563 27.6171C29.9305 27.6202 29.9045 27.6202 29.8787 27.6171C29.8136 27.6015 29.7538 27.5691 29.705 27.5232C29.6563 27.4773 29.6204 27.4195 29.6009 27.3554C29.5745 27.2903 29.5685 27.2188 29.5835 27.1502C29.5985 27.0816 29.6338 27.0191 29.6849 26.9709C31.5395 24.9871 34.1017 23.3069 37.2681 21.9855C37.3203 21.9623 37.3777 21.9534 37.4344 21.9596C37.4912 21.9659 37.5453 21.9871 37.5912 22.021C37.6422 22.0624 37.6818 22.1163 37.7061 22.1774C37.7305 22.2384 37.7387 22.3048 37.7301 22.3699C37.7222 22.4368 37.6964 22.5003 37.6554 22.5537C37.6145 22.6072 37.5599 22.6486 37.4975 22.6737C34.5088 23.9208 31.9853 25.5816 30.2083 27.4879C30.1778 27.526 30.1396 27.5572 30.0961 27.5795C30.0527 27.6018 30.005 27.6146 29.9563 27.6171V27.6171ZM37.3876 22.2924C34.2664 23.5848 31.7527 25.252 29.9175 27.21C29.9175 27.2262 29.9175 27.2359 29.9175 27.2456C29.9209 27.2553 29.9264 27.2641 29.9337 27.2714C29.9409 27.2787 29.9498 27.2842 29.9595 27.2876C31.7883 25.349 34.3472 23.6494 37.3908 22.3861C37.4 22.3824 37.4079 22.3762 37.4136 22.3682C37.4193 22.3602 37.4226 22.3507 37.4232 22.3409C37.4242 22.3288 37.4224 22.3167 37.4179 22.3055C37.4134 22.2943 37.4063 22.2843 37.3973 22.2763L37.3876 22.2924Z" fill="#C47D3D"/>
<path d="M23.5136 18.2472L29.3811 21.1551C29.6138 21.2682 29.8173 20.9224 29.5847 20.8061L23.7172 17.9241C23.4845 17.811 23.281 18.1599 23.5136 18.273V18.2472Z" fill="#C47D3D"/>
<path d="M29.4749 21.3554C29.4173 21.3554 29.3607 21.3409 29.3101 21.3134L23.4426 18.4055C23.3883 18.3812 23.3418 18.3424 23.3082 18.2934C23.2745 18.2444 23.2551 18.187 23.252 18.1276C23.2517 18.0639 23.2672 18.001 23.2971 17.9446C23.327 17.8883 23.3703 17.8402 23.4232 17.8045C23.4743 17.7657 23.535 17.7416 23.5987 17.7348C23.6625 17.728 23.7269 17.7387 23.7851 17.7658L29.6526 20.6737C29.6984 20.6905 29.7397 20.7174 29.7736 20.7525C29.8075 20.7875 29.833 20.8298 29.8483 20.8761C29.8635 20.9224 29.868 20.9716 29.8616 21.0199C29.8551 21.0682 29.8378 21.1144 29.8109 21.1551C29.778 21.2155 29.7294 21.266 29.6703 21.3012C29.6112 21.3364 29.5437 21.3552 29.4749 21.3554ZM23.6235 18.0469C23.6152 18.0439 23.606 18.0439 23.5977 18.0469C23.5839 18.0583 23.5747 18.0744 23.5718 18.0921L29.4394 21C29.4466 21.0046 29.455 21.0071 29.4636 21.0071C29.4722 21.0071 29.4806 21.0046 29.4878 21C29.5014 20.9871 29.5105 20.9701 29.5137 20.9516L23.6332 18.0436L23.6235 18.0469Z" fill="#C47D3D"/>
<path d="M35.8853 14.9968C34.9515 15.5816 34.1244 16.4152 33.2649 17.1002C32.1179 18.0146 30.7932 19.336 29.3716 19.8207C29.1292 19.9047 29.2326 20.2957 29.4814 20.2084C30.7318 19.7819 31.8627 18.7189 32.8772 17.9241C33.8918 17.1293 34.9483 16.0663 36.0889 15.3393C36.1283 15.3092 36.1554 15.2657 36.165 15.217C36.1746 15.1683 36.1662 15.1178 36.1411 15.0749C36.1161 15.0321 36.0763 14.9998 36.0292 14.9842C35.9821 14.9687 35.9309 14.9708 35.8853 14.9903V14.9968Z" fill="#C47D3D"/>
<path d="M29.4134 20.3829C29.3405 20.3854 29.2688 20.3631 29.2102 20.3197C29.1515 20.2763 29.1093 20.2143 29.0903 20.1438C29.0735 20.0978 29.066 20.0489 29.0683 20C29.0706 19.951 29.0826 19.903 29.1037 19.8588C29.1247 19.8146 29.1544 19.775 29.1909 19.7424C29.2275 19.7098 29.2702 19.6848 29.3165 19.6688C30.3956 19.2973 31.449 18.4087 32.3795 17.6236C32.6477 17.3974 32.9094 17.1745 33.1614 16.9774C33.4134 16.7803 33.743 16.4927 34.0273 16.2472C34.5809 15.7411 35.1728 15.2788 35.7979 14.8643C35.8371 14.8392 35.881 14.8223 35.9269 14.8146C35.9728 14.8068 36.0197 14.8084 36.065 14.8193C36.1103 14.8302 36.1529 14.85 36.1902 14.8778C36.2276 14.9055 36.259 14.9405 36.2826 14.9806C36.3098 15.0208 36.3286 15.0661 36.3378 15.1137C36.347 15.1613 36.3465 15.2104 36.3362 15.2578C36.326 15.3052 36.3062 15.35 36.2781 15.3896C36.25 15.4292 36.2141 15.4626 36.1727 15.4879C35.449 15.9752 34.7622 16.5152 34.1178 17.1034C33.7462 17.4265 33.3617 17.7496 32.974 18.0727L32.3569 18.5703C31.5168 19.2165 30.5701 20.0113 29.533 20.3635C29.4943 20.376 29.454 20.3825 29.4134 20.3829V20.3829ZM35.8851 15.0162L35.9724 15.1519C35.3629 15.5578 34.7851 16.0093 34.2438 16.5024C33.9562 16.7512 33.659 17.0097 33.365 17.2423C33.0709 17.475 32.8577 17.6624 32.5895 17.8885C31.6396 18.6931 30.5637 19.6042 29.4263 19.9919C29.4175 19.994 29.4095 19.9989 29.4037 20.0059C29.3979 20.0129 29.3945 20.0216 29.394 20.0307C29.3935 20.0397 29.395 20.0487 29.3983 20.0571C29.4017 20.0655 29.4068 20.073 29.4134 20.0792C30.4053 19.7561 31.2939 19.0162 32.1566 18.3118C32.3666 18.1373 32.5766 17.9693 32.7769 17.811C33.1582 17.5137 33.5394 17.1648 33.911 16.8611C34.567 16.2704 35.2669 15.7303 36.0047 15.2456C36.0047 15.2456 36.037 15.223 36.0047 15.1842C35.9724 15.1454 35.9756 15.1616 35.9627 15.1842L35.8851 15.0162Z" fill="#C47D3D"/>
<path d="M32.5637 11.3296C31.5459 12.273 30.5572 13.4362 29.4264 14.2375C29.1033 14.4604 29.184 14.4863 28.8286 14.5251C28.2729 14.5897 27.5362 14.0146 27.0677 13.7173C26.3484 13.2356 25.6813 12.6801 25.0774 12.0598C25.0385 12.0286 24.9894 12.0128 24.9395 12.0154C24.8897 12.018 24.8425 12.0388 24.807 12.0739C24.7715 12.109 24.7502 12.1559 24.747 12.2057C24.7438 12.2556 24.7591 12.3048 24.7899 12.3441C25.6784 13.2456 27.9239 15.4394 29.3133 14.8869C29.9175 14.6478 30.6057 13.6882 31.0806 13.252L32.8512 11.6171C33.0419 11.4394 32.7543 11.1551 32.5637 11.3296V11.3296Z" fill="#C47D3D"/>
<path d="M28.8319 15.1357C27.8174 15.1357 26.4184 14.2375 24.6671 12.4572C24.6325 12.4243 24.605 12.3847 24.5862 12.3408C24.5673 12.2969 24.5576 12.2497 24.5576 12.2019C24.5576 12.1542 24.5673 12.1069 24.5862 12.0631C24.605 12.0192 24.6325 11.9796 24.6671 11.9467C24.7288 11.8831 24.8115 11.844 24.8998 11.8368C24.95 11.8342 25.0002 11.8423 25.047 11.8607C25.0939 11.8791 25.1362 11.9073 25.1712 11.9435C25.7712 12.5562 26.434 13.1042 27.1486 13.5784L27.336 13.7044C27.7495 13.9855 28.3731 14.4087 28.7996 14.3506C29.0161 14.3247 29.0226 14.3215 29.1227 14.2343C29.168 14.1955 29.2261 14.1502 29.3134 14.0889C30.0704 13.518 30.7764 12.8823 31.4232 12.189C31.7463 11.8659 32.0953 11.5137 32.4345 11.2003C32.4841 11.1556 32.5454 11.1261 32.6113 11.1152C32.6772 11.1043 32.7448 11.1126 32.8061 11.1389C32.8698 11.159 32.9273 11.1951 32.9732 11.2438C33.019 11.2924 33.0516 11.352 33.0678 11.4168C33.08 11.4753 33.0766 11.536 33.0579 11.5927C33.0392 11.6494 33.0058 11.7002 32.9612 11.7399L31.1906 13.378C31.0516 13.5073 30.8869 13.7011 30.7092 13.8853C30.2956 14.3441 29.8271 14.8546 29.3747 15.0452C29.2009 15.1086 29.0169 15.1393 28.8319 15.1357V15.1357ZM24.9321 12.1599C24.9263 12.1601 24.9206 12.1616 24.9155 12.1644C24.9105 12.1672 24.9062 12.1712 24.903 12.1761C24.8707 12.2052 24.8869 12.2213 24.903 12.231C27.3715 14.748 28.6316 14.9838 29.2552 14.7351C29.6365 14.5864 30.0791 14.0889 30.4701 13.6624C30.651 13.462 30.8222 13.2714 30.9741 13.1325L32.7415 11.4976C32.7434 11.4916 32.7441 11.4854 32.7435 11.4791C32.743 11.4729 32.7411 11.4669 32.7381 11.4614C32.735 11.456 32.7309 11.4512 32.7259 11.4474C32.7209 11.4436 32.7152 11.4409 32.7092 11.4394C32.7041 11.4355 32.6978 11.4334 32.6914 11.4334C32.6849 11.4334 32.6787 11.4355 32.6736 11.4394V11.4394C32.3505 11.7625 32.0016 12.0856 31.672 12.4087C31.0114 13.1164 30.2903 13.7651 29.5169 14.3473C29.4394 14.4023 29.3844 14.4475 29.3424 14.4798C29.2052 14.6009 29.0278 14.6665 28.8449 14.664C28.3053 14.7221 27.6461 14.2795 27.1647 13.9532L26.9806 13.8304C26.2481 13.343 25.5681 12.781 24.9515 12.1535C24.9515 12.1535 24.9386 12.1599 24.9321 12.1599Z" fill="#C47D3D"/>
<path d="M29.95 52.9645C30.6543 53.0775 31.2424 52.9451 31.3199 52.2342C31.7044 48.3893 33.3845 39.9564 31.5235 30.6155C29.3716 19.8207 29.2327 7.46527 29.2327 7.46527C29.2327 7.46527 27.4879 16.1664 29.7981 30.7641C31.2747 40.0953 29.656 48.5153 28.8837 51.8336C28.7222 52.5315 29.2456 52.8514 29.95 52.9645Z" fill="#C47D3D"/>
</g>
<defs>
<clipPath id="clip0">
<rect width="48" height="48" fill="white" transform="translate(6 5)"/>
</clipPath>
</defs>
</svg>
