<svg width="60" height="92" viewBox="0 0 60 92" fill="none" xmlns="http://www.w3.org/2000/svg">
<path d="M0 0H60V92H0V0Z" fill="#F2F0F0"/>
<path d="M25.4199 65.9893C25.4199 67.5889 25.0143 68.8467 24.2031 69.7627C23.3965 70.6787 22.2731 71.1367 20.833 71.1367C19.361 71.1367 18.224 70.6878 17.4219 69.79C16.6243 68.8877 16.2256 67.6162 16.2256 65.9756C16.2256 64.3486 16.6266 63.0885 17.4287 62.1953C18.2308 61.2975 19.3701 60.8486 20.8467 60.8486C22.2822 60.8486 23.4033 61.3044 24.21 62.2158C25.0166 63.1273 25.4199 64.3851 25.4199 65.9893ZM17.4561 65.9893C17.4561 67.3428 17.7432 68.3704 18.3174 69.0723C18.8962 69.7695 19.7347 70.1182 20.833 70.1182C21.9404 70.1182 22.7767 69.7695 23.3418 69.0723C23.9069 68.375 24.1895 67.3473 24.1895 65.9893C24.1895 64.6449 23.9069 63.6263 23.3418 62.9336C22.7812 62.2363 21.9495 61.8877 20.8467 61.8877C19.7393 61.8877 18.8962 62.2386 18.3174 62.9404C17.7432 63.6377 17.4561 64.654 17.4561 65.9893Z" fill="#3B4549"/>
<path d="M29.125 71L26.2812 63.5078H27.498L29.1113 67.9512C29.4759 68.9902 29.6901 69.6647 29.7539 69.9746H29.8086C29.8587 69.7331 30.016 69.234 30.2803 68.4775C30.5492 67.7165 31.1484 66.0599 32.0781 63.5078H33.2949L30.4512 71H29.125Z" fill="#3B4549"/>
<path d="M39.1055 71L38.8799 69.9336H38.8252C38.4515 70.403 38.0778 70.722 37.7041 70.8906C37.335 71.0547 36.8724 71.1367 36.3164 71.1367C35.5736 71.1367 34.9902 70.9453 34.5664 70.5625C34.1471 70.1797 33.9375 69.6351 33.9375 68.9287C33.9375 67.4157 35.1475 66.6227 37.5674 66.5498L38.8389 66.5088V66.0439C38.8389 65.4561 38.7113 65.0231 38.4561 64.7451C38.2054 64.4626 37.8021 64.3213 37.2461 64.3213C36.6217 64.3213 35.9154 64.5127 35.127 64.8955L34.7783 64.0273C35.1475 63.8268 35.5508 63.6696 35.9883 63.5557C36.4303 63.4417 36.8724 63.3848 37.3145 63.3848C38.2077 63.3848 38.8685 63.583 39.2969 63.9795C39.7298 64.376 39.9463 65.0117 39.9463 65.8867V71H39.1055ZM36.542 70.2002C37.2484 70.2002 37.8021 70.0065 38.2031 69.6191C38.6087 69.2318 38.8115 68.6895 38.8115 67.9922V67.3154L37.6768 67.3633C36.7744 67.3952 36.1227 67.5365 35.7217 67.7871C35.3252 68.0332 35.127 68.4183 35.127 68.9424C35.127 69.3525 35.25 69.6647 35.4961 69.8789C35.7467 70.0931 36.0954 70.2002 36.542 70.2002Z" fill="#3B4549"/>
<path d="M43.4258 71H42.291V60.3633H43.4258V71Z" fill="#3B4549"/>
<g clip-path="url(#clip0)">
<path d="M29.6527 48.6511C29.6527 48.6511 42.5929 48.9322 42.5929 25.727C42.5929 25.727 41.3813 5 29.7981 5C29.7981 5 17 5.10662 17 28.2633C17 28.2633 17.559 48.6511 29.6527 48.6511Z" fill="#3B4549"/>
<path d="M25.8789 44.803C27.3037 45.4298 28.9128 46.1374 30.4895 46.1858C30.5387 46.1796 30.5839 46.1557 30.6166 46.1185C30.6494 46.0813 30.6675 46.0335 30.6675 45.9839C30.6675 45.9343 30.6494 45.8865 30.6166 45.8493C30.5839 45.8121 30.5387 45.7882 30.4895 45.782C28.9936 45.7367 27.4394 45.0485 26.0824 44.454C25.8466 44.3506 25.643 44.6963 25.8789 44.803Z" fill="#C47D3D"/>
<path d="M30.4959 46.357C28.8804 46.3086 27.2648 45.5945 25.84 44.9645C25.7985 44.9481 25.7609 44.9233 25.7295 44.8916C25.6981 44.86 25.6736 44.8222 25.6575 44.7806C25.6414 44.739 25.6341 44.6946 25.636 44.65C25.638 44.6055 25.6491 44.5618 25.6687 44.5218C25.7086 44.428 25.7841 44.3539 25.8786 44.3157C25.9731 44.2775 26.0789 44.2784 26.1728 44.3183C27.5395 44.9192 29.0807 45.588 30.5185 45.6333C30.567 45.6341 30.6149 45.6447 30.6591 45.6645C30.7034 45.6843 30.7433 45.7129 30.7762 45.7485C30.8091 45.7842 30.8345 45.8261 30.8507 45.8718C30.8669 45.9176 30.8737 45.9661 30.8707 46.0145C30.8704 46.0622 30.8602 46.1093 30.8409 46.1529C30.8215 46.1965 30.7934 46.2356 30.7582 46.2677C30.723 46.2999 30.6815 46.3244 30.6363 46.3398C30.5912 46.3552 30.5434 46.361 30.4959 46.357ZM25.9434 44.664C27.3489 45.2811 28.9417 45.979 30.4668 46.0275C30.4829 46.0275 30.4959 46.0275 30.4959 45.9952C30.4959 45.9628 30.4668 45.9467 30.4571 45.9467C28.9385 45.9015 27.3844 45.2165 26.0144 44.6155C25.9789 44.6155 25.9627 44.5929 25.9401 44.6155C25.9175 44.6381 25.9078 44.6575 25.911 44.664L25.8529 44.8126L25.9434 44.664Z" fill="#C47D3D"/>
<path d="M23.0291 38.6349C25.42 40.4023 28.3538 40.1244 30.8966 41.5429C30.9422 41.5624 30.9934 41.5645 31.0405 41.549C31.0876 41.5334 31.1274 41.5011 31.1524 41.4583C31.1774 41.4154 31.1859 41.3649 31.1763 41.3162C31.1667 41.2675 31.1396 41.224 31.1001 41.1939C28.58 39.782 25.5816 40.0178 23.2326 38.286C23.0226 38.1341 22.8223 38.4831 23.0291 38.6349Z" fill="#C47D3D"/>
<path d="M30.9968 41.7366C30.9344 41.7358 30.8732 41.7191 30.8191 41.6882C29.6962 41.1202 28.5001 40.7103 27.2649 40.4701C25.7981 40.1179 24.2795 39.7528 22.9418 38.7673C22.8888 38.7279 22.8471 38.6752 22.821 38.6145C22.7949 38.5538 22.7853 38.4872 22.7932 38.4216C22.797 38.3533 22.8191 38.2872 22.8572 38.2304C22.8953 38.1735 22.9479 38.128 23.0097 38.0985C23.0624 38.0763 23.1202 38.0684 23.1769 38.0758C23.2337 38.0832 23.2875 38.1055 23.3328 38.1405C24.5897 39.0711 26.0145 39.4168 27.5331 39.7851C28.7577 40.0824 30.0275 40.3893 31.1906 41.042C31.246 41.0691 31.2925 41.1115 31.3245 41.1642C31.3566 41.2168 31.3729 41.2776 31.3716 41.3392C31.3701 41.4045 31.3521 41.4684 31.3193 41.5248C31.2866 41.5813 31.2401 41.6286 31.1842 41.6623C31.1304 41.705 31.0652 41.7309 30.9968 41.7366ZM23.1389 38.4152C23.1389 38.4152 23.1131 38.4346 23.1099 38.4572C23.108 38.4666 23.1092 38.4764 23.1132 38.4851C23.1173 38.4938 23.124 38.501 23.1325 38.5056C24.4249 39.4523 25.8336 39.798 27.3328 40.1567C28.6013 40.4006 29.8292 40.8215 30.9806 41.4071C31 41.4071 31.0065 41.4071 31.0129 41.4071C31.0212 41.4011 31.0281 41.3933 31.0331 41.3844C31.0381 41.3755 31.0412 41.3656 31.042 41.3554C29.9015 40.7092 28.6543 40.3861 27.4491 40.1114C25.9758 39.7528 24.4507 39.3812 23.1389 38.4152Z" fill="#C47D3D"/>
<path d="M38.8578 35.0743C36.7738 36.5671 34.3086 37.21 32.0986 38.4443C31.5784 38.7351 30.2924 39.5267 30.7351 40.3247C30.8611 40.5541 31.21 40.3506 31.084 40.1212C30.5121 39.0873 34.7157 37.7625 35.3619 37.4685C36.6586 36.9087 37.8977 36.2237 39.0614 35.4233C39.2714 35.2714 39.0614 34.9225 38.8578 35.0743Z" fill="#C47D3D"/>
<path d="M30.8935 40.5865C30.8313 40.5864 30.7702 40.5696 30.7168 40.5378C30.6633 40.5059 30.6194 40.4602 30.5898 40.4055C30.3378 39.95 30.383 39.2197 32.0179 38.3021C32.9337 37.8154 33.8741 37.3765 34.8353 36.9871C36.2148 36.4528 37.5321 35.7703 38.7642 34.9516C38.8099 34.9171 38.8638 34.8953 38.9206 34.8885C38.9773 34.8817 39.0349 34.8901 39.0873 34.9128C39.1493 34.942 39.2022 34.9875 39.2403 35.0444C39.2785 35.1013 39.3004 35.1675 39.3038 35.2359C39.3079 35.2985 39.2958 35.3612 39.2687 35.4178C39.2415 35.4744 39.2002 35.523 39.1487 35.559C37.9762 36.3717 36.7262 37.0665 35.4169 37.6333C35.3071 37.6818 35.0938 37.7626 34.8224 37.8627C33.8176 38.2407 31.4621 39.126 31.1972 39.8369C31.1803 39.8716 31.1716 39.9097 31.1716 39.9483C31.1716 39.987 31.1803 40.0251 31.1972 40.0598C31.2214 40.1015 31.2368 40.1477 31.2425 40.1956C31.2483 40.2434 31.2442 40.2919 31.2306 40.3382C31.217 40.3844 31.1941 40.4274 31.1634 40.4645C31.1327 40.5017 31.0947 40.5322 31.0518 40.5542C31.0019 40.5758 30.9479 40.5868 30.8935 40.5865ZM38.971 35.1971C37.7203 36.0307 36.3822 36.7252 34.9807 37.2682C34.0263 37.6636 33.0934 38.109 32.1859 38.6026C31.5397 38.9548 30.5381 39.643 30.8935 40.2634C30.8935 40.2634 30.9096 40.2892 30.9387 40.2634C30.9678 40.2375 30.9646 40.2149 30.9613 40.2084C30.9195 40.1337 30.8948 40.0504 30.8892 39.9649C30.8836 39.8794 30.8972 39.7937 30.929 39.7141C31.2166 38.929 33.0486 38.1858 34.7416 37.5525C35.0066 37.4524 35.2101 37.3748 35.3167 37.3264C36.5991 36.7703 37.8232 36.0884 38.971 35.2908C38.9783 35.286 38.984 35.2791 38.9874 35.2711C38.9909 35.263 38.9919 35.2542 38.9904 35.2456C38.9907 35.2366 38.9892 35.2277 38.9858 35.2193C38.9825 35.211 38.9775 35.2034 38.971 35.1971Z" fill="#C47D3D"/>
<path d="M20.4636 32.2956C23.7884 32.6187 27.9758 32.9677 30.8449 34.8158C31.0646 34.958 31.2682 34.6058 31.0517 34.4669C28.105 32.5703 23.8821 32.2375 20.4636 31.882C20.2052 31.8562 20.2052 32.2601 20.4636 32.2859V32.2956Z" fill="#C47D3D"/>
<path d="M30.9515 35.0097C30.8828 35.0084 30.8157 34.9883 30.7577 34.9515C28.0662 33.2164 24.1082 32.8223 20.9515 32.5056L20.4475 32.4636C20.349 32.4492 20.2602 32.3968 20.1998 32.3177C20.1394 32.2387 20.1124 32.1391 20.1244 32.0404C20.1266 31.9955 20.1382 31.9516 20.1584 31.9114C20.1785 31.8713 20.2069 31.8358 20.2415 31.8072C20.2762 31.7786 20.3164 31.7576 20.3597 31.7454C20.4029 31.7333 20.4482 31.7303 20.4927 31.7366L21.0355 31.7916C24.2827 32.1147 28.3247 32.5185 31.1518 34.3376C31.1932 34.3634 31.2288 34.3974 31.2566 34.4375C31.2844 34.4775 31.3037 34.5228 31.3134 34.5706C31.323 34.6184 31.3229 34.6676 31.3129 34.7153C31.3029 34.7631 31.2833 34.8082 31.2552 34.8481C31.2231 34.8992 31.1782 34.941 31.1249 34.9693C31.0716 34.9977 31.0118 35.0116 30.9515 35.0097ZM20.4798 32.1405L20.9806 32.1922C24.1858 32.5153 28.1761 32.9095 30.9321 34.6866C30.9483 34.6866 30.9547 34.6866 30.9709 34.6866C30.9871 34.6866 30.9935 34.6413 30.9709 34.6219C28.2116 32.8449 24.3796 32.4636 21 32.1276L20.4572 32.0727C20.441 32.0727 20.4378 32.1017 20.4572 32.1244C20.46 32.1331 20.4656 32.1408 20.4732 32.146C20.4808 32.1513 20.4899 32.1539 20.4992 32.1534L20.4798 32.1405Z" fill="#C47D3D"/>
<path d="M38.0017 29.9596C35.376 30.4881 32.8999 31.5916 30.7513 33.1906C30.5445 33.3425 30.7513 33.6947 30.9548 33.5396C33.0731 31.9576 35.5165 30.8661 38.1083 30.3441C38.3635 30.2924 38.2537 29.9047 38.0017 29.9564V29.9596Z" fill="#C47D3D"/>
<path d="M30.8449 33.756C30.8026 33.7555 30.7609 33.7467 30.7221 33.7302C30.6622 33.7022 30.6105 33.6593 30.572 33.6055C30.5335 33.5517 30.5095 33.4889 30.5024 33.4232C30.4938 33.3575 30.5031 33.2908 30.5292 33.2299C30.5554 33.1691 30.5974 33.1164 30.651 33.0775C32.82 31.4655 35.3175 30.3513 37.966 29.8142C38.0145 29.8044 38.0644 29.8045 38.1128 29.8144C38.1612 29.8243 38.2072 29.8439 38.2479 29.8719C38.2886 29.8999 38.3232 29.9359 38.3497 29.9776C38.3762 30.0193 38.3941 30.0659 38.4022 30.1146C38.4141 30.1587 38.4165 30.2048 38.4093 30.2498C38.4021 30.2949 38.3855 30.3379 38.3604 30.3761C38.3354 30.4142 38.3026 30.4467 38.2641 30.4712C38.2257 30.4958 38.1824 30.5119 38.1373 30.5185C35.5677 31.032 33.1456 32.1139 31.0484 33.6849C30.9897 33.7293 30.9185 33.7542 30.8449 33.756ZM38.0274 30.1179C35.4267 30.6451 32.9742 31.7394 30.8449 33.323C30.8364 33.3277 30.8297 33.3349 30.8256 33.3436C30.8216 33.3523 30.8204 33.3621 30.8223 33.3715C30.8231 33.3809 30.8259 33.39 30.8303 33.3983C30.8347 33.4067 30.8408 33.414 30.8481 33.42C32.9859 31.8216 35.4545 30.722 38.0727 30.2019C38.0727 30.2019 38.0727 30.1663 38.0727 30.147C38.0685 30.1391 38.0616 30.1331 38.0532 30.1301C38.0448 30.1271 38.0356 30.1273 38.0274 30.1308V30.1179Z" fill="#C47D3D"/>
<path d="M19.5396 22.3829C19.7948 23.5073 20.8643 24.4669 21.7399 25.1131C23.0215 26.0069 24.4402 26.6857 25.9402 27.1228C26.9548 27.4459 29.5557 27.74 29.9338 28.8708C30.0178 29.1164 30.4087 29.0097 30.3247 28.7642C30.0565 27.9629 29.0485 27.6559 28.3215 27.4007C26.832 26.874 25.2972 26.5703 23.8562 25.8821C22.4152 25.1939 20.315 23.9887 19.9305 22.2763C19.8724 22.0211 19.4814 22.1309 19.5396 22.3829Z" fill="#C47D3D"/>
<path d="M30.1148 29.1713H30.0373C29.9745 29.1588 29.9163 29.1297 29.8686 29.0871C29.8208 29.0445 29.7854 28.9899 29.7659 28.9289C29.5009 28.1373 27.9274 27.7755 26.7772 27.5105C26.4185 27.4297 26.1116 27.3587 25.8757 27.2811C24.3631 26.84 22.9332 26.1534 21.6431 25.2488C20.3507 24.2795 19.5946 23.3587 19.3814 22.4249C19.3705 22.3773 19.3693 22.3281 19.3778 22.28C19.3862 22.232 19.4043 22.1861 19.4308 22.1452C19.4573 22.1042 19.4917 22.069 19.5321 22.0415C19.5724 22.0141 19.6179 21.9951 19.6657 21.9855C19.7508 21.9648 19.8406 21.9763 19.9177 22.0178C19.9614 22.0407 19.9992 22.0733 20.0283 22.113C20.0575 22.1528 20.0771 22.1987 20.0857 22.2472C20.3668 23.4879 21.6528 24.664 23.9113 25.7432C24.8208 26.1479 25.7607 26.4806 26.7223 26.7383C27.2586 26.8966 27.8176 27.0614 28.3604 27.2553L28.4928 27.3005C29.2069 27.5493 30.1827 27.8918 30.4605 28.7189C30.4802 28.7733 30.4848 28.832 30.474 28.8889C30.4632 28.9457 30.4374 28.9986 30.3992 29.042C30.3632 29.082 30.3194 29.114 30.2705 29.1363C30.2215 29.1585 30.1686 29.1704 30.1148 29.1713ZM28.7223 27.7205C29.3685 27.9758 29.9048 28.3183 30.0728 28.8191C30.0728 28.8191 30.0728 28.8482 30.1084 28.8482C30.1165 28.8519 30.1253 28.8539 30.1342 28.8539C30.1431 28.8539 30.152 28.8519 30.1601 28.8482C29.963 28.2634 29.3297 27.9403 28.7223 27.7205ZM19.698 22.3474C19.8887 23.1907 20.6059 24.063 21.8466 24.9806C23.1035 25.866 24.4974 26.5384 25.9727 26.9709C26.1956 27.042 26.4993 27.1131 26.8483 27.1939C27.2941 27.294 27.8014 27.4136 28.2828 27.5655H28.2538C27.7174 27.3748 27.1649 27.2133 26.6382 27.055C25.6622 26.7866 24.7083 26.443 23.7853 26.0275C21.4202 24.9031 20.0761 23.6527 19.7723 22.3118C19.7672 22.3079 19.761 22.3058 19.7546 22.3058C19.7481 22.3058 19.7419 22.3079 19.7368 22.3118C19.7142 22.3118 19.6883 22.3118 19.698 22.3635V22.3474Z" fill="#C47D3D"/>
<path d="M37.3296 22.1244C34.58 23.2747 31.8369 24.8966 29.8046 27.0808C29.6268 27.2714 29.9112 27.5558 30.0889 27.3684C32.0824 25.2391 34.7512 23.6365 37.4362 22.5218C37.6721 22.4217 37.5687 22.0307 37.3296 22.1309V22.1244Z" fill="#C47D3D"/>
<path d="M29.9563 27.6172C29.9305 27.6203 29.9045 27.6203 29.8787 27.6172C29.8136 27.6015 29.7538 27.5692 29.705 27.5232C29.6563 27.4773 29.6204 27.4195 29.6009 27.3555C29.5745 27.2904 29.5685 27.2189 29.5835 27.1503C29.5985 27.0817 29.6338 27.0192 29.6849 26.971C31.5395 24.9871 34.1017 23.307 37.2681 21.9855C37.3203 21.9624 37.3777 21.9535 37.4344 21.9597C37.4912 21.9659 37.5453 21.9871 37.5912 22.0211C37.6422 22.0625 37.6818 22.1163 37.7061 22.1774C37.7305 22.2385 37.7387 22.3048 37.7301 22.37C37.7222 22.4369 37.6964 22.5003 37.6554 22.5538C37.6145 22.6072 37.5599 22.6487 37.4975 22.6737C34.5088 23.9209 31.9853 25.5816 30.2083 27.4879C30.1778 27.5261 30.1396 27.5573 30.0961 27.5796C30.0527 27.6018 30.005 27.6147 29.9563 27.6172ZM37.3876 22.2925C34.2664 23.5849 31.7527 25.2521 29.9175 27.2101C29.9175 27.2262 29.9175 27.2359 29.9175 27.2456C29.9209 27.2553 29.9264 27.2642 29.9337 27.2715C29.9409 27.2787 29.9498 27.2843 29.9595 27.2876C31.7883 25.349 34.3472 23.6495 37.3908 22.3862C37.4 22.3825 37.4079 22.3763 37.4136 22.3683C37.4193 22.3602 37.4226 22.3508 37.4232 22.3409C37.4242 22.3289 37.4224 22.3168 37.4179 22.3056C37.4134 22.2943 37.4063 22.2843 37.3973 22.2763L37.3876 22.2925Z" fill="#C47D3D"/>
<path d="M23.5137 18.2472L29.3813 21.1551C29.6139 21.2682 29.8175 20.9225 29.5848 20.8062L23.7173 17.9241C23.4847 17.811 23.2811 18.16 23.5137 18.2731V18.2472Z" fill="#C47D3D"/>
<path d="M29.4749 21.3554C29.4173 21.3554 29.3607 21.3409 29.3101 21.3134L23.4426 18.4055C23.3883 18.3812 23.3418 18.3424 23.3082 18.2934C23.2745 18.2444 23.2551 18.187 23.252 18.1276C23.2517 18.0639 23.2672 18.001 23.2971 17.9446C23.327 17.8883 23.3703 17.8402 23.4232 17.8045C23.4743 17.7657 23.535 17.7416 23.5987 17.7348C23.6625 17.728 23.7269 17.7387 23.7851 17.7658L29.6526 20.6737C29.6984 20.6905 29.7397 20.7174 29.7736 20.7525C29.8075 20.7875 29.833 20.8298 29.8483 20.8761C29.8635 20.9224 29.868 20.9716 29.8616 21.0199C29.8551 21.0682 29.8378 21.1144 29.8109 21.1551C29.778 21.2155 29.7294 21.266 29.6703 21.3012C29.6112 21.3364 29.5437 21.3552 29.4749 21.3554ZM23.6235 18.0469C23.6152 18.0439 23.606 18.0439 23.5977 18.0469C23.5839 18.0583 23.5747 18.0744 23.5718 18.0921L29.4394 21C29.4466 21.0046 29.455 21.0071 29.4636 21.0071C29.4722 21.0071 29.4806 21.0046 29.4878 21C29.5014 20.9871 29.5105 20.9701 29.5137 20.9516L23.6332 18.0436L23.6235 18.0469Z" fill="#C47D3D"/>
<path d="M35.8853 14.9967C34.9515 15.5815 34.1244 16.4151 33.2649 17.1001C32.1179 18.0145 30.7932 19.336 29.3716 19.8206C29.1292 19.9046 29.2326 20.2956 29.4814 20.2084C30.7318 19.7819 31.8627 18.7189 32.8772 17.924C33.8918 17.1292 34.9483 16.0662 36.0889 15.3392C36.1283 15.3091 36.1554 15.2656 36.165 15.2169C36.1746 15.1683 36.1662 15.1177 36.1411 15.0749C36.1161 15.032 36.0763 14.9997 36.0292 14.9842C35.9821 14.9686 35.9309 14.9708 35.8853 14.9903V14.9967Z" fill="#C47D3D"/>
<path d="M29.4135 20.3828C29.3406 20.3853 29.269 20.3631 29.2103 20.3196C29.1516 20.2762 29.1094 20.2142 29.0904 20.1437C29.0736 20.0977 29.0661 20.0488 29.0684 19.9999C29.0707 19.951 29.0827 19.903 29.1038 19.8588C29.1248 19.8145 29.1545 19.7749 29.1911 19.7423C29.2276 19.7097 29.2703 19.6847 29.3166 19.6688C30.3958 19.2972 31.4491 18.4087 32.3796 17.6235C32.6478 17.3974 32.9095 17.1744 33.1615 16.9773C33.4135 16.7802 33.7431 16.4927 34.0274 16.2471C34.581 15.7411 35.173 15.2787 35.798 14.8643C35.8372 14.8392 35.8811 14.8222 35.927 14.8145C35.9729 14.8068 36.0199 14.8084 36.0651 14.8192C36.1104 14.8301 36.153 14.85 36.1904 14.8777C36.2277 14.9054 36.2591 14.9404 36.2827 14.9806C36.3099 15.0207 36.3287 15.066 36.3379 15.1136C36.3472 15.1613 36.3466 15.2103 36.3363 15.2577C36.3261 15.3051 36.3063 15.35 36.2782 15.3895C36.2501 15.4291 36.2142 15.4625 36.1728 15.4878C35.4491 15.9752 34.7623 16.5151 34.1179 17.1033C33.7463 17.4264 33.3618 17.7495 32.9741 18.0727L32.357 18.5702C31.5169 19.2164 30.5702 20.0113 29.5331 20.3634C29.4945 20.3759 29.4541 20.3825 29.4135 20.3828ZM35.8853 15.0161L35.9725 15.1518C35.363 15.5577 34.7852 16.0092 34.2439 16.5024C33.9564 16.7512 33.6591 17.0096 33.3651 17.2423C33.0711 17.4749 32.8578 17.6623 32.5896 17.8885C31.6397 18.693 30.5638 19.6042 29.4265 19.9919C29.4176 19.994 29.4097 19.9989 29.4038 20.0059C29.398 20.0129 29.3946 20.0216 29.3942 20.0306C29.3936 20.0397 29.3951 20.0487 29.3984 20.057C29.4018 20.0654 29.4069 20.073 29.4135 20.0791C30.4055 19.756 31.294 19.0161 32.1567 18.3117C32.3667 18.1373 32.5767 17.9693 32.777 17.8109C33.1583 17.5137 33.5396 17.1647 33.9111 16.861C34.5671 16.2703 35.2671 15.7303 36.0048 15.2455C36.0048 15.2455 36.0371 15.2229 36.0048 15.1841C35.9725 15.1453 35.9757 15.1615 35.9628 15.1841L35.8853 15.0161Z" fill="#C47D3D"/>
<path d="M32.5638 11.3296C31.546 12.273 30.5573 13.4362 29.4265 14.2375C29.1034 14.4604 29.1842 14.4863 28.8288 14.5251C28.273 14.5897 27.5363 14.0146 27.0678 13.7173C26.3485 13.2356 25.6814 12.6801 25.0775 12.0598C25.0386 12.0286 24.9895 12.0128 24.9397 12.0154C24.8898 12.018 24.8426 12.0388 24.8071 12.0739C24.7716 12.109 24.7503 12.1559 24.7471 12.2057C24.7439 12.2556 24.7592 12.3048 24.79 12.3441C25.6785 13.2456 27.9241 15.4394 29.3134 14.8869C29.9176 14.6478 30.6058 13.6882 31.0808 13.252L32.8514 11.6171C33.042 11.4394 32.7544 11.1551 32.5638 11.3296Z" fill="#C47D3D"/>
<path d="M28.8321 15.1356C27.8175 15.1356 26.4185 14.2374 24.6673 12.4571C24.6327 12.4242 24.6051 12.3846 24.5863 12.3408C24.5674 12.2969 24.5577 12.2496 24.5577 12.2019C24.5577 12.1541 24.5674 12.1069 24.5863 12.063C24.6051 12.0191 24.6327 11.9795 24.6673 11.9466C24.7289 11.883 24.8116 11.844 24.8999 11.8368C24.9501 11.8341 25.0003 11.8423 25.0472 11.8607C25.094 11.8791 25.1363 11.9073 25.1713 11.9434C25.7713 12.5562 26.4341 13.1041 27.1487 13.5783L27.3361 13.7043C27.7497 13.9854 28.3732 14.4087 28.7997 14.3505C29.0162 14.3247 29.0227 14.3214 29.1228 14.2342C29.1681 14.1954 29.2262 14.1502 29.3135 14.0888C30.0706 13.5179 30.7765 12.8823 31.4233 12.189C31.7464 11.8659 32.0954 11.5137 32.4346 11.2003C32.4842 11.1556 32.5456 11.126 32.6114 11.1151C32.6773 11.1043 32.7449 11.1125 32.8062 11.1389C32.8699 11.159 32.9275 11.1951 32.9733 11.2437C33.0191 11.2923 33.0517 11.3519 33.0679 11.4167C33.0802 11.4752 33.0768 11.5359 33.058 11.5926C33.0393 11.6494 33.0059 11.7001 32.9613 11.7398L31.1907 13.378C31.0518 13.5072 30.887 13.7011 30.7093 13.8852C30.2957 14.344 29.8272 14.8545 29.3749 15.0452C29.2011 15.1086 29.017 15.1392 28.8321 15.1356ZM24.9322 12.1599C24.9264 12.16 24.9207 12.1615 24.9157 12.1643C24.9106 12.1672 24.9063 12.1712 24.9031 12.176C24.8708 12.2051 24.887 12.2213 24.9031 12.231C27.3716 14.7479 28.6317 14.9838 29.2553 14.735C29.6366 14.5864 30.0792 14.0888 30.4702 13.6623C30.6511 13.462 30.8224 13.2713 30.9742 13.1324L32.7416 11.4975C32.7435 11.4916 32.7443 11.4853 32.7437 11.4791C32.7431 11.4729 32.7412 11.4668 32.7382 11.4614C32.7351 11.4559 32.731 11.4511 32.726 11.4473C32.7211 11.4435 32.7153 11.4408 32.7093 11.4394C32.7042 11.4354 32.6979 11.4333 32.6915 11.4333C32.6851 11.4333 32.6788 11.4354 32.6737 11.4394C32.3506 11.7625 32.0017 12.0856 31.6721 12.4087C31.0115 13.1163 30.2904 13.765 29.517 14.3473C29.4395 14.4022 29.3846 14.4474 29.3426 14.4797C29.2053 14.6008 29.028 14.6665 28.845 14.6639C28.3054 14.7221 27.6463 14.2794 27.1648 13.9531L26.9807 13.8303C26.2482 13.3429 25.5682 12.781 24.9516 12.1534C24.9516 12.1534 24.9387 12.1599 24.9322 12.1599Z" fill="#C47D3D"/>
<path d="M29.9499 52.9644C30.6542 53.0775 31.2423 52.945 31.3198 52.2342C31.7043 48.3893 33.3844 39.9563 31.5234 30.6155C29.3715 19.8206 29.2326 7.46521 29.2326 7.46521C29.2326 7.46521 27.4878 16.1663 29.798 30.7641C31.2746 40.0953 29.6558 48.5153 28.8836 51.8335C28.7221 52.5314 29.2455 52.8513 29.9499 52.9644Z" fill="#C47D3D"/>
</g>
<defs>
<clipPath id="clip0">
<path d="M6 5H54V53H6V5Z" fill="white"/>
</clipPath>
</defs>
</svg>
