<svg width="60" height="92" viewBox="0 0 60 92" fill="none" xmlns="http://www.w3.org/2000/svg">
<path d="M0 0H60V92H0V0Z" fill="#F2F0F0"/>
<path d="M11.0098 63.918C11.0098 64.9297 10.6634 65.709 9.9707 66.2559C9.28255 66.7982 8.2959 67.0693 7.01074 67.0693H5.83496V71H4.67285V61.0059H7.26367C9.76107 61.0059 11.0098 61.9766 11.0098 63.918ZM5.83496 66.0713H6.88086C7.91081 66.0713 8.65592 65.9049 9.11621 65.5723C9.5765 65.2396 9.80664 64.7064 9.80664 63.9727C9.80664 63.3118 9.59017 62.8197 9.15723 62.4961C8.72428 62.1725 8.0498 62.0107 7.13379 62.0107H5.83496V66.0713Z" fill="#3B4549"/>
<path d="M17.5449 71L17.3193 69.9336H17.2646C16.891 70.403 16.5173 70.722 16.1436 70.8906C15.7744 71.0547 15.3118 71.1367 14.7559 71.1367C14.013 71.1367 13.4297 70.9453 13.0059 70.5625C12.5866 70.1797 12.377 69.6351 12.377 68.9287C12.377 67.4157 13.5869 66.6227 16.0068 66.5498L17.2783 66.5088V66.0439C17.2783 65.4561 17.1507 65.0231 16.8955 64.7451C16.6449 64.4626 16.2415 64.3213 15.6855 64.3213C15.0612 64.3213 14.3548 64.5127 13.5664 64.8955L13.2178 64.0273C13.5869 63.8268 13.9902 63.6696 14.4277 63.5557C14.8698 63.4417 15.3118 63.3848 15.7539 63.3848C16.6471 63.3848 17.3079 63.583 17.7363 63.9795C18.1693 64.376 18.3857 65.0117 18.3857 65.8867V71H17.5449ZM14.9814 70.2002C15.6878 70.2002 16.2415 70.0065 16.6426 69.6191C17.0482 69.2318 17.251 68.6895 17.251 67.9922V67.3154L16.1162 67.3633C15.2139 67.3952 14.5622 67.5365 14.1611 67.7871C13.7646 68.0332 13.5664 68.4183 13.5664 68.9424C13.5664 69.3525 13.6895 69.6647 13.9355 69.8789C14.1862 70.0931 14.5348 70.2002 14.9814 70.2002Z" fill="#3B4549"/>
<path d="M21.8652 71H20.7305V60.3633H21.8652V71Z" fill="#3B4549"/>
<path d="M33.8213 71V66.126C33.8213 65.529 33.6937 65.0824 33.4385 64.7861C33.1833 64.4854 32.7868 64.335 32.249 64.335C31.5426 64.335 31.0208 64.5378 30.6836 64.9434C30.3464 65.349 30.1777 65.9733 30.1777 66.8164V71H29.043V66.126C29.043 65.529 28.9154 65.0824 28.6602 64.7861C28.4049 64.4854 28.0062 64.335 27.4639 64.335C26.7529 64.335 26.2311 64.5492 25.8984 64.9775C25.5703 65.4014 25.4062 66.0986 25.4062 67.0693V71H24.2715V63.5078H25.1943L25.3789 64.5332H25.4336C25.6478 64.1686 25.9486 63.8838 26.3359 63.6787C26.7279 63.4736 27.1654 63.3711 27.6484 63.3711C28.8197 63.3711 29.5853 63.7949 29.9453 64.6426H30C30.2233 64.2507 30.5469 63.9408 30.9707 63.7129C31.3945 63.485 31.8776 63.3711 32.4199 63.3711C33.2676 63.3711 33.901 63.5898 34.3203 64.0273C34.7441 64.4603 34.9561 65.1553 34.9561 66.1123V71H33.8213Z" fill="#3B4549"/>
<path d="M41.9082 71L41.6826 69.9336H41.6279C41.2542 70.403 40.8805 70.722 40.5068 70.8906C40.1377 71.0547 39.6751 71.1367 39.1191 71.1367C38.3763 71.1367 37.793 70.9453 37.3691 70.5625C36.9499 70.1797 36.7402 69.6351 36.7402 68.9287C36.7402 67.4157 37.9502 66.6227 40.3701 66.5498L41.6416 66.5088V66.0439C41.6416 65.4561 41.514 65.0231 41.2588 64.7451C41.0081 64.4626 40.6048 64.3213 40.0488 64.3213C39.4245 64.3213 38.7181 64.5127 37.9297 64.8955L37.5811 64.0273C37.9502 63.8268 38.3535 63.6696 38.791 63.5557C39.2331 63.4417 39.6751 63.3848 40.1172 63.3848C41.0104 63.3848 41.6712 63.583 42.0996 63.9795C42.5326 64.376 42.749 65.0117 42.749 65.8867V71H41.9082ZM39.3447 70.2002C40.0511 70.2002 40.6048 70.0065 41.0059 69.6191C41.4115 69.2318 41.6143 68.6895 41.6143 67.9922V67.3154L40.4795 67.3633C39.5771 67.3952 38.9255 67.5365 38.5244 67.7871C38.1279 68.0332 37.9297 68.4183 37.9297 68.9424C37.9297 69.3525 38.0527 69.6647 38.2988 69.8789C38.5495 70.0931 38.8981 70.2002 39.3447 70.2002Z" fill="#3B4549"/>
<path d="M47.5137 70.2002C47.7142 70.2002 47.9079 70.1865 48.0947 70.1592C48.2816 70.1273 48.4297 70.0954 48.5391 70.0635V70.9316C48.416 70.9909 48.2337 71.0387 47.9922 71.0752C47.7552 71.1162 47.541 71.1367 47.3496 71.1367C45.9004 71.1367 45.1758 70.3734 45.1758 68.8467V64.3896H44.1025V63.8428L45.1758 63.3711L45.6543 61.7715H46.3105V63.5078H48.4844V64.3896H46.3105V68.7988C46.3105 69.25 46.4176 69.5964 46.6318 69.8379C46.846 70.0794 47.14 70.2002 47.5137 70.2002Z" fill="#3B4549"/>
<path d="M53.208 71.1367C52.1006 71.1367 51.2256 70.7995 50.583 70.125C49.945 69.4505 49.626 68.514 49.626 67.3154C49.626 66.1077 49.9222 65.1484 50.5146 64.4375C51.1117 63.7266 51.9115 63.3711 52.9141 63.3711C53.8529 63.3711 54.5957 63.681 55.1426 64.3008C55.6895 64.916 55.9629 65.7295 55.9629 66.7412V67.459H50.8018C50.8245 68.3385 51.0456 69.0062 51.4648 69.4619C51.8887 69.9176 52.4834 70.1455 53.249 70.1455C54.0557 70.1455 54.8532 69.9769 55.6416 69.6396V70.6514C55.2406 70.8245 54.86 70.9476 54.5 71.0205C54.1445 71.098 53.7139 71.1367 53.208 71.1367ZM52.9004 64.3213C52.2988 64.3213 51.818 64.5173 51.458 64.9092C51.1025 65.3011 50.8929 65.8434 50.8291 66.5361H54.7461C54.7461 65.8206 54.5866 65.2738 54.2676 64.8955C53.9486 64.5127 53.4928 64.3213 52.9004 64.3213Z" fill="#3B4549"/>
<path d="M25.1317 34.8462C25.1317 34.8462 15.7778 40.5739 6 40.1324C6 40.1324 6.883 30.7785 18.2031 28.3385C18.2031 28.3385 10.8801 21.9662 10.4739 8.67697C10.4739 8.67697 23.2185 11.6615 26.0736 18.8462C26.0736 18.8462 30.9536 11.3907 40.0368 8C40.0368 8 42.4768 11.3907 38.2708 21.9661C38.2708 21.9661 49.6615 20.8094 54 25.6571C54 25.6571 49.5261 31.9588 39.3569 33.1302C39.3569 33.1302 43.9661 41.8955 42.6093 47.4555C42.6093 47.4555 37.1199 47.6586 26.0029 34.7108L25.1317 34.8462Z" fill="#3B4549"/>
<path d="M23.4393 49.6012C22.9125 48.212 23.3687 46.2782 23.6718 44.9125C24.2271 42.5711 25.016 40.2913 26.0265 38.1075C26.8712 36.2061 27.2038 34.3724 26.5681 32.312C26.3414 31.5762 24.6578 31.8911 24.8874 32.6328C25.691 35.2348 24.2222 37.0802 23.2863 39.4231C22.4616 41.3942 21.845 43.4461 21.4467 45.5453C21.2171 46.8639 20.9051 48.6093 21.4025 49.9191C21.6762 50.6373 23.6571 50.599 23.4629 49.6012H23.4393Z" fill="#C47D3D"/>
<path d="M19.9749 21.2155C19.5128 21.139 19.0507 21.036 18.5944 20.9212C18.044 20.777 16.9668 20.5857 16.7019 20.0058C16.6195 19.8292 16.3605 19.9823 16.4429 20.1589C16.6989 20.724 17.579 20.9389 18.1117 21.0978C18.6977 21.2702 19.2932 21.4078 19.8954 21.5099C20.0838 21.5422 20.1662 21.2509 19.9749 21.2155Z" fill="#C47D3D"/>
<path d="M18.9272 19.2141C19.3304 18.8433 19.7454 18.4812 20.1663 18.128C20.7226 17.66 21.379 16.9831 22.0942 16.7682C22.2797 16.7093 22.2002 16.4209 22.0148 16.4739C21.326 16.6828 20.7109 17.2862 20.1663 17.7336C19.6719 18.1437 19.1872 18.5656 18.7123 18.9993C18.571 19.1317 18.783 19.3436 18.9272 19.2112V19.2141Z" fill="#C47D3D"/>
<path d="M20.1017 14.7697C19.9251 15.6292 19.722 17.0508 20.4961 17.6807C20.6462 17.8013 20.861 17.5894 20.7109 17.4658C20.034 16.9183 20.237 15.6027 20.3901 14.8521C20.4313 14.6608 20.1399 14.5813 20.0958 14.7697H20.1017Z" fill="#C47D3D"/>
<path d="M13.8676 15.1317C14.9165 15.498 15.9077 16.0124 16.8109 16.6593C16.9699 16.7682 17.1053 16.5092 16.961 16.3974C16.0352 15.7381 15.0204 15.2139 13.9471 14.8403C13.7646 14.7785 13.6851 15.0699 13.8676 15.1347V15.1317Z" fill="#C47D3D"/>
<path d="M25.9733 22.8875C24.2073 22.9316 22.8298 24.1825 22.8004 25.9809C22.8072 26.0149 22.8256 26.0455 22.8525 26.0675C22.8793 26.0894 22.9129 26.1014 22.9476 26.1014C22.9823 26.1014 23.0159 26.0894 23.0427 26.0675C23.0695 26.0455 23.0879 26.0149 23.0947 25.9809C23.1212 24.3503 24.3633 23.2289 25.9674 23.1877C26.0014 23.1808 26.032 23.1624 26.054 23.1356C26.076 23.1088 26.088 23.0752 26.088 23.0405C26.088 23.0058 26.076 22.9722 26.054 22.9454C26.032 22.9186 26.0014 22.9002 25.9674 22.8933L25.9733 22.8875Z" fill="#C47D3D"/>
<path d="M23.5806 21.6453C23.5738 22.0033 23.5925 22.3613 23.6365 22.7167C23.6806 23.0551 23.7336 23.5585 24.0662 23.7439C24.2369 23.8381 24.387 23.5791 24.2193 23.4849C23.9249 23.323 23.9249 22.6784 23.9043 22.3988C23.8837 22.1192 23.8779 21.9014 23.8808 21.6512C23.874 21.6172 23.8556 21.5866 23.8287 21.5646C23.8019 21.5426 23.7683 21.5306 23.7336 21.5306C23.699 21.5306 23.6653 21.5426 23.6385 21.5646C23.6117 21.5866 23.5933 21.6172 23.5865 21.6512L23.5806 21.6453Z" fill="#C47D3D"/>
<path d="M19.2008 26.9904C20.4224 27.4435 21.7389 27.5792 23.0272 27.3848C23.2185 27.3495 23.1361 27.0611 22.9477 27.0905C21.7166 27.2695 20.4602 27.1348 19.295 26.699C19.1096 26.6343 19.0301 26.9257 19.2126 26.9934L19.2008 26.9904Z" fill="#C47D3D"/>
<path d="M19.0981 30.1958C18.9728 30.507 18.9471 30.8494 19.0245 31.1759C19.1952 31.897 19.9075 32.2208 20.558 32.3532C20.7464 32.3915 20.8288 32.1001 20.6375 32.0589C20.0488 31.9382 19.3777 31.6557 19.2924 30.9699C19.2644 30.7322 19.2968 30.4912 19.3865 30.2694C19.4601 30.0898 19.1717 30.0133 19.0922 30.1899L19.0981 30.1958Z" fill="#C47D3D"/>
<path d="M16.4988 30.958C17.3818 31.4892 18.3911 31.7738 19.4215 31.7822C19.6128 31.7822 19.6158 31.4878 19.4215 31.4878C18.4444 31.4771 17.488 31.2047 16.6518 30.699C16.4811 30.6048 16.331 30.8638 16.4988 30.958Z" fill="#C47D3D"/>
<path d="M18.6239 32.3914C17.3789 33.1037 14.1176 35.2023 15.8984 36.8241C16.0426 36.9536 16.2545 36.7417 16.1103 36.6092C14.5856 35.22 17.7026 33.2626 18.7769 32.6504C18.8113 32.6301 18.8362 32.597 18.8461 32.5584C18.856 32.5197 18.8502 32.4787 18.8299 32.4444C18.8096 32.41 18.7765 32.3852 18.7379 32.3752C18.6992 32.3653 18.6582 32.3711 18.6239 32.3914Z" fill="#C47D3D"/>
<path d="M14.6474 36.4327C14.6199 36.4504 14.6376 36.4504 14.7004 36.4327L14.8446 36.5445C14.8887 36.6623 14.8034 36.6623 14.8711 36.5946C14.9388 36.5269 14.9329 36.5122 14.9653 36.4739L15.239 36.156C15.3656 36.0089 15.4921 35.8617 15.6216 35.7175C15.7511 35.5732 15.5363 35.3584 15.4097 35.5026C15.2831 35.6468 15.0977 35.8558 14.9447 36.0353C14.8505 36.1442 14.7592 36.2532 14.6709 36.365C14.6179 36.4298 14.5208 36.5269 14.5561 36.624C14.5659 36.6549 14.585 36.682 14.6109 36.7015C14.6367 36.721 14.668 36.732 14.7004 36.7329C14.7355 36.7338 14.7699 36.7224 14.7975 36.7005C14.9535 36.5916 14.7975 36.3297 14.6474 36.4415V36.4327Z" fill="#C47D3D"/>
<path d="M10.8035 34.9758C11.6151 34.9007 12.4319 34.9007 13.2436 34.9758C13.4378 34.9993 13.4349 34.6814 13.2436 34.6814C12.4319 34.6064 11.6151 34.6064 10.8035 34.6814C10.6122 34.6814 10.6093 34.9934 10.8035 34.9758Z" fill="#C47D3D"/>
<path d="M22.0001 32.2413C21.641 33.1979 21.0523 34.2163 20.2017 34.805C20.0427 34.9168 20.2017 35.1758 20.3518 35.0669C21.276 34.4253 21.9 33.3568 22.2914 32.3208C22.3591 32.1383 22.0678 32.0618 21.9971 32.2413H22.0001Z" fill="#C47D3D"/>
<path d="M26.1412 25.7013C26.4201 26.2419 26.7872 26.7323 27.2273 27.1524C27.5069 27.4026 27.9043 27.5115 28.0926 27.8499C28.2163 28.1039 28.2672 28.3871 28.2398 28.6682C28.2398 28.8595 28.5341 28.8595 28.5341 28.6682C28.5669 28.404 28.5297 28.1359 28.4264 27.8906C28.3232 27.6452 28.1573 27.4313 27.9455 27.2701C27.2862 26.8409 26.7489 26.2488 26.3855 25.5512C26.2913 25.3805 26.0323 25.5335 26.1265 25.7013H26.1412Z" fill="#C47D3D"/>
<path d="M31.3597 17.8219C29.6702 20.106 28.8167 23.2642 29.841 25.9809C29.9086 26.1604 30.2 26.081 30.1353 25.8985C29.1257 23.2495 29.9646 20.2002 31.607 17.975C31.7217 17.819 31.4627 17.6807 31.3479 17.8219H31.3597Z" fill="#C47D3D"/>
<path d="M29.8412 17.6542C29.5675 18.6726 29.3791 19.9382 29.8412 20.9184C29.9266 21.092 30.1856 20.939 30.1032 20.7653C29.6646 19.8823 29.8648 18.6667 30.1032 17.7337C30.1137 17.6946 30.1083 17.653 30.0882 17.618C30.068 17.5829 30.0348 17.5573 29.9958 17.5468C29.9567 17.5362 29.9151 17.5416 29.8801 17.5618C29.845 17.5819 29.8194 17.6152 29.8089 17.6542H29.8412Z" fill="#C47D3D"/>
<path d="M32.7639 17.8985V20.8418C32.7731 20.8738 32.7924 20.9019 32.8189 20.922C32.8455 20.942 32.8778 20.9528 32.9111 20.9528C32.9443 20.9528 32.9767 20.942 33.0033 20.922C33.0298 20.9019 33.0491 20.8738 33.0583 20.8418V17.8985C33.0514 17.8645 33.033 17.8339 33.0062 17.8119C32.9794 17.79 32.9458 17.778 32.9111 17.778C32.8764 17.778 32.8428 17.79 32.816 17.8119C32.7891 17.8339 32.7707 17.8645 32.7639 17.8985Z" fill="#C47D3D"/>
<path d="M37.4467 19.1376C36.2038 19.9949 34.6951 20.3791 33.1935 20.2207C32.9993 20.2001 33.0022 20.5003 33.1935 20.515C34.7525 20.6775 36.3183 20.2777 37.6086 19.3877C37.7675 19.2788 37.6086 19.0198 37.4555 19.1287L37.4467 19.1376Z" fill="#C47D3D"/>
<path d="M35.922 11.3849C35.6305 12.9898 35.4447 14.6121 35.3657 16.2414C35.3726 16.2754 35.391 16.306 35.4178 16.3279C35.4446 16.3499 35.4782 16.3619 35.5129 16.3619C35.5476 16.3619 35.5812 16.3499 35.608 16.3279C35.6348 16.306 35.6532 16.2754 35.6601 16.2414C35.7386 14.6429 35.9204 13.0511 36.2046 11.4761C36.234 11.2848 35.9456 11.2053 35.9103 11.3966L35.922 11.3849Z" fill="#C47D3D"/>
<path d="M38.0616 14.5814C37.4406 15.1009 36.6708 15.4101 35.863 15.4644C35.6687 15.4791 35.6687 15.7793 35.863 15.7587C36.7484 15.7024 37.5929 15.3653 38.2736 14.7962C38.4178 14.6667 38.2059 14.4548 38.0616 14.5814Z" fill="#C47D3D"/>
<path d="M35.2833 23.3054C34.5651 23.8057 33.7439 24.3502 32.8815 24.5474C31.9848 24.7257 31.1047 24.9787 30.2502 25.3039C30.0736 25.3775 30.1501 25.6689 30.3297 25.5982C31.2627 25.2156 32.2075 25.0684 33.1611 24.7859C33.9789 24.4971 34.7457 24.0809 35.4334 23.5526C35.5923 23.4437 35.4334 23.1817 35.2833 23.2936V23.3054Z" fill="#C47D3D"/>
<path d="M35.4334 25.1243C35.4334 25.1243 35.1067 25.1243 34.9978 25.1067C34.2452 24.9929 33.5044 24.8117 32.7844 24.5651C32.5989 24.5092 32.5195 24.8005 32.7049 24.8594C33.476 25.1246 34.2718 25.3119 35.0802 25.4186C35.2536 25.4553 35.4336 25.4441 35.6012 25.3863C35.7719 25.295 35.6188 25.036 35.4481 25.1273L35.4334 25.1243Z" fill="#C47D3D"/>
<path d="M39.5539 23.3054C38.9456 24.0236 38.3569 24.7604 37.7878 25.5158C37.2551 26.2281 36.2102 27.323 36.219 28.2826C36.2282 28.3146 36.2475 28.3427 36.274 28.3627C36.3006 28.3828 36.333 28.3936 36.3662 28.3936C36.3995 28.3936 36.4318 28.3828 36.4584 28.3627C36.4849 28.3427 36.5042 28.3146 36.5134 28.2826C36.5134 27.3672 37.6466 26.1869 38.1617 25.507C38.6767 24.8271 39.2065 24.1648 39.7569 23.5173C39.8806 23.3701 39.6686 23.1553 39.5421 23.3054H39.5539Z" fill="#C47D3D"/>
<path d="M39.7013 24.3532C39.7454 24.2973 39.6513 24.4062 39.6365 24.4179C39.5686 24.4822 39.4935 24.5384 39.4129 24.5857C39.104 24.7648 38.7514 24.8545 38.3945 24.8447C38.3605 24.8515 38.3299 24.8699 38.3079 24.8968C38.2859 24.9236 38.2739 24.9572 38.2739 24.9919C38.2739 25.0266 38.2859 25.0602 38.3079 25.087C38.3299 25.1138 38.3605 25.1322 38.3945 25.139C38.6865 25.1552 38.9784 25.1062 39.2492 24.9958C39.52 24.8853 39.7629 24.7161 39.9603 24.5003C40.078 24.3473 39.8161 24.206 39.7013 24.3473V24.3532Z" fill="#C47D3D"/>
<path d="M47.2068 23.4614C46.7515 23.7852 46.31 24.1276 45.8823 24.4886C45.4732 24.836 44.752 25.351 44.7049 25.9397C44.6873 26.134 44.9993 26.131 44.9993 25.9397C45.0228 25.6895 45.2936 25.4452 45.4643 25.2804C45.7116 25.0273 45.9824 24.7947 46.2531 24.5681C46.6122 24.2738 46.9811 23.9922 47.3598 23.7234C47.5158 23.6115 47.3598 23.3496 47.2068 23.4614Z" fill="#C47D3D"/>
<path d="M46.7828 28.8713C46.0352 28.6034 45.1287 28.5063 44.4517 28.0972C43.8219 27.7175 43.4098 26.9198 43.2361 26.234C43.2256 26.195 43.2 26.1618 43.1649 26.1416C43.1299 26.1215 43.0883 26.1161 43.0492 26.1266C43.0102 26.1371 42.9769 26.1628 42.9568 26.1978C42.9367 26.2329 42.9313 26.2745 42.9418 26.3135C43.1132 27.0666 43.5268 27.7428 44.1191 28.2385C44.8373 28.7771 45.8586 28.8624 46.6916 29.1597C46.8741 29.2274 46.9536 28.936 46.7711 28.8654L46.7828 28.8713Z" fill="#C47D3D"/>
<path d="M31.2009 30.8521C32.3782 30.9139 33.7027 31.067 34.7329 31.641C35.6718 32.156 36.4989 32.3886 37.5497 31.9735C37.7263 31.9029 37.6497 31.6145 37.4672 31.6792C36.889 31.9205 36.2468 31.962 35.6424 31.7969C35.0154 31.5909 34.5121 31.1494 33.8764 30.961C33.0022 30.7215 32.1036 30.5823 31.1979 30.546C31.0037 30.546 31.0066 30.8404 31.1979 30.8404L31.2009 30.8521Z" fill="#C47D3D"/>
<path d="M38.2441 36.106C38.2441 36.3532 37.8085 36.6387 37.573 36.7653C36.3339 37.4128 34.718 37.354 33.367 37.354C33.333 37.3608 33.3024 37.3792 33.2804 37.406C33.2585 37.4328 33.2465 37.4665 33.2465 37.5011C33.2465 37.5358 33.2585 37.5694 33.2804 37.5962C33.3024 37.6231 33.333 37.6415 33.367 37.6483C34.7886 37.6689 36.6576 37.7366 37.9203 36.9242C38.1911 36.7476 38.5267 36.468 38.5443 36.1148C38.5443 35.9206 38.25 35.9206 38.25 36.1148L38.2441 36.106Z" fill="#C47D3D"/>
<path d="M38.7505 38.0368C38.0622 37.5183 37.2379 37.2115 36.3781 37.1538C36.1839 37.1538 36.1839 37.4481 36.3781 37.4481C37.1856 37.5106 37.9576 37.8061 38.6004 38.2988C38.7534 38.4136 38.8947 38.1545 38.7505 38.0368Z" fill="#C47D3D"/>
<path d="M40.5313 41.2598C40.5578 41.0596 40.6373 41.2598 40.546 41.1832C40.3802 41.134 40.2094 41.1034 40.0368 41.092C39.0547 40.8205 38.0903 40.4883 37.1494 40.0971C36.9699 40.0265 36.8904 40.3179 37.0699 40.3915C37.2495 40.4651 40.7403 41.9367 40.8197 41.3451C40.8462 41.1567 40.5548 41.0743 40.5254 41.2656L40.5313 41.2598Z" fill="#C47D3D"/>
<path d="M39.5717 45.9309V42.4754C39.5649 42.4414 39.5465 42.4108 39.5196 42.3888C39.4928 42.3669 39.4592 42.3549 39.4245 42.3549C39.3898 42.3549 39.3562 42.3669 39.3294 42.3888C39.3026 42.4108 39.2842 42.4414 39.2773 42.4754V45.9309C39.2842 45.9649 39.3026 45.9955 39.3294 46.0174C39.3562 46.0394 39.3898 46.0514 39.4245 46.0514C39.4592 46.0514 39.4928 46.0394 39.5196 46.0174C39.5465 45.9955 39.5649 45.9649 39.5717 45.9309Z" fill="#C47D3D"/>
<path d="M34.5063 41.5836C34.1502 39.9555 33.5456 38.392 32.7139 36.9478C32.6138 36.783 32.3548 36.9478 32.4548 37.0979C33.2736 38.5214 33.8692 40.062 34.2208 41.666C34.265 41.8544 34.5534 41.7749 34.5152 41.5836H34.5063Z" fill="#C47D3D"/>
<path d="M31.3128 38.231C30.7242 37.4922 30.0737 36.5562 29.953 35.6026C29.9295 35.4113 29.6263 35.4083 29.6587 35.6026C29.7882 36.6504 30.4563 37.6365 31.1068 38.4429C31.2275 38.593 31.4394 38.3811 31.3187 38.231H31.3128Z" fill="#C47D3D"/>
<path d="M26.2089 32.9713C26.2089 32.9713 39.4775 10.2428 40.0309 8L24.8756 32.6328L26.2089 32.9713Z" fill="#C47D3D"/>
<path d="M10.4739 8.677C10.4739 8.677 25.2642 24.6888 26.0353 32.312L24.9139 32.7565C24.9139 32.7565 24.128 25.145 10.4739 8.677Z" fill="#C47D3D"/>
<path d="M6 40.1324C6 40.1324 13.3348 31.6262 24.5931 31.3701L24.855 32.3591C24.855 32.3591 14.3297 31.894 6 40.1324Z" fill="#C47D3D"/>
<path d="M26.0353 32.312C26.0353 32.312 42.256 23.5585 53.997 25.6571C53.997 25.6571 42.8329 24.6828 26.1206 33.3392L26.0353 32.312Z" fill="#C47D3D"/>
<path d="M42.6061 47.4555C42.6061 47.4555 44.5576 42.8933 26.5561 32.3708L26.1205 33.3392C26.1205 33.3392 42.8475 43.4496 42.6061 47.4555Z" fill="#C47D3D"/>
</svg>
