<svg width="60" height="40" viewBox="0 0 60 40" fill="none" xmlns="http://www.w3.org/2000/svg">
<path d="M0 0H60V40H0V0Z" fill="#F2F0F0"/>
<path d="M23.7451 25.918C23.7451 26.9297 23.3988 27.709 22.7061 28.2559C22.0179 28.7982 21.0312 29.0693 19.7461 29.0693H18.5703V33H17.4082V23.0059H19.999C22.4964 23.0059 23.7451 23.9766 23.7451 25.918ZM18.5703 28.0713H19.6162C20.6462 28.0713 21.3913 27.9049 21.8516 27.5723C22.3118 27.2396 22.542 26.7064 22.542 25.9727C22.542 25.3118 22.3255 24.8197 21.8926 24.4961C21.4596 24.1725 20.7852 24.0107 19.8691 24.0107H18.5703V28.0713Z" fill="#3B4549"/>
<path d="M26.8076 33H25.6729V25.5078H26.8076V33ZM25.5771 23.4775C25.5771 23.2178 25.641 23.0286 25.7686 22.9102C25.8962 22.7871 26.0557 22.7256 26.2471 22.7256C26.4294 22.7256 26.5866 22.7871 26.7188 22.9102C26.8509 23.0332 26.917 23.2223 26.917 23.4775C26.917 23.7327 26.8509 23.9242 26.7188 24.0518C26.5866 24.1748 26.4294 24.2363 26.2471 24.2363C26.0557 24.2363 25.8962 24.1748 25.7686 24.0518C25.641 23.9242 25.5771 23.7327 25.5771 23.4775Z" fill="#3B4549"/>
<path d="M34.3408 33V28.1533C34.3408 27.5426 34.2018 27.0869 33.9238 26.7861C33.6458 26.4854 33.2106 26.335 32.6182 26.335C31.8343 26.335 31.2601 26.5469 30.8955 26.9707C30.5309 27.3945 30.3486 28.0941 30.3486 29.0693V33H29.2139V25.5078H30.1367L30.3213 26.5332H30.376C30.6084 26.1641 30.9342 25.8792 31.3535 25.6787C31.7728 25.4736 32.2399 25.3711 32.7549 25.3711C33.6572 25.3711 34.3363 25.5898 34.792 26.0273C35.2477 26.4603 35.4756 27.1553 35.4756 28.1123V33H34.3408Z" fill="#3B4549"/>
<path d="M38.9346 29.165C39.1305 28.887 39.429 28.5225 39.8301 28.0713L42.25 25.5078H43.5967L40.5615 28.7002L43.8086 33H42.4346L39.7891 29.459L38.9346 30.1973V33H37.8135V22.3633H38.9346V28.0029C38.9346 28.2536 38.9163 28.641 38.8799 29.165H38.9346Z" fill="#3B4549"/>
<path d="M4 4H56V16H4V4Z" fill="#ECB2A4"/>
</svg>
