<svg width="60" height="40" viewBox="0 0 60 40" fill="none" xmlns="http://www.w3.org/2000/svg">
<path d="M0 0H60V40H0V0Z" fill="#F2F0F0"/>
<path d="M16.8418 25.918C16.8418 26.9297 16.4954 27.709 15.8027 28.2559C15.1146 28.7982 14.1279 29.0693 12.8428 29.0693H11.667V33H10.5049V23.0059H13.0957C15.5931 23.0059 16.8418 23.9766 16.8418 25.918ZM11.667 28.0713H12.7129C13.7428 28.0713 14.488 27.9049 14.9482 27.5723C15.4085 27.2396 15.6387 26.7064 15.6387 25.9727C15.6387 25.3118 15.4222 24.8197 14.9893 24.4961C14.5563 24.1725 13.8818 24.0107 12.9658 24.0107H11.667V28.0713Z" fill="#3B4549"/>
<path d="M19.8359 25.5078V30.3682C19.8359 30.9788 19.9749 31.4346 20.2529 31.7354C20.5309 32.0361 20.9661 32.1865 21.5586 32.1865C22.3424 32.1865 22.9144 31.9723 23.2744 31.5439C23.639 31.1156 23.8213 30.416 23.8213 29.4453V25.5078H24.9561V33H24.0195L23.8555 31.9951H23.7939C23.5615 32.3643 23.238 32.6468 22.8232 32.8428C22.4131 33.0387 21.9437 33.1367 21.415 33.1367C20.5036 33.1367 19.82 32.9202 19.3643 32.4873C18.9131 32.0544 18.6875 31.3617 18.6875 30.4092V25.5078H19.8359Z" fill="#3B4549"/>
<path d="M30.7871 25.3711C31.1198 25.3711 31.4183 25.3984 31.6826 25.4531L31.5254 26.5059C31.2155 26.4375 30.9421 26.4033 30.7051 26.4033C30.099 26.4033 29.5794 26.6494 29.1465 27.1416C28.7181 27.6338 28.5039 28.2467 28.5039 28.9805V33H27.3691V25.5078H28.3057L28.4355 26.8955H28.4902C28.7682 26.4079 29.1032 26.0319 29.4951 25.7676C29.887 25.5033 30.3177 25.3711 30.7871 25.3711Z" fill="#3B4549"/>
<path d="M36.5703 33.1367C36.0827 33.1367 35.6361 33.0479 35.2305 32.8701C34.8294 32.6878 34.4922 32.4098 34.2188 32.0361H34.1367C34.1914 32.4736 34.2188 32.8883 34.2188 33.2803V36.3633H33.084V25.5078H34.0068L34.1641 26.5332H34.2188C34.5104 26.123 34.8499 25.8268 35.2373 25.6445C35.6247 25.4622 36.069 25.3711 36.5703 25.3711C37.5638 25.3711 38.3294 25.7106 38.8672 26.3896C39.4095 27.0687 39.6807 28.0212 39.6807 29.2471C39.6807 30.4775 39.4049 31.4346 38.8535 32.1182C38.3066 32.7972 37.5456 33.1367 36.5703 33.1367ZM36.4062 26.335C35.6406 26.335 35.0869 26.5469 34.7451 26.9707C34.4033 27.3945 34.2279 28.069 34.2188 28.9941V29.2471C34.2188 30.2998 34.3942 31.054 34.7451 31.5098C35.096 31.9609 35.6589 32.1865 36.4336 32.1865C37.0807 32.1865 37.5866 31.9245 37.9512 31.4004C38.3203 30.8763 38.5049 30.154 38.5049 29.2334C38.5049 28.2992 38.3203 27.5837 37.9512 27.0869C37.5866 26.5856 37.0716 26.335 36.4062 26.335Z" fill="#3B4549"/>
<path d="M42.8047 33H41.6699V22.3633H42.8047V33Z" fill="#3B4549"/>
<path d="M48.376 33.1367C47.2686 33.1367 46.3936 32.7995 45.751 32.125C45.113 31.4505 44.7939 30.514 44.7939 29.3154C44.7939 28.1077 45.0902 27.1484 45.6826 26.4375C46.2796 25.7266 47.0794 25.3711 48.082 25.3711C49.0208 25.3711 49.7637 25.681 50.3105 26.3008C50.8574 26.916 51.1309 27.7295 51.1309 28.7412V29.459H45.9697C45.9925 30.3385 46.2135 31.0062 46.6328 31.4619C47.0566 31.9176 47.6514 32.1455 48.417 32.1455C49.2236 32.1455 50.0212 31.9769 50.8096 31.6396V32.6514C50.4085 32.8245 50.028 32.9476 49.668 33.0205C49.3125 33.098 48.8818 33.1367 48.376 33.1367ZM48.0684 26.3213C47.4668 26.3213 46.986 26.5173 46.626 26.9092C46.2705 27.3011 46.0609 27.8434 45.9971 28.5361H49.9141C49.9141 27.8206 49.7546 27.2738 49.4355 26.8955C49.1165 26.5127 48.6608 26.3213 48.0684 26.3213Z" fill="#3B4549"/>
<path d="M4 4H56V16H4V4Z" fill="#57448B"/>
</svg>
