<svg width="18" height="18" viewBox="0 0 18 18" fill="none" xmlns="http://www.w3.org/2000/svg">
<path fill-rule="evenodd" clip-rule="evenodd" d="M9 1.69309C4.96451 1.69309 1.69309 4.96451 1.69309 9C1.69309 13.0355 4.96451 16.3069 9 16.3069C13.0355 16.3069 16.3069 13.0355 16.3069 9C16.3069 4.96451 13.0355 1.69309 9 1.69309ZM0 9C0 4.02944 4.02944 0 9 0C13.9706 0 18 4.02944 18 9C18 13.9706 13.9706 18 9 18C4.02944 18 0 13.9706 0 9Z" fill="#E9DED9"/>
<path d="M6.06477 6.51129C6.06477 6.11756 6.1836 5.71968 6.42125 5.31766C6.65889 4.9115 7.00563 4.57579 7.46145 4.31054C7.91726 4.04528 8.44905 3.91266 9.05681 3.91266C9.62171 3.91266 10.1204 4.02456 10.5528 4.24837C10.9853 4.46803 11.3184 4.76851 11.5521 5.14981C11.7898 5.53111 11.9086 5.94556 11.9086 6.39317C11.9086 6.74546 11.8404 7.05423 11.7041 7.31948C11.5716 7.58473 11.4119 7.81475 11.2249 8.00955C11.0418 8.2002 10.7106 8.52347 10.2314 8.97937C10.099 9.10785 9.99182 9.22183 9.91 9.3213C9.83209 9.41662 9.77365 9.50573 9.73469 9.58862C9.69573 9.66737 9.66456 9.74819 9.64119 9.83108C9.62171 9.90982 9.59054 10.0507 9.54769 10.2538C9.47367 10.6849 9.24186 10.9004 8.85227 10.9004C8.64969 10.9004 8.47827 10.8299 8.33802 10.689C8.20166 10.5481 8.13348 10.3388 8.13348 10.0611C8.13348 9.71296 8.18413 9.41248 8.28542 9.15966C8.38672 8.9027 8.52112 8.67889 8.68865 8.48824C8.85617 8.29345 9.08213 8.06343 9.36653 7.79818C9.61587 7.56608 9.79508 7.39201 9.90416 7.27596C10.0171 7.15577 10.1106 7.02314 10.1847 6.87808C10.2626 6.73303 10.3015 6.57553 10.3015 6.40561C10.3015 6.07404 10.1847 5.79428 9.95091 5.56633C9.72105 5.33838 9.42302 5.22441 9.05681 5.22441C8.62826 5.22441 8.3127 5.34046 8.11011 5.57255C7.90752 5.8005 7.7361 6.13828 7.59585 6.58589C7.46339 7.05423 7.21211 7.2884 6.842 7.2884C6.62383 7.2884 6.43878 7.20758 6.28684 7.04594C6.1388 6.88016 6.06477 6.70194 6.06477 6.51129ZM8.91656 13.3249C8.67891 13.3249 8.47048 13.2441 8.29127 13.0825C8.11595 12.9167 8.0283 12.6867 8.0283 12.3924C8.0283 12.1313 8.114 11.9116 8.28542 11.7334C8.45684 11.5552 8.66722 11.4661 8.91656 11.4661C9.162 11.4661 9.36848 11.5552 9.536 11.7334C9.70352 11.9116 9.78728 12.1313 9.78728 12.3924C9.78728 12.6825 9.69963 12.9105 9.52431 13.0763C9.349 13.242 9.14641 13.3249 8.91656 13.3249Z" fill="#E9DED9"/>
</svg>
