<svg width="60" height="40" viewBox="0 0 60 40" fill="none" xmlns="http://www.w3.org/2000/svg">
<path d="M0 0H60V40H0V0Z" fill="#F2F0F0"/>
<path d="M18.9854 28.8438V33H17.8232V23.0059H20.5645C21.7904 23.0059 22.695 23.2406 23.2783 23.71C23.8662 24.1794 24.1602 24.8857 24.1602 25.8291C24.1602 27.1507 23.4902 28.0439 22.1504 28.5088L24.8643 33H23.4902L21.0703 28.8438H18.9854ZM18.9854 27.8457H20.5781C21.3984 27.8457 22 27.6839 22.3828 27.3604C22.7656 27.0322 22.957 26.5423 22.957 25.8906C22.957 25.2298 22.7611 24.7536 22.3691 24.4619C21.9818 24.1702 21.3574 24.0244 20.4961 24.0244H18.9854V27.8457Z" fill="#3B4549"/>
<path d="M29.4717 33.1367C28.3643 33.1367 27.4893 32.7995 26.8467 32.125C26.2087 31.4505 25.8896 30.514 25.8896 29.3154C25.8896 28.1077 26.1859 27.1484 26.7783 26.4375C27.3753 25.7266 28.1751 25.3711 29.1777 25.3711C30.1165 25.3711 30.8594 25.681 31.4062 26.3008C31.9531 26.916 32.2266 27.7295 32.2266 28.7412V29.459H27.0654C27.0882 30.3385 27.3092 31.0062 27.7285 31.4619C28.1523 31.9176 28.7471 32.1455 29.5127 32.1455C30.3193 32.1455 31.1169 31.9769 31.9053 31.6396V32.6514C31.5042 32.8245 31.1237 32.9476 30.7637 33.0205C30.4082 33.098 29.9775 33.1367 29.4717 33.1367ZM29.1641 26.3213C28.5625 26.3213 28.0817 26.5173 27.7217 26.9092C27.3662 27.3011 27.1566 27.8434 27.0928 28.5361H31.0098C31.0098 27.8206 30.8503 27.2738 30.5312 26.8955C30.2122 26.5127 29.7565 26.3213 29.1641 26.3213Z" fill="#3B4549"/>
<path d="M39.2676 31.9951H39.2061C38.682 32.7562 37.8981 33.1367 36.8545 33.1367C35.8747 33.1367 35.1113 32.8018 34.5645 32.1318C34.0221 31.4619 33.751 30.5094 33.751 29.2744C33.751 28.0394 34.0244 27.0801 34.5713 26.3965C35.1182 25.7129 35.8792 25.3711 36.8545 25.3711C37.8708 25.3711 38.6501 25.7402 39.1924 26.4785H39.2812L39.2334 25.9385L39.2061 25.4121V22.3633H40.3408V33H39.418L39.2676 31.9951ZM36.998 32.1865C37.7728 32.1865 38.3333 31.9769 38.6797 31.5576C39.0306 31.1338 39.2061 30.4525 39.2061 29.5137V29.2744C39.2061 28.2126 39.0283 27.4561 38.6729 27.0049C38.3219 26.5492 37.7591 26.3213 36.9844 26.3213C36.319 26.3213 35.8086 26.5811 35.4531 27.1006C35.1022 27.6156 34.9268 28.3447 34.9268 29.2881C34.9268 30.2451 35.1022 30.9674 35.4531 31.4551C35.804 31.9427 36.319 32.1865 36.998 32.1865Z" fill="#3B4549"/>
<path d="M4 4H56V16H4V4Z" fill="#D43D41"/>
</svg>
