<svg width="288" height="36" viewBox="0 0 288 36" fill="none" xmlns="http://www.w3.org/2000/svg">
<rect width="288" height="36" fill="white"/>
<path d="M109.885 18.716C111.635 18.716 112.027 19.318 112.027 20.704V20.9C112.027 21.824 112.013 22.58 112.195 23H113.455C113.287 22.594 113.315 21.74 113.315 21.068V20.648C113.315 18.968 112.629 18.366 111.831 18.156C112.769 17.904 113.497 17.134 113.497 15.86C113.497 14.348 112.433 13.256 110.431 13.256H106.623V23H107.897V18.716H109.885ZM107.897 14.348H110.165C111.481 14.348 112.153 14.936 112.153 15.972C112.153 17.064 111.509 17.624 110.011 17.624H107.897V14.348Z" fill="#3B4549"/>
<path d="M121.107 19.668C121.121 19.486 121.121 19.304 121.121 19.08C121.121 17.568 120.379 15.734 118.083 15.734C115.927 15.734 114.863 17.414 114.863 19.528C114.863 21.348 115.773 23.168 117.999 23.168C119.945 23.168 120.715 21.95 120.995 21.04H119.749C119.525 21.558 119.161 22.146 118.041 22.146C116.837 22.146 116.109 21.11 116.095 19.668H121.107ZM116.137 18.814C116.263 17.568 116.809 16.7 118.069 16.7C119.273 16.7 119.861 17.638 119.875 18.814H116.137Z" fill="#3B4549"/>
<path d="M122.175 20.97C122.357 22.244 123.267 23.168 125.101 23.168C126.865 23.168 127.859 22.258 127.859 21.012C127.859 19.962 127.425 19.248 125.269 18.73C123.967 18.422 123.673 18.156 123.673 17.624C123.673 17.162 123.981 16.686 124.975 16.686C126.053 16.686 126.403 17.33 126.515 17.778H127.691C127.607 16.798 126.851 15.734 125.017 15.734C123.197 15.734 122.455 16.728 122.455 17.722C122.455 18.688 122.875 19.318 124.905 19.808C126.263 20.13 126.585 20.438 126.585 21.11C126.585 21.754 126.179 22.202 125.143 22.202C124.177 22.202 123.603 21.74 123.407 20.97H122.175Z" fill="#3B4549"/>
<path d="M135.203 19.668C135.217 19.486 135.217 19.304 135.217 19.08C135.217 17.568 134.475 15.734 132.179 15.734C130.023 15.734 128.959 17.414 128.959 19.528C128.959 21.348 129.869 23.168 132.095 23.168C134.041 23.168 134.811 21.95 135.091 21.04H133.845C133.621 21.558 133.257 22.146 132.137 22.146C130.933 22.146 130.205 21.11 130.191 19.668H135.203ZM130.233 18.814C130.359 17.568 130.905 16.7 132.165 16.7C133.369 16.7 133.957 17.638 133.971 18.814H130.233Z" fill="#3B4549"/>
<path d="M135.95 16.896H137.182V21.348C137.182 22.524 137.658 23.098 138.764 23.098C139.114 23.098 139.534 23.084 139.828 22.972V22.048C139.632 22.09 139.38 22.104 139.212 22.104C138.568 22.104 138.4 21.754 138.4 21.054V16.896H139.968V15.902H138.4V13.802H137.182V15.902H135.95V16.896Z" fill="#3B4549"/>
<path d="M145.109 23H146.383V18.632H151.045V17.526H146.383V14.362H151.367V13.256H145.109V23Z" fill="#3B4549"/>
<path d="M152.774 23H154.006V15.902H152.774V23ZM154.006 14.25V12.724H152.774V14.25H154.006Z" fill="#3B4549"/>
<path d="M157.328 23V12.724H156.096V23H157.328Z" fill="#3B4549"/>
<path d="M158.563 16.896H159.795V21.348C159.795 22.524 160.271 23.098 161.377 23.098C161.727 23.098 162.147 23.084 162.441 22.972V22.048C162.245 22.09 161.993 22.104 161.825 22.104C161.181 22.104 161.013 21.754 161.013 21.054V16.896H162.581V15.902H161.013V13.802H159.795V15.902H158.563V16.896Z" fill="#3B4549"/>
<path d="M169.588 19.668C169.602 19.486 169.602 19.304 169.602 19.08C169.602 17.568 168.86 15.734 166.564 15.734C164.408 15.734 163.344 17.414 163.344 19.528C163.344 21.348 164.254 23.168 166.48 23.168C168.426 23.168 169.196 21.95 169.476 21.04H168.23C168.006 21.558 167.642 22.146 166.522 22.146C165.318 22.146 164.59 21.11 164.576 19.668H169.588ZM164.618 18.814C164.744 17.568 165.29 16.7 166.55 16.7C167.754 16.7 168.342 17.638 168.356 18.814H164.618Z" fill="#3B4549"/>
<path d="M171.176 23H172.408V19.556C172.408 17.764 173.332 16.994 174.788 16.952V15.734C173.612 15.762 172.772 16.392 172.408 17.344C172.408 16.658 172.38 16.098 172.366 15.902H171.162C171.162 16.28 171.176 16.84 171.176 17.834V23Z" fill="#3B4549"/>
<path d="M175.468 20.97C175.65 22.244 176.56 23.168 178.394 23.168C180.158 23.168 181.152 22.258 181.152 21.012C181.152 19.962 180.718 19.248 178.562 18.73C177.26 18.422 176.966 18.156 176.966 17.624C176.966 17.162 177.274 16.686 178.268 16.686C179.346 16.686 179.696 17.33 179.808 17.778H180.984C180.9 16.798 180.144 15.734 178.31 15.734C176.49 15.734 175.748 16.728 175.748 17.722C175.748 18.688 176.168 19.318 178.198 19.808C179.556 20.13 179.878 20.438 179.878 21.11C179.878 21.754 179.472 22.202 178.436 22.202C177.47 22.202 176.896 21.74 176.7 20.97H175.468Z" fill="#3B4549"/>
</svg>
