<svg width="163" height="36" viewBox="0 0 163 36" fill="none" xmlns="http://www.w3.org/2000/svg">
<path d="M0 0H163V36H0V0Z" fill="#3B4549"/>
<path d="M19.2891 19.9775C19.2891 20.8571 18.9701 21.543 18.332 22.0352C17.694 22.5273 16.8281 22.7734 15.7344 22.7734C14.5495 22.7734 13.638 22.6208 13 22.3154V21.1943C13.4102 21.3675 13.8568 21.5042 14.3398 21.6045C14.8229 21.7048 15.3014 21.7549 15.7754 21.7549C16.5501 21.7549 17.1335 21.609 17.5254 21.3174C17.9173 21.0212 18.1133 20.611 18.1133 20.0869C18.1133 19.7406 18.0426 19.458 17.9014 19.2393C17.7646 19.016 17.5322 18.8109 17.2041 18.624C16.8805 18.4372 16.3861 18.2253 15.7207 17.9883C14.791 17.6556 14.1257 17.2614 13.7246 16.8057C13.3281 16.3499 13.1299 15.7552 13.1299 15.0215C13.1299 14.2513 13.4193 13.6383 13.998 13.1826C14.5768 12.7269 15.3424 12.499 16.2949 12.499C17.2884 12.499 18.2021 12.6813 19.0361 13.0459L18.6738 14.0576C17.849 13.7113 17.0469 13.5381 16.2676 13.5381C15.6523 13.5381 15.1715 13.6702 14.8252 13.9346C14.4788 14.1989 14.3057 14.5658 14.3057 15.0352C14.3057 15.3815 14.3695 15.6663 14.4971 15.8896C14.6247 16.1084 14.8389 16.3112 15.1396 16.498C15.445 16.6803 15.9098 16.8831 16.5342 17.1064C17.5824 17.4801 18.3024 17.8812 18.6943 18.3096C19.0908 18.738 19.2891 19.2939 19.2891 19.9775Z" fill="#E9DED9"/>
<path d="M24.3271 22.7734C23.2197 22.7734 22.3447 22.4362 21.7021 21.7617C21.0641 21.0872 20.7451 20.1507 20.7451 18.9521C20.7451 17.7445 21.0413 16.7852 21.6338 16.0742C22.2308 15.3633 23.0306 15.0078 24.0332 15.0078C24.972 15.0078 25.7148 15.3177 26.2617 15.9375C26.8086 16.5527 27.082 17.3662 27.082 18.3779V19.0957H21.9209C21.9437 19.9753 22.1647 20.6429 22.584 21.0986C23.0078 21.5544 23.6025 21.7822 24.3682 21.7822C25.1748 21.7822 25.9723 21.6136 26.7607 21.2764V22.2881C26.3597 22.4613 25.9792 22.5843 25.6191 22.6572C25.2637 22.7347 24.833 22.7734 24.3271 22.7734ZM24.0195 15.958C23.418 15.958 22.9372 16.154 22.5771 16.5459C22.2217 16.9378 22.012 17.4801 21.9482 18.1729H25.8652C25.8652 17.4574 25.7057 16.9105 25.3867 16.5322C25.0677 16.1494 24.612 15.958 24.0195 15.958Z" fill="#E9DED9"/>
<path d="M33.6309 22.6367L33.4053 21.5703H33.3506C32.9769 22.0397 32.6032 22.3587 32.2295 22.5273C31.8604 22.6914 31.3978 22.7734 30.8418 22.7734C30.099 22.7734 29.5156 22.582 29.0918 22.1992C28.6725 21.8164 28.4629 21.2718 28.4629 20.5654C28.4629 19.0524 29.6729 18.2594 32.0928 18.1865L33.3643 18.1455V17.6807C33.3643 17.0928 33.2367 16.6598 32.9814 16.3818C32.7308 16.0993 32.3275 15.958 31.7715 15.958C31.1471 15.958 30.4408 16.1494 29.6523 16.5322L29.3037 15.6641C29.6729 15.4635 30.0762 15.3063 30.5137 15.1924C30.9557 15.0785 31.3978 15.0215 31.8398 15.0215C32.7331 15.0215 33.3939 15.2197 33.8223 15.6162C34.2552 16.0127 34.4717 16.6484 34.4717 17.5234V22.6367H33.6309ZM31.0674 21.8369C31.7738 21.8369 32.3275 21.6432 32.7285 21.2559C33.1341 20.8685 33.3369 20.3262 33.3369 19.6289V18.9521L32.2021 19C31.2998 19.0319 30.6481 19.1732 30.2471 19.4238C29.8506 19.6699 29.6523 20.055 29.6523 20.5791C29.6523 20.9893 29.7754 21.3014 30.0215 21.5156C30.2721 21.7298 30.6208 21.8369 31.0674 21.8369Z" fill="#E9DED9"/>
<path d="M40.2344 15.0078C40.5671 15.0078 40.8656 15.0352 41.1299 15.0898L40.9727 16.1426C40.6628 16.0742 40.3893 16.04 40.1523 16.04C39.5462 16.04 39.0267 16.2861 38.5938 16.7783C38.1654 17.2705 37.9512 17.8835 37.9512 18.6172V22.6367H36.8164V15.1445H37.7529L37.8828 16.5322H37.9375C38.2155 16.0446 38.5505 15.6686 38.9424 15.4043C39.3343 15.14 39.765 15.0078 40.2344 15.0078Z" fill="#E9DED9"/>
<path d="M45.5254 22.7734C44.4408 22.7734 43.5999 22.4408 43.0029 21.7754C42.4105 21.1055 42.1143 20.1598 42.1143 18.9385C42.1143 17.6852 42.415 16.7168 43.0166 16.0332C43.6227 15.3496 44.484 15.0078 45.6006 15.0078C45.9606 15.0078 46.3206 15.0465 46.6807 15.124C47.0407 15.2015 47.3232 15.2926 47.5283 15.3975L47.1797 16.3613C46.929 16.2611 46.6556 16.179 46.3594 16.1152C46.0632 16.0469 45.8011 16.0127 45.5732 16.0127C44.0511 16.0127 43.29 16.9834 43.29 18.9248C43.29 19.8454 43.4746 20.5518 43.8438 21.0439C44.2174 21.5361 44.7689 21.7822 45.498 21.7822C46.1224 21.7822 46.7627 21.6478 47.4189 21.3789V22.3838C46.9176 22.6436 46.2865 22.7734 45.5254 22.7734Z" fill="#E9DED9"/>
<path d="M54.3301 22.6367V17.79C54.3301 17.1794 54.1911 16.7236 53.9131 16.4229C53.6351 16.1221 53.1999 15.9717 52.6074 15.9717C51.819 15.9717 51.2425 16.1859 50.8779 16.6143C50.5179 17.0426 50.3379 17.7445 50.3379 18.7197V22.6367H49.2031V12H50.3379V15.2197C50.3379 15.6071 50.3197 15.9284 50.2832 16.1836H50.3516C50.5749 15.8236 50.8916 15.541 51.3018 15.3359C51.7165 15.1263 52.1882 15.0215 52.7168 15.0215C53.6328 15.0215 54.3187 15.2402 54.7744 15.6777C55.2347 16.1107 55.4648 16.8011 55.4648 17.749V22.6367H54.3301Z" fill="#E9DED9"/>
<path d="M67.8926 22.6367L66.6484 19.458H62.6426L61.4121 22.6367H60.2363L64.1875 12.6016H65.165L69.0957 22.6367H67.8926ZM66.2861 18.4121L65.124 15.3154C64.9736 14.9235 64.8187 14.4427 64.6592 13.873C64.5589 14.3105 64.4154 14.7913 64.2285 15.3154L63.0527 18.4121H66.2861Z" fill="#E9DED9"/>
<path d="M71.4336 22.6367H70.2988V12H71.4336V22.6367Z" fill="#E9DED9"/>
<path d="M77.3262 22.7734C76.8385 22.7734 76.3919 22.6846 75.9863 22.5068C75.5853 22.3245 75.248 22.0465 74.9746 21.6729H74.8926C74.9473 22.1104 74.9746 22.5251 74.9746 22.917V26H73.8398V15.1445H74.7627L74.9199 16.1699H74.9746C75.2663 15.7598 75.6058 15.4635 75.9932 15.2812C76.3805 15.099 76.8249 15.0078 77.3262 15.0078C78.3197 15.0078 79.0853 15.3473 79.623 16.0264C80.1654 16.7054 80.4365 17.6579 80.4365 18.8838C80.4365 20.1143 80.1608 21.0713 79.6094 21.7549C79.0625 22.4339 78.3014 22.7734 77.3262 22.7734ZM77.1621 15.9717C76.3965 15.9717 75.8428 16.1836 75.501 16.6074C75.1592 17.0312 74.9837 17.7057 74.9746 18.6309V18.8838C74.9746 19.9365 75.1501 20.6908 75.501 21.1465C75.8519 21.5977 76.4147 21.8232 77.1895 21.8232C77.8366 21.8232 78.3424 21.5612 78.707 21.0371C79.0762 20.513 79.2607 19.7907 79.2607 18.8701C79.2607 17.9359 79.0762 17.2204 78.707 16.7236C78.3424 16.2223 77.8275 15.9717 77.1621 15.9717Z" fill="#E9DED9"/>
<path d="M87.5527 22.6367V17.79C87.5527 17.1794 87.4137 16.7236 87.1357 16.4229C86.8577 16.1221 86.4225 15.9717 85.8301 15.9717C85.0417 15.9717 84.4652 16.1859 84.1006 16.6143C83.7406 17.0426 83.5605 17.7445 83.5605 18.7197V22.6367H82.4258V12H83.5605V15.2197C83.5605 15.6071 83.5423 15.9284 83.5059 16.1836H83.5742C83.7975 15.8236 84.1143 15.541 84.5244 15.3359C84.9391 15.1263 85.4108 15.0215 85.9395 15.0215C86.8555 15.0215 87.5413 15.2402 87.9971 15.6777C88.4574 16.1107 88.6875 16.8011 88.6875 17.749V22.6367H87.5527Z" fill="#E9DED9"/>
<path d="M95.6328 22.6367L95.4072 21.5703H95.3525C94.9788 22.0397 94.6051 22.3587 94.2314 22.5273C93.8623 22.6914 93.3997 22.7734 92.8438 22.7734C92.1009 22.7734 91.5176 22.582 91.0938 22.1992C90.6745 21.8164 90.4648 21.2718 90.4648 20.5654C90.4648 19.0524 91.6748 18.2594 94.0947 18.1865L95.3662 18.1455V17.6807C95.3662 17.0928 95.2386 16.6598 94.9834 16.3818C94.7327 16.0993 94.3294 15.958 93.7734 15.958C93.1491 15.958 92.4427 16.1494 91.6543 16.5322L91.3057 15.6641C91.6748 15.4635 92.0781 15.3063 92.5156 15.1924C92.9577 15.0785 93.3997 15.0215 93.8418 15.0215C94.735 15.0215 95.3958 15.2197 95.8242 15.6162C96.2572 16.0127 96.4736 16.6484 96.4736 17.5234V22.6367H95.6328ZM93.0693 21.8369C93.7757 21.8369 94.3294 21.6432 94.7305 21.2559C95.1361 20.8685 95.3389 20.3262 95.3389 19.6289V18.9521L94.2041 19C93.3018 19.0319 92.6501 19.1732 92.249 19.4238C91.8525 19.6699 91.6543 20.055 91.6543 20.5791C91.6543 20.9893 91.7773 21.3014 92.0234 21.5156C92.2741 21.7298 92.6227 21.8369 93.0693 21.8369Z" fill="#E9DED9"/>
<path d="M102.305 15.0215C103.289 15.0215 104.052 15.3587 104.595 16.0332C105.142 16.7031 105.415 17.6533 105.415 18.8838C105.415 20.1143 105.139 21.0713 104.588 21.7549C104.041 22.4339 103.28 22.7734 102.305 22.7734C101.817 22.7734 101.37 22.6846 100.965 22.5068C100.564 22.3245 100.227 22.0465 99.9531 21.6729H99.8711L99.6318 22.6367H98.8184V12H99.9531V14.584C99.9531 15.1628 99.9349 15.6823 99.8984 16.1426H99.9531C100.482 15.3952 101.266 15.0215 102.305 15.0215ZM102.141 15.9717C101.366 15.9717 100.808 16.195 100.466 16.6416C100.124 17.0837 99.9531 17.8311 99.9531 18.8838C99.9531 19.9365 100.129 20.6908 100.479 21.1465C100.83 21.5977 101.393 21.8232 102.168 21.8232C102.865 21.8232 103.385 21.5703 103.727 21.0645C104.068 20.554 104.239 19.8226 104.239 18.8701C104.239 17.8949 104.068 17.168 103.727 16.6895C103.385 16.2109 102.856 15.9717 102.141 15.9717Z" fill="#E9DED9"/>
<path d="M110.569 22.7734C109.462 22.7734 108.587 22.4362 107.944 21.7617C107.306 21.0872 106.987 20.1507 106.987 18.9521C106.987 17.7445 107.284 16.7852 107.876 16.0742C108.473 15.3633 109.273 15.0078 110.275 15.0078C111.214 15.0078 111.957 15.3177 112.504 15.9375C113.051 16.5527 113.324 17.3662 113.324 18.3779V19.0957H108.163C108.186 19.9753 108.407 20.6429 108.826 21.0986C109.25 21.5544 109.845 21.7822 110.61 21.7822C111.417 21.7822 112.215 21.6136 113.003 21.2764V22.2881C112.602 22.4613 112.221 22.5843 111.861 22.6572C111.506 22.7347 111.075 22.7734 110.569 22.7734ZM110.262 15.958C109.66 15.958 109.179 16.154 108.819 16.5459C108.464 16.9378 108.254 17.4801 108.19 18.1729H112.107C112.107 17.4574 111.948 16.9105 111.629 16.5322C111.31 16.1494 110.854 15.958 110.262 15.958Z" fill="#E9DED9"/>
<path d="M117.686 21.8369C117.886 21.8369 118.08 21.8232 118.267 21.7959C118.453 21.764 118.602 21.7321 118.711 21.7002V22.5684C118.588 22.6276 118.406 22.6755 118.164 22.7119C117.927 22.7529 117.713 22.7734 117.521 22.7734C116.072 22.7734 115.348 22.0101 115.348 20.4834V16.0264H114.274V15.4795L115.348 15.0078L115.826 13.4082H116.482V15.1445H118.656V16.0264H116.482V20.4355C116.482 20.8867 116.59 21.2331 116.804 21.4746C117.018 21.7161 117.312 21.8369 117.686 21.8369Z" fill="#E9DED9"/>
<path d="M121.35 22.6367H120.215V15.1445H121.35V22.6367ZM120.119 13.1143C120.119 12.8545 120.183 12.6654 120.311 12.5469C120.438 12.4238 120.598 12.3623 120.789 12.3623C120.971 12.3623 121.129 12.4238 121.261 12.5469C121.393 12.6699 121.459 12.859 121.459 13.1143C121.459 13.3695 121.393 13.5609 121.261 13.6885C121.129 13.8115 120.971 13.873 120.789 13.873C120.598 13.873 120.438 13.8115 120.311 13.6885C120.183 13.5609 120.119 13.3695 120.119 13.1143Z" fill="#E9DED9"/>
<path d="M126.75 22.7734C125.665 22.7734 124.825 22.4408 124.228 21.7754C123.635 21.1055 123.339 20.1598 123.339 18.9385C123.339 17.6852 123.64 16.7168 124.241 16.0332C124.847 15.3496 125.709 15.0078 126.825 15.0078C127.185 15.0078 127.545 15.0465 127.905 15.124C128.265 15.2015 128.548 15.2926 128.753 15.3975L128.404 16.3613C128.154 16.2611 127.88 16.179 127.584 16.1152C127.288 16.0469 127.026 16.0127 126.798 16.0127C125.276 16.0127 124.515 16.9834 124.515 18.9248C124.515 19.8454 124.699 20.5518 125.068 21.0439C125.442 21.5361 125.993 21.7822 126.723 21.7822C127.347 21.7822 127.987 21.6478 128.644 21.3789V22.3838C128.142 22.6436 127.511 22.7734 126.75 22.7734Z" fill="#E9DED9"/>
<path d="M135.035 22.6367L134.81 21.5703H134.755C134.381 22.0397 134.007 22.3587 133.634 22.5273C133.265 22.6914 132.802 22.7734 132.246 22.7734C131.503 22.7734 130.92 22.582 130.496 22.1992C130.077 21.8164 129.867 21.2718 129.867 20.5654C129.867 19.0524 131.077 18.2594 133.497 18.1865L134.769 18.1455V17.6807C134.769 17.0928 134.641 16.6598 134.386 16.3818C134.135 16.0993 133.732 15.958 133.176 15.958C132.551 15.958 131.845 16.1494 131.057 16.5322L130.708 15.6641C131.077 15.4635 131.48 15.3063 131.918 15.1924C132.36 15.0785 132.802 15.0215 133.244 15.0215C134.137 15.0215 134.798 15.2197 135.227 15.6162C135.66 16.0127 135.876 16.6484 135.876 17.5234V22.6367H135.035ZM132.472 21.8369C133.178 21.8369 133.732 21.6432 134.133 21.2559C134.538 20.8685 134.741 20.3262 134.741 19.6289V18.9521L133.606 19C132.704 19.0319 132.052 19.1732 131.651 19.4238C131.255 19.6699 131.057 20.055 131.057 20.5791C131.057 20.9893 131.18 21.3014 131.426 21.5156C131.676 21.7298 132.025 21.8369 132.472 21.8369Z" fill="#E9DED9"/>
<path d="M139.355 22.6367H138.221V12H139.355V22.6367Z" fill="#E9DED9"/>
<path d="M142.896 22.6367H141.762V12H142.896V22.6367Z" fill="#E9DED9"/>
<path d="M144.113 15.1445H145.33L146.971 19.417C147.331 20.3923 147.554 21.0964 147.641 21.5293H147.695C147.755 21.2969 147.878 20.9004 148.064 20.3398C148.256 19.7747 148.876 18.043 149.924 15.1445H151.141L147.921 23.6758C147.602 24.5189 147.228 25.1159 146.8 25.4668C146.376 25.8223 145.854 26 145.234 26C144.888 26 144.546 25.9613 144.209 25.8838V24.9746C144.46 25.0293 144.74 25.0566 145.05 25.0566C145.829 25.0566 146.385 24.6191 146.718 23.7441L147.135 22.6777L144.113 15.1445Z" fill="#E9DED9"/>
</svg>
