<svg width="164" height="36" viewBox="0 0 164 36" fill="none" xmlns="http://www.w3.org/2000/svg">
<path d="M0 0H164V36H0V0Z" fill="#3B4549"/>
<path fill-rule="evenodd" clip-rule="evenodd" d="M162 2H2V34H162V2ZM0 0V36H164V0H0Z" fill="#3B4549"/>
<path d="M18.5 20.3408C18.5 21.2204 18.181 21.9062 17.543 22.3984C16.9049 22.8906 16.0391 23.1367 14.9453 23.1367C13.7604 23.1367 12.849 22.984 12.2109 22.6787V21.5576C12.6211 21.7308 13.0677 21.8675 13.5508 21.9678C14.0339 22.068 14.5124 22.1182 14.9863 22.1182C15.7611 22.1182 16.3444 21.9723 16.7363 21.6807C17.1283 21.3844 17.3242 20.9743 17.3242 20.4502C17.3242 20.1038 17.2536 19.8213 17.1123 19.6025C16.9756 19.3792 16.7432 19.1742 16.415 18.9873C16.0915 18.8005 15.597 18.5885 14.9316 18.3516C14.002 18.0189 13.3366 17.6247 12.9355 17.1689C12.5391 16.7132 12.3408 16.1185 12.3408 15.3848C12.3408 14.6146 12.6302 14.0016 13.209 13.5459C13.7878 13.0902 14.5534 12.8623 15.5059 12.8623C16.4993 12.8623 17.4131 13.0446 18.2471 13.4092L17.8848 14.4209C17.0599 14.0745 16.2578 13.9014 15.4785 13.9014C14.8633 13.9014 14.3825 14.0335 14.0361 14.2979C13.6898 14.5622 13.5166 14.929 13.5166 15.3984C13.5166 15.7448 13.5804 16.0296 13.708 16.2529C13.8356 16.4717 14.0498 16.6745 14.3506 16.8613C14.6559 17.0436 15.1208 17.2464 15.7451 17.4697C16.7933 17.8434 17.5133 18.2445 17.9053 18.6729C18.3018 19.1012 18.5 19.6572 18.5 20.3408Z" fill="#E9DED9"/>
<path d="M23.5381 23.1367C22.4307 23.1367 21.5557 22.7995 20.9131 22.125C20.2751 21.4505 19.9561 20.514 19.9561 19.3154C19.9561 18.1077 20.2523 17.1484 20.8447 16.4375C21.4417 15.7266 22.2415 15.3711 23.2441 15.3711C24.1829 15.3711 24.9258 15.681 25.4727 16.3008C26.0195 16.916 26.293 17.7295 26.293 18.7412V19.459H21.1318C21.1546 20.3385 21.3757 21.0062 21.7949 21.4619C22.2188 21.9176 22.8135 22.1455 23.5791 22.1455C24.3857 22.1455 25.1833 21.9769 25.9717 21.6396V22.6514C25.5706 22.8245 25.1901 22.9476 24.8301 23.0205C24.4746 23.098 24.0439 23.1367 23.5381 23.1367ZM23.2305 16.3213C22.6289 16.3213 22.1481 16.5173 21.7881 16.9092C21.4326 17.3011 21.223 17.8434 21.1592 18.5361H25.0762C25.0762 17.8206 24.9167 17.2738 24.5977 16.8955C24.2786 16.5127 23.8229 16.3213 23.2305 16.3213Z" fill="#E9DED9"/>
<path d="M32.8418 23L32.6162 21.9336H32.5615C32.1878 22.403 31.8141 22.722 31.4404 22.8906C31.0713 23.0547 30.6087 23.1367 30.0527 23.1367C29.3099 23.1367 28.7266 22.9453 28.3027 22.5625C27.8835 22.1797 27.6738 21.6351 27.6738 20.9287C27.6738 19.4157 28.8838 18.6227 31.3037 18.5498L32.5752 18.5088V18.0439C32.5752 17.4561 32.4476 17.0231 32.1924 16.7451C31.9417 16.4626 31.5384 16.3213 30.9824 16.3213C30.3581 16.3213 29.6517 16.5127 28.8633 16.8955L28.5146 16.0273C28.8838 15.8268 29.2871 15.6696 29.7246 15.5557C30.1667 15.4417 30.6087 15.3848 31.0508 15.3848C31.944 15.3848 32.6048 15.583 33.0332 15.9795C33.4661 16.376 33.6826 17.0117 33.6826 17.8867V23H32.8418ZM30.2783 22.2002C30.9847 22.2002 31.5384 22.0065 31.9395 21.6191C32.3451 21.2318 32.5479 20.6895 32.5479 19.9922V19.3154L31.4131 19.3633C30.5107 19.3952 29.859 19.5365 29.458 19.7871C29.0615 20.0332 28.8633 20.4183 28.8633 20.9424C28.8633 21.3525 28.9863 21.6647 29.2324 21.8789C29.4831 22.0931 29.8317 22.2002 30.2783 22.2002Z" fill="#E9DED9"/>
<path d="M39.4453 15.3711C39.778 15.3711 40.0765 15.3984 40.3408 15.4531L40.1836 16.5059C39.8737 16.4375 39.6003 16.4033 39.3633 16.4033C38.7572 16.4033 38.2376 16.6494 37.8047 17.1416C37.3763 17.6338 37.1621 18.2467 37.1621 18.9805V23H36.0273V15.5078H36.9639L37.0938 16.8955H37.1484C37.4264 16.4079 37.7614 16.0319 38.1533 15.7676C38.5452 15.5033 38.9759 15.3711 39.4453 15.3711Z" fill="#E9DED9"/>
<path d="M44.7363 23.1367C43.6517 23.1367 42.8109 22.804 42.2139 22.1387C41.6214 21.4688 41.3252 20.5231 41.3252 19.3018C41.3252 18.0485 41.626 17.0801 42.2275 16.3965C42.8337 15.7129 43.695 15.3711 44.8115 15.3711C45.1716 15.3711 45.5316 15.4098 45.8916 15.4873C46.2516 15.5648 46.5342 15.6559 46.7393 15.7607L46.3906 16.7246C46.14 16.6243 45.8665 16.5423 45.5703 16.4785C45.2741 16.4102 45.012 16.376 44.7842 16.376C43.262 16.376 42.501 17.3467 42.501 19.2881C42.501 20.2087 42.6855 20.915 43.0547 21.4072C43.4284 21.8994 43.9798 22.1455 44.709 22.1455C45.3333 22.1455 45.9736 22.0111 46.6299 21.7422V22.7471C46.1286 23.0068 45.4974 23.1367 44.7363 23.1367Z" fill="#E9DED9"/>
<path d="M53.541 23V18.1533C53.541 17.5426 53.402 17.0869 53.124 16.7861C52.846 16.4854 52.4108 16.335 51.8184 16.335C51.0299 16.335 50.4534 16.5492 50.0889 16.9775C49.7288 17.4059 49.5488 18.1077 49.5488 19.083V23H48.4141V12.3633H49.5488V15.583C49.5488 15.9704 49.5306 16.2917 49.4941 16.5469H49.5625C49.7858 16.1868 50.1025 15.9043 50.5127 15.6992C50.9274 15.4896 51.3991 15.3848 51.9277 15.3848C52.8438 15.3848 53.5296 15.6035 53.9854 16.041C54.4456 16.474 54.6758 17.1644 54.6758 18.1123V23H53.541Z" fill="#E9DED9"/>
<path d="M65.1006 13.9014C64.0023 13.9014 63.1341 14.2682 62.4961 15.002C61.8626 15.7311 61.5459 16.7314 61.5459 18.0029C61.5459 19.3109 61.8512 20.3226 62.4619 21.0381C63.0771 21.749 63.9521 22.1045 65.0869 22.1045C65.7842 22.1045 66.5794 21.9792 67.4727 21.7285V22.7471C66.7799 23.0068 65.9255 23.1367 64.9092 23.1367C63.4372 23.1367 62.3001 22.6901 61.498 21.7969C60.7005 20.9036 60.3018 19.6344 60.3018 17.9893C60.3018 16.9593 60.4932 16.057 60.876 15.2822C61.2633 14.5075 61.8193 13.9105 62.5439 13.4912C63.2731 13.0719 64.1299 12.8623 65.1143 12.8623C66.1624 12.8623 67.0784 13.0537 67.8623 13.4365L67.3701 14.4346C66.6136 14.0791 65.8571 13.9014 65.1006 13.9014Z" fill="#E9DED9"/>
<path d="M70.6172 23H69.4824V12.3633H70.6172V23Z" fill="#E9DED9"/>
<path d="M77.6309 23L77.4053 21.9336H77.3506C76.9769 22.403 76.6032 22.722 76.2295 22.8906C75.8604 23.0547 75.3978 23.1367 74.8418 23.1367C74.099 23.1367 73.5156 22.9453 73.0918 22.5625C72.6725 22.1797 72.4629 21.6351 72.4629 20.9287C72.4629 19.4157 73.6729 18.6227 76.0928 18.5498L77.3643 18.5088V18.0439C77.3643 17.4561 77.2367 17.0231 76.9814 16.7451C76.7308 16.4626 76.3275 16.3213 75.7715 16.3213C75.1471 16.3213 74.4408 16.5127 73.6523 16.8955L73.3037 16.0273C73.6729 15.8268 74.0762 15.6696 74.5137 15.5557C74.9557 15.4417 75.3978 15.3848 75.8398 15.3848C76.7331 15.3848 77.3939 15.583 77.8223 15.9795C78.2552 16.376 78.4717 17.0117 78.4717 17.8867V23H77.6309ZM75.0674 22.2002C75.7738 22.2002 76.3275 22.0065 76.7285 21.6191C77.1341 21.2318 77.3369 20.6895 77.3369 19.9922V19.3154L76.2021 19.3633C75.2998 19.3952 74.6481 19.5365 74.2471 19.7871C73.8506 20.0332 73.6523 20.4183 73.6523 20.9424C73.6523 21.3525 73.7754 21.6647 74.0215 21.8789C74.2721 22.0931 74.6208 22.2002 75.0674 22.2002Z" fill="#E9DED9"/>
<path d="M85.6494 20.9561C85.6494 21.6533 85.3896 22.1911 84.8701 22.5693C84.3506 22.9476 83.6214 23.1367 82.6826 23.1367C81.6891 23.1367 80.9144 22.9795 80.3584 22.665V21.6123C80.7184 21.7946 81.1035 21.9382 81.5137 22.043C81.9284 22.1478 82.3271 22.2002 82.71 22.2002C83.3024 22.2002 83.7581 22.1068 84.0771 21.9199C84.3962 21.7285 84.5557 21.4391 84.5557 21.0518C84.5557 20.7601 84.4281 20.5117 84.1729 20.3066C83.9222 20.097 83.43 19.8509 82.6963 19.5684C81.999 19.3086 81.5023 19.083 81.2061 18.8916C80.9144 18.6956 80.6956 18.4746 80.5498 18.2285C80.4085 17.9824 80.3379 17.6885 80.3379 17.3467C80.3379 16.736 80.5863 16.2552 81.083 15.9043C81.5798 15.5488 82.2611 15.3711 83.127 15.3711C83.9336 15.3711 84.722 15.5352 85.4922 15.8633L85.0889 16.7861C84.3369 16.4762 83.6556 16.3213 83.0449 16.3213C82.5072 16.3213 82.1016 16.4056 81.8281 16.5742C81.5547 16.7428 81.418 16.9753 81.418 17.2715C81.418 17.472 81.4681 17.6429 81.5684 17.7842C81.6732 17.9255 81.8395 18.0599 82.0674 18.1875C82.2952 18.3151 82.7327 18.4997 83.3799 18.7412C84.2686 19.0648 84.8678 19.3906 85.1777 19.7188C85.4922 20.0469 85.6494 20.4593 85.6494 20.9561Z" fill="#E9DED9"/>
<path d="M92.335 20.9561C92.335 21.6533 92.0752 22.1911 91.5557 22.5693C91.0361 22.9476 90.307 23.1367 89.3682 23.1367C88.3747 23.1367 87.5999 22.9795 87.0439 22.665V21.6123C87.404 21.7946 87.7891 21.9382 88.1992 22.043C88.6139 22.1478 89.0127 22.2002 89.3955 22.2002C89.988 22.2002 90.4437 22.1068 90.7627 21.9199C91.0817 21.7285 91.2412 21.4391 91.2412 21.0518C91.2412 20.7601 91.1136 20.5117 90.8584 20.3066C90.6077 20.097 90.1156 19.8509 89.3818 19.5684C88.6846 19.3086 88.1878 19.083 87.8916 18.8916C87.5999 18.6956 87.3812 18.4746 87.2354 18.2285C87.0941 17.9824 87.0234 17.6885 87.0234 17.3467C87.0234 16.736 87.2718 16.2552 87.7686 15.9043C88.2653 15.5488 88.9466 15.3711 89.8125 15.3711C90.6191 15.3711 91.4076 15.5352 92.1777 15.8633L91.7744 16.7861C91.0225 16.4762 90.3411 16.3213 89.7305 16.3213C89.1927 16.3213 88.7871 16.4056 88.5137 16.5742C88.2402 16.7428 88.1035 16.9753 88.1035 17.2715C88.1035 17.472 88.1536 17.6429 88.2539 17.7842C88.3587 17.9255 88.5251 18.0599 88.7529 18.1875C88.9808 18.3151 89.4183 18.4997 90.0654 18.7412C90.9541 19.0648 91.5534 19.3906 91.8633 19.7188C92.1777 20.0469 92.335 20.4593 92.335 20.9561Z" fill="#E9DED9"/>
<path d="M95.3223 23H94.1875V15.5078H95.3223V23ZM94.0918 13.4775C94.0918 13.2178 94.1556 13.0286 94.2832 12.9102C94.4108 12.7871 94.5703 12.7256 94.7617 12.7256C94.944 12.7256 95.1012 12.7871 95.2334 12.9102C95.3656 13.0332 95.4316 13.2223 95.4316 13.4775C95.4316 13.7327 95.3656 13.9242 95.2334 14.0518C95.1012 14.1748 94.944 14.2363 94.7617 14.2363C94.5703 14.2363 94.4108 14.1748 94.2832 14.0518C94.1556 13.9242 94.0918 13.7327 94.0918 13.4775Z" fill="#E9DED9"/>
<path d="M101.105 16.3896H99.1982V23H98.0635V16.3896H96.7236V15.877L98.0635 15.4668V15.0498C98.0635 13.2087 98.8678 12.2881 100.477 12.2881C100.873 12.2881 101.338 12.3678 101.871 12.5273L101.577 13.4365C101.14 13.2952 100.766 13.2246 100.456 13.2246C100.028 13.2246 99.7109 13.3682 99.5059 13.6553C99.3008 13.9378 99.1982 14.3936 99.1982 15.0225V15.5078H101.105V16.3896ZM103.607 23H102.473V15.5078H103.607V23ZM102.377 13.4775C102.377 13.2178 102.441 13.0286 102.568 12.9102C102.696 12.7871 102.855 12.7256 103.047 12.7256C103.229 12.7256 103.386 12.7871 103.519 12.9102C103.651 13.0332 103.717 13.2223 103.717 13.4775C103.717 13.7327 103.651 13.9242 103.519 14.0518C103.386 14.1748 103.229 14.2363 103.047 14.2363C102.855 14.2363 102.696 14.1748 102.568 14.0518C102.441 13.9242 102.377 13.7327 102.377 13.4775Z" fill="#E9DED9"/>
<path d="M109.008 23.1367C107.923 23.1367 107.082 22.804 106.485 22.1387C105.893 21.4688 105.597 20.5231 105.597 19.3018C105.597 18.0485 105.897 17.0801 106.499 16.3965C107.105 15.7129 107.966 15.3711 109.083 15.3711C109.443 15.3711 109.803 15.4098 110.163 15.4873C110.523 15.5648 110.806 15.6559 111.011 15.7607L110.662 16.7246C110.411 16.6243 110.138 16.5423 109.842 16.4785C109.546 16.4102 109.284 16.376 109.056 16.376C107.534 16.376 106.772 17.3467 106.772 19.2881C106.772 20.2087 106.957 20.915 107.326 21.4072C107.7 21.8994 108.251 22.1455 108.98 22.1455C109.605 22.1455 110.245 22.0111 110.901 21.7422V22.7471C110.4 23.0068 109.769 23.1367 109.008 23.1367Z" fill="#E9DED9"/>
<path d="M117.293 23L117.067 21.9336H117.013C116.639 22.403 116.265 22.722 115.892 22.8906C115.522 23.0547 115.06 23.1367 114.504 23.1367C113.761 23.1367 113.178 22.9453 112.754 22.5625C112.335 22.1797 112.125 21.6351 112.125 20.9287C112.125 19.4157 113.335 18.6227 115.755 18.5498L117.026 18.5088V18.0439C117.026 17.4561 116.899 17.0231 116.644 16.7451C116.393 16.4626 115.99 16.3213 115.434 16.3213C114.809 16.3213 114.103 16.5127 113.314 16.8955L112.966 16.0273C113.335 15.8268 113.738 15.6696 114.176 15.5557C114.618 15.4417 115.06 15.3848 115.502 15.3848C116.395 15.3848 117.056 15.583 117.484 15.9795C117.917 16.376 118.134 17.0117 118.134 17.8867V23H117.293ZM114.729 22.2002C115.436 22.2002 115.99 22.0065 116.391 21.6191C116.796 21.2318 116.999 20.6895 116.999 19.9922V19.3154L115.864 19.3633C114.962 19.3952 114.31 19.5365 113.909 19.7871C113.513 20.0332 113.314 20.4183 113.314 20.9424C113.314 21.3525 113.438 21.6647 113.684 21.8789C113.934 22.0931 114.283 22.2002 114.729 22.2002Z" fill="#E9DED9"/>
<path d="M122.898 22.2002C123.099 22.2002 123.293 22.1865 123.479 22.1592C123.666 22.1273 123.814 22.0954 123.924 22.0635V22.9316C123.801 22.9909 123.618 23.0387 123.377 23.0752C123.14 23.1162 122.926 23.1367 122.734 23.1367C121.285 23.1367 120.561 22.3734 120.561 20.8467V16.3896H119.487V15.8428L120.561 15.3711L121.039 13.7715H121.695V15.5078H123.869V16.3896H121.695V20.7988C121.695 21.25 121.802 21.5964 122.017 21.8379C122.231 22.0794 122.525 22.2002 122.898 22.2002Z" fill="#E9DED9"/>
<path d="M126.562 23H125.428V15.5078H126.562V23ZM125.332 13.4775C125.332 13.2178 125.396 13.0286 125.523 12.9102C125.651 12.7871 125.811 12.7256 126.002 12.7256C126.184 12.7256 126.341 12.7871 126.474 12.9102C126.606 13.0332 126.672 13.2223 126.672 13.4775C126.672 13.7327 126.606 13.9242 126.474 14.0518C126.341 14.1748 126.184 14.2363 126.002 14.2363C125.811 14.2363 125.651 14.1748 125.523 14.0518C125.396 13.9242 125.332 13.7327 125.332 13.4775Z" fill="#E9DED9"/>
<path d="M135.436 19.2471C135.436 20.4684 135.128 21.4232 134.513 22.1113C133.897 22.7949 133.048 23.1367 131.963 23.1367C131.293 23.1367 130.698 22.9795 130.179 22.665C129.659 22.3506 129.258 21.8994 128.976 21.3115C128.693 20.7236 128.552 20.0355 128.552 19.2471C128.552 18.0257 128.857 17.0755 129.468 16.3965C130.078 15.7129 130.926 15.3711 132.011 15.3711C133.059 15.3711 133.891 15.7197 134.506 16.417C135.126 17.1143 135.436 18.0576 135.436 19.2471ZM129.728 19.2471C129.728 20.2041 129.919 20.9333 130.302 21.4346C130.685 21.9359 131.247 22.1865 131.99 22.1865C132.733 22.1865 133.296 21.9382 133.679 21.4414C134.066 20.9401 134.26 20.2087 134.26 19.2471C134.26 18.2946 134.066 17.5723 133.679 17.0801C133.296 16.5833 132.729 16.335 131.977 16.335C131.234 16.335 130.673 16.5788 130.295 17.0664C129.917 17.554 129.728 18.2809 129.728 19.2471Z" fill="#E9DED9"/>
<path d="M142.559 23V18.1533C142.559 17.5426 142.42 17.0869 142.142 16.7861C141.864 16.4854 141.428 16.335 140.836 16.335C140.052 16.335 139.478 16.5469 139.113 16.9707C138.749 17.3945 138.566 18.0941 138.566 19.0693V23H137.432V15.5078H138.354L138.539 16.5332H138.594C138.826 16.1641 139.152 15.8792 139.571 15.6787C139.991 15.4736 140.458 15.3711 140.973 15.3711C141.875 15.3711 142.554 15.5898 143.01 16.0273C143.465 16.4603 143.693 17.1553 143.693 18.1123V23H142.559Z" fill="#E9DED9"/>
<path d="M150.864 20.9561C150.864 21.6533 150.604 22.1911 150.085 22.5693C149.565 22.9476 148.836 23.1367 147.897 23.1367C146.904 23.1367 146.129 22.9795 145.573 22.665V21.6123C145.933 21.7946 146.318 21.9382 146.729 22.043C147.143 22.1478 147.542 22.2002 147.925 22.2002C148.517 22.2002 148.973 22.1068 149.292 21.9199C149.611 21.7285 149.771 21.4391 149.771 21.0518C149.771 20.7601 149.643 20.5117 149.388 20.3066C149.137 20.097 148.645 19.8509 147.911 19.5684C147.214 19.3086 146.717 19.083 146.421 18.8916C146.129 18.6956 145.91 18.4746 145.765 18.2285C145.623 17.9824 145.553 17.6885 145.553 17.3467C145.553 16.736 145.801 16.2552 146.298 15.9043C146.795 15.5488 147.476 15.3711 148.342 15.3711C149.148 15.3711 149.937 15.5352 150.707 15.8633L150.304 16.7861C149.552 16.4762 148.87 16.3213 148.26 16.3213C147.722 16.3213 147.316 16.4056 147.043 16.5742C146.77 16.7428 146.633 16.9753 146.633 17.2715C146.633 17.472 146.683 17.6429 146.783 17.7842C146.888 17.9255 147.054 18.0599 147.282 18.1875C147.51 18.3151 147.948 18.4997 148.595 18.7412C149.483 19.0648 150.083 19.3906 150.393 19.7188C150.707 20.0469 150.864 20.4593 150.864 20.9561Z" fill="#E9DED9"/>
</svg>
