<svg width="236" height="36" viewBox="0 0 236 36" fill="none" xmlns="http://www.w3.org/2000/svg">
<path d="M0 0H236V36H0V0Z" fill="#3B4549"/>
<path d="M52.2 19.92H52.824C52.9733 20.9333 53.3786 21.7333 54.04 22.32C54.7013 22.896 55.5173 23.184 56.488 23.184C56.8826 23.184 57.2453 23.136 57.576 23.04C57.9066 22.944 58.1893 22.8106 58.424 22.64C58.6586 22.4586 58.84 22.2506 58.968 22.016C59.096 21.7706 59.16 21.4986 59.16 21.2C59.16 20.944 59.1173 20.7253 59.032 20.544C58.9573 20.352 58.808 20.1706 58.584 20C58.36 19.8186 58.0506 19.6373 57.656 19.456C57.272 19.2746 56.7706 19.0666 56.152 18.832C54.904 18.352 53.9813 17.7973 53.384 17.168C52.7866 16.528 52.488 15.776 52.488 14.912C52.488 14.4106 52.584 13.952 52.776 13.536C52.968 13.12 53.2346 12.7626 53.576 12.464C53.928 12.1653 54.344 11.936 54.824 11.776C55.3146 11.6053 55.8533 11.52 56.44 11.52C56.984 11.52 57.496 11.6053 57.976 11.776C58.456 11.9466 58.9306 12.2026 59.4 12.544L59.688 11.744H60.072L60.248 15.2H59.624C59.368 14.3253 58.968 13.6586 58.424 13.2C57.88 12.7306 57.2506 12.496 56.536 12.496C55.8746 12.496 55.336 12.6613 54.92 12.992C54.5146 13.312 54.312 13.728 54.312 14.24C54.312 14.464 54.3493 14.6666 54.424 14.848C54.4986 15.0186 54.6373 15.184 54.84 15.344C55.0426 15.504 55.32 15.6693 55.672 15.84C56.024 16 56.4773 16.1813 57.032 16.384C57.7786 16.672 58.4133 16.9653 58.936 17.264C59.4693 17.552 59.9013 17.8666 60.232 18.208C60.5733 18.5386 60.824 18.8906 60.984 19.264C61.144 19.6373 61.224 20.048 61.224 20.496C61.224 21.04 61.1066 21.536 60.872 21.984C60.6373 22.432 60.3066 22.816 59.88 23.136C59.464 23.456 58.9626 23.7066 58.376 23.888C57.8 24.0693 57.16 24.16 56.456 24.16C55.816 24.16 55.24 24.0746 54.728 23.904C54.216 23.7226 53.688 23.4346 53.144 23.04L52.824 24H52.44L52.2 19.92Z" fill="#E9DED9"/>
<path d="M70.5853 22.512C69.6147 23.6106 68.404 24.16 66.9533 24.16C66.292 24.16 65.6893 24.0586 65.1453 23.856C64.612 23.6426 64.1533 23.3493 63.7693 22.976C63.3853 22.592 63.0867 22.1386 62.8733 21.616C62.66 21.0933 62.5533 20.512 62.5533 19.872C62.5533 19.2106 62.6653 18.608 62.8893 18.064C63.1133 17.5093 63.428 17.0346 63.8333 16.64C64.2493 16.2346 64.7347 15.92 65.2893 15.696C65.8547 15.472 66.4733 15.36 67.1453 15.36C68.276 15.36 69.156 15.664 69.7853 16.272C70.4147 16.88 70.7293 17.7333 70.7293 18.832C70.7293 19.0026 70.7027 19.1093 70.6493 19.152C70.596 19.184 70.4467 19.2 70.2013 19.2H65.0493C65.0067 19.296 64.9853 19.472 64.9853 19.728C64.9853 20.7733 65.2093 21.6 65.6573 22.208C66.116 22.816 66.7347 23.12 67.5133 23.12C67.9613 23.12 68.404 23.0186 68.8413 22.816C69.2893 22.6133 69.7213 22.3253 70.1373 21.952L70.5853 22.512ZM67.4813 18.304C67.908 18.304 68.18 18.2826 68.2973 18.24C68.4253 18.1866 68.4893 18.0693 68.4893 17.888C68.4893 17.4186 68.356 17.0346 68.0893 16.736C67.8227 16.4373 67.4867 16.288 67.0813 16.288C66.6227 16.288 66.212 16.48 65.8493 16.864C65.4973 17.2373 65.268 17.7173 65.1613 18.304H67.4813Z" fill="#E9DED9"/>
<path d="M76.8087 19.44C75.9127 19.8453 75.2354 20.224 74.7767 20.576C74.3287 20.9173 74.1047 21.2746 74.1047 21.648C74.1047 21.9573 74.19 22.2026 74.3607 22.384C74.5314 22.5653 74.7447 22.656 75.0007 22.656C75.2567 22.656 75.4967 22.6133 75.7207 22.528C75.9447 22.432 76.1367 22.3093 76.2967 22.16C76.4567 22.0106 76.5794 21.8346 76.6647 21.632C76.7607 21.4186 76.8087 21.1946 76.8087 20.96V19.44ZM76.8087 18.592V17.92C76.8087 17.3013 76.6967 16.8533 76.4727 16.576C76.2594 16.288 75.9234 16.144 75.4647 16.144C75.1554 16.144 74.9207 16.2293 74.7607 16.4C74.6007 16.56 74.4514 16.832 74.3127 17.216C74.2167 17.4826 74.078 17.6906 73.8967 17.84C73.726 17.9893 73.486 18.064 73.1767 18.064C72.878 18.064 72.6487 17.9733 72.4887 17.792C72.3287 17.6106 72.2487 17.3546 72.2487 17.024C72.2487 16.512 72.526 16.1066 73.0807 15.808C73.646 15.5093 74.494 15.36 75.6247 15.36C76.8194 15.36 77.6727 15.5786 78.1847 16.016C78.6967 16.4426 78.9527 17.1626 78.9527 18.176V21.68C78.9527 22.5866 79.134 23.04 79.4967 23.04C79.6994 23.04 79.886 22.9706 80.0567 22.832L80.2967 23.296C80.1474 23.5626 79.9127 23.776 79.5927 23.936C79.2834 24.0853 78.9314 24.16 78.5367 24.16C78.046 24.16 77.6727 24.0106 77.4167 23.712C77.1607 23.4133 77.0327 22.992 77.0327 22.448H76.9527C76.6434 23.0026 76.2434 23.424 75.7527 23.712C75.262 24 74.702 24.144 74.0727 24.144C73.4007 24.144 72.862 23.9573 72.4567 23.584C72.0514 23.2 71.8487 22.704 71.8487 22.096C71.8487 21.6266 72.0567 21.1893 72.4727 20.784C72.8887 20.368 73.582 19.9626 74.5527 19.568L76.8087 18.592Z" fill="#E9DED9"/>
<path d="M84.6202 21.52C84.6202 21.936 84.6362 22.2666 84.6682 22.512C84.7109 22.7466 84.7909 22.928 84.9082 23.056C85.0255 23.184 85.1962 23.2693 85.4202 23.312C85.6442 23.344 85.9429 23.36 86.3162 23.36V24H80.9722V23.36C81.2922 23.3386 81.5482 23.3066 81.7402 23.264C81.9322 23.2213 82.0762 23.136 82.1722 23.008C82.2682 22.88 82.3269 22.6986 82.3482 22.464C82.3802 22.2186 82.3962 21.8933 82.3962 21.488V19.536C82.3962 18.8746 82.3802 18.3466 82.3482 17.952C82.3162 17.5573 82.2469 17.2533 82.1402 17.04C82.0335 16.8266 81.8789 16.688 81.6762 16.624C81.4842 16.5493 81.2282 16.512 80.9082 16.512V15.952L84.1082 15.36L84.3642 17.2H84.4282C84.7162 16.6346 85.0949 16.1866 85.5642 15.856C86.0335 15.5253 86.5295 15.36 87.0522 15.36C87.4575 15.36 87.7882 15.4613 88.0442 15.664C88.3002 15.8666 88.4282 16.1226 88.4282 16.432C88.4282 16.7733 88.3269 17.0613 88.1242 17.296C87.9322 17.5306 87.6655 17.648 87.3242 17.648C87.1642 17.648 87.0202 17.616 86.8922 17.552C86.7642 17.488 86.6469 17.4186 86.5402 17.344C86.4442 17.2586 86.3429 17.184 86.2362 17.12C86.1402 17.0453 86.0389 17.008 85.9322 17.008C85.7295 17.008 85.5375 17.1413 85.3562 17.408C85.1749 17.6746 85.0255 18.032 84.9082 18.48C84.8229 18.8 84.7535 19.1626 84.7002 19.568C84.6469 19.9626 84.6202 20.3573 84.6202 20.752V21.52Z" fill="#E9DED9"/>
<path d="M96.8152 22.672C96.4099 23.12 95.9032 23.4666 95.2952 23.712C94.6979 23.9573 94.0472 24.08 93.3432 24.08C92.6925 24.08 92.1005 23.9786 91.5672 23.776C91.0339 23.5626 90.5752 23.2693 90.1912 22.896C89.8072 22.5226 89.5085 22.0746 89.2952 21.552C89.0925 21.0186 88.9912 20.432 88.9912 19.792C88.9912 19.1306 89.1032 18.528 89.3272 17.984C89.5512 17.44 89.8659 16.976 90.2712 16.592C90.6765 16.1973 91.1619 15.8933 91.7272 15.68C92.2925 15.4666 92.9165 15.36 93.5992 15.36C94.0792 15.36 94.5219 15.408 94.9272 15.504C95.3432 15.6 95.6952 15.7333 95.9832 15.904C96.2819 16.0746 96.5165 16.2773 96.6872 16.512C96.8579 16.736 96.9432 16.9813 96.9432 17.248C96.9432 17.5573 96.8525 17.8026 96.6712 17.984C96.5005 18.1653 96.2659 18.256 95.9672 18.256C95.7219 18.256 95.5032 18.192 95.3112 18.064C95.1299 17.936 94.9485 17.728 94.7672 17.44C94.6072 17.184 94.4685 16.9813 94.3512 16.832C94.2445 16.6826 94.1432 16.5706 94.0472 16.496C93.9512 16.4106 93.8552 16.3573 93.7592 16.336C93.6632 16.304 93.5459 16.288 93.4072 16.288C92.7885 16.288 92.3085 16.576 91.9672 17.152C91.6259 17.728 91.4552 18.5333 91.4552 19.568C91.4552 20.6773 91.6579 21.5306 92.0632 22.128C92.4792 22.7253 93.0712 23.024 93.8392 23.024C94.2765 23.024 94.7139 22.944 95.1512 22.784C95.5885 22.6133 96.0045 22.3733 96.3992 22.064L96.8152 22.672Z" fill="#E9DED9"/>
<path d="M101.302 21.376C101.302 21.8133 101.313 22.16 101.334 22.416C101.366 22.6613 101.425 22.8533 101.51 22.992C101.606 23.1306 101.745 23.2213 101.926 23.264C102.118 23.3066 102.374 23.3386 102.694 23.36V24H97.6545V23.36C97.9745 23.3386 98.2304 23.3066 98.4225 23.264C98.6145 23.2213 98.7585 23.136 98.8545 23.008C98.9505 22.88 99.0091 22.6986 99.0305 22.464C99.0625 22.2186 99.0785 21.8933 99.0785 21.488V14.912C99.0785 14.272 99.0678 13.7706 99.0465 13.408C99.0358 13.0346 99.0091 12.752 98.9665 12.56C98.9345 12.4213 98.8971 12.3146 98.8545 12.24C98.8118 12.1546 98.7425 12.0906 98.6465 12.048C98.5611 11.9946 98.4385 11.9626 98.2785 11.952C98.1291 11.9306 97.9371 11.92 97.7025 11.92V11.328L101.27 10.72V16.624H101.334C101.665 16.1866 102.033 15.8666 102.438 15.664C102.854 15.4613 103.35 15.36 103.926 15.36C104.972 15.36 105.782 15.68 106.358 16.32C106.636 16.64 106.854 17.0293 107.014 17.488C107.174 17.936 107.254 18.4053 107.254 18.896V21.376C107.254 21.824 107.265 22.176 107.286 22.432C107.308 22.6773 107.361 22.8693 107.446 23.008C107.542 23.136 107.681 23.2213 107.862 23.264C108.044 23.3066 108.294 23.3386 108.614 23.36V24H103.606V23.36C103.926 23.3493 104.177 23.3226 104.358 23.28C104.55 23.2266 104.694 23.136 104.79 23.008C104.897 22.88 104.961 22.6986 104.982 22.464C105.014 22.2186 105.03 21.8933 105.03 21.488V19.52C105.03 18.3893 104.908 17.5893 104.662 17.12C104.417 16.6506 103.996 16.416 103.398 16.416C102.758 16.416 102.252 16.6506 101.878 17.12C101.697 17.3653 101.553 17.6693 101.446 18.032C101.35 18.3946 101.302 18.8 101.302 19.248V21.376Z" fill="#E9DED9"/>
<path d="M126.606 20.896L128.766 14.72C129.022 14.0053 129.15 13.472 129.15 13.12C129.15 12.7893 129.033 12.576 128.798 12.48C128.574 12.3733 128.222 12.32 127.742 12.32V11.68H132.286V12.32C131.881 12.32 131.513 12.4213 131.182 12.624C130.862 12.816 130.617 13.1466 130.446 13.616L126.59 24.16H125.166L122.382 15.712L119.214 24.16H117.886L114.494 14.816C114.291 14.272 114.105 13.8346 113.934 13.504C113.763 13.1733 113.582 12.9226 113.39 12.752C113.198 12.5813 112.99 12.4693 112.766 12.416C112.542 12.3626 112.275 12.336 111.966 12.336V11.68H118.014V12.336C117.47 12.336 117.097 12.3893 116.894 12.496C116.691 12.592 116.59 12.7573 116.59 12.992C116.59 13.0773 116.595 13.1626 116.606 13.248C116.617 13.3226 116.638 13.4133 116.67 13.52C116.702 13.616 116.739 13.7386 116.782 13.888C116.835 14.0373 116.905 14.224 116.99 14.448L119.23 20.896L121.822 13.824C121.715 13.536 121.609 13.3013 121.502 13.12C121.395 12.9386 121.267 12.7946 121.118 12.688C120.979 12.5813 120.819 12.5066 120.638 12.464C120.457 12.4106 120.238 12.368 119.982 12.336V11.68H125.63V12.336C125.182 12.336 124.851 12.3946 124.638 12.512C124.425 12.6186 124.318 12.832 124.318 13.152C124.318 13.312 124.339 13.4986 124.382 13.712C124.435 13.9253 124.505 14.1706 124.59 14.448L126.606 20.896Z" fill="#E9DED9"/>
<path d="M135.948 21.376C135.948 21.8026 135.964 22.144 135.996 22.4C136.028 22.656 136.092 22.8533 136.188 22.992C136.284 23.1306 136.423 23.2266 136.604 23.28C136.785 23.3226 137.031 23.3493 137.34 23.36V24H132.3V23.36C132.599 23.3493 132.839 23.3173 133.02 23.264C133.212 23.2 133.356 23.104 133.452 22.976C133.559 22.8373 133.628 22.6506 133.66 22.416C133.703 22.1706 133.724 21.8613 133.724 21.488V19.52C133.724 18.9013 133.713 18.3946 133.692 18C133.671 17.5946 133.644 17.3173 133.612 17.168C133.559 16.9013 133.436 16.7253 133.244 16.64C133.063 16.5546 132.727 16.512 132.236 16.512V15.968L135.948 15.36V21.376ZM133.596 11.968C133.596 11.616 133.713 11.3226 133.948 11.088C134.193 10.8426 134.487 10.72 134.828 10.72C135.18 10.72 135.473 10.8426 135.708 11.088C135.953 11.3226 136.076 11.616 136.076 11.968C136.076 12.3093 135.953 12.6026 135.708 12.848C135.473 13.0826 135.18 13.2 134.828 13.2C134.487 13.2 134.193 13.0826 133.948 12.848C133.713 12.6026 133.596 12.3093 133.596 11.968Z" fill="#E9DED9"/>
<path d="M141.569 21.376C141.569 21.8026 141.585 22.144 141.617 22.4C141.649 22.656 141.713 22.8533 141.809 22.992C141.905 23.1306 142.044 23.2266 142.225 23.28C142.407 23.3226 142.652 23.3493 142.961 23.36V24H137.921V23.36C138.22 23.3493 138.46 23.3173 138.641 23.264C138.833 23.2 138.977 23.104 139.073 22.976C139.18 22.8373 139.249 22.6506 139.281 22.416C139.324 22.1706 139.345 21.8613 139.345 21.488V14.88C139.345 14.2613 139.335 13.7546 139.313 13.36C139.292 12.9546 139.265 12.6773 139.233 12.528C139.18 12.2613 139.057 12.0853 138.865 12C138.684 11.9146 138.348 11.872 137.857 11.872V11.328L141.569 10.72V21.376Z" fill="#E9DED9"/>
<path d="M151.001 22.976H150.937C150.201 23.7653 149.246 24.16 148.073 24.16C147.465 24.16 146.905 24.0533 146.393 23.84C145.891 23.6266 145.454 23.328 145.081 22.944C144.718 22.56 144.435 22.1066 144.233 21.584C144.03 21.0506 143.929 20.464 143.929 19.824C143.929 19.184 144.03 18.592 144.233 18.048C144.446 17.504 144.729 17.0346 145.081 16.64C145.443 16.2346 145.87 15.92 146.361 15.696C146.862 15.472 147.401 15.36 147.977 15.36C148.51 15.36 148.979 15.44 149.385 15.6C149.801 15.76 150.163 16.032 150.473 16.416H150.537V15.056C150.537 14.4266 150.526 13.888 150.505 13.44C150.494 12.9813 150.473 12.6826 150.441 12.544C150.387 12.32 150.222 12.16 149.945 12.064C149.678 11.9573 149.262 11.904 148.697 11.904V11.36L152.745 10.72V19.872C152.745 20.672 152.75 21.2906 152.761 21.728C152.782 22.1546 152.814 22.48 152.857 22.704C152.878 22.8426 152.91 22.9546 152.953 23.04C152.995 23.1253 153.059 23.1946 153.145 23.248C153.23 23.2906 153.342 23.3226 153.481 23.344C153.63 23.3546 153.817 23.36 154.041 23.36V23.984L151.001 24.16V22.976ZM150.505 19.408C150.505 19.0026 150.462 18.6293 150.377 18.288C150.291 17.936 150.163 17.6266 149.993 17.36C149.801 17.0506 149.555 16.816 149.257 16.656C148.958 16.496 148.638 16.416 148.297 16.416C147.667 16.416 147.187 16.704 146.857 17.28C146.526 17.856 146.361 18.6933 146.361 19.792C146.361 20.9013 146.526 21.7546 146.857 22.352C147.187 22.9493 147.662 23.248 148.281 23.248C148.633 23.248 148.969 23.1573 149.289 22.976C149.609 22.7946 149.87 22.5493 150.073 22.24C150.222 22.0053 150.329 21.7173 150.393 21.376C150.467 21.024 150.505 20.576 150.505 20.032V19.408Z" fill="#E9DED9"/>
<path d="M163.998 21.424C163.998 21.8293 164.014 22.1546 164.046 22.4C164.078 22.6453 164.142 22.8373 164.238 22.976C164.345 23.1146 164.489 23.2106 164.67 23.264C164.851 23.3173 165.091 23.3493 165.39 23.36V24H160.67V23.36C160.905 23.3493 161.091 23.3173 161.23 23.264C161.379 23.2106 161.491 23.12 161.566 22.992C161.651 22.8533 161.705 22.672 161.726 22.448C161.758 22.2133 161.774 21.9093 161.774 21.536V12.512C161.507 12.2346 161.219 12.0213 160.91 11.872C160.611 11.7226 160.323 11.648 160.046 11.648C159.481 11.648 159.075 11.9733 158.83 12.624C158.745 12.8693 158.681 13.1466 158.638 13.456C158.595 13.7546 158.574 14.112 158.574 14.528V15.776H160.414V16.688H158.574V21.344C158.574 21.7386 158.59 22.064 158.622 22.32C158.665 22.576 158.734 22.784 158.83 22.944C158.937 23.0933 159.075 23.2 159.246 23.264C159.427 23.3173 159.651 23.3493 159.918 23.36V24H155.166V23.36C155.422 23.3493 155.63 23.3173 155.79 23.264C155.95 23.2106 156.067 23.12 156.142 22.992C156.227 22.864 156.281 22.6826 156.302 22.448C156.334 22.2026 156.35 21.8773 156.35 21.472V16.688H154.702V15.776H156.35V14.624C156.35 13.3973 156.707 12.4426 157.422 11.76C158.137 11.0666 159.129 10.72 160.398 10.72C160.835 10.72 161.267 10.7626 161.694 10.848C162.121 10.9226 162.446 11.0186 162.67 11.136L163.998 10.72V21.424Z" fill="#E9DED9"/>
<path d="M170.975 15.36C171.615 15.36 172.217 15.472 172.783 15.696C173.359 15.9093 173.86 16.208 174.287 16.592C174.724 16.976 175.065 17.4346 175.311 17.968C175.567 18.4906 175.695 19.0666 175.695 19.696C175.695 20.3466 175.567 20.944 175.311 21.488C175.065 22.032 174.724 22.5013 174.287 22.896C173.86 23.2906 173.359 23.6 172.783 23.824C172.217 24.048 171.615 24.16 170.975 24.16C170.345 24.16 169.748 24.0533 169.183 23.84C168.617 23.616 168.121 23.3066 167.695 22.912C167.268 22.5173 166.932 22.048 166.687 21.504C166.441 20.9493 166.319 20.3466 166.319 19.696C166.319 19.0666 166.441 18.4853 166.687 17.952C166.932 17.4186 167.268 16.96 167.695 16.576C168.121 16.192 168.617 15.8933 169.183 15.68C169.748 15.4666 170.345 15.36 170.975 15.36ZM170.975 16.288C170.655 16.288 170.361 16.3733 170.095 16.544C169.828 16.704 169.599 16.9333 169.407 17.232C169.225 17.5306 169.081 17.8933 168.975 18.32C168.879 18.736 168.831 19.2 168.831 19.712C168.831 20.2453 168.879 20.7253 168.975 21.152C169.081 21.5786 169.225 21.9413 169.407 22.24C169.599 22.5386 169.823 22.7733 170.079 22.944C170.345 23.104 170.644 23.184 170.975 23.184C171.305 23.184 171.604 23.104 171.871 22.944C172.148 22.7733 172.383 22.5386 172.575 22.24C172.767 21.9306 172.916 21.5626 173.023 21.136C173.129 20.7093 173.183 20.2346 173.183 19.712C173.183 19.2 173.129 18.736 173.023 18.32C172.916 17.904 172.767 17.5466 172.575 17.248C172.383 16.9386 172.148 16.704 171.871 16.544C171.604 16.3733 171.305 16.288 170.975 16.288Z" fill="#E9DED9"/>
<path d="M180.938 24.16H179.738L177.546 17.584C177.375 17.072 177.178 16.7146 176.954 16.512C176.73 16.2986 176.431 16.1813 176.058 16.16V15.52H180.634V16.16C180.25 16.1706 179.983 16.2293 179.834 16.336C179.684 16.432 179.61 16.6026 179.61 16.848C179.61 16.9653 179.626 17.0933 179.658 17.232C179.69 17.3706 179.732 17.5306 179.786 17.712L180.794 21.456H180.858L183.098 15.52H184.41L186.09 21.456H186.17L187.45 18.144C187.556 17.8773 187.631 17.648 187.674 17.456C187.716 17.2533 187.738 17.0773 187.738 16.928C187.738 16.6506 187.647 16.4533 187.466 16.336C187.284 16.2186 187.039 16.16 186.73 16.16V15.52H190.17V16.16C189.978 16.16 189.818 16.1813 189.69 16.224C189.562 16.2666 189.434 16.368 189.306 16.528C189.178 16.688 189.039 16.9333 188.89 17.264C188.74 17.5946 188.554 18.048 188.33 18.624L186.122 24.16H184.858L183.162 18.48H183.098L180.938 24.16Z" fill="#E9DED9"/>
<path d="M198.523 22.512C197.552 23.6106 196.341 24.16 194.891 24.16C194.229 24.16 193.627 24.0586 193.083 23.856C192.549 23.6426 192.091 23.3493 191.707 22.976C191.323 22.592 191.024 22.1386 190.811 21.616C190.597 21.0933 190.491 20.512 190.491 19.872C190.491 19.2106 190.603 18.608 190.827 18.064C191.051 17.5093 191.365 17.0346 191.771 16.64C192.187 16.2346 192.672 15.92 193.227 15.696C193.792 15.472 194.411 15.36 195.083 15.36C196.213 15.36 197.093 15.664 197.723 16.272C198.352 16.88 198.667 17.7333 198.667 18.832C198.667 19.0026 198.64 19.1093 198.587 19.152C198.533 19.184 198.384 19.2 198.139 19.2H192.987C192.944 19.296 192.923 19.472 192.923 19.728C192.923 20.7733 193.147 21.6 193.595 22.208C194.053 22.816 194.672 23.12 195.451 23.12C195.899 23.12 196.341 23.0186 196.779 22.816C197.227 22.6133 197.659 22.3253 198.075 21.952L198.523 22.512ZM195.419 18.304C195.845 18.304 196.117 18.2826 196.235 18.24C196.363 18.1866 196.427 18.0693 196.427 17.888C196.427 17.4186 196.293 17.0346 196.027 16.736C195.76 16.4373 195.424 16.288 195.019 16.288C194.56 16.288 194.15 16.48 193.787 16.864C193.435 17.2373 193.206 17.7173 193.099 18.304H195.419Z" fill="#E9DED9"/>
<path d="M203.37 21.52C203.37 21.936 203.386 22.2666 203.418 22.512C203.461 22.7466 203.541 22.928 203.658 23.056C203.776 23.184 203.946 23.2693 204.17 23.312C204.394 23.344 204.693 23.36 205.066 23.36V24H199.722V23.36C200.042 23.3386 200.298 23.3066 200.49 23.264C200.682 23.2213 200.826 23.136 200.922 23.008C201.018 22.88 201.077 22.6986 201.098 22.464C201.13 22.2186 201.146 21.8933 201.146 21.488V19.536C201.146 18.8746 201.13 18.3466 201.098 17.952C201.066 17.5573 200.997 17.2533 200.89 17.04C200.784 16.8266 200.629 16.688 200.426 16.624C200.234 16.5493 199.978 16.512 199.658 16.512V15.952L202.858 15.36L203.114 17.2H203.178C203.466 16.6346 203.845 16.1866 204.314 15.856C204.784 15.5253 205.28 15.36 205.802 15.36C206.208 15.36 206.538 15.4613 206.794 15.664C207.05 15.8666 207.178 16.1226 207.178 16.432C207.178 16.7733 207.077 17.0613 206.874 17.296C206.682 17.5306 206.416 17.648 206.074 17.648C205.914 17.648 205.77 17.616 205.642 17.552C205.514 17.488 205.397 17.4186 205.29 17.344C205.194 17.2586 205.093 17.184 204.986 17.12C204.89 17.0453 204.789 17.008 204.682 17.008C204.48 17.008 204.288 17.1413 204.106 17.408C203.925 17.6746 203.776 18.032 203.658 18.48C203.573 18.8 203.504 19.1626 203.45 19.568C203.397 19.9626 203.37 20.3573 203.37 20.752V21.52Z" fill="#E9DED9"/>
<path d="M208.571 24H208.075V21.088H208.747C208.928 21.856 209.19 22.416 209.531 22.768C209.872 23.12 210.315 23.296 210.859 23.296C211.254 23.296 211.558 23.216 211.771 23.056C211.995 22.8853 212.107 22.656 212.107 22.368C212.107 22.0693 211.974 21.7813 211.707 21.504C211.44 21.216 211.008 20.912 210.411 20.592C209.6 20.1546 209.019 19.7226 208.667 19.296C208.315 18.8586 208.139 18.368 208.139 17.824C208.139 17.472 208.203 17.1466 208.331 16.848C208.47 16.5386 208.651 16.272 208.875 16.048C209.11 15.824 209.387 15.6533 209.707 15.536C210.027 15.408 210.374 15.344 210.747 15.344C211.078 15.344 211.403 15.392 211.723 15.488C212.054 15.584 212.342 15.7173 212.587 15.888L212.875 15.504H213.291V17.92H212.667C212.422 17.312 212.166 16.8746 211.899 16.608C211.643 16.3413 211.328 16.208 210.955 16.208C210.656 16.208 210.416 16.288 210.235 16.448C210.064 16.608 209.979 16.8213 209.979 17.088C209.979 17.3866 210.107 17.6693 210.363 17.936C210.63 18.2026 211.067 18.496 211.675 18.816C212.102 19.0506 212.47 19.28 212.779 19.504C213.088 19.728 213.339 19.9573 213.531 20.192C213.723 20.416 213.862 20.656 213.947 20.912C214.043 21.1573 214.091 21.424 214.091 21.712C214.091 22.0853 214.022 22.4213 213.883 22.72C213.744 23.0186 213.547 23.2746 213.291 23.488C213.035 23.7013 212.726 23.8666 212.363 23.984C212.011 24.1013 211.616 24.16 211.179 24.16C210.72 24.16 210.294 24.1013 209.899 23.984C209.504 23.856 209.179 23.6746 208.923 23.44L208.571 24Z" fill="#E9DED9"/>
<g clip-path="url(#clip0)">
<path d="M24.9515 18.5912C25.6938 18.5912 26.2956 18.03 26.2956 17.3377C26.2956 16.6454 25.6938 16.0842 24.9515 16.0842C24.2091 16.0842 23.6074 16.6454 23.6074 17.3377C23.6074 18.03 24.2091 18.5912 24.9515 18.5912Z" fill="#E9DED9"/>
<path d="M24.8565 27.2815L23.6483 18.0755H26.2956L24.8565 27.2815Z" fill="#E9DED9"/>
<path d="M33.6634 12.4272L26.2956 18.0755L24.9709 15.7821L33.6634 12.4272Z" fill="#E9DED9"/>
<path d="M16.3948 12.2266L24.9709 15.7821L23.6483 18.0755L16.3948 12.2266Z" fill="#E9DED9"/>
<path d="M27.219 9.92233C26.3701 9.42018 25.6188 8.76897 25.0011 8C24.3818 8.76904 23.6291 9.42022 22.7789 9.92233C21.4714 10.6537 19.6462 12.2826 22.0561 15.1564C24.466 18.0302 25.0011 18.3927 25.0011 18.3927C25.0011 18.3927 25.5362 18.028 27.9461 15.1564C30.356 12.2848 28.5286 10.6537 27.219 9.92233Z" fill="#E9DED9"/>
<path d="M16.5545 20.589C16.5443 21.5767 16.3565 22.5546 16 23.4757C16.976 23.6266 17.9166 23.9526 18.7767 24.438C20.0712 25.2039 22.3862 25.9698 23.6699 22.4466C24.9536 18.9234 25.0011 18.2783 25.0011 18.2783C25.0011 18.2783 24.4142 17.9979 20.7249 17.3463C17.0356 16.6947 16.5329 19.0917 16.5545 20.589Z" fill="#E9DED9"/>
<path d="M31.2255 24.438C32.0849 23.9529 33.0248 23.6269 34 23.4757C33.6435 22.5545 33.4557 21.5767 33.4455 20.589C33.4671 19.0917 32.9687 16.7055 29.2751 17.3528C25.5815 18 25.0011 18.2848 25.0011 18.2848C25.0011 18.2848 25.0486 18.932 26.3301 22.4531C27.6117 25.9741 29.9375 25.2039 31.2255 24.438Z" fill="#E9DED9"/>
<path d="M25.0011 17.1521C24.8849 17.1526 24.7711 17.1184 24.6743 17.0541C24.5774 16.9898 24.5019 16.8982 24.4572 16.7909C24.4125 16.6835 24.4007 16.5654 24.4233 16.4513C24.4459 16.3373 24.5018 16.2325 24.584 16.1503C24.6662 16.0681 24.771 16.0122 24.885 15.9896C24.999 15.9671 25.1172 15.9789 25.2245 16.0235C25.3318 16.0682 25.4235 16.1438 25.4878 16.2406C25.5521 16.3374 25.5862 16.4512 25.5858 16.5674C25.5852 16.7223 25.5234 16.8707 25.4139 16.9803C25.3044 17.0898 25.156 17.1516 25.0011 17.1521ZM25.0011 16.3215C24.9524 16.3211 24.9046 16.3351 24.8639 16.3619C24.8231 16.3887 24.7913 16.4269 24.7723 16.4718C24.7534 16.5167 24.7482 16.5662 24.7575 16.6141C24.7667 16.6619 24.79 16.706 24.8243 16.7406C24.8586 16.7752 24.9024 16.7988 24.9502 16.8085C24.9979 16.8182 25.0475 16.8134 25.0926 16.7949C25.1376 16.7763 25.1762 16.7448 25.2033 16.7043C25.2304 16.6638 25.2449 16.6162 25.2449 16.5674C25.2449 16.5026 25.2193 16.4404 25.1736 16.3943C25.128 16.3482 25.066 16.3221 25.0011 16.3215Z" fill="#829891"/>
<path d="M23.4067 19.7346C23.2639 19.7345 23.1261 19.6819 23.0195 19.5868C22.9129 19.4918 22.8449 19.3609 22.8285 19.219C22.8177 19.1431 22.8222 19.0657 22.8418 18.9916C22.8615 18.9175 22.8958 18.848 22.9429 18.7875C22.9896 18.7262 23.048 18.6749 23.1147 18.6363C23.1814 18.5977 23.255 18.5727 23.3314 18.5626C23.4078 18.5526 23.4854 18.5578 23.5598 18.5779C23.6342 18.5979 23.7039 18.6325 23.7649 18.6796C23.8841 18.7756 23.9614 18.914 23.9806 19.0658C23.9978 19.2183 23.9545 19.3714 23.8602 19.4924C23.7658 19.6134 23.6278 19.6926 23.4758 19.713L23.4067 19.7346ZM23.4067 18.904H23.3744C23.3421 18.9081 23.3109 18.9186 23.2828 18.9349C23.2546 18.9512 23.23 18.9729 23.2104 18.9989C23.184 19.0306 23.166 19.0684 23.158 19.1089C23.1501 19.1493 23.1524 19.1912 23.1648 19.2305C23.1773 19.2698 23.1994 19.3054 23.2292 19.3339C23.259 19.3624 23.2954 19.383 23.3352 19.3938C23.3751 19.4045 23.4169 19.4051 23.457 19.3954C23.4971 19.3858 23.5341 19.3662 23.5647 19.3384C23.5952 19.3107 23.6183 19.2758 23.6318 19.2368C23.6453 19.1978 23.6487 19.1561 23.6419 19.1154C23.6384 19.0835 23.6284 19.0527 23.6124 19.0248C23.5964 18.997 23.5749 18.9727 23.5491 18.9536C23.509 18.9223 23.4598 18.9049 23.4089 18.904H23.4067Z" fill="#829891"/>
<path d="M26.5459 19.7886C26.4302 19.7886 26.3172 19.7543 26.221 19.69C26.1249 19.6258 26.0499 19.5345 26.0057 19.4276C25.9614 19.3208 25.9499 19.2032 25.9724 19.0898C25.995 18.9764 26.0507 18.8722 26.1324 18.7905C26.2142 18.7087 26.3184 18.653 26.4318 18.6304C26.5452 18.6079 26.6628 18.6195 26.7696 18.6637C26.8764 18.708 26.9678 18.7829 27.032 18.8791C27.0963 18.9752 27.1305 19.0882 27.1305 19.2039C27.13 19.3588 27.0682 19.5072 26.9587 19.6167C26.8491 19.7262 26.7008 19.788 26.5459 19.7886ZM26.5459 18.9579C26.497 18.9571 26.4491 18.9708 26.4081 18.9973C26.3671 19.0238 26.3349 19.0619 26.3156 19.1067C26.2963 19.1516 26.2908 19.2012 26.2998 19.2492C26.3088 19.2972 26.3319 19.3414 26.3661 19.3762C26.4003 19.411 26.4441 19.4349 26.492 19.4448C26.5398 19.4546 26.5895 19.45 26.6346 19.4315C26.6798 19.413 26.7185 19.3815 26.7457 19.341C26.773 19.3004 26.7875 19.2527 26.7875 19.2039C26.7875 19.1394 26.7622 19.0775 26.717 19.0315C26.6718 18.9855 26.6103 18.9591 26.5459 18.9579Z" fill="#829891"/>
<path d="M25.2578 18.1489L23.9957 16.4919L24.7422 18.4445L26.0043 20.1036L25.2578 18.1489Z" fill="#829891"/>
<path d="M25.2578 18.4466L26.0626 16.5243L24.7443 18.1467L23.9374 20.0691L25.2578 18.4466Z" fill="#829891"/>
<path d="M24.9989 18.5933L27.0658 18.3301L25.0011 18L22.9342 18.2632L24.9989 18.5933Z" fill="#829891"/>
</g>
<defs>
<clipPath id="clip0">
<rect x="16" y="8" width="18" height="19.2816" fill="white"/>
</clipPath>
</defs>
</svg>
