<svg width="236" height="36" viewBox="0 0 236 36" fill="none" xmlns="http://www.w3.org/2000/svg">
<path d="M0 0H236V36H0V0Z" fill="#3B4549"/>
<path d="M52.3406 19.92H52.9646C53.1139 20.9333 53.5192 21.7333 54.1806 22.32C54.8419 22.896 55.6579 23.184 56.6286 23.184C57.0232 23.184 57.3859 23.136 57.7166 23.04C58.0472 22.944 58.3299 22.8106 58.5646 22.64C58.7992 22.4586 58.9806 22.2506 59.1086 22.016C59.2366 21.7706 59.3006 21.4986 59.3006 21.2C59.3006 20.944 59.2579 20.7253 59.1726 20.544C59.0979 20.352 58.9486 20.1706 58.7246 20C58.5006 19.8186 58.1912 19.6373 57.7966 19.456C57.4126 19.2746 56.9112 19.0666 56.2926 18.832C55.0446 18.352 54.1219 17.7973 53.5246 17.168C52.9272 16.528 52.6286 15.776 52.6286 14.912C52.6286 14.4106 52.7246 13.952 52.9166 13.536C53.1086 13.12 53.3752 12.7626 53.7166 12.464C54.0686 12.1653 54.4846 11.936 54.9646 11.776C55.4552 11.6053 55.9939 11.52 56.5806 11.52C57.1246 11.52 57.6366 11.6053 58.1166 11.776C58.5966 11.9466 59.0712 12.2026 59.5406 12.544L59.8286 11.744H60.2126L60.3886 15.2H59.7646C59.5086 14.3253 59.1086 13.6586 58.5646 13.2C58.0206 12.7306 57.3912 12.496 56.6766 12.496C56.0152 12.496 55.4766 12.6613 55.0606 12.992C54.6552 13.312 54.4526 13.728 54.4526 14.24C54.4526 14.464 54.4899 14.6666 54.5646 14.848C54.6392 15.0186 54.7779 15.184 54.9806 15.344C55.1832 15.504 55.4606 15.6693 55.8126 15.84C56.1646 16 56.6179 16.1813 57.1726 16.384C57.9192 16.672 58.5539 16.9653 59.0766 17.264C59.6099 17.552 60.0419 17.8666 60.3726 18.208C60.7139 18.5386 60.9646 18.8906 61.1246 19.264C61.2846 19.6373 61.3646 20.048 61.3646 20.496C61.3646 21.04 61.2472 21.536 61.0126 21.984C60.7779 22.432 60.4472 22.816 60.0206 23.136C59.6046 23.456 59.1032 23.7066 58.5166 23.888C57.9406 24.0693 57.3006 24.16 56.5966 24.16C55.9566 24.16 55.3806 24.0746 54.8686 23.904C54.3566 23.7226 53.8286 23.4346 53.2846 23.04L52.9646 24H52.5806L52.3406 19.92Z" fill="#E9DED9"/>
<path d="M70.726 22.512C69.7553 23.6106 68.5446 24.16 67.094 24.16C66.4326 24.16 65.83 24.0586 65.286 23.856C64.7526 23.6426 64.294 23.3493 63.91 22.976C63.526 22.592 63.2273 22.1386 63.014 21.616C62.8006 21.0933 62.694 20.512 62.694 19.872C62.694 19.2106 62.806 18.608 63.03 18.064C63.254 17.5093 63.5686 17.0346 63.974 16.64C64.39 16.2346 64.8753 15.92 65.43 15.696C65.9953 15.472 66.614 15.36 67.286 15.36C68.4166 15.36 69.2966 15.664 69.926 16.272C70.5553 16.88 70.87 17.7333 70.87 18.832C70.87 19.0026 70.8433 19.1093 70.79 19.152C70.7366 19.184 70.5873 19.2 70.342 19.2H65.19C65.1473 19.296 65.126 19.472 65.126 19.728C65.126 20.7733 65.35 21.6 65.798 22.208C66.2566 22.816 66.8753 23.12 67.654 23.12C68.102 23.12 68.5446 23.0186 68.982 22.816C69.43 22.6133 69.862 22.3253 70.278 21.952L70.726 22.512ZM67.622 18.304C68.0486 18.304 68.3206 18.2826 68.438 18.24C68.566 18.1866 68.63 18.0693 68.63 17.888C68.63 17.4186 68.4966 17.0346 68.23 16.736C67.9633 16.4373 67.6273 16.288 67.222 16.288C66.7633 16.288 66.3526 16.48 65.99 16.864C65.638 17.2373 65.4086 17.7173 65.302 18.304H67.622Z" fill="#E9DED9"/>
<path d="M76.9493 19.44C76.0533 19.8453 75.376 20.224 74.9173 20.576C74.4693 20.9173 74.2453 21.2746 74.2453 21.648C74.2453 21.9573 74.3307 22.2026 74.5013 22.384C74.672 22.5653 74.8853 22.656 75.1413 22.656C75.3973 22.656 75.6373 22.6133 75.8613 22.528C76.0853 22.432 76.2773 22.3093 76.4373 22.16C76.5973 22.0106 76.72 21.8346 76.8053 21.632C76.9013 21.4186 76.9493 21.1946 76.9493 20.96V19.44ZM76.9493 18.592V17.92C76.9493 17.3013 76.8373 16.8533 76.6133 16.576C76.4 16.288 76.064 16.144 75.6053 16.144C75.296 16.144 75.0613 16.2293 74.9013 16.4C74.7413 16.56 74.592 16.832 74.4533 17.216C74.3573 17.4826 74.2187 17.6906 74.0373 17.84C73.8667 17.9893 73.6267 18.064 73.3173 18.064C73.0187 18.064 72.7893 17.9733 72.6293 17.792C72.4693 17.6106 72.3893 17.3546 72.3893 17.024C72.3893 16.512 72.6667 16.1066 73.2213 15.808C73.7867 15.5093 74.6347 15.36 75.7653 15.36C76.96 15.36 77.8133 15.5786 78.3253 16.016C78.8373 16.4426 79.0933 17.1626 79.0933 18.176V21.68C79.0933 22.5866 79.2747 23.04 79.6373 23.04C79.84 23.04 80.0267 22.9706 80.1973 22.832L80.4373 23.296C80.288 23.5626 80.0533 23.776 79.7333 23.936C79.424 24.0853 79.072 24.16 78.6773 24.16C78.1867 24.16 77.8133 24.0106 77.5573 23.712C77.3013 23.4133 77.1733 22.992 77.1733 22.448H77.0933C76.784 23.0026 76.384 23.424 75.8933 23.712C75.4027 24 74.8427 24.144 74.2133 24.144C73.5413 24.144 73.0027 23.9573 72.5973 23.584C72.192 23.2 71.9893 22.704 71.9893 22.096C71.9893 21.6266 72.1973 21.1893 72.6133 20.784C73.0293 20.368 73.7227 19.9626 74.6933 19.568L76.9493 18.592Z" fill="#E9DED9"/>
<path d="M84.7608 21.52C84.7608 21.936 84.7768 22.2666 84.8088 22.512C84.8515 22.7466 84.9315 22.928 85.0488 23.056C85.1662 23.184 85.3368 23.2693 85.5608 23.312C85.7848 23.344 86.0835 23.36 86.4568 23.36V24H81.1128V23.36C81.4328 23.3386 81.6888 23.3066 81.8808 23.264C82.0728 23.2213 82.2168 23.136 82.3128 23.008C82.4088 22.88 82.4675 22.6986 82.4888 22.464C82.5208 22.2186 82.5368 21.8933 82.5368 21.488V19.536C82.5368 18.8746 82.5208 18.3466 82.4888 17.952C82.4568 17.5573 82.3875 17.2533 82.2808 17.04C82.1742 16.8266 82.0195 16.688 81.8168 16.624C81.6248 16.5493 81.3688 16.512 81.0488 16.512V15.952L84.2488 15.36L84.5048 17.2H84.5688C84.8568 16.6346 85.2355 16.1866 85.7048 15.856C86.1742 15.5253 86.6702 15.36 87.1928 15.36C87.5982 15.36 87.9288 15.4613 88.1848 15.664C88.4408 15.8666 88.5688 16.1226 88.5688 16.432C88.5688 16.7733 88.4675 17.0613 88.2648 17.296C88.0728 17.5306 87.8062 17.648 87.4648 17.648C87.3048 17.648 87.1608 17.616 87.0328 17.552C86.9048 17.488 86.7875 17.4186 86.6808 17.344C86.5848 17.2586 86.4835 17.184 86.3768 17.12C86.2808 17.0453 86.1795 17.008 86.0728 17.008C85.8702 17.008 85.6782 17.1413 85.4968 17.408C85.3155 17.6746 85.1662 18.032 85.0488 18.48C84.9635 18.8 84.8942 19.1626 84.8408 19.568C84.7875 19.9626 84.7608 20.3573 84.7608 20.752V21.52Z" fill="#E9DED9"/>
<path d="M96.9558 22.672C96.5505 23.12 96.0438 23.4666 95.4358 23.712C94.8385 23.9573 94.1878 24.08 93.4838 24.08C92.8332 24.08 92.2412 23.9786 91.7078 23.776C91.1745 23.5626 90.7158 23.2693 90.3318 22.896C89.9478 22.5226 89.6492 22.0746 89.4358 21.552C89.2332 21.0186 89.1318 20.432 89.1318 19.792C89.1318 19.1306 89.2438 18.528 89.4678 17.984C89.6918 17.44 90.0065 16.976 90.4118 16.592C90.8172 16.1973 91.3025 15.8933 91.8678 15.68C92.4332 15.4666 93.0572 15.36 93.7398 15.36C94.2198 15.36 94.6625 15.408 95.0678 15.504C95.4838 15.6 95.8358 15.7333 96.1238 15.904C96.4225 16.0746 96.6572 16.2773 96.8278 16.512C96.9985 16.736 97.0838 16.9813 97.0838 17.248C97.0838 17.5573 96.9932 17.8026 96.8118 17.984C96.6412 18.1653 96.4065 18.256 96.1078 18.256C95.8625 18.256 95.6438 18.192 95.4518 18.064C95.2705 17.936 95.0892 17.728 94.9078 17.44C94.7478 17.184 94.6092 16.9813 94.4918 16.832C94.3852 16.6826 94.2838 16.5706 94.1878 16.496C94.0918 16.4106 93.9958 16.3573 93.8998 16.336C93.8038 16.304 93.6865 16.288 93.5478 16.288C92.9292 16.288 92.4492 16.576 92.1078 17.152C91.7665 17.728 91.5958 18.5333 91.5958 19.568C91.5958 20.6773 91.7985 21.5306 92.2038 22.128C92.6198 22.7253 93.2118 23.024 93.9798 23.024C94.4172 23.024 94.8545 22.944 95.2918 22.784C95.7292 22.6133 96.1452 22.3733 96.5398 22.064L96.9558 22.672Z" fill="#E9DED9"/>
<path d="M101.443 21.376C101.443 21.8133 101.454 22.16 101.475 22.416C101.507 22.6613 101.566 22.8533 101.651 22.992C101.747 23.1306 101.886 23.2213 102.067 23.264C102.259 23.3066 102.515 23.3386 102.835 23.36V24H97.7951V23.36C98.1151 23.3386 98.3711 23.3066 98.5631 23.264C98.7551 23.2213 98.8991 23.136 98.9951 23.008C99.0911 22.88 99.1497 22.6986 99.1711 22.464C99.2031 22.2186 99.2191 21.8933 99.2191 21.488V14.912C99.2191 14.272 99.2084 13.7706 99.1871 13.408C99.1764 13.0346 99.1497 12.752 99.1071 12.56C99.0751 12.4213 99.0377 12.3146 98.9951 12.24C98.9524 12.1546 98.8831 12.0906 98.7871 12.048C98.7017 11.9946 98.5791 11.9626 98.4191 11.952C98.2697 11.9306 98.0777 11.92 97.8431 11.92V11.328L101.411 10.72V16.624H101.475C101.806 16.1866 102.174 15.8666 102.579 15.664C102.995 15.4613 103.491 15.36 104.067 15.36C105.112 15.36 105.923 15.68 106.499 16.32C106.776 16.64 106.995 17.0293 107.155 17.488C107.315 17.936 107.395 18.4053 107.395 18.896V21.376C107.395 21.824 107.406 22.176 107.427 22.432C107.448 22.6773 107.502 22.8693 107.587 23.008C107.683 23.136 107.822 23.2213 108.003 23.264C108.184 23.3066 108.435 23.3386 108.755 23.36V24H103.747V23.36C104.067 23.3493 104.318 23.3226 104.499 23.28C104.691 23.2266 104.835 23.136 104.931 23.008C105.038 22.88 105.102 22.6986 105.123 22.464C105.155 22.2186 105.171 21.8933 105.171 21.488V19.52C105.171 18.3893 105.048 17.5893 104.803 17.12C104.558 16.6506 104.136 16.416 103.539 16.416C102.899 16.416 102.392 16.6506 102.019 17.12C101.838 17.3653 101.694 17.6693 101.587 18.032C101.491 18.3946 101.443 18.8 101.443 19.248V21.376Z" fill="#E9DED9"/>
<path d="M125.782 15.2H125.094C125.062 14.6773 124.982 14.2453 124.854 13.904C124.737 13.552 124.566 13.2746 124.342 13.072C124.118 12.8586 123.846 12.7146 123.526 12.64C123.206 12.5546 122.833 12.512 122.406 12.512C121.99 12.512 121.654 12.5226 121.398 12.544C121.153 12.5546 120.961 12.5813 120.822 12.624C120.694 12.656 120.609 12.704 120.566 12.768C120.524 12.832 120.502 12.912 120.502 13.008V21.392C120.502 21.7333 120.524 22.0266 120.566 22.272C120.62 22.5173 120.721 22.72 120.87 22.88C121.02 23.0293 121.238 23.1466 121.526 23.232C121.814 23.3066 122.193 23.3493 122.662 23.36V24H115.958V23.36C116.438 23.3493 116.822 23.3066 117.11 23.232C117.398 23.1466 117.617 23.0293 117.766 22.88C117.926 22.72 118.028 22.5173 118.07 22.272C118.124 22.0266 118.15 21.7333 118.15 21.392V13.008C118.15 12.912 118.129 12.832 118.086 12.768C118.054 12.704 117.98 12.656 117.862 12.624C117.745 12.5813 117.574 12.5546 117.35 12.544C117.137 12.5226 116.854 12.512 116.502 12.512C116.118 12.512 115.75 12.5333 115.398 12.576C115.046 12.608 114.737 12.7146 114.47 12.896C114.204 13.0666 113.985 13.3333 113.814 13.696C113.654 14.048 113.569 14.5493 113.558 15.2H112.934L113.094 11.68H125.622L125.782 15.2Z" fill="#E9DED9"/>
<path d="M129.605 21.52C129.605 21.936 129.621 22.2666 129.653 22.512C129.695 22.7466 129.775 22.928 129.893 23.056C130.01 23.184 130.181 23.2693 130.405 23.312C130.629 23.344 130.927 23.36 131.301 23.36V24H125.957V23.36C126.277 23.3386 126.533 23.3066 126.725 23.264C126.917 23.2213 127.061 23.136 127.157 23.008C127.253 22.88 127.311 22.6986 127.333 22.464C127.365 22.2186 127.381 21.8933 127.381 21.488V19.536C127.381 18.8746 127.365 18.3466 127.333 17.952C127.301 17.5573 127.231 17.2533 127.125 17.04C127.018 16.8266 126.863 16.688 126.661 16.624C126.469 16.5493 126.213 16.512 125.893 16.512V15.952L129.093 15.36L129.349 17.2H129.413C129.701 16.6346 130.079 16.1866 130.549 15.856C131.018 15.5253 131.514 15.36 132.037 15.36C132.442 15.36 132.773 15.4613 133.029 15.664C133.285 15.8666 133.413 16.1226 133.413 16.432C133.413 16.7733 133.311 17.0613 133.109 17.296C132.917 17.5306 132.65 17.648 132.309 17.648C132.149 17.648 132.005 17.616 131.877 17.552C131.749 17.488 131.631 17.4186 131.525 17.344C131.429 17.2586 131.327 17.184 131.221 17.12C131.125 17.0453 131.023 17.008 130.917 17.008C130.714 17.008 130.522 17.1413 130.341 17.408C130.159 17.6746 130.01 18.032 129.893 18.48C129.807 18.8 129.738 19.1626 129.685 19.568C129.631 19.9626 129.605 20.3573 129.605 20.752V21.52Z" fill="#E9DED9"/>
<path d="M141.992 22.512C141.021 23.6106 139.81 24.16 138.36 24.16C137.698 24.16 137.096 24.0586 136.552 23.856C136.018 23.6426 135.56 23.3493 135.176 22.976C134.792 22.592 134.493 22.1386 134.28 21.616C134.066 21.0933 133.96 20.512 133.96 19.872C133.96 19.2106 134.072 18.608 134.296 18.064C134.52 17.5093 134.834 17.0346 135.24 16.64C135.656 16.2346 136.141 15.92 136.696 15.696C137.261 15.472 137.88 15.36 138.552 15.36C139.682 15.36 140.562 15.664 141.192 16.272C141.821 16.88 142.136 17.7333 142.136 18.832C142.136 19.0026 142.109 19.1093 142.056 19.152C142.002 19.184 141.853 19.2 141.608 19.2H136.456C136.413 19.296 136.392 19.472 136.392 19.728C136.392 20.7733 136.616 21.6 137.064 22.208C137.522 22.816 138.141 23.12 138.92 23.12C139.368 23.12 139.81 23.0186 140.248 22.816C140.696 22.6133 141.128 22.3253 141.544 21.952L141.992 22.512ZM138.888 18.304C139.314 18.304 139.586 18.2826 139.704 18.24C139.832 18.1866 139.896 18.0693 139.896 17.888C139.896 17.4186 139.762 17.0346 139.496 16.736C139.229 16.4373 138.893 16.288 138.488 16.288C138.029 16.288 137.618 16.48 137.256 16.864C136.904 17.2373 136.674 17.7173 136.568 18.304H138.888Z" fill="#E9DED9"/>
<path d="M151.351 22.512C150.38 23.6106 149.17 24.16 147.719 24.16C147.058 24.16 146.455 24.0586 145.911 23.856C145.378 23.6426 144.919 23.3493 144.535 22.976C144.151 22.592 143.852 22.1386 143.639 21.616C143.426 21.0933 143.319 20.512 143.319 19.872C143.319 19.2106 143.431 18.608 143.655 18.064C143.879 17.5093 144.194 17.0346 144.599 16.64C145.015 16.2346 145.5 15.92 146.055 15.696C146.62 15.472 147.239 15.36 147.911 15.36C149.042 15.36 149.922 15.664 150.551 16.272C151.18 16.88 151.495 17.7333 151.495 18.832C151.495 19.0026 151.468 19.1093 151.415 19.152C151.362 19.184 151.212 19.2 150.967 19.2H145.815C145.772 19.296 145.751 19.472 145.751 19.728C145.751 20.7733 145.975 21.6 146.423 22.208C146.882 22.816 147.5 23.12 148.279 23.12C148.727 23.12 149.17 23.0186 149.607 22.816C150.055 22.6133 150.487 22.3253 150.903 21.952L151.351 22.512ZM148.247 18.304C148.674 18.304 148.946 18.2826 149.063 18.24C149.191 18.1866 149.255 18.0693 149.255 17.888C149.255 17.4186 149.122 17.0346 148.855 16.736C148.588 16.4373 148.252 16.288 147.847 16.288C147.388 16.288 146.978 16.48 146.615 16.864C146.263 17.2373 146.034 17.7173 145.927 18.304H148.247Z" fill="#E9DED9"/>
<path d="M153.43 24H152.934V21.088H153.606C153.788 21.856 154.049 22.416 154.39 22.768C154.732 23.12 155.174 23.296 155.718 23.296C156.113 23.296 156.417 23.216 156.63 23.056C156.854 22.8853 156.966 22.656 156.966 22.368C156.966 22.0693 156.833 21.7813 156.566 21.504C156.3 21.216 155.868 20.912 155.27 20.592C154.46 20.1546 153.878 19.7226 153.526 19.296C153.174 18.8586 152.998 18.368 152.998 17.824C152.998 17.472 153.062 17.1466 153.19 16.848C153.329 16.5386 153.51 16.272 153.734 16.048C153.969 15.824 154.246 15.6533 154.566 15.536C154.886 15.408 155.233 15.344 155.606 15.344C155.937 15.344 156.262 15.392 156.582 15.488C156.913 15.584 157.201 15.7173 157.446 15.888L157.734 15.504H158.15V17.92H157.526C157.281 17.312 157.025 16.8746 156.758 16.608C156.502 16.3413 156.188 16.208 155.814 16.208C155.516 16.208 155.276 16.288 155.094 16.448C154.924 16.608 154.838 16.8213 154.838 17.088C154.838 17.3866 154.966 17.6693 155.222 17.936C155.489 18.2026 155.926 18.496 156.534 18.816C156.961 19.0506 157.329 19.28 157.638 19.504C157.948 19.728 158.198 19.9573 158.39 20.192C158.582 20.416 158.721 20.656 158.806 20.912C158.902 21.1573 158.95 21.424 158.95 21.712C158.95 22.0853 158.881 22.4213 158.742 22.72C158.604 23.0186 158.406 23.2746 158.15 23.488C157.894 23.7013 157.585 23.8666 157.222 23.984C156.87 24.1013 156.476 24.16 156.038 24.16C155.58 24.16 155.153 24.1013 154.758 23.984C154.364 23.856 154.038 23.6746 153.782 23.44L153.43 24Z" fill="#E9DED9"/>
<g clip-path="url(#clip0)">
<path d="M20.7991 8H23.0462C23.8692 8.40102 24.794 8.54429 25.6998 8.41109C27.1986 8.25866 28.679 8.41109 29.7875 9.64203C30.1434 10.0265 30.6218 10.2755 31.1409 10.3464C32.2055 10.545 33.1894 10.9376 33.5358 12.1247C33.7088 12.6795 33.7507 13.2669 33.6582 13.8406C33.5738 14.3098 33.6088 14.7927 33.7598 15.2448C33.9358 15.7648 34.0141 16.3129 33.9908 16.8614C33.9284 18.1178 33.2979 18.7436 32.0762 18.7644C31.9334 18.7681 31.7929 18.8007 31.6631 18.8602C31.5333 18.9198 31.4169 19.005 31.321 19.1109C30.3326 20.0346 29.5058 20.157 28.3025 19.5589C27.98 19.4037 27.6743 19.2156 27.3903 18.9977C27.2737 18.8904 27.1282 18.8197 26.9718 18.7943C26.8154 18.7688 26.655 18.7898 26.5104 18.8545C25.4134 19.2656 24.2633 19.5266 23.1178 19.194C22.1747 18.8903 21.1601 18.8903 20.2171 19.194C19.1155 19.5427 18.3972 19.1109 17.9446 18.0393C17.8975 17.9045 17.8142 17.7853 17.7037 17.6949C17.5933 17.6044 17.4601 17.5462 17.3187 17.5266C16.6328 17.3741 16.1455 17.0069 16 16.2702V15.6582C16.0439 15.5127 16.0855 15.3672 16.1293 15.2217C16.3668 14.3585 16.4543 13.4609 16.388 12.5681C16.2494 11.2148 16.8499 10.4273 18.1848 10.2171L18.5404 10.1663C18.6506 10.1586 18.7553 10.1153 18.8387 10.0427C18.922 9.97023 18.9795 9.87252 19.0023 9.76443C19.115 9.33571 19.3415 8.94542 19.6578 8.63483C19.974 8.32424 20.3684 8.10489 20.7991 8V8Z" fill="#E9DED9"/>
<path d="M23.5566 28.4226C23.3649 28.3164 23.2102 28.1917 23.515 28.0508C23.9215 27.8476 24.0739 27.4873 24.1709 27.0739C24.4239 25.9484 24.5876 24.8048 24.6605 23.6536C24.6839 23.3563 24.6472 23.0573 24.5528 22.7745C24.4584 22.4916 24.3081 22.2306 24.1109 22.0069C23.7061 21.5258 23.2619 21.0793 22.7829 20.672C22.4647 20.3887 22.1955 20.0547 21.9862 19.6836C21.9146 19.5543 21.7206 19.3741 21.9354 19.2494C22.1501 19.1247 22.291 19.2771 22.3973 19.4526C22.4931 19.6306 22.6234 19.7876 22.7806 19.9145C22.9377 20.0254 23.1132 20.1201 23.0947 19.7991C23.0762 19.478 23.2264 19.5104 23.4434 19.545C23.8268 19.6051 24.2148 19.6674 24.5982 19.6928C24.9076 19.7136 25.007 19.866 25.0139 20.1547C25.053 20.6927 25.2082 21.2159 25.4688 21.6882C25.6998 21.0485 25.9007 20.5173 25.8776 19.9261C25.8776 19.7436 25.7575 19.5058 26.0624 19.4203C26.3672 19.3349 26.455 19.5358 26.5658 19.7321C26.7483 19.672 26.6513 19.4711 26.7483 19.3926C27.2102 19.0069 27.3949 19.6536 27.7575 19.6928C27.9538 19.7136 28.0993 19.873 27.8938 20.0924L27.8591 20.1316C26.7044 21.3233 26.3049 22.8037 26.2564 24.4134C26.2222 25.1792 26.2554 25.9466 26.3557 26.7067C26.4411 27.3025 26.6836 27.7737 27.3072 27.9607C27.3813 27.9743 27.4505 28.007 27.508 28.0556C27.5656 28.1043 27.6094 28.1671 27.6351 28.2379C26.7344 28.3372 25.8337 28.1362 24.9862 28.4272L23.5566 28.4226Z" fill="#E9DED9"/>
</g>
<defs>
<clipPath id="clip0">
<rect x="16" y="8" width="18" height="20.4226" fill="white"/>
</clipPath>
</defs>
</svg>
