<svg width="60" height="76" viewBox="0 0 60 76" fill="none" xmlns="http://www.w3.org/2000/svg">
<path d="M0 0H60V76H0V0Z" fill="#F2F0F0"/>
<path d="M29.994 30.7068C31.9257 30.7068 33.4917 29.1408 33.4917 27.2091C33.4917 25.2774 31.9257 23.7114 29.994 23.7114C28.0623 23.7114 26.4963 25.2774 26.4963 27.2091C26.4963 29.1408 28.0623 30.7068 29.994 30.7068Z" fill="#3B4549"/>
<path d="M29.994 30.7068C31.9257 30.7068 33.4917 29.1408 33.4917 27.2091C33.4917 25.2774 31.9257 23.7114 29.994 23.7114C28.0623 23.7114 26.4963 25.2774 26.4963 27.2091C26.4963 29.1408 28.0623 30.7068 29.994 30.7068Z" fill="#3B4549"/>
<path d="M29.994 30.7068C31.9257 30.7068 33.4917 29.1408 33.4917 27.2091C33.4917 25.2774 31.9257 23.7114 29.994 23.7114C28.0623 23.7114 26.4963 25.2774 26.4963 27.2091C26.4963 29.1408 28.0623 30.7068 29.994 30.7068Z" fill="#3B4549"/>
<path d="M29.994 30.7068C31.9257 30.7068 33.4917 29.1408 33.4917 27.2091C33.4917 25.2774 31.9257 23.7114 29.994 23.7114C28.0623 23.7114 26.4963 25.2774 26.4963 27.2091C26.4963 29.1408 28.0623 30.7068 29.994 30.7068Z" fill="#3B4549"/>
<path d="M30.0701 24.9475C29.0653 24.9516 28.0919 24.5976 27.3244 23.949C26.557 23.3004 26.0457 22.3996 25.8822 21.4082L24.5409 13.304C24.4329 12.6511 24.4683 11.9826 24.6447 11.3447C24.821 10.7069 25.1341 10.1151 25.5622 9.61039C25.9902 9.10571 26.523 8.70024 27.1235 8.42215C27.724 8.14406 28.3779 8.00001 29.0396 8L30.9488 8C31.6048 8.00081 32.2529 8.14307 32.8489 8.41708C33.4449 8.69108 33.9748 9.09039 34.4025 9.58778C34.8302 10.0852 35.1456 10.6689 35.3272 11.2993C35.5088 11.9296 35.5524 12.5917 35.4549 13.2404L34.2311 21.347C34.081 22.3448 33.5792 23.2562 32.8161 23.9164C32.0531 24.5767 31.0791 24.9424 30.0701 24.9475Z" fill="#3B4549"/>
<path d="M26.6604 27.2605C26.353 28.2186 25.7144 29.0357 24.859 29.5655C24.0036 30.0952 22.9874 30.3029 21.9928 30.1512L13.8715 28.9274C13.2173 28.8271 12.5928 28.5858 12.0413 28.2201C11.4897 27.8544 11.0243 27.3731 10.6773 26.8096C10.3304 26.2461 10.1102 25.6138 10.032 24.9567C9.95377 24.2996 10.0195 23.6333 10.2245 23.0041L10.8144 21.1879C11.0179 20.5643 11.3535 19.992 11.7983 19.51C12.2431 19.028 12.7867 18.6476 13.392 18.3948C13.9972 18.142 14.6499 18.0228 15.3054 18.0452C15.961 18.0677 16.6039 18.2313 17.1905 18.5249L24.5334 22.1963C25.4327 22.6491 26.141 23.4079 26.5308 24.3362C26.9207 25.2645 26.9667 26.3014 26.6604 27.2605Z" fill="#3B4549"/>
<path d="M27.8672 31.2331C28.682 31.8204 29.2611 32.6788 29.5006 33.6543C29.7401 34.6298 29.6244 35.6587 29.1742 36.5567L25.5027 43.8996C25.2058 44.4912 24.7838 45.0112 24.2659 45.4234C23.748 45.8357 23.1467 46.1304 22.5036 46.2871C21.8605 46.4438 21.191 46.4587 20.5415 46.3309C19.892 46.2031 19.2781 45.9356 18.7423 45.5469L17.1979 44.4234C16.6657 44.0394 16.2227 43.5449 15.8991 42.9739C15.5755 42.4029 15.379 41.7688 15.323 41.1149C15.267 40.461 15.3528 39.8027 15.5746 39.185C15.7964 38.5673 16.1489 38.0047 16.608 37.5358L22.3722 31.6957C23.0811 30.9736 24.0255 30.5298 25.0339 30.445C26.0422 30.3601 27.0475 30.6397 27.8672 31.2331Z" fill="#3B4549"/>
<path d="M32.0062 31.3212C32.8168 30.7278 33.8122 30.4423 34.8141 30.5159C35.8159 30.5894 36.7589 31.0172 37.4742 31.7226L43.3217 37.4892C43.7933 37.9539 44.158 38.5157 44.3905 39.1357C44.6229 39.7556 44.7175 40.4187 44.6677 41.0789C44.6178 41.7392 44.4247 42.3806 44.1018 42.9586C43.7789 43.5366 43.3339 44.0373 42.7979 44.4258L41.2534 45.5493C40.7223 45.9348 40.1143 46.2012 39.4708 46.3303C38.8274 46.4594 38.1637 46.4482 37.525 46.2974C36.8863 46.1466 36.2876 45.8598 35.7698 45.4566C35.2521 45.0533 34.8274 44.5431 34.5248 43.9608L30.7505 36.6839C30.2849 35.7874 30.1555 34.7538 30.3858 33.7701C30.6161 32.7865 31.1909 31.9178 32.0062 31.3212Z" fill="#3B4549"/>
<path d="M33.3744 27.4025C33.0613 26.4471 33.0987 25.4115 33.48 24.4812C33.8612 23.5509 34.5614 22.7869 35.455 22.3261L42.7465 18.5469C43.3342 18.2424 43.9811 18.0695 44.6423 18.0402C45.3035 18.0109 45.9632 18.1259 46.5755 18.3772C47.1878 18.6285 47.7381 19.0101 48.1881 19.4955C48.6381 19.9809 48.977 20.5584 49.1814 21.1879L49.7712 23.0041C49.9742 23.6285 50.0399 24.2895 49.9637 24.9417C49.8875 25.594 49.6713 26.222 49.3298 26.7829C48.9884 27.3438 48.5297 27.8243 47.9853 28.1914C47.4409 28.5586 46.8236 28.8038 46.1756 28.9102L38.0862 30.2564C37.0894 30.4215 36.0665 30.2245 35.2024 29.701C34.3382 29.1776 33.6899 28.3623 33.3744 27.4025Z" fill="#3B4549"/>
<path d="M29.994 30.7068C31.9257 30.7068 33.4917 29.1408 33.4917 27.2091C33.4917 25.2774 31.9257 23.7114 29.994 23.7114C28.0623 23.7114 26.4963 25.2774 26.4963 27.2091C26.4963 29.1408 28.0623 30.7068 29.994 30.7068Z" fill="#3B4549"/>
<path d="M29.994 33.6538C33.0829 33.6538 35.5869 31.1498 35.5869 28.061C35.5869 24.9721 33.0829 22.4681 29.994 22.4681C26.9051 22.4681 24.4011 24.9721 24.4011 28.061C24.4011 31.1498 26.9051 33.6538 29.994 33.6538Z" fill="#C47D3D"/>
<path d="M30.0088 23.6894C30.7023 23.6894 31.2645 23.1272 31.2645 22.4337C31.2645 21.7403 30.7023 21.1781 30.0088 21.1781C29.3153 21.1781 28.7532 21.7403 28.7532 22.4337C28.7532 23.1272 29.3153 23.6894 30.0088 23.6894Z" fill="#C47D3D"/>
<path fill-rule="evenodd" clip-rule="evenodd" d="M30.0088 21.6677C29.5857 21.6677 29.2427 22.0107 29.2427 22.4338C29.2427 22.8569 29.5857 23.1999 30.0088 23.1999C30.432 23.1999 30.775 22.8569 30.775 22.4338C30.775 22.0107 30.432 21.6677 30.0088 21.6677ZM28.2637 22.4338C28.2637 21.4699 29.045 20.6886 30.0088 20.6886C30.9727 20.6886 31.754 21.4699 31.754 22.4338C31.754 23.3976 30.9727 24.1789 30.0088 24.1789C29.045 24.1789 28.2637 23.3976 28.2637 22.4338Z" fill="#3B4549"/>
<path d="M29.9795 34.9461C30.673 34.9461 31.2352 34.3839 31.2352 33.6905C31.2352 32.997 30.673 32.4348 29.9795 32.4348C29.286 32.4348 28.7239 32.997 28.7239 33.6905C28.7239 34.3839 29.286 34.9461 29.9795 34.9461Z" fill="#C47D3D"/>
<path fill-rule="evenodd" clip-rule="evenodd" d="M29.9793 32.9244C29.5562 32.9244 29.2132 33.2674 29.2132 33.6905C29.2132 34.1136 29.5562 34.4566 29.9793 34.4566C30.4024 34.4566 30.7454 34.1136 30.7454 33.6905C30.7454 33.2674 30.4024 32.9244 29.9793 32.9244ZM28.2341 33.6905C28.2341 32.7267 29.0155 31.9453 29.9793 31.9453C30.9431 31.9453 31.7245 32.7267 31.7245 33.6905C31.7245 34.6543 30.9431 35.4357 29.9793 35.4357C29.0155 35.4357 28.2341 34.6543 28.2341 33.6905Z" fill="#3B4549"/>
<path d="M26.024 25.3269C26.7174 25.3269 27.2796 24.7647 27.2796 24.0713C27.2796 23.3778 26.7174 22.8156 26.024 22.8156C25.3305 22.8156 24.7683 23.3778 24.7683 24.0713C24.7683 24.7647 25.3305 25.3269 26.024 25.3269Z" fill="#C47D3D"/>
<path fill-rule="evenodd" clip-rule="evenodd" d="M26.0242 23.3051C25.6011 23.3051 25.2581 23.6481 25.2581 24.0712C25.2581 24.4943 25.6011 24.8373 26.0242 24.8373C26.4473 24.8373 26.7903 24.4943 26.7903 24.0712C26.7903 23.6481 26.4473 23.3051 26.0242 23.3051ZM24.2791 24.0712C24.2791 23.1074 25.0604 22.326 26.0242 22.326C26.9881 22.326 27.7694 23.1074 27.7694 24.0712C27.7694 25.0351 26.9881 25.8164 26.0242 25.8164C25.0604 25.8164 24.2791 25.0351 24.2791 24.0712Z" fill="#3B4549"/>
<path d="M33.9641 33.3062C34.6576 33.3062 35.2198 32.744 35.2198 32.0506C35.2198 31.3571 34.6576 30.7949 33.9641 30.7949C33.2707 30.7949 32.7085 31.3571 32.7085 32.0506C32.7085 32.744 33.2707 33.3062 33.9641 33.3062Z" fill="#C47D3D"/>
<path fill-rule="evenodd" clip-rule="evenodd" d="M33.9642 31.2845C33.541 31.2845 33.198 31.6275 33.198 32.0506C33.198 32.4737 33.541 32.8167 33.9642 32.8167C34.3873 32.8167 34.7303 32.4737 34.7303 32.0506C34.7303 31.6275 34.3873 31.2845 33.9642 31.2845ZM32.219 32.0506C32.219 31.0868 33.0003 30.3054 33.9642 30.3054C34.928 30.3054 35.7093 31.0868 35.7093 32.0506C35.7093 33.0144 34.928 33.7958 33.9642 33.7958C33.0003 33.7958 32.219 33.0144 32.219 32.0506Z" fill="#3B4549"/>
<path d="M24.3672 29.3043C25.0607 29.3043 25.6229 28.7421 25.6229 28.0487C25.6229 27.3552 25.0607 26.793 24.3672 26.793C23.6737 26.793 23.1116 27.3552 23.1116 28.0487C23.1116 28.7421 23.6737 29.3043 24.3672 29.3043Z" fill="#C47D3D"/>
<path fill-rule="evenodd" clip-rule="evenodd" d="M24.367 27.2825C23.9439 27.2825 23.6009 27.6255 23.6009 28.0486C23.6009 28.4718 23.9439 28.8148 24.367 28.8148C24.7901 28.8148 25.1331 28.4718 25.1331 28.0486C25.1331 27.6255 24.7901 27.2825 24.367 27.2825ZM22.6218 28.0486C22.6218 27.0848 23.4032 26.3035 24.367 26.3035C25.3308 26.3035 26.1122 27.0848 26.1122 28.0486C26.1122 29.0125 25.3308 29.7938 24.367 29.7938C23.4032 29.7938 22.6218 29.0125 22.6218 28.0486Z" fill="#3B4549"/>
<path d="M35.6238 29.3312C36.3173 29.3312 36.8794 28.7691 36.8794 28.0756C36.8794 27.3821 36.3173 26.8199 35.6238 26.8199C34.9303 26.8199 34.3682 27.3821 34.3682 28.0756C34.3682 28.7691 34.9303 29.3312 35.6238 29.3312Z" fill="#C47D3D"/>
<path fill-rule="evenodd" clip-rule="evenodd" d="M35.6236 27.3094C35.2005 27.3094 34.8575 27.6524 34.8575 28.0756C34.8575 28.4987 35.2005 28.8417 35.6236 28.8417C36.0467 28.8417 36.3897 28.4987 36.3897 28.0756C36.3897 27.6524 36.0467 27.3094 35.6236 27.3094ZM33.8784 28.0756C33.8784 27.1117 34.6598 26.3304 35.6236 26.3304C36.5874 26.3304 37.3688 27.1117 37.3688 28.0756C37.3688 29.0394 36.5874 29.8207 35.6236 29.8207C34.6598 29.8207 33.8784 29.0394 33.8784 28.0756Z" fill="#3B4549"/>
<path d="M26.0044 33.2867C26.6979 33.2867 27.2601 32.7245 27.2601 32.031C27.2601 31.3376 26.6979 30.7754 26.0044 30.7754C25.311 30.7754 24.7488 31.3376 24.7488 32.031C24.7488 32.7245 25.311 33.2867 26.0044 33.2867Z" fill="#C47D3D"/>
<path fill-rule="evenodd" clip-rule="evenodd" d="M26.0047 31.2649C25.5816 31.2649 25.2386 31.6079 25.2386 32.031C25.2386 32.4541 25.5816 32.7971 26.0047 32.7971C26.4278 32.7971 26.7708 32.4541 26.7708 32.031C26.7708 31.6079 26.4278 31.2649 26.0047 31.2649ZM24.2595 32.031C24.2595 31.0672 25.0409 30.2858 26.0047 30.2858C26.9685 30.2858 27.7499 31.0672 27.7499 32.031C27.7499 32.9948 26.9685 33.7762 26.0047 33.7762C25.0409 33.7762 24.2595 32.9948 24.2595 32.031Z" fill="#3B4549"/>
<path d="M33.9837 25.3489C34.6771 25.3489 35.2393 24.7868 35.2393 24.0933C35.2393 23.3998 34.6771 22.8376 33.9837 22.8376C33.2902 22.8376 32.728 23.3998 32.728 24.0933C32.728 24.7868 33.2902 25.3489 33.9837 25.3489Z" fill="#C47D3D"/>
<path fill-rule="evenodd" clip-rule="evenodd" d="M33.9837 23.3271C33.5606 23.3271 33.2176 23.6701 33.2176 24.0933C33.2176 24.5164 33.5606 24.8594 33.9837 24.8594C34.4068 24.8594 34.7498 24.5164 34.7498 24.0933C34.7498 23.6701 34.4068 23.3271 33.9837 23.3271ZM32.2385 24.0933C32.2385 23.1294 33.0199 22.3481 33.9837 22.3481C34.9475 22.3481 35.7289 23.1294 35.7289 24.0933C35.7289 25.0571 34.9475 25.8384 33.9837 25.8384C33.0199 25.8384 32.2385 25.0571 32.2385 24.0933Z" fill="#3B4549"/>
<path d="M15.3926 66.3408C15.3926 67.2204 15.0736 67.9062 14.4355 68.3984C13.7975 68.8906 12.9316 69.1367 11.8379 69.1367C10.653 69.1367 9.74154 68.984 9.10352 68.6787V67.5576C9.51367 67.7308 9.96029 67.8675 10.4434 67.9678C10.9264 68.068 11.4049 68.1182 11.8789 68.1182C12.6536 68.1182 13.237 67.9723 13.6289 67.6807C14.0208 67.3844 14.2168 66.9743 14.2168 66.4502C14.2168 66.1038 14.1462 65.8213 14.0049 65.6025C13.8682 65.3792 13.6357 65.1742 13.3076 64.9873C12.984 64.8005 12.4896 64.5885 11.8242 64.3516C10.8945 64.0189 10.2292 63.6247 9.82812 63.1689C9.43164 62.7132 9.2334 62.1185 9.2334 61.3848C9.2334 60.6146 9.52279 60.0016 10.1016 59.5459C10.6803 59.0902 11.446 58.8623 12.3984 58.8623C13.3919 58.8623 14.3057 59.0446 15.1396 59.4092L14.7773 60.4209C13.9525 60.0745 13.1504 59.9014 12.3711 59.9014C11.7559 59.9014 11.2751 60.0335 10.9287 60.2979C10.5824 60.5622 10.4092 60.929 10.4092 61.3984C10.4092 61.7448 10.473 62.0296 10.6006 62.2529C10.7282 62.4717 10.9424 62.6745 11.2432 62.8613C11.5485 63.0436 12.0133 63.2464 12.6377 63.4697C13.6859 63.8434 14.4059 64.2445 14.7979 64.6729C15.1943 65.1012 15.3926 65.6572 15.3926 66.3408Z" fill="#3B4549"/>
<path d="M18.4004 69H17.2656V61.5078H18.4004V69ZM17.1699 59.4775C17.1699 59.2178 17.2337 59.0286 17.3613 58.9102C17.4889 58.7871 17.6484 58.7256 17.8398 58.7256C18.0221 58.7256 18.1794 58.7871 18.3115 58.9102C18.4437 59.0332 18.5098 59.2223 18.5098 59.4775C18.5098 59.7327 18.4437 59.9242 18.3115 60.0518C18.1794 60.1748 18.0221 60.2363 17.8398 60.2363C17.6484 60.2363 17.4889 60.1748 17.3613 60.0518C17.2337 59.9242 17.1699 59.7327 17.1699 59.4775Z" fill="#3B4549"/>
<path d="M30.3564 69V64.126C30.3564 63.529 30.2288 63.0824 29.9736 62.7861C29.7184 62.4854 29.3219 62.335 28.7842 62.335C28.0778 62.335 27.556 62.5378 27.2188 62.9434C26.8815 63.349 26.7129 63.9733 26.7129 64.8164V69H25.5781V64.126C25.5781 63.529 25.4505 63.0824 25.1953 62.7861C24.9401 62.4854 24.5413 62.335 23.999 62.335C23.2881 62.335 22.7663 62.5492 22.4336 62.9775C22.1055 63.4014 21.9414 64.0986 21.9414 65.0693V69H20.8066V61.5078H21.7295L21.9141 62.5332H21.9688C22.1829 62.1686 22.4837 61.8838 22.8711 61.6787C23.263 61.4736 23.7005 61.3711 24.1836 61.3711C25.3548 61.3711 26.1204 61.7949 26.4805 62.6426H26.5352C26.7585 62.2507 27.082 61.9408 27.5059 61.7129C27.9297 61.485 28.4128 61.3711 28.9551 61.3711C29.8027 61.3711 30.4362 61.5898 30.8555 62.0273C31.2793 62.4603 31.4912 63.1553 31.4912 64.1123V69H30.3564Z" fill="#3B4549"/>
<path d="M37.3223 69.1367C36.8346 69.1367 36.388 69.0479 35.9824 68.8701C35.5814 68.6878 35.2441 68.4098 34.9707 68.0361H34.8887C34.9434 68.4736 34.9707 68.8883 34.9707 69.2803V72.3633H33.8359V61.5078H34.7588L34.916 62.5332H34.9707C35.2624 62.123 35.6019 61.8268 35.9893 61.6445C36.3766 61.4622 36.821 61.3711 37.3223 61.3711C38.3158 61.3711 39.0814 61.7106 39.6191 62.3896C40.1615 63.0687 40.4326 64.0212 40.4326 65.2471C40.4326 66.4775 40.1569 67.4346 39.6055 68.1182C39.0586 68.7972 38.2975 69.1367 37.3223 69.1367ZM37.1582 62.335C36.3926 62.335 35.8389 62.5469 35.4971 62.9707C35.1553 63.3945 34.9798 64.069 34.9707 64.9941V65.2471C34.9707 66.2998 35.1462 67.054 35.4971 67.5098C35.848 67.9609 36.4108 68.1865 37.1855 68.1865C37.8327 68.1865 38.3385 67.9245 38.7031 67.4004C39.0723 66.8763 39.2568 66.154 39.2568 65.2334C39.2568 64.2992 39.0723 63.5837 38.7031 63.0869C38.3385 62.5856 37.8236 62.335 37.1582 62.335Z" fill="#3B4549"/>
<path d="M43.5566 69H42.4219V58.3633H43.5566V69Z" fill="#3B4549"/>
<path d="M49.1279 69.1367C48.0205 69.1367 47.1455 68.7995 46.5029 68.125C45.8649 67.4505 45.5459 66.514 45.5459 65.3154C45.5459 64.1077 45.8421 63.1484 46.4346 62.4375C47.0316 61.7266 47.8314 61.3711 48.834 61.3711C49.7728 61.3711 50.5156 61.681 51.0625 62.3008C51.6094 62.916 51.8828 63.7295 51.8828 64.7412V65.459H46.7217C46.7445 66.3385 46.9655 67.0062 47.3848 67.4619C47.8086 67.9176 48.4033 68.1455 49.1689 68.1455C49.9756 68.1455 50.7731 67.9769 51.5615 67.6396V68.6514C51.1605 68.8245 50.7799 68.9476 50.4199 69.0205C50.0645 69.098 49.6338 69.1367 49.1279 69.1367ZM48.8203 62.3213C48.2188 62.3213 47.738 62.5173 47.3779 62.9092C47.0225 63.3011 46.8128 63.8434 46.749 64.5361H50.666C50.666 63.8206 50.5065 63.2738 50.1875 62.8955C49.8685 62.5127 49.4128 62.3213 48.8203 62.3213Z" fill="#3B4549"/>
</svg>
