<svg width="60" height="76" viewBox="0 0 60 76" fill="none" xmlns="http://www.w3.org/2000/svg">
<path d="M0 0H60V76H0V0Z" fill="#F2F0F0"/>
<path d="M15.5557 71H14.3936V62.0381H11.2285V61.0059H18.7207V62.0381H15.5557V71Z" fill="#3B4549"/>
<path d="M25.1875 71V66.1533C25.1875 65.5426 25.0485 65.0869 24.7705 64.7861C24.4925 64.4854 24.0573 64.335 23.4648 64.335C22.6764 64.335 22.0999 64.5492 21.7354 64.9775C21.3753 65.4059 21.1953 66.1077 21.1953 67.083V71H20.0605V60.3633H21.1953V63.583C21.1953 63.9704 21.1771 64.2917 21.1406 64.5469H21.209C21.4323 64.1868 21.749 63.9043 22.1592 63.6992C22.5739 63.4896 23.0456 63.3848 23.5742 63.3848C24.4902 63.3848 25.1761 63.6035 25.6318 64.041C26.0921 64.474 26.3223 65.1644 26.3223 66.1123V71H25.1875Z" fill="#3B4549"/>
<path d="M32.0781 63.3711C32.4108 63.3711 32.7093 63.3984 32.9736 63.4531L32.8164 64.5059C32.5065 64.4375 32.2331 64.4033 31.9961 64.4033C31.39 64.4033 30.8704 64.6494 30.4375 65.1416C30.0091 65.6338 29.7949 66.2467 29.7949 66.9805V71H28.6602V63.5078H29.5967L29.7266 64.8955H29.7812C30.0592 64.4079 30.3942 64.0319 30.7861 63.7676C31.1781 63.5033 31.6087 63.3711 32.0781 63.3711Z" fill="#3B4549"/>
<path d="M37.54 71.1367C36.4326 71.1367 35.5576 70.7995 34.915 70.125C34.277 69.4505 33.958 68.514 33.958 67.3154C33.958 66.1077 34.2542 65.1484 34.8467 64.4375C35.4437 63.7266 36.2435 63.3711 37.2461 63.3711C38.1849 63.3711 38.9277 63.681 39.4746 64.3008C40.0215 64.916 40.2949 65.7295 40.2949 66.7412V67.459H35.1338C35.1566 68.3385 35.3776 69.0062 35.7969 69.4619C36.2207 69.9176 36.8154 70.1455 37.5811 70.1455C38.3877 70.1455 39.1852 69.9769 39.9736 69.6396V70.6514C39.5726 70.8245 39.1921 70.9476 38.832 71.0205C38.4766 71.098 38.0459 71.1367 37.54 71.1367ZM37.2324 64.3213C36.6309 64.3213 36.1501 64.5173 35.79 64.9092C35.4346 65.3011 35.2249 65.8434 35.1611 66.5361H39.0781C39.0781 65.8206 38.9186 65.2738 38.5996 64.8955C38.2806 64.5127 37.8249 64.3213 37.2324 64.3213Z" fill="#3B4549"/>
<path d="M45.4014 71.1367C44.2939 71.1367 43.4189 70.7995 42.7764 70.125C42.1383 69.4505 41.8193 68.514 41.8193 67.3154C41.8193 66.1077 42.1156 65.1484 42.708 64.4375C43.305 63.7266 44.1048 63.3711 45.1074 63.3711C46.0462 63.3711 46.7891 63.681 47.3359 64.3008C47.8828 64.916 48.1562 65.7295 48.1562 66.7412V67.459H42.9951C43.0179 68.3385 43.2389 69.0062 43.6582 69.4619C44.082 69.9176 44.6768 70.1455 45.4424 70.1455C46.249 70.1455 47.0466 69.9769 47.835 69.6396V70.6514C47.4339 70.8245 47.0534 70.9476 46.6934 71.0205C46.3379 71.098 45.9072 71.1367 45.4014 71.1367ZM45.0938 64.3213C44.4922 64.3213 44.0114 64.5173 43.6514 64.9092C43.2959 65.3011 43.0863 65.8434 43.0225 66.5361H46.9395C46.9395 65.8206 46.7799 65.2738 46.4609 64.8955C46.1419 64.5127 45.6862 64.3213 45.0938 64.3213Z" fill="#3B4549"/>
<path d="M37.0335 6.75273C36.3453 11.8784 35.5938 17.0866 35.4562 22.2646C35.3405 26.9443 35.0075 31.624 34.5147 36.3037C34.1486 39.7557 33.8541 43.3948 32.7419 46.7036C32.2327 48.2232 34.6303 48.8756 35.1368 47.3643C36.1223 44.4381 36.4279 41.2394 36.7885 38.1893C37.1904 34.7566 37.485 31.3074 37.7272 27.861C38.052 23.2693 38.1153 18.6832 38.6218 14.0806C38.8935 11.6343 39.1926 9.19168 39.5192 6.75273C39.7312 5.17264 37.2455 5.18916 37.0418 6.75273H37.0335Z" fill="#3B4549"/>
<path d="M29.4744 5.19745C29.2459 9.31009 29.1798 13.442 29.2404 17.5629C29.2475 20.8022 29.4313 24.0388 29.7909 27.2581C30.2506 30.9909 31.1893 34.6438 31.7179 38.3683C32.1335 41.2422 32.4749 44.1491 32.6758 47.034C32.7859 48.6196 35.2717 48.6334 35.1533 47.034C34.9964 44.774 34.7404 42.5167 34.4541 40.2705C33.9366 36.2432 33.0309 32.3067 32.4033 28.3042C31.4591 22.2976 31.5775 16.0626 31.7454 10.0038C31.7867 8.40168 31.839 6.79681 31.9271 5.19745C32.0152 3.5981 29.5322 3.6036 29.4496 5.19745H29.4744Z" fill="#3B4549"/>
<path d="M21.0041 7.30328C21.4748 13.3594 22.5842 19.432 23.9909 25.3449C25.1035 30.06 26.5477 34.6907 28.3127 39.2023C29.2156 41.5037 30.1984 43.8628 31.5775 45.9274C32.0069 46.5715 32.5437 47.3753 33.2759 47.7194C34.7267 48.3993 35.7782 46.1503 34.3303 45.4704C34.6331 45.6108 34.4872 45.6521 34.3303 45.4208C34.1073 45.1208 34.4486 45.597 34.1871 45.2667C34.0247 45.0602 33.865 44.8538 33.7164 44.6391C32.4859 42.858 31.6408 40.8017 30.8397 38.8059C27.5392 30.6137 25.4608 21.9755 24.2056 13.2493C23.911 11.2012 23.6413 9.13937 23.4816 7.0748C23.3605 5.48095 20.8857 5.69842 21.0041 7.29777V7.30328Z" fill="#3B4549"/>
<path d="M32.7557 46.9982L32.8906 50.7971C32.9456 52.3909 35.4286 52.3992 35.3681 50.7971L35.2332 46.9955C35.1781 45.4016 32.6924 45.3934 32.7557 46.9955V46.9982Z" fill="#C47D3D"/>
</svg>
