<svg width="60" height="76" viewBox="0 0 60 76" fill="none" xmlns="http://www.w3.org/2000/svg">
<rect width="60" height="76" fill="#F2F0F0"/>
<path d="M3.54056 68H4.54856V59.11H7.78256V58.228H0.320557V59.11H3.54056V68Z" fill="#3B4549"/>
<path d="M7.79535 68H8.73335V64.444C8.73335 62.722 9.68535 61.826 11.1414 61.756V60.79C9.99335 60.832 9.12535 61.462 8.73335 62.47C8.73335 61.672 8.71935 61.168 8.69135 60.958H7.78135C7.78135 61.252 7.79535 61.784 7.79535 62.876V68Z" fill="#3B4549"/>
<path d="M12.4164 68H13.3544V60.958H12.4164V68ZM13.3544 59.138V57.696H12.4164V59.138H13.3544Z" fill="#3B4549"/>
<path d="M20.4773 63.044C20.4773 61.476 19.5533 60.79 17.9013 60.79C15.9133 60.79 15.3813 61.952 15.2973 62.806H16.2213C16.3613 62.246 16.5573 61.574 17.8733 61.574C19.3433 61.574 19.5533 62.428 19.5533 63.1V63.772H18.2793C16.1793 63.772 14.9613 64.472 14.9613 66.04C14.9613 67.104 15.6613 68.168 17.3133 68.168C18.7273 68.168 19.3153 67.482 19.5673 66.992C19.5813 67.51 19.6233 67.832 19.6793 68H20.5753C20.5333 67.79 20.4773 67.202 20.4773 66.572V63.044ZM19.5673 64.724C19.5673 66.138 19.3153 67.384 17.4393 67.384C16.5013 67.384 15.9273 66.81 15.9273 65.984C15.9273 64.878 16.8093 64.486 18.2933 64.486H19.5673V64.724Z" fill="#3B4549"/>
<path d="M22.6977 68H23.6357V64.346C23.6357 62.862 24.1957 61.644 25.7077 61.644C26.8697 61.644 27.3457 62.414 27.3457 63.576V68H28.2837V63.45C28.2837 61.532 27.2057 60.79 25.9177 60.79C24.5037 60.79 23.9297 61.546 23.6357 62.218C23.6497 62.008 23.6217 61.168 23.5937 60.958H22.6837C22.6977 61.504 22.6977 62.12 22.6977 62.736V68Z" fill="#3B4549"/>
<path d="M36.049 62.988C36.049 62.316 36.077 61.28 36.077 60.958H35.195C35.181 61.112 35.153 61.602 35.139 61.966C34.957 61.448 34.369 60.79 32.969 60.79C31.289 60.79 29.945 62.148 29.945 64.486C29.945 66.614 31.163 67.986 32.857 67.986C34.089 67.986 34.761 67.51 35.139 66.656V67.314C35.139 69.022 34.691 70.128 32.955 70.128C31.989 70.128 31.275 69.694 31.037 68.812H30.085C30.239 69.834 30.953 70.94 32.913 70.94C35.083 70.94 36.049 69.708 36.049 67.454V62.988ZM30.925 64.444C30.925 62.876 31.583 61.616 33.067 61.616C34.663 61.616 35.167 62.61 35.167 64.346C35.167 66.054 34.677 67.146 33.025 67.146C31.751 67.146 30.925 66.026 30.925 64.444Z" fill="#3B4549"/>
<path d="M43.6886 60.958H42.7506V64.598C42.7506 66.502 42.1906 67.314 40.7486 67.314C39.4606 67.314 39.1526 66.376 39.1526 65.396V60.958H38.2146V65.606C38.2146 67.678 39.4466 68.168 40.5386 68.168C41.7286 68.168 42.4286 67.664 42.7506 66.852C42.7506 67.37 42.7646 67.818 42.7926 68H43.7026C43.7026 67.664 43.6886 66.628 43.6886 65.942V60.958Z" fill="#3B4549"/>
<path d="M46.8232 68V57.696H45.8852V68H46.8232Z" fill="#3B4549"/>
<path d="M53.946 63.044C53.946 61.476 53.022 60.79 51.37 60.79C49.382 60.79 48.85 61.952 48.766 62.806H49.69C49.83 62.246 50.026 61.574 51.342 61.574C52.812 61.574 53.022 62.428 53.022 63.1V63.772H51.748C49.648 63.772 48.43 64.472 48.43 66.04C48.43 67.104 49.13 68.168 50.782 68.168C52.196 68.168 52.784 67.482 53.036 66.992C53.05 67.51 53.092 67.832 53.148 68H54.044C54.002 67.79 53.946 67.202 53.946 66.572V63.044ZM53.036 64.724C53.036 66.138 52.784 67.384 50.908 67.384C49.97 67.384 49.396 66.81 49.396 65.984C49.396 64.878 50.278 64.486 51.762 64.486H53.036V64.724Z" fill="#3B4549"/>
<path d="M56.1664 68H57.1044V64.444C57.1044 62.722 58.0564 61.826 59.5124 61.756V60.79C58.3644 60.832 57.4964 61.462 57.1044 62.47C57.1044 61.672 57.0904 61.168 57.0624 60.958H56.1524C56.1524 61.252 56.1664 61.784 56.1664 62.876V68Z" fill="#3B4549"/>
<g clip-path="url(#clip0)">
<path d="M29.6948 7C29.6948 12.7911 14.9376 22.7549 14.9997 30.2266C15.0618 37.6982 29.6948 35.6453 29.6948 35.6453C29.6948 35.6453 44.3325 37.6982 44.3946 30.2266C44.4566 22.7549 29.6948 12.7911 29.6948 7Z" fill="#28292E"/>
<path d="M31.5666 55C31.5149 55.0008 31.4636 54.9901 31.4165 54.9686C31.3695 54.9471 31.3278 54.9155 31.2945 54.8759C28.3106 51.448 29.2941 13.1778 29.3227 11.5498C29.3227 11.4549 29.3604 11.3638 29.4276 11.2966C29.4947 11.2295 29.5858 11.1918 29.6808 11.1918C29.7757 11.1918 29.8668 11.2295 29.934 11.2966C30.0011 11.3638 30.0388 11.4549 30.0388 11.5498C29.7476 22.5592 29.4946 51.7153 31.8196 54.3889C31.8664 54.4399 31.8971 54.5035 31.9081 54.5718C31.919 54.64 31.9097 54.7101 31.8812 54.7731C31.8528 54.8361 31.8064 54.8894 31.7479 54.9264C31.6895 54.9633 31.6214 54.9823 31.5523 54.9809L31.5666 55Z" fill="#C3641B"/>
<path d="M29.9194 33.855C29.8723 33.8548 29.8263 33.8406 29.7872 33.8142C29.7481 33.7879 29.7177 33.7506 29.6998 33.707C29.6874 33.6782 29.6809 33.6472 29.6807 33.6159C29.6805 33.5846 29.6865 33.5535 29.6986 33.5245C29.7106 33.4956 29.7283 33.4694 29.7507 33.4474C29.773 33.4254 29.7996 33.4082 29.8287 33.3967C32.3488 32.3138 34.7253 30.9235 36.9041 29.2574C38.155 28.2405 38.9666 27.2714 39.2912 26.3929C39.3017 26.3635 39.3182 26.3365 39.3395 26.3137C39.3608 26.2909 39.3865 26.2726 39.4152 26.2601C39.4438 26.2476 39.4746 26.2411 39.5059 26.2409C39.5371 26.2408 39.568 26.247 39.5968 26.2592C39.6262 26.2698 39.6532 26.2862 39.6762 26.3074C39.6991 26.3287 39.7176 26.3543 39.7305 26.3827C39.7435 26.4112 39.7505 26.442 39.7513 26.4733C39.7521 26.5045 39.7467 26.5357 39.7352 26.5648C39.3533 27.5196 38.4987 28.5747 37.181 29.6489C34.9653 31.3422 32.5487 32.7549 29.9863 33.855C29.9641 33.8587 29.9416 33.8587 29.9194 33.855V33.855Z" fill="#C3641B"/>
<path d="M41.0003 30.3937C40.1839 30.3937 38.1978 30.3221 36.947 29.6823C36.9191 29.6679 36.8943 29.6481 36.874 29.6241C36.8538 29.6001 36.8384 29.5724 36.8289 29.5424C36.8194 29.5125 36.8158 29.481 36.8185 29.4497C36.8211 29.4184 36.8299 29.388 36.8443 29.3601C36.8587 29.3322 36.8785 29.3074 36.9025 29.2871C36.9265 29.2669 36.9543 29.2515 36.9842 29.242C37.0141 29.2325 37.0456 29.2289 37.0769 29.2316C37.1082 29.2342 37.1387 29.243 37.1666 29.2574C38.6275 30.007 41.3202 29.9115 41.3488 29.9115C41.3806 29.9081 41.4128 29.9115 41.4432 29.9215C41.4736 29.9316 41.5014 29.948 41.525 29.9697C41.5485 29.9914 41.5671 30.0179 41.5795 30.0474C41.5919 30.0769 41.5979 30.1087 41.5971 30.1406C41.5983 30.172 41.5934 30.2033 41.5826 30.2327C41.5718 30.2622 41.5552 30.2892 41.534 30.3123C41.5127 30.3353 41.487 30.354 41.4586 30.3671C41.4301 30.3803 41.3993 30.3877 41.3679 30.3889L41.0003 30.3937Z" fill="#C3641B"/>
<path d="M36.2069 33.1627C34.9847 33.1627 33.2517 33.0482 32.4974 32.4752C32.4467 32.4366 32.4135 32.3795 32.405 32.3164C32.3965 32.2532 32.4134 32.1893 32.452 32.1387C32.4906 32.088 32.5478 32.0548 32.6109 32.0463C32.674 32.0378 32.7379 32.0547 32.7886 32.0933C33.6671 32.7808 36.4838 32.7187 37.5103 32.6423C37.5416 32.6402 37.5731 32.6442 37.6029 32.6541C37.6327 32.6641 37.6603 32.6798 37.684 32.7004C37.7077 32.7211 37.7271 32.7461 37.7412 32.7743C37.7552 32.8024 37.7635 32.833 37.7657 32.8643C37.7679 32.8957 37.7639 32.9272 37.7539 32.957C37.744 32.9868 37.7282 33.0143 37.7076 33.038C37.687 33.0618 37.6619 33.0812 37.6338 33.0952C37.6057 33.1092 37.5751 33.1176 37.5437 33.1198C37.4864 33.1198 36.9613 33.1627 36.2069 33.1627Z" fill="#C3641B"/>
<path d="M29.5088 27.5865C29.4595 27.5862 29.4115 27.5706 29.3714 27.5419C29.3312 27.5133 29.301 27.4728 29.2848 27.4263C29.2685 27.3797 29.2671 27.3292 29.2808 27.2818C29.2944 27.2344 29.3223 27.1924 29.3608 27.1616C29.4181 27.1138 35.0899 22.564 35.5196 20.0671C35.5312 20.0048 35.5666 19.9496 35.6183 19.9131C35.67 19.8765 35.7339 19.8616 35.7965 19.8713C35.8584 19.8829 35.9132 19.9186 35.949 19.9704C35.9848 20.0223 35.9986 20.0862 35.9874 20.1482C35.5291 22.8218 29.8955 27.343 29.6568 27.5292C29.6153 27.5643 29.5632 27.5844 29.5088 27.5865V27.5865Z" fill="#C3641B"/>
<path d="M29.5088 21.189C29.4437 21.1871 29.382 21.1596 29.337 21.1126C29.3146 21.0904 29.2968 21.064 29.2847 21.0349C29.2726 21.0058 29.2664 20.9746 29.2664 20.9431C29.2664 20.9116 29.2726 20.8804 29.2847 20.8513C29.2968 20.8222 29.3146 20.7958 29.337 20.7736C30.4764 19.7085 31.5093 18.5349 32.4211 17.2694C32.4372 17.2412 32.4588 17.2166 32.4847 17.1971C32.5105 17.1776 32.5401 17.1635 32.5716 17.1558C32.6031 17.1481 32.6358 17.1468 32.6678 17.1522C32.6997 17.1575 32.7303 17.1693 32.7575 17.1868C32.7848 17.2044 32.8082 17.2273 32.8263 17.2541C32.8445 17.281 32.8569 17.3113 32.863 17.3431C32.869 17.375 32.8685 17.4077 32.8615 17.4393C32.8545 17.471 32.8411 17.5009 32.8221 17.5272C31.8917 18.8284 30.8329 20.0327 29.6616 21.1222C29.6206 21.1624 29.5662 21.1862 29.5088 21.189Z" fill="#C3641B"/>
<path d="M29.5947 16.3288C29.5405 16.3306 29.4876 16.3119 29.4467 16.2763C29.3975 16.2369 29.3659 16.1797 29.3587 16.1171C29.3516 16.0545 29.3695 15.9916 29.4085 15.9421C29.963 15.2309 30.443 14.4646 30.8408 13.6553C30.8715 13.6055 30.9194 13.5688 30.9755 13.552C31.0315 13.5353 31.0918 13.5397 31.1448 13.5644C31.1978 13.5892 31.2398 13.6325 31.263 13.6862C31.2862 13.7399 31.2888 13.8003 31.2704 13.8558C30.8529 14.7013 30.3489 15.5013 29.7666 16.2429C29.7458 16.2688 29.7197 16.2899 29.6901 16.3048C29.6604 16.3196 29.6278 16.3278 29.5947 16.3288V16.3288Z" fill="#C3641B"/>
<path d="M29.5949 33.158H29.5042C26.9007 32.0202 24.4369 30.5865 22.1614 28.8851C20.932 27.9725 19.8555 26.8702 18.9723 25.6195C18.9377 25.5669 18.9254 25.5027 18.9379 25.441C18.9504 25.3793 18.9868 25.3251 19.0391 25.2901C19.0925 25.2553 19.1574 25.2428 19.2198 25.2553C19.2823 25.2678 19.3374 25.3043 19.3733 25.3569C20.2255 26.5672 21.2649 27.6341 22.4527 28.5175C24.6932 30.1926 27.1224 31.5995 29.6904 32.7092C29.7476 32.7345 29.793 32.7808 29.817 32.8386C29.841 32.8964 29.8418 32.9612 29.8193 33.0195C29.7996 33.0621 29.7679 33.0979 29.7279 33.1226C29.688 33.1472 29.6418 33.1595 29.5949 33.158Z" fill="#C3641B"/>
<path d="M18.3801 30.0261C18.3168 30.0261 18.256 30.0009 18.2113 29.9561C18.1665 29.9114 18.1414 29.8507 18.1414 29.7873C18.1414 29.724 18.1665 29.6633 18.2113 29.6185C18.256 29.5738 18.3168 29.5486 18.3801 29.5486C19.7112 29.4505 21.0095 29.0886 22.1994 28.484C22.2558 28.4542 22.3216 28.4481 22.3825 28.4669C22.4434 28.4857 22.4943 28.5279 22.5241 28.5842C22.5538 28.6406 22.56 28.7064 22.5412 28.7673C22.5224 28.8282 22.4802 28.8791 22.4238 28.9089C21.1677 29.5482 19.7957 29.9281 18.3896 30.0261H18.3801Z" fill="#C3641B"/>
<path d="M23.5173 33.1198C23.4623 33.1198 23.4089 33.1008 23.3663 33.066C23.3237 33.0312 23.2944 32.9827 23.2834 32.9288C23.2705 32.8674 23.2824 32.8035 23.3163 32.7508C23.3503 32.6981 23.4036 32.6609 23.4648 32.6471C23.4886 32.6471 25.575 32.1936 26.3627 31.2722C26.3831 31.2483 26.408 31.2288 26.4359 31.2145C26.4639 31.2003 26.4943 31.1918 26.5256 31.1893C26.5568 31.1869 26.5883 31.1906 26.6181 31.2003C26.6479 31.21 26.6755 31.2255 26.6993 31.2459C26.7231 31.2663 26.7427 31.2911 26.7569 31.3191C26.7711 31.347 26.7797 31.3775 26.7821 31.4088C26.7846 31.44 26.7808 31.4714 26.7711 31.5012C26.7614 31.5311 26.7459 31.5587 26.7256 31.5825C25.8328 32.628 23.6557 33.0911 23.565 33.1102L23.5173 33.1198Z" fill="#C3641B"/>
<path d="M29.5087 27.5864C29.474 27.593 29.4384 27.593 29.4037 27.5864C25.5032 25.6194 22.5575 21.6329 22.5288 21.5948C22.4926 21.5431 22.4778 21.4794 22.4876 21.417C22.4974 21.3547 22.531 21.2986 22.5813 21.2606C22.6065 21.2414 22.6352 21.2275 22.6659 21.2197C22.6965 21.2119 22.7284 21.2105 22.7597 21.2154C22.7909 21.2203 22.8208 21.2315 22.8476 21.2483C22.8744 21.265 22.8975 21.2871 22.9155 21.3131C22.9442 21.3513 25.8039 25.2232 29.5994 27.1328C29.6548 27.1624 29.6966 27.2121 29.7162 27.2717C29.7357 27.3313 29.7315 27.3961 29.7045 27.4527C29.6863 27.4901 29.6587 27.5221 29.6244 27.5456C29.59 27.569 29.5502 27.5831 29.5087 27.5864Z" fill="#C3641B"/>
<path d="M29.5947 21.6903C29.5469 21.6894 29.5004 21.6744 29.4611 21.6473C27.7805 20.511 25.4364 17.489 25.3361 17.3505C25.3165 17.326 25.3019 17.2977 25.2934 17.2674C25.2849 17.2372 25.2826 17.2055 25.2866 17.1743C25.2906 17.1431 25.3009 17.113 25.3167 17.0859C25.3326 17.0587 25.3539 17.0351 25.3791 17.0163C25.4036 16.9966 25.4319 16.9821 25.4622 16.9736C25.4925 16.9651 25.5241 16.9627 25.5553 16.9668C25.5865 16.9708 25.6166 16.981 25.6437 16.9969C25.6709 17.0128 25.6945 17.034 25.7133 17.0593C25.7133 17.0879 28.1004 20.1482 29.7284 21.2463C29.7807 21.2813 29.8171 21.3355 29.8297 21.3972C29.8422 21.4589 29.8298 21.5231 29.7953 21.5757C29.7736 21.6096 29.7441 21.6378 29.7091 21.6577C29.6742 21.6777 29.6349 21.6889 29.5947 21.6903V21.6903Z" fill="#C3641B"/>
<path d="M29.5947 16.706C29.5469 16.7051 29.5004 16.6902 29.4611 16.663C28.8886 16.123 28.3631 15.5352 27.8903 14.9061C27.6803 14.6579 27.4654 14.3953 27.4129 14.3571C27.3689 14.3117 27.3442 14.2509 27.3442 14.1876C27.3442 14.1243 27.3689 14.0636 27.4129 14.0181C27.4575 13.9744 27.5175 13.9499 27.58 13.9499C27.6425 13.9499 27.7025 13.9744 27.7471 14.0181C27.8092 14.0706 27.9285 14.2186 28.2675 14.6245C28.7276 15.2113 29.2269 15.7664 29.7618 16.2859C29.8058 16.3142 29.8393 16.3562 29.8571 16.4055C29.8749 16.4547 29.876 16.5084 29.8602 16.5583C29.8445 16.6083 29.8128 16.6516 29.77 16.6818C29.7272 16.7119 29.6757 16.7271 29.6234 16.7251L29.5947 16.706Z" fill="#C3641B"/>
</g>
<defs>
<clipPath id="clip0">
<rect width="29.3949" height="48" fill="white" transform="translate(15 7)"/>
</clipPath>
</defs>
</svg>
