<svg width="60" height="76" viewBox="0 0 60 76" fill="none" xmlns="http://www.w3.org/2000/svg">
<path d="M0 0H60V76H0V0Z" fill="#F2F0F0"/>
<path d="M20.8945 71H19.7324V62.0381H16.5674V61.0059H24.0596V62.0381H20.8945V71Z" fill="#3B4549"/>
<path d="M31.5176 71L30.1436 66.6045C30.057 66.3356 29.8952 65.7249 29.6582 64.7725H29.6035C29.4212 65.57 29.2617 66.1852 29.125 66.6182L27.71 71H26.3975L24.3535 63.5078H25.543C26.026 65.39 26.3929 66.8232 26.6436 67.8076C26.8988 68.792 27.0446 69.4551 27.0811 69.7969H27.1357C27.1859 69.5371 27.2656 69.2021 27.375 68.792C27.4889 68.3773 27.5869 68.0492 27.6689 67.8076L29.043 63.5078H30.2734L31.6133 67.8076C31.8685 68.5915 32.0417 69.25 32.1328 69.7832H32.1875C32.2057 69.6191 32.2536 69.3662 32.3311 69.0244C32.4131 68.6826 32.8893 66.8438 33.7598 63.5078H34.9355L32.8643 71H31.5176Z" fill="#3B4549"/>
<path d="M42.7627 67.2471C42.7627 68.4684 42.4551 69.4232 41.8398 70.1113C41.2246 70.7949 40.3747 71.1367 39.29 71.1367C38.6201 71.1367 38.0254 70.9795 37.5059 70.665C36.9863 70.3506 36.5853 69.8994 36.3027 69.3115C36.0202 68.7236 35.8789 68.0355 35.8789 67.2471C35.8789 66.0257 36.1842 65.0755 36.7949 64.3965C37.4056 63.7129 38.2533 63.3711 39.3379 63.3711C40.3861 63.3711 41.2178 63.7197 41.833 64.417C42.4528 65.1143 42.7627 66.0576 42.7627 67.2471ZM37.0547 67.2471C37.0547 68.2041 37.2461 68.9333 37.6289 69.4346C38.0117 69.9359 38.5745 70.1865 39.3174 70.1865C40.0602 70.1865 40.623 69.9382 41.0059 69.4414C41.3932 68.9401 41.5869 68.2087 41.5869 67.2471C41.5869 66.2946 41.3932 65.5723 41.0059 65.0801C40.623 64.5833 40.0557 64.335 39.3037 64.335C38.5609 64.335 38.0003 64.5788 37.6221 65.0664C37.2438 65.554 37.0547 66.2809 37.0547 67.2471Z" fill="#3B4549"/>
<g clip-path="url(#clip0)">
<path d="M32.8173 6.75337C32.129 11.883 31.3635 17.0924 31.2369 22.2715C31.124 26.9523 30.7881 31.6331 30.2952 36.3139C29.9318 39.7666 29.6372 43.4066 28.5248 46.7162C28.0154 48.2361 30.4136 48.8886 30.9202 47.377C31.906 44.4501 32.2116 41.2507 32.5723 38.1999C32.9853 34.7637 33.2606 31.3164 33.5084 27.8664C33.8333 23.2738 33.8994 18.6866 34.4088 14.0829C34.6786 11.6361 34.976 9.19288 35.3009 6.75337C35.5129 5.17292 33.0266 5.18944 32.8228 6.75337H32.8173Z" fill="#3B4549"/>
<path d="M25.2566 5.19773C25.028 9.31131 24.962 13.4442 25.0198 17.566C25.0329 20.8063 25.2213 24.0435 25.5842 27.2635C26.044 30.9971 26.9802 34.6508 27.5116 38.3762C27.9301 41.2507 28.2715 44.1583 28.4725 47.0439C28.5827 48.6298 31.0662 48.6436 30.9506 47.0439C30.7936 44.7833 30.5403 42.5256 30.2512 40.2788C29.7363 36.2506 28.8305 32.3132 28.2027 28.3098C27.2583 22.3018 27.3767 16.0654 27.5446 10.0052C27.5997 8.40544 27.652 6.79745 27.7539 5.19773C27.8558 3.598 25.3584 3.60351 25.2758 5.19773H25.2566Z" fill="#3B4549"/>
<path d="M28.5247 46.7135L27.7786 50.4444C27.4674 52.0055 29.8601 52.6746 30.174 51.1052L30.9202 47.3743C31.2341 45.8131 28.8386 45.1441 28.5247 46.7135Z" fill="#C47D3D"/>
</g>
<defs>
<clipPath id="clip0">
<path d="M6 4H54V52H6V4Z" fill="white"/>
</clipPath>
</defs>
</svg>
