<svg width="60" height="40" viewBox="0 0 60 40" fill="none" xmlns="http://www.w3.org/2000/svg">
<path d="M0 0H60V40H0V0Z" fill="#F2F0F0"/>
<path d="M21.1406 33H19.9922L17.9756 26.3076C17.8799 26.0114 17.7728 25.6377 17.6543 25.1865C17.5358 24.7354 17.4743 24.4642 17.4697 24.373C17.3695 24.9746 17.21 25.6331 16.9912 26.3486L15.0361 33H13.8877L11.2285 23.0059H12.459L14.0381 29.1787C14.2568 30.0446 14.4163 30.8285 14.5166 31.5303C14.6396 30.6963 14.8219 29.8805 15.0635 29.083L16.8545 23.0059H18.085L19.9648 29.1377C20.1836 29.8441 20.3682 30.6416 20.5186 31.5303C20.6051 30.8831 20.7692 30.0947 21.0107 29.165L22.583 23.0059H23.8135L21.1406 33Z" fill="#3B4549"/>
<path d="M30.335 33V28.1533C30.335 27.5426 30.196 27.0869 29.918 26.7861C29.64 26.4854 29.2048 26.335 28.6123 26.335C27.8239 26.335 27.2474 26.5492 26.8828 26.9775C26.5228 27.4059 26.3428 28.1077 26.3428 29.083V33H25.208V22.3633H26.3428V25.583C26.3428 25.9704 26.3245 26.2917 26.2881 26.5469H26.3564C26.5798 26.1868 26.8965 25.9043 27.3066 25.6992C27.7214 25.4896 28.193 25.3848 28.7217 25.3848C29.6377 25.3848 30.3236 25.6035 30.7793 26.041C31.2396 26.474 31.4697 27.1644 31.4697 28.1123V33H30.335Z" fill="#3B4549"/>
<path d="M34.9424 33H33.8076V25.5078H34.9424V33ZM33.7119 23.4775C33.7119 23.2178 33.7757 23.0286 33.9033 22.9102C34.0309 22.7871 34.1904 22.7256 34.3818 22.7256C34.5641 22.7256 34.7214 22.7871 34.8535 22.9102C34.9857 23.0332 35.0518 23.2223 35.0518 23.4775C35.0518 23.7327 34.9857 23.9242 34.8535 24.0518C34.7214 24.1748 34.5641 24.2363 34.3818 24.2363C34.1904 24.2363 34.0309 24.1748 33.9033 24.0518C33.7757 23.9242 33.7119 23.7327 33.7119 23.4775Z" fill="#3B4549"/>
<path d="M39.7686 32.2002C39.9691 32.2002 40.1628 32.1865 40.3496 32.1592C40.5365 32.1273 40.6846 32.0954 40.7939 32.0635V32.9316C40.6709 32.9909 40.4886 33.0387 40.2471 33.0752C40.0101 33.1162 39.7959 33.1367 39.6045 33.1367C38.1553 33.1367 37.4307 32.3734 37.4307 30.8467V26.3896H36.3574V25.8428L37.4307 25.3711L37.9092 23.7715H38.5654V25.5078H40.7393V26.3896H38.5654V30.7988C38.5654 31.25 38.6725 31.5964 38.8867 31.8379C39.1009 32.0794 39.3949 32.2002 39.7686 32.2002Z" fill="#3B4549"/>
<path d="M45.4629 33.1367C44.3555 33.1367 43.4805 32.7995 42.8379 32.125C42.1999 31.4505 41.8809 30.514 41.8809 29.3154C41.8809 28.1077 42.1771 27.1484 42.7695 26.4375C43.3665 25.7266 44.1663 25.3711 45.1689 25.3711C46.1077 25.3711 46.8506 25.681 47.3975 26.3008C47.9443 26.916 48.2178 27.7295 48.2178 28.7412V29.459H43.0566C43.0794 30.3385 43.3005 31.0062 43.7197 31.4619C44.1436 31.9176 44.7383 32.1455 45.5039 32.1455C46.3105 32.1455 47.1081 31.9769 47.8965 31.6396V32.6514C47.4954 32.8245 47.1149 32.9476 46.7549 33.0205C46.3994 33.098 45.9688 33.1367 45.4629 33.1367ZM45.1553 26.3213C44.5537 26.3213 44.0729 26.5173 43.7129 26.9092C43.3574 27.3011 43.1478 27.8434 43.084 28.5361H47.001C47.001 27.8206 46.8415 27.2738 46.5225 26.8955C46.2034 26.5127 45.7477 26.3213 45.1553 26.3213Z" fill="#3B4549"/>
<path d="M4 4H56V16H4V4Z" fill="white"/>
</svg>
