<svg width="60" height="76" viewBox="0 0 60 76" fill="none" xmlns="http://www.w3.org/2000/svg">
<path d="M0 0H60V76H0V0Z" fill="#F2F0F0"/>
<path d="M12.2334 69H11.085L9.06836 62.3076C8.97266 62.0114 8.86556 61.6377 8.74707 61.1865C8.62858 60.7354 8.56706 60.4642 8.5625 60.373C8.46224 60.9746 8.30273 61.6331 8.08398 62.3486L6.12891 69H4.98047L2.32129 59.0059H3.55176L5.13086 65.1787C5.34961 66.0446 5.50911 66.8285 5.60938 67.5303C5.73242 66.6963 5.91471 65.8805 6.15625 65.083L7.94727 59.0059H9.17773L11.0576 65.1377C11.2764 65.8441 11.4609 66.6416 11.6113 67.5303C11.6979 66.8831 11.862 66.0947 12.1035 65.165L13.6758 59.0059H14.9062L12.2334 69Z" fill="#3B4549"/>
<path d="M21.4277 69V64.1533C21.4277 63.5426 21.2887 63.0869 21.0107 62.7861C20.7327 62.4854 20.2975 62.335 19.7051 62.335C18.9167 62.335 18.3402 62.5492 17.9756 62.9775C17.6156 63.4059 17.4355 64.1077 17.4355 65.083V69H16.3008V58.3633H17.4355V61.583C17.4355 61.9704 17.4173 62.2917 17.3809 62.5469H17.4492C17.6725 62.1868 17.9893 61.9043 18.3994 61.6992C18.8141 61.4896 19.2858 61.3848 19.8145 61.3848C20.7305 61.3848 21.4163 61.6035 21.8721 62.041C22.3324 62.474 22.5625 63.1644 22.5625 64.1123V69H21.4277Z" fill="#3B4549"/>
<path d="M31.3672 65.2471C31.3672 66.4684 31.0596 67.4232 30.4443 68.1113C29.8291 68.7949 28.9792 69.1367 27.8945 69.1367C27.2246 69.1367 26.6299 68.9795 26.1104 68.665C25.5908 68.3506 25.1898 67.8994 24.9072 67.3115C24.6247 66.7236 24.4834 66.0355 24.4834 65.2471C24.4834 64.0257 24.7887 63.0755 25.3994 62.3965C26.0101 61.7129 26.8577 61.3711 27.9424 61.3711C28.9906 61.3711 29.8223 61.7197 30.4375 62.417C31.0573 63.1143 31.3672 64.0576 31.3672 65.2471ZM25.6592 65.2471C25.6592 66.2041 25.8506 66.9333 26.2334 67.4346C26.6162 67.9359 27.179 68.1865 27.9219 68.1865C28.6647 68.1865 29.2275 67.9382 29.6104 67.4414C29.9977 66.9401 30.1914 66.2087 30.1914 65.2471C30.1914 64.2946 29.9977 63.5723 29.6104 63.0801C29.2275 62.5833 28.6602 62.335 27.9082 62.335C27.1654 62.335 26.6048 62.5788 26.2266 63.0664C25.8483 63.554 25.6592 64.2809 25.6592 65.2471Z" fill="#3B4549"/>
<path d="M36.7812 61.3711C37.1139 61.3711 37.4124 61.3984 37.6768 61.4531L37.5195 62.5059C37.2096 62.4375 36.9362 62.4033 36.6992 62.4033C36.0931 62.4033 35.5736 62.6494 35.1406 63.1416C34.7122 63.6338 34.498 64.2467 34.498 64.9805V69H33.3633V61.5078H34.2998L34.4297 62.8955H34.4844C34.7624 62.4079 35.0973 62.0319 35.4893 61.7676C35.8812 61.5033 36.3118 61.3711 36.7812 61.3711Z" fill="#3B4549"/>
<path d="M40.2129 69H39.0781V58.3633H40.2129V69Z" fill="#3B4549"/>
<path d="M45.7842 69.1367C44.6768 69.1367 43.8018 68.7995 43.1592 68.125C42.5212 67.4505 42.2021 66.514 42.2021 65.3154C42.2021 64.1077 42.4984 63.1484 43.0908 62.4375C43.6878 61.7266 44.4876 61.3711 45.4902 61.3711C46.429 61.3711 47.1719 61.681 47.7188 62.3008C48.2656 62.916 48.5391 63.7295 48.5391 64.7412V65.459H43.3779C43.4007 66.3385 43.6217 67.0062 44.041 67.4619C44.4648 67.9176 45.0596 68.1455 45.8252 68.1455C46.6318 68.1455 47.4294 67.9769 48.2178 67.6396V68.6514C47.8167 68.8245 47.4362 68.9476 47.0762 69.0205C46.7207 69.098 46.29 69.1367 45.7842 69.1367ZM45.4766 62.3213C44.875 62.3213 44.3942 62.5173 44.0342 62.9092C43.6787 63.3011 43.4691 63.8434 43.4053 64.5361H47.3223C47.3223 63.8206 47.1628 63.2738 46.8438 62.8955C46.5247 62.5127 46.069 62.3213 45.4766 62.3213Z" fill="#3B4549"/>
<path d="M55.5801 67.9951H55.5186C54.9945 68.7562 54.2106 69.1367 53.167 69.1367C52.1872 69.1367 51.4238 68.8018 50.877 68.1318C50.3346 67.4619 50.0635 66.5094 50.0635 65.2744C50.0635 64.0394 50.3369 63.0801 50.8838 62.3965C51.4307 61.7129 52.1917 61.3711 53.167 61.3711C54.1833 61.3711 54.9626 61.7402 55.5049 62.4785H55.5938L55.5459 61.9385L55.5186 61.4121V58.3633H56.6533V69H55.7305L55.5801 67.9951ZM53.3105 68.1865C54.0853 68.1865 54.6458 67.9769 54.9922 67.5576C55.3431 67.1338 55.5186 66.4525 55.5186 65.5137V65.2744C55.5186 64.2126 55.3408 63.4561 54.9854 63.0049C54.6344 62.5492 54.0716 62.3213 53.2969 62.3213C52.6315 62.3213 52.1211 62.5811 51.7656 63.1006C51.4147 63.6156 51.2393 64.3447 51.2393 65.2881C51.2393 66.2451 51.4147 66.9674 51.7656 67.4551C52.1165 67.9427 52.6315 68.1865 53.3105 68.1865Z" fill="#3B4549"/>
<path d="M30.9059 26.6759C30.9059 26.6759 31.9562 24.0312 34.9176 24.7025C37.879 25.3739 37.7383 26.8681 38.7886 27.0468C38.7886 27.0468 35.2885 26.7598 34.4033 27.9726C33.5181 29.1853 30.9059 29.0039 30.9059 29.0039V26.6759Z" fill="#3B4549"/>
<path d="M28.8215 11.7091C28.8215 11.7091 29.4793 9.39462 32.0158 9.90082C34.5522 10.407 35.321 12.5888 36.106 12.2261C36.106 12.2261 30.979 14.2699 28.8215 13.4009C26.6641 12.532 28.8215 11.7091 28.8215 11.7091Z" fill="#3B4549"/>
<path d="M30.3293 27.1713C30.3293 27.1713 30.1209 24.6186 26.9348 25.3847C26.9348 25.3847 24.7935 25.5309 24.2576 24.8704C24.2576 24.8704 25.9873 29.4722 29.8962 28.6168C33.8051 27.7614 30.3293 27.1713 30.3293 27.1713Z" fill="#3B4549"/>
<path d="M27.6846 8.49317C27.6846 8.49317 27.1568 4.3867 29.9855 4.0375C32.8143 3.6883 30.8626 5.88907 29.9855 6.04066C29.1085 6.19225 28.5779 7.21819 28.8215 9.19157C29.0652 11.165 31.2037 16.4517 30.9059 23.6089C30.6081 30.7661 30.7733 43.9788 30.7733 43.9788C30.7733 43.9788 30.2617 48.2829 33.3151 50.4756C36.3686 52.6682 29.1085 51.8291 29.1085 51.8291C29.1085 51.8291 30.0126 50.3781 29.3115 47.0756C28.6104 43.7731 29.612 27.4528 29.3602 22.047C29.1085 16.6412 28.9082 16.3001 27.6846 8.49317Z" fill="#C47D3D"/>
<path d="M28.9434 42.5928C28.9434 42.5928 29.7853 40.2838 26.6723 40.0266C23.5592 39.7695 23.0449 39.1902 23.0449 39.1902C23.0449 39.1902 23.1532 41.9757 26.5992 42.8175C30.0451 43.6594 28.9434 42.5928 28.9434 42.5928Z" fill="#3B4549"/>
<path d="M29.8502 43.137C29.8502 43.137 31.718 42.0055 31.8669 44.3145C32.0158 46.6235 30.3347 47.3923 29.8502 49.6987C29.8502 49.6987 28.3478 46.8428 27.5439 45.0102C26.7399 43.1776 28.3938 41.7754 29.8502 43.137Z" fill="#3B4549"/>
<path d="M30.7733 40.5031C30.7733 40.5031 32.3488 38.416 35.2804 39.442C36.1841 40.1118 37.1537 40.6877 38.1742 41.1609C38.1742 41.1609 35.7568 41.1988 34.1462 42.2978C33.1427 42.9639 31.9766 43.3438 30.7733 43.3969V40.5031Z" fill="#3B4549"/>
<path d="M29.4442 27.3553C29.4442 27.3553 32.7981 28.0754 32.2215 29.7429C31.6449 31.4104 29.9801 32.5419 28.7674 34.9078C28.7674 34.9078 25.9251 27.6856 29.4442 27.3553Z" fill="#3B4549"/>
<path d="M28.808 13.4009C28.808 13.4009 26.7642 11.9175 26.5396 14.2428C26.3149 16.5681 28.2477 18.2762 28.808 20.2414C28.808 20.2414 30.0126 17.7185 30.8815 15.3933C31.7505 13.068 30.0695 12.1693 28.808 13.4009Z" fill="#3B4549"/>
<path d="M28.226 11.7199C28.226 11.7199 27.7983 10.4964 25.0832 10.6831C22.3681 10.8699 22 9.90082 22 9.90082C22 9.90082 23.2614 13.6256 26.0334 13.5146C28.8053 13.4036 28.226 11.7199 28.226 11.7199Z" fill="#3B4549"/>
</svg>
