<svg width="60" height="40" viewBox="0 0 60 40" fill="none" xmlns="http://www.w3.org/2000/svg">
<path d="M0 0H60V40H0V0Z" fill="#F2F0F0"/>
<path d="M13.3418 28.0029L16.0078 23.0059H17.2656L13.9297 29.124V33H12.7539V29.1787L9.4248 23.0059H10.6963L13.3418 28.0029Z" fill="#3B4549"/>
<path d="M21.6406 33.1367C20.5332 33.1367 19.6582 32.7995 19.0156 32.125C18.3776 31.4505 18.0586 30.514 18.0586 29.3154C18.0586 28.1077 18.3548 27.1484 18.9473 26.4375C19.5443 25.7266 20.3441 25.3711 21.3467 25.3711C22.2855 25.3711 23.0283 25.681 23.5752 26.3008C24.1221 26.916 24.3955 27.7295 24.3955 28.7412V29.459H19.2344C19.2572 30.3385 19.4782 31.0062 19.8975 31.4619C20.3213 31.9176 20.916 32.1455 21.6816 32.1455C22.4883 32.1455 23.2858 31.9769 24.0742 31.6396V32.6514C23.6732 32.8245 23.2926 32.9476 22.9326 33.0205C22.5771 33.098 22.1465 33.1367 21.6406 33.1367ZM21.333 26.3213C20.7314 26.3213 20.2507 26.5173 19.8906 26.9092C19.5352 27.3011 19.3255 27.8434 19.2617 28.5361H23.1787C23.1787 27.8206 23.0192 27.2738 22.7002 26.8955C22.3812 26.5127 21.9255 26.3213 21.333 26.3213Z" fill="#3B4549"/>
<path d="M27.4717 33H26.3369V22.3633H27.4717V33Z" fill="#3B4549"/>
<path d="M31.0127 33H29.8779V22.3633H31.0127V33Z" fill="#3B4549"/>
<path d="M39.8857 29.2471C39.8857 30.4684 39.5781 31.4232 38.9629 32.1113C38.3477 32.7949 37.4977 33.1367 36.4131 33.1367C35.7432 33.1367 35.1484 32.9795 34.6289 32.665C34.1094 32.3506 33.7083 31.8994 33.4258 31.3115C33.1432 30.7236 33.002 30.0355 33.002 29.2471C33.002 28.0257 33.3073 27.0755 33.918 26.3965C34.5286 25.7129 35.3763 25.3711 36.4609 25.3711C37.5091 25.3711 38.3408 25.7197 38.9561 26.417C39.5758 27.1143 39.8857 28.0576 39.8857 29.2471ZM34.1777 29.2471C34.1777 30.2041 34.3691 30.9333 34.752 31.4346C35.1348 31.9359 35.6976 32.1865 36.4404 32.1865C37.1833 32.1865 37.7461 31.9382 38.1289 31.4414C38.5163 30.9401 38.71 30.2087 38.71 29.2471C38.71 28.2946 38.5163 27.5723 38.1289 27.0801C37.7461 26.5833 37.1787 26.335 36.4268 26.335C35.6839 26.335 35.1234 26.5788 34.7451 27.0664C34.3669 27.554 34.1777 28.2809 34.1777 29.2471Z" fill="#3B4549"/>
<path d="M48 33L46.626 28.6045C46.5394 28.3356 46.3776 27.7249 46.1406 26.7725H46.0859C45.9036 27.57 45.7441 28.1852 45.6074 28.6182L44.1924 33H42.8799L40.8359 25.5078H42.0254C42.5085 27.39 42.8753 28.8232 43.126 29.8076C43.3812 30.792 43.527 31.4551 43.5635 31.7969H43.6182C43.6683 31.5371 43.748 31.2021 43.8574 30.792C43.9714 30.3773 44.0693 30.0492 44.1514 29.8076L45.5254 25.5078H46.7559L48.0957 29.8076C48.3509 30.5915 48.5241 31.25 48.6152 31.7832H48.6699C48.6882 31.6191 48.736 31.3662 48.8135 31.0244C48.8955 30.6826 49.3717 28.8438 50.2422 25.5078H51.418L49.3467 33H48Z" fill="#3B4549"/>
<path d="M4 4H56V16H4V4Z" fill="#E7CB56"/>
</svg>
